<svg viewBox="0 0 330 200" xmlns="http://www.w3.org/2000/svg"><g><g><g><g><g><line x1="50" y1="177" x2="45" y2="177" style="visibility: inherit;" fill="rgb(0, 0, 0)" stroke="rgb(204, 204, 204)" stroke-width="1px"></line><line x1="50" y1="160.9090909090909" x2="45" y2="160.9090909090909" style="visibility: inherit;" fill="rgb(0, 0, 0)" stroke="rgb(204, 204, 204)" stroke-width="1px"></line><line x1="50" y1="144.8181818181818" x2="45" y2="144.8181818181818" style="visibility: inherit;" fill="rgb(0, 0, 0)" stroke="rgb(204, 204, 204)" stroke-width="1px"></line><line x1="50" y1="128.72727272727272" x2="45" y2="128.72727272727272" style="visibility: inherit;" fill="rgb(0, 0, 0)" stroke="rgb(204, 204, 204)" stroke-width="1px"></line><line x1="50" y1="112.63636363636364" x2="45" y2="112.63636363636364" style="visibility: inherit;" fill="rgb(0, 0, 0)" stroke="rgb(204, 204, 204)" stroke-width="1px"></line><line x1="50" y1="96.54545454545453" x2="45" y2="96.54545454545453" style="visibility: inherit;" fill="rgb(0, 0, 0)" stroke="rgb(204, 204, 204)" stroke-width="1px"></line><line x1="50" y1="80.45454545454547" x2="45" y2="80.45454545454547" style="visibility: inherit;" fill="rgb(0, 0, 0)" stroke="rgb(204, 204, 204)" stroke-width="1px"></line><line x1="50" y1="64.36363636363636" x2="45" y2="64.36363636363636" style="visibility: inherit;" fill="rgb(0, 0, 0)" stroke="rgb(204, 204, 204)" stroke-width="1px"></line><line x1="50" y1="48.272727272727266" x2="45" y2="48.272727272727266" style="visibility: inherit;" fill="rgb(0, 0, 0)" stroke="rgb(204, 204, 204)" stroke-width="1px"></line><line x1="50" y1="32.18181818181817" x2="45" y2="32.18181818181817" style="visibility: inherit;" fill="rgb(0, 0, 0)" stroke="rgb(204, 204, 204)" stroke-width="1px"></line><line x1="50" y1="16.090909090909097" x2="45" y2="16.090909090909097" style="visibility: inherit;" fill="rgb(0, 0, 0)" stroke="rgb(204, 204, 204)" stroke-width="1px"></line><line x1="50" y1="0" x2="45" y2="0" style="visibility: inherit;" fill="rgb(0, 0, 0)" stroke="rgb(204, 204, 204)" stroke-width="1px"></line></g><g transform="translate(40, 0)"><text x="0" y="177" dx="0em" dy="0.3em" style="text-anchor: end; visibility: hidden; font-family: Roboto, sans-serif; font-size: 12px; font-weight: 200;" fill="rgb(33, 33, 33)" stroke="none" stroke-width="1px">23.5</text><text x="0" y="160.9090909090909" dx="0em" dy="0.3em" style="text-anchor: end; visibility: inherit; font-family: Roboto, sans-serif; font-size: 12px; font-weight: 200;" fill="rgb(33, 33, 33)" stroke="none" stroke-width="1px">24</text><text x="0" y="144.8181818181818" dx="0em" dy="0.3em" style="text-anchor: end; visibility: hidden; font-family: Roboto, sans-serif; font-size: 12px; font-weight: 200;" fill="rgb(33, 33, 33)" stroke="none" stroke-width="1px">24.5</text><text x="0" y="128.72727272727272" dx="0em" dy="0.3em" style="text-anchor: end; visibility: inherit; font-family: Roboto, sans-serif; font-size: 12px; font-weight: 200;" fill="rgb(33, 33, 33)" stroke="none" stroke-width="1px">25</text><text x="0" y="112.63636363636364" dx="0em" dy="0.3em" style="text-anchor: end; visibility: hidden; font-family: Roboto, sans-serif; font-size: 12px; font-weight: 200;" fill="rgb(33, 33, 33)" stroke="none" stroke-width="1px">25.5</text><text x="0" y="96.54545454545453" dx="0em" dy="0.3em" style="text-anchor: end; visibility: inherit; font-family: Roboto, sans-serif; font-size: 12px; font-weight: 200;" fill="rgb(33, 33, 33)" stroke="none" stroke-width="1px">26</text><text x="0" y="80.45454545454547" dx="0em" dy="0.3em" style="text-anchor: end; visibility: hidden; font-family: Roboto, sans-serif; font-size: 12px; font-weight: 200;" fill="rgb(33, 33, 33)" stroke="none" stroke-width="1px">26.5</text><text x="0" y="64.36363636363636" dx="0em" dy="0.3em" style="text-anchor: end; visibility: inherit; font-family: Roboto, sans-serif; font-size: 12px; font-weight: 200;" fill="rgb(33, 33, 33)" stroke="none" stroke-width="1px">27</text><text x="0" y="48.272727272727266" dx="0em" dy="0.3em" style="text-anchor: end; visibility: hidden; font-family: Roboto, sans-serif; font-size: 12px; font-weight: 200;" fill="rgb(33, 33, 33)" stroke="none" stroke-width="1px">27.5</text><text x="0" y="32.18181818181817" dx="0em" dy="0.3em" style="text-anchor: end; visibility: inherit; font-family: Roboto, sans-serif; font-size: 12px; font-weight: 200;" fill="rgb(33, 33, 33)" stroke="none" stroke-width="1px">28</text><text x="0" y="16.090909090909097" dx="0em" dy="0.3em" style="text-anchor: end; visibility: hidden; font-family: Roboto, sans-serif; font-size: 12px; font-weight: 200;" fill="rgb(33, 33, 33)" stroke="none" stroke-width="1px">28.5</text><text x="0" y="0" dx="0em" dy="0.3em" style="text-anchor: end; visibility: hidden; font-family: Roboto, sans-serif; font-size: 12px; font-weight: 200;" fill="rgb(33, 33, 33)" stroke="none" stroke-width="1px">29</text></g><line x1="50" y1="0" x2="50" y2="177" fill="rgb(0, 0, 0)" stroke="rgb(204, 204, 204)" stroke-width="1px"></line></g></g><g transform="translate(50, 0)" clip-path="url(#clip_0)"><clipPath id="clip_0"><rect width="280" height="177"></rect></clipPath><g><g><g><line x1="0" y1="0" x2="0" y2="177" fill="rgb(0, 0, 0)" stroke="rgb(66, 66, 66)" stroke-width="1px" opacity="0.25"></line><line x1="23.333333333333332" y1="0" x2="23.333333333333332" y2="177" fill="rgb(0, 0, 0)" stroke="rgb(66, 66, 66)" stroke-width="1px" opacity="0.25"></line><line x1="46.666666666666664" y1="0" x2="46.666666666666664" y2="177" fill="rgb(0, 0, 0)" stroke="rgb(66, 66, 66)" stroke-width="1px" opacity="0.25"></line><line x1="70" y1="0" x2="70" y2="177" fill="rgb(0, 0, 0)" stroke="rgb(66, 66, 66)" stroke-width="1px" opacity="0.25"></line><line x1="93.33333333333333" y1="0" x2="93.33333333333333" y2="177" fill="rgb(0, 0, 0)" stroke="rgb(66, 66, 66)" stroke-width="1px" opacity="0.25"></line><line x1="116.66666666666667" y1="0" x2="116.66666666666667" y2="177" fill="rgb(0, 0, 0)" stroke="rgb(66, 66, 66)" stroke-width="1px" opacity="0.25"></line><line x1="140" y1="0" x2="140" y2="177" fill="rgb(0, 0, 0)" stroke="rgb(66, 66, 66)" stroke-width="1px" opacity="0.25"></line><line x1="163.33333333333334" y1="0" x2="163.33333333333334" y2="177" fill="rgb(0, 0, 0)" stroke="rgb(66, 66, 66)" stroke-width="1px" opacity="0.25"></line><line x1="186.66666666666666" y1="0" x2="186.66666666666666" y2="177" fill="rgb(0, 0, 0)" stroke="rgb(66, 66, 66)" stroke-width="1px" opacity="0.25"></line><line x1="210" y1="0" x2="210" y2="177" fill="rgb(0, 0, 0)" stroke="rgb(66, 66, 66)" stroke-width="1px" opacity="0.25"></line><line x1="233.33333333333334" y1="0" x2="233.33333333333334" y2="177" fill="rgb(0, 0, 0)" stroke="rgb(66, 66, 66)" stroke-width="1px" opacity="0.25"></line><line x1="256.66666666666663" y1="0" x2="256.66666666666663" y2="177" fill="rgb(0, 0, 0)" stroke="rgb(66, 66, 66)" stroke-width="1px" opacity="0.25"></line><line x1="280" y1="0" x2="280" y2="177" fill="rgb(0, 0, 0)" stroke="rgb(66, 66, 66)" stroke-width="1px" opacity="0.25"></line></g><g><line x1="0" y1="177" x2="280" y2="177" fill="rgb(0, 0, 0)" stroke="rgb(66, 66, 66)" stroke-width="1px" opacity="0.25"></line><line x1="0" y1="160.9090909090909" x2="280" y2="160.9090909090909" fill="rgb(0, 0, 0)" stroke="rgb(66, 66, 66)" stroke-width="1px" opacity="0.25"></line><line x1="0" y1="144.8181818181818" x2="280" y2="144.8181818181818" fill="rgb(0, 0, 0)" stroke="rgb(66, 66, 66)" stroke-width="1px" opacity="0.25"></line><line x1="0" y1="128.72727272727272" x2="280" y2="128.72727272727272" fill="rgb(0, 0, 0)" stroke="rgb(66, 66, 66)" stroke-width="1px" opacity="0.25"></line><line x1="0" y1="112.63636363636364" x2="280" y2="112.63636363636364" fill="rgb(0, 0, 0)" stroke="rgb(66, 66, 66)" stroke-width="1px" opacity="0.25"></line><line x1="0" y1="96.54545454545453" x2="280" y2="96.54545454545453" fill="rgb(0, 0, 0)" stroke="rgb(66, 66, 66)" stroke-width="1px" opacity="0.25"></line><line x1="0" y1="80.45454545454547" x2="280" y2="80.45454545454547" fill="rgb(0, 0, 0)" stroke="rgb(66, 66, 66)" stroke-width="1px" opacity="0.25"></line><line x1="0" y1="64.36363636363636" x2="280" y2="64.36363636363636" fill="rgb(0, 0, 0)" stroke="rgb(66, 66, 66)" stroke-width="1px" opacity="0.25"></line><line x1="0" y1="48.272727272727266" x2="280" y2="48.272727272727266" fill="rgb(0, 0, 0)" stroke="rgb(66, 66, 66)" stroke-width="1px" opacity="0.25"></line><line x1="0" y1="32.18181818181817" x2="280" y2="32.18181818181817" fill="rgb(0, 0, 0)" stroke="rgb(66, 66, 66)" stroke-width="1px" opacity="0.25"></line><line x1="0" y1="16.090909090909097" x2="280" y2="16.090909090909097" fill="rgb(0, 0, 0)" stroke="rgb(66, 66, 66)" stroke-width="1px" opacity="0.25"></line><line x1="0" y1="0" x2="280" y2="0" fill="rgb(0, 0, 0)" stroke="rgb(66, 66, 66)" stroke-width="1px" opacity="0.25"></line></g></g></g><g><g><line x1="0" y1="933.2727272727273" x2="280" y2="933.2727272727273" fill="rgb(0, 0, 0)" stroke="rgb(153, 153, 153)" stroke-width="1.5px"></line></g></g><g><g><line x1="23.333333333333332" y1="0" x2="23.333333333333332" y2="177" fill="rgb(0, 0, 0)" stroke="rgb(153, 153, 153)" stroke-width="1.5px"></line></g></g><g><g><g><g><g><path stroke="rgb(255, 112, 67)" stroke-width="2px" d="M33.94883333333333,186.13503931805215L34.53216666666667,175.0755617759546L34.99883333333333,173.36663583814735L35.115500000000004,161.08741591756285L35.465500000000006,168.10673199914086L35.8155,166.21707888896668L35.93216666666667,169.98330963364683L36.1655,167.77760965380565L36.74883333333334,165.4479431338099L36.982166666666664,160.7206882102704L37.5655,158.7484948575352L38.03216666666667,159.00964337337243L38.148833333333336,166.08555106641677L38.38216666666667,168.5864243288152L38.6155,156.21281137884873L38.732166666666664,158.12036912822373L38.84883333333334,162.40370646228587L39.3155,165.6607447181031L39.43216666666667,169.9413434595019L40.13216666666667,165.56900043938188L40.24883333333333,167.1718889887712L40.48216666666667,173.3300704271761L40.59883333333333,157.82892937455858L40.94883333333333,158.851239599389L41.7655,149.96618684712453L41.99883333333333,149.3489695323692L42.115500000000004,147.3629926424949L42.34883333333333,153.28996910289746L42.582166666666666,150.82549444003217L42.8155,154.12124478968525L43.28216666666666,157.63010091655795L43.398833333333336,157.83527504411984L43.5155,158.11350397688912L43.865500000000004,157.3919008258529L43.982166666666664,156.3255509014511L44.09883333333333,151.52183519618848L44.215500000000006,148.6544356514044L44.44883333333333,144.54763769810467L44.5655,140.3661166043475L44.9155,150.7873110647924L45.03216666666667,146.32043184928023L45.148833333333336,141.16643999002807L45.49883333333334,142.70052497701573L45.6155,142.21110630701025L45.732166666666664,147.97145831767557L45.84883333333334,147.26921449033898L46.19883333333333,142.91218052192895L46.665499999999994,142.90976198192513L46.78216666666667,142.4361118167296L47.015499999999996,148.00699831673336L47.13216666666667,150.70958659102547L47.24883333333334,144.35674075188973L47.3655,139.82320610551952L47.59883333333334,144.36019924259088L47.832166666666666,137.1219220468861L48.0655,138.40841684452016L48.29883333333333,132.56056538214722L48.53216666666667,134.05352561955812L48.64883333333333,142.86843226071744L48.88216666666667,138.53553509218156L48.99883333333333,140.25477789235612L49.1155,140.44934389716798L49.23216666666667,127.11491731242188L49.34883333333333,125.87577744711227L49.582166666666666,126.69763138525953L49.69883333333333,143.2134697724288L50.1655,144.39755360418L50.865500000000004,142.92224187930483L51.09883333333333,140.17327796116783L51.2155,142.18869647418825L51.332166666666666,143.5489226186216L51.5655,133.3675495106705L51.68216666666666,134.44620789021798L51.9155,131.00931825108742L52.03216666666666,133.04465039889465L52.148833333333336,131.45539131355545L52.2655,134.68528562486978L52.84883333333333,131.83105995801836L52.965500000000006,126.997473532517L53.082166666666666,124.94016946663375L53.43216666666667,123.21279178229737L53.548833333333334,122.81191385000702L53.6655,124.84271554855187L53.78216666666667,133.015108227613L54.015499999999996,129.20952589071385L54.94883333333333,132.36108138470357L55.0655,128.80267275105464L55.415499999999994,127.85846189370808L55.53216666666667,130.38344941183752L55.648833333333336,131.81908734174914L55.88216666666667,137.24642760258143L56.1155,133.01968495288415L56.34883333333334,137.13069039400506L56.4655,134.6804032889155L56.69883333333334,129.18580961139972L56.93216666666667,135.2056298597464L57.04883333333333,125.2643144725772L57.28216666666667,124.378734030448L57.8655,112.89075734720163L57.98216666666667,113.24629536734966L58.09883333333333,118.20277308666506L58.2155,128.44855441596397L58.9155,120.55679342172864L59.14883333333333,125.21698038320407L59.38216666666667,129.9942071730154L59.49883333333333,134.8191184089229L59.84883333333333,133.1820395878342L59.9655,133.12103710719276L60.3155,123.4412826536089L60.548833333333334,118.83560768809043L60.6655,117.88537631495826L61.0155,113.00718237633282L61.24883333333333,111.82172095256641L61.832166666666666,117.19413162050121L61.94883333333333,121.48650779754038L62.0655,110.88175633535118L62.18216666666667,116.5665857059515L62.765499999999996,128.424375806561L62.88216666666666,127.14035449339146L63.1155,131.1165340017433L63.4655,124.73272571554344L63.582166666666666,122.62641410475217L63.69883333333333,120.73500900750682L63.8155,123.3270567905571L64.04883333333333,125.65319360802565L64.28216666666667,124.01916101011898L64.5155,124.96647832326775L64.63216666666666,127.06109399191872L64.74883333333334,122.38004392955291L65.21549999999999,133.29025447385393L65.44883333333334,115.54609579399806L65.68216666666667,122.93869901359704L65.79883333333333,121.57909312641998L65.9155,118.35725548633675L66.03216666666667,112.31048213701688L66.14883333333333,114.66534104557125L66.2655,115.42785328124017L66.38216666666666,116.92345210879213L67.08216666666667,122.37952583847303L67.43216666666667,124.34971215724757L67.54883333333333,120.89073494260846L68.3655,123.47008896472165L68.48216666666666,123.25842112119804L68.94883333333333,118.57977718221815L69.0655,113.45669906745408L69.18216666666666,107.42220447687154L69.29883333333333,101.09414646652958L69.41550000000001,94.56593778670039L69.53216666666667,101.15549035090874L69.64883333333333,109.3422928178339L69.7655,120.69596767622947L69.88216666666666,116.3625368823712L69.99883333333334,116.97380999896288L70.23216666666667,114.40285844255958L70.34883333333333,112.87295674255991L70.58216666666667,119.56917615624252L71.04883333333333,119.04032244401189L71.16550000000001,105.94873958679067L71.5155,107.27395108850024L71.63216666666666,104.7097422462287L71.74883333333334,94.44528213196128L71.8655,99.1118525622023L72.21549999999999,102.0821174466342L72.5655,109.93534377120307L72.68216666666667,111.43420472574566L73.03216666666667,110.2801969631996L73.14883333333334,106.45723935489953L73.6155,103.04940700627245L73.73216666666667,109.6705126508071L74.08216666666667,105.52715680590502L74.19883333333333,102.19522641220068L74.3155,108.86206965191903L74.43216666666667,110.44485631529925L74.54883333333333,102.84581546154277L74.66550000000001,107.66596983445407L74.78216666666665,107.63846698257053L74.89883333333333,113.04835035333853L75.13216666666666,107.00458921368985L75.24883333333334,106.07245983813937L75.36550000000001,107.29566484553281L75.48216666666666,109.9206674231666L75.94883333333334,91.97498221326603L76.06549999999999,90.7274691031282L76.18216666666666,89.35563984255873L76.29883333333333,103.14846774564532L76.4155,103.01341369958887L76.64883333333334,105.08877817247885L76.88216666666666,97.38809370235994L77.1155,111.01314755331404L77.23216666666667,117.59993426396645L77.58216666666667,113.6527635424441L77.69883333333333,111.21416650392885L77.8155,105.16597326883459L78.04883333333333,108.7517194981882L78.28216666666667,104.00405737806783L78.74883333333332,96.8857809844578L78.8655,100.94265120231356L79.2155,110.09613229742693L79.33216666666667,112.62371844650478L79.44883333333333,105.139761602127L79.5655,97.74442547601335L79.68216666666666,103.6152660144788L79.79883333333333,99.93536000375121L79.91550000000001,111.83689168917357L80.14883333333333,105.51773185410255L80.2655,101.73708828127359L80.38216666666666,99.32823569026634L80.49883333333334,103.33621906308557L80.73216666666667,102.919060012292L81.08216666666667,101.80519424712135L81.54883333333333,106.46463135762113L81.89883333333334,93.08548768797466L82.0155,100.61746568074466L82.13216666666666,104.36373100090957L82.48216666666667,101.36848981570024L82.7155,100.66281433175858L82.83216666666667,100.74455791168832L82.94883333333333,101.08121531009007L83.0655,100.28742270079125L83.18216666666667,98.91165608518531L83.29883333333333,93.21730642854371L83.41550000000001,96.11785653002218L83.7655,98.66828097345535L83.88216666666666,94.45144216139931L83.99883333333334,94.9972864449663L84.11550000000001,89.63041435299722L84.4655,94.51690661517183L85.28216666666667,90.61613193407997L85.63216666666666,106.42800296859785L85.74883333333334,113.75271325798752L85.98216666666667,103.75263808662844L86.09883333333335,92.02322661196466L86.21549999999999,83.78968753189824L86.33216666666667,85.7100769733736L86.44883333333333,96.14402214726985L86.68216666666667,93.37336161377917L86.79883333333333,99.71816660982466L86.9155,100.04034737578473L87.14883333333333,100.52944316113307L87.2655,93.46782112017944L87.6155,87.7287825491496L87.84883333333333,82.74973041150328L88.08216666666667,87.51967592112956L88.19883333333333,90.18001580769375L88.3155,98.35715013735941L89.0155,89.02682115485882L89.13216666666666,84.49193095529984L89.24883333333334,89.3970653669477L89.71549999999999,92.03993918798646L90.0655,95.74095902948211L90.29883333333333,89.52724947885768L90.64883333333334,77.32021265784017L91.1155,82.88796721650819L91.58216666666667,87.67426301256647L91.69883333333333,94.90690863206932L91.8155,95.27712191929847L92.04883333333333,94.14656365117959L92.28216666666665,97.59459324219927L92.39883333333333,101.50688273198496L92.5155,92.35665663337602L92.74883333333334,84.88479254181534L92.98216666666666,84.40070792809875L93.09883333333333,80.83665972001624L93.2155,99.96641247463216L93.33216666666667,103.23086857520002L93.56549999999999,97.60911731988035L93.68216666666666,91.83397000907134L93.79883333333333,92.53435875104826L94.03216666666667,85.78805327220205L94.38216666666666,81.98194298627035L94.6155,89.23037756155982L94.96549999999999,90.48284184899207L95.08216666666667,99.51174962067016L95.3155,92.82211907504772L95.54883333333333,72.24729504898816L95.78216666666667,81.0834690537626L96.0155,94.27908825154903L96.13216666666668,95.85162889309032L96.48216666666667,102.30931454399514L96.7155,93.8810686569279L96.83216666666667,88.12601196608506L97.29883333333333,83.13489367867446L97.53216666666667,87.26055310062625L97.7655,81.25573815476498L98.1155,86.68694592242221L98.23216666666667,92.76916648256375L98.34883333333333,96.44143111401445L98.46549999999999,94.39254324426989L98.58216666666667,90.86295889111973L98.69883333333334,98.67955720057209L99.1655,100.15840556834566L99.39883333333334,86.5903643026996L99.5155,78.60738935798695L99.63216666666666,68.4691989346163L99.74883333333332,71.28374520194511L99.8655,59.46549830857824L100.2155,68.49966128428578L100.33216666666667,74.17960828291159L100.44883333333333,79.56360866980904L101.2655,78.2504926388528L101.61550000000001,80.53005077684867L102.19883333333334,79.21505084075419L102.31549999999999,78.73838677775687L102.43216666666666,70.59726693548403L102.78216666666667,73.92697269347259L103.01549999999999,73.74423931343804L103.13216666666666,70.42258021470514L103.24883333333334,70.24879834522044L103.59883333333335,77.73998043979395L104.18216666666667,67.13411693708301L104.4155,68.73750904164427L104.53216666666667,70.8328514665793L104.64883333333333,65.91331436782943L104.7655,72.35325096089653L104.99883333333332,68.96439572812707L105.34883333333333,73.92435235275876L105.4655,73.00350570431327L105.69883333333333,80.07957063006312L106.16550000000001,76.19922192571187L106.28216666666667,75.77652931021231L106.5155,86.45850042748037L106.8655,80.49202683119532L107.09883333333333,74.92039670729322L107.33216666666667,81.28214996729143L107.44883333333334,88.98990890460252L107.5655,84.22494329530943L107.79883333333333,86.25984834579364L108.03216666666667,83.09632801382381L108.14883333333334,77.71483943302798L108.2655,81.93467009491987L108.38216666666666,80.06447623464187L108.49883333333332,71.66823091789813L108.73216666666667,73.4904319034555L108.84883333333333,78.23767247770002L108.9655,72.96849987111929L109.54883333333333,71.95877728528701L109.66550000000001,73.07296409733517L109.78216666666665,81.5092879077531L110.0155,89.07072694165115L110.13216666666666,83.28965337801442L110.24883333333334,82.02133106156543L110.36550000000001,69.51006523295304L111.18216666666666,66.65807063946107L111.53216666666667,73.47140224806755L111.64883333333334,73.6265125580025L111.88216666666666,72.94849872687357L112.46549999999999,84.46272744324419L112.58216666666667,74.91201479513686L112.69883333333333,72.00252961682824L113.04883333333333,74.73524080365526L113.1655,81.73989520351772L113.5155,76.89130595201128L113.63216666666668,80.93233203866949L113.8655,72.35067355403444L113.98216666666667,71.9947982752652L114.2155,87.08359605056388L114.33216666666667,78.26112592534894L114.44883333333333,78.26502863249097L114.5655,80.36881803842569L114.68216666666666,69.56077377205226L115.38216666666666,78.00236711190855L115.49883333333334,73.63846680367735L115.73216666666667,76.4215660774123L115.96549999999999,82.20499819580814L116.19883333333334,71.78368450874916L116.3155,77.15818386642667L116.6655,76.72648366746789L116.78216666666667,71.62801264255286L117.24883333333332,79.23610573672134L117.3655,76.24472116464473L117.48216666666667,65.5258637934246L117.59883333333333,74.9927682538602L117.94883333333333,86.59332247353407L118.29883333333333,82.57738436435835L118.88216666666666,71.98713024796518L118.99883333333334,71.36585519734092L119.23216666666666,76.46202521446277L119.34883333333333,75.84066519637115L119.4655,65.77620448225807L119.69883333333334,61.818842556853035L119.81549999999999,69.51874971468705L119.93216666666666,67.05396514419762L120.04883333333333,65.71563450755015L120.51549999999999,73.57299046238703L120.63216666666666,71.29938856565144L120.8655,65.66149709757627L120.98216666666667,69.78378554880672L121.09883333333335,67.78786540665449L121.33216666666667,71.17652686672882L121.44883333333333,62.50645544887242L121.79883333333333,66.37975800165665L122.03216666666667,63.327393014550395L122.6155,59.06760599139191L122.73216666666667,59.79225510096088L123.08216666666667,65.05466103287766L123.43216666666666,69.35665692689996L123.78216666666667,61.629787696400946L124.0155,70.92862029850467L124.3655,69.72047603985376L124.48216666666667,69.88521031762676L124.94883333333334,70.10858257818253L125.0655,69.31676975287546L126.23216666666667,67.01328572867843L126.4655,78.06516443037104L126.58216666666667,69.72002961081488L126.69883333333333,64.72274527780816L126.8155,61.85661594442821L127.04883333333333,65.60540688910017L127.28216666666665,67.89028298511141L127.5155,60.87503518635282L127.86550000000001,57.745423083802095L128.09883333333332,63.62905927020309L128.2155,57.43692985810909L128.5655,61.490126859068205L128.68216666666666,60.915802827754455L128.9155,67.73585656903371L129.14883333333333,64.92487506424521L129.2655,63.55302823235044L129.38216666666665,61.32469094620183L129.6155,77.78950894804778L129.73216666666667,74.04396460178322L130.08216666666667,79.25140178796975L130.54883333333333,72.2218905722936L130.6655,79.22458276312038L130.89883333333333,84.97800735385057L131.13216666666668,76.06685410047608L131.59883333333335,72.38098576239855L131.7155,69.8082933839305L131.83216666666667,73.46299227680711L131.94883333333334,62.42891050613223L132.0655,67.45499839219143L132.18216666666666,63.15903003007691L132.29883333333333,56.57288869342797L132.53216666666668,57.68553369767967L132.99883333333332,59.36130690184646L133.23216666666667,63.71515602831491L133.34883333333332,66.08500681389953L133.69883333333334,66.27070942725135L134.1655,53.86846355918275L134.5155,57.68004739043678L134.74883333333332,65.71792140079265L134.8655,65.3895710333911L134.98216666666667,59.041696888056634L135.44883333333334,61.50554445008359L135.68216666666666,56.95349410058102L135.79883333333333,58.7153978519502L135.9155,54.42221952948502L136.03216666666665,63.76577817321298L136.2655,63.209362311864666L136.38216666666668,64.25265360316116L136.73216666666667,64.62269021210092L137.3155,59.74635221985636L137.54883333333333,68.98348041594265L137.6655,77.71550703396717L137.89883333333333,67.29039389212218L138.0155,69.81741302095337L138.48216666666667,68.26894665290415L138.7155,61.00412048308668L138.83216666666667,61.20141027813323L138.94883333333334,61.14487015924505L139.18216666666666,58.250473703545886L139.4155,55.2870562391729L139.53216666666665,63.8419199395708L139.64883333333333,57.681050983850795L139.88216666666668,50.8434926231141L139.99883333333332,60.74053466078248L140.23216666666667,59.667885776716375L140.34883333333332,62.12715386260299L140.4655,53.35075104669886L140.58216666666667,66.55137345183849L140.69883333333334,70.08804466880373L140.8155,68.49135718569283L141.39883333333333,74.9732540586192L141.63216666666668,71.27595183591725L141.8655,64.3032440807318L141.98216666666667,62.089316998421374L142.09883333333335,63.17592296272464L142.68216666666666,67.91219218317455L143.14883333333333,57.93968660895482L143.38216666666665,53.31535143847292L143.49883333333335,49.98244469986469L144.19883333333334,62.80241417987082L144.31550000000001,63.9295720930167L144.43216666666666,70.31350400354613L144.54883333333333,66.11068499379138L144.6655,68.73717113365937L145.13216666666665,57.47669821020282L145.3655,55.33984791116259L145.48216666666667,45.41535602896846L146.18216666666666,49.97762270829016L146.29883333333333,54.296378090528016L146.64883333333333,59.94730039835088L146.88216666666668,60.202144748731754L146.99883333333332,53.11289007633421L147.1155,53.06309218345142L147.34883333333332,57.19301888428957L147.69883333333334,54.4492617866728L147.81550000000001,57.24259187868865L147.93216666666666,61.936249207912695L148.1655,73.7339237357296L148.28216666666668,60.22364850302334L148.39883333333333,47.40268691564567L148.51549999999997,58.56806811529638L148.63216666666668,58.256545492313414L148.74883333333332,60.22507126067576L149.09883333333332,58.96259596796435L149.2155,62.96977393376164L149.44883333333334,59.00857639638978L149.5655,55.17187599031081L149.6821666666667,56.52387394068869L150.03216666666668,56.754694126487024L150.14883333333333,55.73576824702147L150.2655,64.96104158120285L150.73216666666667,60.3413236015094L150.84883333333335,59.650021627835685L150.9655,69.66120965416944L151.54883333333333,74.49039575321721L151.78216666666665,68.19647647115094L152.0155,69.53144872670693L152.13216666666665,67.174920178185L152.24883333333335,69.54964412906119L152.59883333333335,62.445481529150115L152.7155,63.59119999481604L152.83216666666667,53.759901465506516L152.94883333333334,55.100361849873856L153.06550000000001,53.51891822631291L153.18216666666666,53.809329007520745L153.29883333333333,48.81649229087607L153.4155,55.84605812199548L153.64883333333336,51.44366073545767L153.99883333333335,49.39627678573487L154.23216666666667,46.698387159642245L154.34883333333332,38.05954743250408L154.6988333333333,46.291980124097556L154.81550000000001,59.84448087120041L155.04883333333333,49.15787232731897L155.1655,44.25543659219208L155.28216666666665,50.15140412838871L155.39883333333333,50.22468577759258L155.5155,56.43285085087733L155.74883333333332,59.35725564879876L155.8655,61.74548298356184L155.98216666666667,56.621968107120374L156.33216666666667,50.99955082609746L156.68216666666666,44.556094659144L157.03216666666668,37.749138224152944L157.14883333333333,41.440313789427854L157.38216666666668,42.61017562828207L157.49883333333332,46.77609697076359L157.6155,55.205366822816835L157.73216666666667,48.749246871477744L157.84883333333332,36.66001870394127L157.9655,45.96860782437118L158.19883333333334,42.61092724012167L158.78216666666668,58.57383894794367L159.0155,55.9404333237112L159.24883333333332,58.55704910666453L159.48216666666667,61.34542566983142L159.59883333333335,61.996933247246844L160.29883333333333,56.32413623341567L160.4155,52.23938849497663L160.64883333333333,46.83140317755236L160.7655,51.41423427935635L160.88216666666665,42.52338686999306L161.34883333333335,22.47677973052751L161.58216666666667,27.73554307468899L161.81550000000001,36.23444329864861L162.04883333333333,24.01199443710808L162.1655,36.762526279851855L162.28216666666665,50.34266064317745L162.63216666666665,52.428120023157966L162.74883333333335,52.69868400896763L162.8655,39.76840044111391L163.09883333333332,50.95741325050821L163.2155,53.49169246268958L163.56550000000001,48.40434608840923L163.68216666666666,52.81438707753951L164.03216666666665,43.856621110381944L164.14883333333333,56.504167645810156L164.2655,43.57988012628225L164.49883333333332,48.97047252046033L164.96550000000002,39.81905594547048L165.08216666666667,42.892558972333674L165.19883333333334,54.561946266523385L165.43216666666666,49.93683123425707L165.54883333333333,49.788172959304156L166.13216666666668,58.11655445473742L166.3655,45.60330267350826L166.7155,47.745821298041406L166.83216666666667,44.0297350162627L167.1821666666667,40.955393999370585L167.29883333333333,48.80280238417487L167.88216666666668,52.35152146290907L168.1155,50.86884273170503L168.23216666666667,43.73718254775885L168.34883333333335,41.627547205102395L168.4655,45.674299846276995L168.5821666666667,51.602767441058006L168.69883333333334,54.74768050081201L168.8155,50.06855237008943L169.1655,49.35559938969397L169.28216666666665,52.32475364904193L169.39883333333333,52.262602600025396L169.5155,60.980022636231524L169.74883333333335,59.666226111701505L169.98216666666664,54.93764460256773L170.09883333333335,57.316021514958614L170.44883333333334,62.32674669803759L170.56550000000001,53.5823692080093L170.9155,38.67879108712802L171.2655,29.147181102028163L171.73216666666667,33.93071533291436L172.31550000000001,42.89984432758948L172.43216666666666,31.726389667620754L172.54883333333333,45.21368733284343L173.0155,43.70448082122585L173.3655,49.849581969741884L173.94883333333334,56.10955289833126L174.29883333333333,49.58955917041737L174.64883333333333,52.079184388081444L174.88216666666668,48.14861231741928L174.99883333333332,38.810773419615316L175.34883333333332,41.72923471494382L175.8155,43.27136734485772L176.28216666666668,44.61674496746156L176.74883333333332,46.603732560643785L176.8655,39.620610924214844L177.44883333333334,46.28944987861454L177.68216666666666,49.94495191513922L177.79883333333333,52.674510378043L178.03216666666665,55.421859186475984L178.14883333333333,50.02349820231528L178.38216666666665,46.41533058309896L179.19883333333334,50.91513449043993L180.24883333333335,56.09686081788788L180.3655,46.35180490071146L180.59883333333332,55.000928355021976L180.7155,53.64112056170817L181.06550000000001,39.73637050153129L181.18216666666666,41.35809385742626L181.4155,47.03740450448594L181.88216666666668,46.50478550942101L182.1155,47.71202865983406L182.58216666666667,49.16475728490082L182.69883333333334,49.74193298422175L182.81550000000001,55.10459208035019L182.93216666666666,41.36552291511352L183.04883333333333,37.729680431640894L183.51549999999997,40.162796051953165L183.63216666666668,21.586272102496466L183.8655,45.598635625888825L183.98216666666667,42.088712542303576L184.44883333333334,55.35240535408419L185.03216666666668,47.550707960763646L185.14883333333333,57.873966285913134L185.6155,57.996190962066294L185.9655,55.98990540643004L186.3155,44.641367837696826L186.43216666666666,40.95120933565261L186.6655,48.25944297532614L186.78216666666665,44.71589805170846L187.13216666666665,30.765717558608458L187.3655,35.61264015208622L188.29883333333333,37.582091870459834L188.64883333333336,39.50007618384363L188.7655,40.28839409897799L188.99883333333335,41.081307555356254L189.23216666666667,35.91860819709868L189.34883333333332,33.51895042407419L190.39883333333333,36.41250023713274L190.5155,42.671522053900624L190.98216666666667,43.36657858767595L191.21550000000002,42.169046329185825L191.33216666666667,34.09350779240674L191.44883333333334,43.92050786258893L191.56550000000001,45.89653758886905L191.9155,47.38962987310133L192.14883333333333,42.24044379522084L192.26549999999997,35.70202786826359L192.38216666666668,40.424895615001134L192.49883333333332,37.437373393059694L192.6155,47.3499308329327L192.73216666666667,44.42993461281887L192.84883333333332,48.735794879685244L193.08216666666667,42.49749762982642L193.19883333333334,39.34516092586282L193.3155,39.9894471303579L193.4321666666667,40.38392484781708L193.54883333333333,30.09635749436143L193.66549999999998,31.151835964345935L193.78216666666668,27.164314635692108L193.89883333333333,37.70645121927041L194.13216666666668,35.41275026480976L194.94883333333334,33.15088640932972L195.29883333333333,41.09134070013434L195.4155,42.34552346970773L195.64883333333333,41.05106796588008L195.7655,49.3182142991481L196.23216666666664,49.864796377340376L196.34883333333335,43.16419351687819L196.4655,41.67600898011091L196.93216666666666,38.92673631402529L197.04883333333333,36.99022438895669L197.1655,38.38757612840248L197.28216666666665,39.174794628346575L197.39883333333336,43.28864655794715L197.63216666666665,34.93033626129525L197.74883333333335,31.22430782478144L198.2155,29.009063260431724L198.33216666666667,40.66168268504095L198.4488333333333,50.87637126651997L198.68216666666666,39.434086503919396L199.03216666666665,34.79275545237829L199.49883333333332,42.52818414966742L199.6155,48.655007247169046L199.73216666666667,31.513708444315302L199.96550000000002,36.01448977051318L200.19883333333334,26.3694776646871L200.31550000000001,37.48305647740776L201.13216666666668,38.353924407130066L201.48216666666667,36.93088297568783L201.7155,47.724405306985815L202.41549999999998,30.067199613967773L202.7655,33.37802326514024L202.88216666666668,36.757666675703476L203.23216666666667,40.8585911497758L203.69883333333334,37.85647174530752L203.93216666666666,33.78617960591144L204.04883333333333,39.70142647470627L204.39883333333333,22.17736653268424L204.5155,28.878430584116934L204.63216666666665,34.61282841993928L204.8655,36.00986568655169L205.09883333333335,34.79721898912388L205.68216666666666,43.06193887638455L205.9155,47.72235633564063L206.03216666666665,31.099691322691097L206.14883333333336,18.058026186103966L206.38216666666665,25.230085348336836L206.6155,23.40934221352971L206.73216666666667,33.24344759662816L206.84883333333332,32.067431694962025L206.9655,24.574648414615673L207.31550000000001,19.493787517341815L207.54883333333333,21.10732805794604L207.6655,31.813305415200908L207.78216666666665,33.634915400221445L207.89883333333333,36.2928755096641L208.0155,38.340134735175255L208.3655,19.325632632209576L208.94883333333334,21.81328854261583L209.53216666666668,19.848163361054294L209.64883333333333,29.74965909728777L209.76549999999997,28.077992035965007L210.23216666666667,31.98404983250765L210.34883333333332,31.83199276016697L210.4655,33.722658818609105L211.28216666666668,41.915663162259165L211.39883333333333,41.165470118591315L211.63216666666668,41.5848663995461L211.74883333333332,35.09168397214061L211.98216666666667,24.847874541221064L212.44883333333334,22.19090703674431L212.68216666666666,18.722441061535207L212.9155,24.143438475033626L213.14883333333333,27.049818189778733L213.2655,29.085774980362274L213.73216666666664,27.06844469125363L214.19883333333334,24.847601460526324L214.31550000000001,26.69936995279844L214.43216666666666,29.894569120782432L214.54883333333333,35.24510009840166L214.78216666666665,33.84290911355089L214.89883333333336,38.2744756317047L215.48216666666667,33.45417262822387L215.59883333333332,25.506819206373304L215.83216666666667,29.106730739466766L216.06550000000001,28.780757915004546L216.18216666666666,33.62062995874167L216.29883333333333,33.980517013330896L216.4155,35.42946524284401L216.64883333333333,40.50359575503701L216.88216666666668,33.07633847219831L217.34883333333332,34.37483625870073L217.58216666666667,36.562257767738245L217.81550000000001,25.78008551224974L218.1655,25.491502262827453L218.28216666666668,22.450317672948614L218.74883333333332,23.25329440792402L219.09883333333332,20.78481855260247L219.33216666666667,23.665583292427932L219.44883333333334,32.721057822358354L219.5655,33.08915338681872L219.6821666666667,26.87072530845841L220.03216666666668,33.435655261202456L220.14883333333333,27.772316091513765L220.2655,34.264810248169944L220.38216666666668,41.43081053189212L220.49883333333332,28.246278733020194L220.6155,33.53410230062525L220.9655,30.357055008304858L221.0821666666667,31.372435436401624L221.19883333333334,29.377006710837748L221.43216666666666,31.89944635271898L221.54883333333333,33.05905549029792L221.6655,38.33231828174975L221.78216666666665,40.77241093309452L222.0155,50.3469613803024L222.24883333333335,33.302735405285475L222.59883333333335,37.861269372610245L222.83216666666667,28.860038739821512L222.94883333333334,34.60827524695583L223.06550000000001,32.97471828870977L223.18216666666666,30.402090883115825L223.88216666666665,11.968117766730188L223.99883333333335,32.5079213025718L224.34883333333332,25.793136820294855L224.4655,21.832252775326754L224.58216666666667,28.379773529098678L224.6988333333333,28.12915750790667L225.28216666666665,24.432237213817267L226.21550000000002,16.990334038606317L226.33216666666667,18.03223309361836L226.44883333333334,26.004619702362398L226.79883333333333,23.470439695840387L227.03216666666668,33.351014511085644L227.38216666666668,35.021809351404606L227.49883333333332,39.829181275127134L227.6155,33.99199090951867L227.73216666666667,30.241006146829832L227.9655,33.10240203903898L228.08216666666667,23.614849065886105L228.4321666666667,19.980895911921664L229.0155,12.97059959216374L229.13216666666668,22.987674668961283L229.3655,36.1005721087277L229.48216666666667,35.52812100294079L229.7155,38.246357298586304L230.53216666666665,31.47629574123447L230.64883333333333,32.339791754710596L230.7655,23.547352891516073L231.1155,18.938497517047427L231.23216666666664,30.12586553903707L231.58216666666667,23.36740428325006L231.69883333333334,28.093088693662775L231.81550000000001,23.15049821353429L231.93216666666666,24.368221818523633L232.1655,21.98382038692384L232.28216666666665,17.91311743856421L232.5155,14.99034510580538L232.74883333333335,19.046802167353977L232.98216666666667,30.19752668504485L233.09883333333332,24.9581835913713L233.4488333333333,30.30426570680242L233.68216666666666,23.724686305074087L233.79883333333333,18.390173166655984L233.9155,23.874765243654778L234.38216666666668,18.126341329475935L234.6155,22.61024069412557L235.08216666666667,34.04053475849423L235.31550000000001,25.983389153436427L235.54883333333333,29.553444303052622L235.6655,24.239387748823805L236.13216666666668,23.525849362939475L236.48216666666667,25.08917766419483L236.59883333333332,32.299378402494185L236.83216666666667,22.993231361675825L236.94883333333334,20.739464651522525L237.1821666666667,13.781854339120208L237.29883333333333,18.393745560237008L237.41549999999998,11.42884626858186L237.64883333333333,17.13898029088991L237.7655,6.800404637380126L237.88216666666668,18.615708785846095L238.5821666666667,1.3504007520207226L238.69883333333334,11.395017034797188L238.8155,8.420271606709331L238.93216666666666,18.314444624625693L239.04883333333333,17.007731383262534L239.39883333333333,15.401332666516382L239.63216666666665,30.211401600753227L239.98216666666664,25.460215816186974L240.44883333333334,24.001425926368704L240.9155,13.842083416705476L241.03216666666665,19.367430863899422L241.14883333333336,29.50782077308934L241.2655,25.975737940593756L241.73216666666667,19.03874199198418L241.84883333333332,23.905976130027064L241.9655,25.199965100290697L242.08216666666667,23.159074435929032L242.1988333333333,17.126786769156947L242.43216666666666,11.923097013775717L242.6655,15.055482575719314L242.78216666666665,19.08335571308961L243.13216666666668,15.192126992084964L243.24883333333332,20.291381902593017L243.48216666666667,29.558859431639238L243.71550000000002,22.325776835075455L243.94883333333334,23.525230588571908L244.06550000000001,28.74120411020112L244.53216666666668,25.453526648693558L244.99883333333332,22.35033836803364L245.23216666666667,24.233730825108253L245.34883333333332,19.59501727036671L245.8155,20.226344080259693L246.04883333333333,27.415639045368202L246.16549999999998,28.267151454786585L246.28216666666668,33.7179061183442L246.63216666666668,32.22988307530345L246.98216666666667,26.498895088434864L247.2155,31.140400812604646L247.9155,38.02215635892284L248.03216666666665,36.21368485650244L248.14883333333333,39.61260228242065L248.38216666666665,33.956645370473396L248.49883333333335,26.36994766595412L248.84883333333335,18.478309181292907L249.19883333333334,22.04196889056724L249.31550000000001,33.47601862571113L249.6655,31.909345528232116L249.78216666666665,23.6247461941143L249.89883333333336,22.68103515543345L250.0155,23.274534484373323L250.3655,29.709435600957796L250.59883333333332,18.97674473459814L250.9488333333333,22.56713676218992L251.06550000000001,27.103089729988003L251.29883333333333,27.29798415360009L251.64883333333333,39.05087550858413L252.1155,29.66776590573644L252.23216666666667,29.568536324558778L252.34883333333332,21.51171658233291L252.46550000000002,17.508809956502088L252.58216666666667,15.75764095991866L252.81550000000001,21.0848430320947L252.93216666666666,24.116930738246552L253.04883333333333,12.934062945122983L253.1655,25.90651265166186L253.8655,21.014561333007087L254.09883333333332,15.980717224164989L254.2155,28.688012382395012L254.33216666666667,17.081425510269792L254.44883333333334,21.80891736781841L254.5655,14.76819787718959L254.6821666666667,18.63643572183051L254.79883333333333,25.50990556151629L255.03216666666668,25.85028149387003L255.2655,32.42153364241577L255.38216666666668,29.79324930365794L255.49883333333332,21.05742499612412L255.73216666666667,20.98824333884999L255.84883333333335,12.808764928647367L255.9655,14.202646763473961L256.1988333333333,6.700066507125591L256.54883333333333,14.950519612860196" style="fill: none;" fill="none"></path></g></g></g></g><g opacity="0.2"><g><g><g><path stroke="rgb(255, 112, 67)" stroke-width="2px" d="M31.382166666666667,188.5396218733354L31.6155,173.17934209650213L31.732166666666664,196.53124445134944L32.43216666666667,184.9206036654386L32.6655,169.36040288751775L32.78216666666667,194.69445107199928L33.365500000000004,188.65152116255328L33.832166666666666,168.35306375676936L33.94883333333333,196.10899803855202L34.53216666666667,158.48634546453303L34.99883333333333,170.80324693159625L35.115500000000004,142.66858603737572L35.465500000000006,178.6357061212713L35.8155,163.3825992237438L35.93216666666667,175.63265575062144L36.1655,164.46905968405983L36.74883333333334,161.95344335382634L36.982166666666664,153.62980582497337L37.5655,155.79020482843572L38.03216666666667,159.40136614712802L38.148833333333336,176.69941260597923L38.38216666666667,172.3377342224121L38.6155,137.6523919539018L38.732166666666664,160.98170575228605L38.84883333333334,168.8287124633789L39.3155,170.54630210182884L39.43216666666667,176.36224157159978L40.13216666666667,159.0104859092019L40.24883333333333,169.57622181285512L40.48216666666667,182.56734258478338L40.59883333333333,134.5772177956321L40.94883333333333,160.38470493663442L41.7655,136.6386077187278L41.99883333333333,148.42314356023616L42.115500000000004,144.38402730768377L42.34883333333333,162.1804337935014L42.582166666666666,147.1287824457342L42.8155,159.0648703141646L43.28216666666666,162.89338510686702L43.398833333333336,158.14303623546255L43.5155,158.53084737604314L43.865500000000004,156.30949609929866L43.982166666666664,154.7260260148482L44.09883333333333,144.31626163829458L44.215500000000006,144.35333633422852L44.44883333333333,138.3874407681552L44.5655,134.09383496371183L44.9155,166.41910275545987L45.03216666666667,139.62011302601206L45.148833333333336,133.43545220114967L45.49883333333334,145.00165245749733L45.6155,141.47697830200195L45.732166666666664,156.61198633367366L45.84883333333334,146.21584874933416L46.19883333333333,136.37662956931374L46.665499999999994,142.90613417191938L46.78216666666667,141.72563656893644L47.015499999999996,156.36332806673917L47.13216666666667,154.7634690024636L47.24883333333334,134.82747199318626L47.3655,133.02290413596413L47.59883333333334,151.1656889481978L47.832166666666666,126.2645062533292L48.0655,140.33815904097125L48.29883333333333,123.78878818858753L48.53216666666667,136.29296597567472L48.64883333333333,156.09079222245649L48.88216666666667,132.03618933937767L48.99883333333333,142.83364209261808L49.1155,140.74119290438566L49.23216666666667,107.11327743530273L49.34883333333333,124.01706764914773L49.582166666666666,127.93041229248047L49.69883333333333,167.9872273531827L50.1655,146.17367935180664L50.865500000000004,140.7092742919922L51.09883333333333,136.04983208396217L51.2155,145.21182424371892L51.332166666666666,145.58926183527166L51.5655,118.09548984874378L51.68216666666666,136.06419545953923L51.9155,125.8539837923917L52.03216666666666,136.09764862060547L52.148833333333336,129.07150268554688L52.2655,139.53012709184125L52.84883333333333,127.54972145774148L52.965500000000006,119.74709389426492L53.082166666666666,121.85421336780895L53.43216666666667,120.6217252557928L53.548833333333334,122.21059695157139L53.6655,127.88891809636897L53.78216666666667,145.27369724620473L54.015499999999996,123.50115238536488L54.94883333333333,137.08841462568805L55.0655,123.46505980058149L55.415499999999994,126.4421456076882L55.53216666666667,134.17093068903142L55.648833333333336,133.97254423661664L55.88216666666667,145.3874379938299L56.1155,126.67957097833806L56.34883333333334,143.29719855568626L56.4655,131.00497263128108L56.69883333333334,120.94391909512608L56.93216666666667,144.23536023226652L57.04883333333333,110.35234139182351L57.28216666666667,123.05036336725408L57.8655,95.6587923223322L57.98216666666667,113.7796023975719L58.09883333333333,125.63748966563831L58.2155,143.8172264099121L58.9155,108.71915193037555L59.14883333333333,132.20726082541725L59.38216666666667,137.1600473577326L59.49883333333333,142.0564852627841L59.84883333333333,130.72642135620117L59.9655,133.02953338623047L60.3155,108.9216509732333L60.548833333333334,111.92709523981267L60.6655,116.46002925526012L61.0155,105.68989146839489L61.24883333333333,110.04352881691672L61.832166666666666,125.25274762240322L61.94883333333333,127.92507206309925L62.0655,94.97462914206766L62.18216666666667,125.09382976185192L62.765499999999996,146.21106095747515L62.88216666666666,125.21432252363726L63.1155,137.08080326427114L63.4655,115.15701328624378L63.582166666666666,119.46694668856533L63.69883333333333,117.89790136163884L63.8155,127.21512846513227L64.04883333333333,129.14239883422852L64.28216666666667,121.56811211325906L64.5155,126.38745429299094L64.63216666666666,130.20301749489525L64.74883333333334,115.35846883600408L65.21549999999999,149.6555702903054L65.44883333333334,88.9298577742143L65.68216666666667,134.02760384299538L65.79883333333333,119.5396842956543L65.9155,113.52449902621181L66.03216666666667,103.24032211303711L66.14883333333333,118.19762940840289L66.2655,116.57162163474344L66.38216666666666,119.16685035011984L67.08216666666667,130.56363643299449L67.43216666666667,127.30499163540928L67.54883333333333,115.70226912064985L68.3655,127.3391199978915L68.48216666666666,122.94091935591265L68.94883333333333,111.56181127374822L69.0655,105.77208189530805L69.18216666666666,98.37046259099787L69.29883333333333,91.6020594510165L69.41550000000001,84.77362476695667L69.53216666666667,111.03981919722125L69.64883333333333,121.62249651822178L69.7655,137.7264799638228L69.88216666666666,109.86239069158381L69.99883333333334,117.89071967385031L70.23216666666667,110.54643110795453L70.34883333333333,110.57810419256037L70.58216666666667,129.61350527676672L71.04883333333333,118.24704187566584L71.16550000000001,86.3113653009588L71.5155,109.26176834106445L71.63216666666666,100.86342898282139L71.74883333333334,79.04859196056019L71.8655,106.11170820756391L72.21549999999999,106.53751477328213L72.5655,121.71518325805664L72.68216666666667,113.68249615755947L73.03216666666667,108.54918531938031L73.14883333333334,100.72280294244939L73.6155,97.93765848333186L73.73216666666667,119.6021711176092L74.08216666666667,99.31212303855203L74.19883333333333,97.19733082164417L74.3155,118.8623345114968L74.43216666666667,112.81903631036931L74.54883333333333,91.4472541809082L74.66550000000001,114.89620139382102L74.78216666666665,107.59721270474522L74.89883333333333,121.1631754094904L75.13216666666666,97.93894750421697L75.24883333333334,104.67426577481358L75.36550000000001,109.13047235662287L75.48216666666666,113.85817128961736L75.94883333333334,65.05645439841531L76.06549999999999,88.8561994379217L76.18216666666666,87.29789595170453L76.29883333333333,123.83770960027522L76.4155,102.81083263050427L76.64883333333334,108.20182488181375L76.88216666666666,85.83706699718128L77.1155,131.45072832974523L77.23216666666667,127.48011432994495L77.58216666666667,107.7320074601607L77.69883333333333,107.55627094615589L77.8155,96.09368341619319L78.04883333333333,114.13033884221858L78.28216666666667,96.88256419788708L78.74883333333332,86.20836639404297L78.8655,107.02795652909711L79.2155,123.82635394009678L79.33216666666667,116.41509767012164L79.44883333333333,93.91382633556019L79.5655,86.65142128684305L79.68216666666666,112.42152682217686L79.79883333333333,94.4155009876598L79.91550000000001,129.68918921730736L80.14883333333333,96.03899210149592L80.2655,96.06612292203037L80.38216666666666,95.71495680375531L80.49883333333334,109.34819412231445L80.73216666666667,102.29332143610173L81.08216666666667,100.13439559936523L81.54883333333333,113.45378702337092L81.89883333333334,73.01677218350497L82.0155,111.91543266989969L82.13216666666666,109.9831289811568L82.48216666666667,96.87562803788617L82.7155,99.60430110584606L82.83216666666667,100.86717328158291L82.94883333333333,101.58620140769266L83.0655,99.09673378684305L83.18216666666667,96.84800616177647L83.29883333333333,84.67578194358133L83.41550000000001,100.46868168223988L83.7655,102.4939176386053L83.88216666666666,88.126183943315L83.99883333333334,95.81605287031695L84.11550000000001,81.58010621504351L84.4655,101.84664500843395L85.28216666666667,84.7649699124423L85.63216666666666,130.14580952037466L85.74883333333334,124.7397786920721L85.98216666666667,88.75252532958984L86.09883333333335,74.42910939996894L86.21549999999999,71.43937891179864L86.33216666666667,88.59066113558681L86.44883333333333,111.79493990811436L86.68216666666667,89.21737081354314L86.79883333333333,109.23537410389294L86.9155,100.52361852472478L87.14883333333333,101.2630868391557L87.2655,82.87538805874911L87.6155,79.12022469260476L87.84883333333333,75.28115220503375L88.08216666666667,94.67459418556906L88.19883333333333,94.17052563753994L88.3155,110.62285163185813L89.0155,75.03132768110797L89.13216666666666,77.68959565596148L89.24883333333334,96.75476698441938L89.71549999999999,96.00424991954456L90.0655,101.29248879172586L90.29883333333333,80.20668515292081L90.64883333333334,59.009657426313915L91.1155,91.23959905450994L91.58216666666667,94.85370670665394L91.69883333333333,105.75587706132367L91.8155,95.83244185014203L92.04883333333333,92.45072624900125L92.28216666666665,102.76663762872869L92.39883333333333,107.3753169666637L92.5155,78.63131748546253L92.74883333333334,73.67699640447442L92.98216666666666,83.67458100752398L93.09883333333333,75.49058740789239L93.2155,128.6610416065563L93.33216666666667,108.12755272605203L93.56549999999999,89.17649043690075L93.68216666666666,83.17124904285778L93.79883333333333,93.58494186401367L94.03216666666667,75.66859505393289L94.38216666666666,76.27277755737305L94.6155,100.10302942449397L94.96549999999999,92.36153828014027L95.08216666666667,113.05511127818714L95.3155,82.78767325661399L95.54883333333333,41.38505900989879L95.78216666666667,94.33773006092419L96.0155,114.07251704822887L96.13216666666668,98.21043985540217L96.48216666666667,111.99584302035244L96.7155,81.23869982632723L96.83216666666667,79.49342692982067L97.29883333333333,75.6482162475586L97.53216666666667,93.44904223355381L97.7655,72.24851573597302L98.1155,94.83375757390803L98.23216666666667,101.8924973227761L98.34883333333333,101.94982806119053L98.46549999999999,91.31921143965289L98.58216666666667,85.56858236139472L98.69883333333334,110.40445466475055L99.1655,102.37667812000622L99.39883333333334,66.23830240423028L99.5155,66.63292694091797L99.63216666666666,53.26191329956055L99.74883333333332,75.50556460293856L99.8655,41.73812796852805L100.2155,82.05090574784711L100.33216666666667,82.6995287808505L100.44883333333333,87.63960925015536L101.2655,76.28081859241833L101.61550000000001,83.94938798384234L102.19883333333334,77.24255093661222L102.31549999999999,78.02339068326083L102.43216666666666,58.38558717207476L102.78216666666667,78.92153133045544L103.01549999999999,73.47013924338601L103.13216666666666,65.44009156660601L103.24883333333334,69.98812554099344L103.59883333333335,88.97675358165394L104.18216666666667,51.22532168301669L104.4155,71.14259719848633L104.53216666666667,73.97586510398172L104.64883333333333,58.534008719704374L104.7655,82.01315585049716L104.99883333333332,63.88111287897284L105.34883333333333,81.36428728970614L105.4655,71.62223573164508L105.69883333333333,90.69366801868786L106.16550000000001,70.378698869185L106.28216666666667,75.14249038696289L106.5155,102.48145710338245L106.8655,71.54231643676758L107.09883333333333,66.56295152144L107.33216666666667,90.8247798572887L107.44883333333334,100.55154731056906L107.5655,77.07749488136984L107.79883333333333,89.31220592151989L108.03216666666667,78.35104751586914L108.14883333333334,69.64260656183417L108.2655,88.26441608775745L108.38216666666666,77.25918544422497L108.49883333333332,59.07386294278231L108.73216666666667,76.22373338179156L108.84883333333333,85.35853333906695L108.9655,65.06474096124823L109.54883333333333,70.44419340653852L109.66550000000001,74.7442443154075L109.78216666666665,94.16377362337978L110.0155,100.41288549249822L110.13216666666666,74.61804303255948L110.24883333333334,80.11884758689187L110.36550000000001,50.74316649003462L111.18216666666666,62.380078749223195L111.53216666666667,83.69139966097745L111.64883333333334,73.85917802290484L111.88216666666666,71.93147798018023L112.46549999999999,101.73407051780008L112.58216666666667,60.58594582297586L112.69883333333333,67.63830184936523L113.04883333333333,78.8343075838956L113.1655,92.24687680331142L113.5155,69.61842207475141L113.63216666666668,86.9938711686568L113.8655,59.478185827081845L113.98216666666667,71.46098535711114L114.2155,109.71679271351208L114.33216666666667,65.02742073752664L114.44883333333333,78.27088269320402L114.5655,83.52450214732777L114.68216666666666,53.348707372492L115.38216666666666,90.664757121693L115.49883333333334,67.09261634133078L115.73216666666667,80.59621498801492L115.96549999999999,90.88014637340198L116.19883333333334,56.15171397816051L116.3155,85.219932902943L116.6655,76.07893336902966L116.78216666666667,63.980306105180226L117.24883333333332,90.64824537797406L117.3655,71.75764430652966L117.48216666666667,49.447577736594454L117.59883333333333,89.1931249445135L117.94883333333333,103.9941538030451L118.29883333333333,76.55347720059481L118.88216666666666,56.10174907337535L118.99883333333334,70.43394262140448L119.23216666666666,84.1062802401456L119.34883333333333,74.90862516923383L119.4655,50.67951341108843L119.69883333333334,55.882799668745555L119.81549999999999,81.0686104514382L119.93216666666666,63.35678828846324L120.04883333333333,63.708138552579015L120.51549999999999,85.35902439464222L120.63216666666666,67.88898572054777L120.8655,57.20465989546343L120.98216666666667,75.96721822565253L121.09883333333335,64.79398519342597L121.33216666666667,76.25951905684039L121.44883333333333,49.50134832208808L121.79883333333333,72.18971183083274L122.03216666666667,58.74884553389116L122.6155,52.677925456653945L122.73216666666667,60.87922876531427L123.08216666666667,72.94826993075284L123.43216666666666,75.80965076793323L123.78216666666667,50.03948385065253L124.0155,84.87686920166016L124.3655,67.90825965187766L124.48216666666667,70.13231173428622L124.94883333333334,70.44364096901633L125.0655,68.12905051491477L126.23216666666667,63.55805969238281L126.4655,94.64298248291016L126.58216666666667,57.20232738148082L126.69883333333333,57.226818778298124L126.8155,57.557421944358126L127.04883333333333,71.22859330610797L127.28216666666665,71.3175971291282L127.5155,50.35216348821466L127.86550000000001,53.051004929976024L128.09883333333332,72.45451354980469L128.2155,48.148735739968046L128.5655,67.56992236050692L128.68216666666666,60.05431678078391L128.9155,77.96593718095258L129.14883333333333,60.70840280706231L129.2655,61.495257984508164L129.38216666666665,57.98218501697887L129.6155,102.48673595081677L129.73216666666667,68.42564808238636L130.08216666666667,87.06255756724964L130.54883333333333,61.6776237487793L130.6655,89.72862104936078L130.89883333333333,93.60814423994586L131.13216666666668,62.7001242204146L131.59883333333335,66.85218325528231L131.7155,65.9492548162287L131.83216666666667,78.94504061612216L131.94883333333334,45.877787850119844L132.0655,74.99413022128019L132.18216666666666,56.71507748690519L132.29883333333333,46.693676688454374L132.53216666666668,59.35450120405718L132.99883333333332,61.87496670809659L133.23216666666667,70.24592971801758L133.34883333333332,69.63978299227628L133.69883333333334,66.54926334727894L134.1655,35.26509475708008L134.5155,63.39742313731801L134.74883333333332,77.77473241632636L134.8655,64.8970454822887L134.98216666666667,49.51988567005504L135.44883333333334,65.20131579312411L135.68216666666666,50.125418576327235L135.79883333333333,61.358253479003906L135.9155,47.98245204578746L136.03216666666665,77.78111613880505L136.2655,62.37473851984198L136.38216666666668,65.81759054010566L136.73216666666667,65.17774512551047L137.3155,52.431845231489696L137.54883333333333,82.8391727100719L137.6655,90.81354696100408L137.89883333333333,51.65272417935458L138.0155,73.60794171420011L138.48216666666667,65.94624710083008L138.7155,50.106881228360265L138.83216666666667,61.497344970703125L138.94883333333334,61.06005998091265L139.18216666666666,53.90887901999734L139.4155,50.84193004261363L139.53216666666665,76.67421549016778L139.64883333333333,48.43974755027078L139.88216666666668,40.58715508200906L139.99883333333332,75.58609771728516L140.23216666666667,58.058912450617L140.34883333333332,65.81605599143289L140.4655,40.18614682284269L140.58216666666667,86.35230705954812L140.69883333333334,75.3930514942516L140.8155,66.09632596102628L141.39883333333333,84.6960993680087L141.63216666666668,65.72999850186434L141.8655,53.84418244795366L141.98216666666667,58.76842637495562L142.09883333333335,64.80583190917969L142.68216666666666,75.01659601384942L143.14883333333333,42.98092824762519L143.38216666666665,46.37884868275035L143.49883333333335,44.983084591952235L144.19883333333334,82.03236839988016L144.31550000000001,65.62030896273527L144.43216666666666,79.88940186934039L144.54883333333333,59.806456479159266L144.6655,72.67690034346148L145.13216666666665,40.585988825017765L145.3655,52.1345724626021L145.48216666666667,30.528618205677382L146.18216666666666,56.821022727272734L146.29883333333333,60.77451116388495L146.64883333333333,68.42368386008523L146.88216666666668,60.584411274303086L146.99883333333332,42.47900806773793L147.1155,52.988395344127305L147.34883333333332,63.387908935546875L147.69883333333334,50.333626140247695L147.81550000000001,61.43258701671254L147.93216666666666,68.97673520174894L148.1655,91.43043552745472L148.28216666666668,39.95823565396395L148.39883333333333,28.171244534579184L148.51549999999997,75.31613991477273L148.63216666666668,57.78926155783914L148.74883333333332,63.1778599132191L149.09883333333332,57.068883028897375L149.2155,68.98054088245739L149.44883333333334,53.06678009033203L149.5655,49.4168253811923L149.6821666666667,58.55187086625532L150.03216666666668,57.10092440518466L150.14883333333333,54.207379427823156L150.2655,78.79895158247515L150.73216666666667,53.4117466319691L150.84883333333335,58.61306866732511L150.9655,84.67799169367011L151.54883333333333,81.73417490178888L151.78216666666665,58.75559754805132L152.0155,71.53390711004083L152.13216666666665,63.64012735540216L152.24883333333335,73.11173005537555L152.59883333333335,51.789237629283555L152.7155,65.309777693315L152.83216666666667,39.01295367154208L152.94883333333334,57.11105242642489L153.06550000000001,51.14675279097124L153.18216666666666,54.24494517933238L153.29883333333333,41.32723721590909L153.4155,66.39040686867453L153.64883333333336,44.84006465565074L153.99883333333335,46.32520086115058L154.23216666666667,42.65155272050337L154.34883333333332,25.101287841796875L154.6988333333333,58.64062916148793L154.81550000000001,80.17323199185458L155.04883333333333,33.1279595114968L155.1655,36.90178298950195L155.28216666666665,58.99535543268378L155.39883333333333,50.33460825139825L155.5155,65.74509846080433L155.74883333333332,63.74386284568094L155.8655,65.32782398570667L155.98216666666667,48.93669579245828L156.33216666666667,42.565924904563204L156.68216666666666,34.890910408713594L157.03216666666668,27.538703571666368L157.14883333333333,46.977077137340196L157.38216666666668,44.36496838656339L157.49883333333332,53.024978984485976L157.6155,67.84927160089667L157.73216666666667,39.0650669444691L157.84883333333332,18.52617645263672L157.9655,59.93149150501598L158.19883333333334,37.57440636374734L158.78216666666668,82.51820650967684L159.0155,51.99032488736239L159.24883333333332,62.48197278109464L159.48216666666667,65.52799051458184L159.59883333333335,62.97419461337003L160.29883333333333,47.81494071266867L160.4155,46.11226688731801L160.64883333333333,38.719425201416016L160.7655,58.28848093206231L160.88216666666665,29.18711575594816L161.34883333333335,-7.5931309786710015L161.58216666666667,35.62368809093129L161.81550000000001,48.98279363458808L162.04883333333333,5.678321144797581L162.1655,55.8883240439675L162.28216666666665,70.71286218816583L162.63216666666665,55.556309093128554L162.74883333333335,53.10452998768199L162.8655,20.372975089333277L163.09883333333332,67.74093246459961L163.2155,57.293111280961476L163.56550000000001,40.77332652698863L163.68216666666666,59.42944856123491L164.03216666666665,30.419972159645777L164.14883333333333,75.47548744895242L164.2655,24.19344884699042L164.49883333333332,57.056361111727625L164.96550000000002,26.09193108298562L165.08216666666667,47.50281351262872L165.19883333333334,72.06602720780805L165.43216666666666,42.99915868585761L165.54883333333333,49.565185546875L166.13216666666668,70.60912669788708L166.3655,26.8334250016646L166.7155,50.95959923484109L166.83216666666667,38.45560559359464L167.1821666666667,36.34388247403231L167.29883333333333,60.5739149613814L167.88216666666668,57.674600081010304L168.1155,48.64482463489879L168.23216666666667,33.03969227183949L168.34883333333335,38.463094191117726L168.4655,51.744428808038876L168.5821666666667,60.495468833229765L168.69883333333334,59.46505009044301L168.8155,43.04986017400567L169.1655,48.28616991910067L169.28216666666665,56.77848503806375L169.39883333333333,52.16937602650035L169.5155,74.05615269054066L169.74883333333335,57.69553132490679L169.98216666666664,47.84477233886719L170.09883333333335,60.88358688354492L170.44883333333334,69.84283447265625L170.56550000000001,40.46580297296698L170.9155,16.323423905806102L171.2655,14.849766124378553L171.73216666666667,41.1060166792436L172.31550000000001,56.353537819602266L172.43216666666666,14.966207677667782L172.54883333333333,65.44463383067738L173.0155,41.44067105379972L173.3655,59.06723369251598L173.94883333333334,65.49950929121539L174.29883333333333,39.80956857854669L174.64883333333333,55.81362221457742L174.88216666666668,42.25275421142578L174.99883333333332,24.804015072909262L175.34883333333332,46.106926657936796L175.8155,45.58456628972833L176.28216666666668,46.63481140136719L176.74883333333332,49.584213950417265L176.8655,29.145928469571206L177.44883333333334,56.29270831021395L177.68216666666666,55.42820496992632L177.79883333333333,56.76884807239879L178.03216666666665,59.54288239912554L178.14883333333333,41.92595672607422L178.38216666666665,41.00307915427469L179.19883333333334,57.664840351451524L180.24883333333335,63.86945030905984L180.3655,31.734221024946727L180.59883333333332,67.97461353648792L180.7155,51.60140887173739L181.06550000000001,18.879245411265977L181.18216666666666,43.79067889126864L181.4155,55.55637047507547L181.88216666666668,45.705857016823515L182.1155,49.52289338545366L182.58216666666667,51.34385022250089L182.69883333333334,50.607696533203125L182.81550000000001,63.14858072454278L182.93216666666666,20.75691916725852L183.04883333333333,32.27591670643199L183.51549999999997,43.812469482421875L183.63216666666668,-6.27851382168858L183.8655,81.61718091097745L183.98216666666667,36.823827916925595L184.44883333333334,75.24794457175516L185.03216666666668,35.84816187078302L185.14883333333333,73.35885377363726L185.6155,58.17952797629617L185.9655,52.98047707297586L186.3155,27.61856148459695L186.43216666666666,35.415971582586124L186.6655,59.22179343483664L186.78216666666665,39.400580666281954L187.13216666666665,9.84044681895863L187.3655,42.88302404230292L188.29883333333333,40.536269448020235L188.64883333333336,42.37705265391957L188.7655,41.47087097167969L188.99883333333335,42.27067773992364L189.23216666666667,28.174559159712352L189.34883333333332,29.91946376453746L190.39883333333333,40.75282495672052L190.5155,52.060054779052734L190.98216666666667,44.40916338833895L191.21550000000002,40.37274794145063L191.33216666666667,21.980199987238095L191.44883333333334,58.66100796786222L191.56550000000001,48.86058217828925L191.9155,49.62926829944957L192.14883333333333,34.516664678400204L192.26549999999997,25.894403977827587L192.38216666666668,47.50919723510742L192.49883333333332,32.956090060147375L192.6155,62.218766992742374L192.73216666666667,40.04994028264825L192.84883333333332,55.19458527998491L193.08216666666667,33.14005175503817L193.19883333333334,34.61665586991743L193.3155,40.9558764371005L193.4321666666667,40.97564142400567L193.54883333333333,14.665006464177921L193.66549999999998,32.73505366932262L193.78216666666668,21.18303264271129L193.89883333333333,53.51965609463778L194.13216666666668,31.97219883311879L194.94883333333334,29.758090626109727L195.29883333333333,53.002022136341445L195.4155,44.22679762406782L195.64883333333333,39.109384710138485L195.7655,61.71893379905008L196.23216666666664,50.684669494628906L196.34883333333335,33.113289226185195L196.4655,39.44373217496005L196.93216666666666,34.80282731489702L197.04883333333333,34.08545650135387L197.1655,40.483603737571016L197.28216666666665,40.35562237826261L197.39883333333336,49.459424452348195L197.63216666666665,22.392870816317465L197.74883333333335,25.66526517001066L198.2155,25.686196413907144L198.33216666666667,58.14061182195489L198.4488333333333,66.19840413873847L198.68216666666666,22.270659360018637L199.03216666666665,27.830758875066593L199.49883333333332,54.131327195601024L199.6155,57.84524189342152L199.73216666666667,5.801760240034616L199.96550000000002,42.76566175981001L200.19883333333334,11.90195950594816L200.31550000000001,54.15342469648882L201.13216666666668,39.66022630171343L201.48216666666667,34.7963208285245L201.7155,63.91468880393289L202.41549999999998,3.5813910744407L202.7655,38.344258741898976L202.88216666666668,41.82713179154829L203.23216666666667,47.00997786088423L203.69883333333334,33.35329263860528L203.93216666666666,27.6807413968173L204.04883333333333,48.574296777898624L204.39883333333333,-4.108723380348903L204.5155,38.93002666126598L204.63216666666665,43.214425173672765L204.8655,38.105421586470165L205.09883333333335,32.97824894298207L205.68216666666666,55.45901870727539L205.9155,54.71298252452504L206.03216666666665,6.165693803267038L206.14883333333336,-1.504471518776637L206.38216666666665,35.9881740916859L206.6155,20.678227511319253L206.73216666666667,47.99460567127574L206.84883333333332,30.303407842462704L206.9655,13.335473494096243L207.31550000000001,11.8724961714311L207.54883333333333,23.5276388688521L207.6655,47.872271451083094L207.78216666666665,36.36733037775214L207.89883333333333,40.279815673828125L208.0155,41.411023573441945L208.3655,-9.196120522238989L208.94883333333334,25.544772408225317L209.53216666666668,16.90047558871183L209.64883333333333,44.60190270163797L209.76549999999997,25.57049144398082L210.23216666666667,37.84313652732156L210.34883333333332,31.60390715165571L210.4655,36.55865790627219L211.28216666666668,54.205169677734375L211.39883333333333,40.04018055308949L211.63216666666668,42.21396082097833L211.74883333333332,25.351910331032496L211.98216666666667,9.482160394841983L212.44883333333334,18.205455780029297L212.68216666666666,13.519742098721597L212.9155,32.27493459528144L213.14883333333333,31.409387761896298L213.2655,32.13971016623758L213.73216666666664,24.04244925759055L214.19883333333334,21.51633661443536L214.31550000000001,29.477022691206493L214.43216666666666,34.68736787275835L214.54883333333333,43.27089656483043L214.78216666666665,31.739622636274852L214.89883333333336,44.92182540893555L215.48216666666667,26.22371812300249L215.59883333333332,13.585789073597303L215.83216666666667,34.50659803910688L216.06550000000001,28.29179867831144L216.18216666666666,40.88043802434747L216.29883333333333,34.520347595214844L216.4155,37.60288758711382L216.64883333333333,48.114791523326524L216.88216666666668,21.935452547940347L217.34883333333332,36.322582938454374L217.58216666666667,39.84339003129438L217.81550000000001,9.606827129017224L218.1655,25.058627388694067L218.28216666666668,17.88854078813032L218.74883333333332,24.45775951038707L219.09883333333332,17.082104769620035L219.33216666666667,27.986730402166202L219.44883333333334,46.30426961725409L219.5655,33.641296733509414L219.6821666666667,17.54308319091797L220.03216666666668,43.28305019031871L220.14883333333333,19.277307336980655L220.2655,44.0035514831543L220.38216666666668,52.17981095747515L220.49883333333332,8.46948103471235L220.6155,41.46583765203302L220.9655,25.59148406982422L221.0821666666667,32.89550607854669L221.19883333333334,26.383863622492L221.43216666666666,35.683105815540664L221.54883333333333,34.79846919666637L221.6655,46.24221246892755L221.78216666666665,44.43254991011187L222.0155,64.70878705111417L222.24883333333335,7.736396442760119L222.59883333333335,44.699070323597304L222.83216666666667,15.358192790638318L222.94883333333334,43.23063000765714L223.06550000000001,30.52438285134055L223.18216666666666,26.543149774724796L223.88216666666665,-15.68284190784803L223.99883333333335,63.317626606334336L224.34883333333332,15.720960096879447L224.4655,15.890926707874646L224.58216666666667,38.20105465975675L224.6988333333333,27.753233476118602L225.28216666666665,18.886856772682886L226.21550000000002,5.827479275790123L226.33216666666667,19.595081676136367L226.44883333333334,37.963199615478516L226.79883333333333,19.669169686057348L227.03216666666668,48.17187673395331L227.38216666666668,37.528001611883L227.49883333333332,47.040239160711124L227.6155,25.236205361106176L227.73216666666667,24.614529002796523L227.9655,37.394495877352625L228.08216666666667,9.38351960615679L228.4321666666667,14.529966180974796L229.0155,2.4551551125266373L229.13216666666668,38.0132872841575L229.3655,55.76991826837714L229.48216666666667,34.66944434426047L229.7155,42.323711742054336L230.53216666666665,21.321203405206845L230.64883333333333,33.63503577492453L230.7655,10.35869459672407L231.1155,12.025214455344457L231.23216666666664,46.906917572021484L231.58216666666667,13.229712399569419L231.69883333333334,35.18161530928179L231.81550000000001,15.73661249334161L231.93216666666666,26.194807226007626L232.1655,18.407218239524145L232.28216666666665,11.807063016024497L232.5155,10.606186606667261L232.74883333333335,25.13148775967684L232.98216666666667,46.92361346158114L233.09883333333332,17.09916895086114L233.4488333333333,38.323388879949405L233.68216666666666,13.855317202481363L233.79883333333333,10.388403459028757L233.9155,32.10165335915305L234.38216666666668,9.503705458207572L234.6155,29.33608974109996L235.08216666666667,51.18597585504706L235.31550000000001,13.89767074584961L235.54883333333333,34.908527027476914L235.6655,16.26830291748047L236.13216666666668,22.455541784113095L236.48216666666667,27.434170116077773L236.59883333333332,43.11467950994317L236.83216666666667,9.034010800448325L236.94883333333334,17.358814586292617L237.1821666666667,3.345438870516685L237.29883333333333,25.311582391912296L237.41549999999998,0.9814973310990696L237.64883333333333,25.704181324351914L237.7655,-8.707458842884392L237.88216666666668,36.33866500854492L238.5821666666667,-24.54756129871717L238.69883333333334,26.461941458962183L238.8155,3.9581534645774186L238.93216666666666,33.15570415150035L239.04883333333333,15.047661521218043L239.39883333333333,12.991734591397378L239.63216666666665,52.426505002108485L239.98216666666664,18.333437139337704L240.44883333333334,21.81324109164152L240.9155,-1.3969303477894355L241.03216666666665,27.65545203469016L241.14883333333336,44.71840563687411L241.2655,20.677613691850148L241.73216666666667,8.633248069069605L241.84883333333332,31.20682733709161L241.9655,27.140948555686254L242.08216666666667,20.097738439386532L242.1988333333333,8.078355268998587L242.43216666666666,4.117562380704018L242.6655,19.75406091863458L242.78216666666665,25.12516541914507L243.13216666666668,9.355283910577938L243.24883333333332,27.94026426835493L243.48216666666667,43.46007572520863L243.71550000000002,11.476152940229928L243.94883333333334,25.324411218816593L244.06550000000001,36.56516439264472L244.53216666666668,20.522010456431993L244.99883333333332,17.695555947043676L245.23216666666667,27.058819510719996L245.34883333333332,12.636946938254614L245.8155,21.173334295099423L246.04883333333333,38.1995814930309L246.16549999999998,29.54442006891425L246.28216666666668,41.89403811368075L246.63216666666668,29.997848510742188L246.98216666666667,17.902413108132105L247.2155,38.10265939885919L247.9155,48.344789678400204L248.03216666666665,33.500977602871984L248.14883333333333,44.71097842129794L248.38216666666665,25.472710002552382L248.49883333333335,14.989901109175241L248.84883333333335,6.6408514543013215L249.19883333333334,27.387458454478868L249.31550000000001,50.627093228426844L249.6655,29.559335882013485L249.78216666666665,11.197847192937687L249.89883333333336,21.26546859741211L250.0155,24.164783477783203L250.3655,39.36178727583452L250.59883333333332,2.8777084350585938L250.9488333333333,27.952724803577773L251.06550000000001,33.90701918168501L251.29883333333333,27.590325789018117L251.64883333333333,56.68021254106001L252.1155,15.593101501464844L252.23216666666667,29.419691952792075L252.34883333333332,9.42648696899414L252.46550000000002,11.504450017755673L252.58216666666667,13.130887465043509L252.81550000000001,29.075646140358668L252.93216666666666,28.665062297474257L253.04883333333333,-3.840238744562333L253.1655,45.365187211470165L253.8655,13.67663435502485L254.09883333333332,8.42995106090199L254.2155,47.74895511973988L254.33216666666667,-0.3284547979181356L254.44883333333334,28.90015515414152L254.5655,4.207118641246447L254.6821666666667,24.438792488791723L254.79883333333333,35.82011032104492L255.03216666666668,26.360845392400577L255.2655,42.278411865234375L255.38216666666668,25.850822795521132L255.49883333333332,7.953688534823326L255.73216666666667,20.88447085293856L255.84883333333335,0.5395473133433967L255.9655,16.293469515713785L256.1988333333333,-4.553803877397025L256.54883333333333,27.326199271462183" style="fill: none;" fill="none"></path></g></g></g></g></g></g><g transform="translate(50, 177)" clip-path="url(#clip_1)"><clipPath id="clip_1"><rect width="280" height="23"></rect></clipPath><g><g><line x1="0" y1="0" x2="0" y2="5" style="visibility: inherit;" fill="rgb(0, 0, 0)" stroke="rgb(204, 204, 204)" stroke-width="1px"></line><line x1="23.333333333333332" y1="0" x2="23.333333333333332" y2="5" style="visibility: inherit;" fill="rgb(0, 0, 0)" stroke="rgb(204, 204, 204)" stroke-width="1px"></line><line x1="46.666666666666664" y1="0" x2="46.666666666666664" y2="5" style="visibility: inherit;" fill="rgb(0, 0, 0)" stroke="rgb(204, 204, 204)" stroke-width="1px"></line><line x1="70" y1="0" x2="70" y2="5" style="visibility: inherit;" fill="rgb(0, 0, 0)" stroke="rgb(204, 204, 204)" stroke-width="1px"></line><line x1="93.33333333333333" y1="0" x2="93.33333333333333" y2="5" style="visibility: inherit;" fill="rgb(0, 0, 0)" stroke="rgb(204, 204, 204)" stroke-width="1px"></line><line x1="116.66666666666667" y1="0" x2="116.66666666666667" y2="5" style="visibility: inherit;" fill="rgb(0, 0, 0)" stroke="rgb(204, 204, 204)" stroke-width="1px"></line><line x1="140" y1="0" x2="140" y2="5" style="visibility: inherit;" fill="rgb(0, 0, 0)" stroke="rgb(204, 204, 204)" stroke-width="1px"></line><line x1="163.33333333333334" y1="0" x2="163.33333333333334" y2="5" style="visibility: inherit;" fill="rgb(0, 0, 0)" stroke="rgb(204, 204, 204)" stroke-width="1px"></line><line x1="186.66666666666666" y1="0" x2="186.66666666666666" y2="5" style="visibility: inherit;" fill="rgb(0, 0, 0)" stroke="rgb(204, 204, 204)" stroke-width="1px"></line><line x1="210" y1="0" x2="210" y2="5" style="visibility: inherit;" fill="rgb(0, 0, 0)" stroke="rgb(204, 204, 204)" stroke-width="1px"></line><line x1="233.33333333333334" y1="0" x2="233.33333333333334" y2="5" style="visibility: inherit;" fill="rgb(0, 0, 0)" stroke="rgb(204, 204, 204)" stroke-width="1px"></line><line x1="256.66666666666663" y1="0" x2="256.66666666666663" y2="5" style="visibility: inherit;" fill="rgb(0, 0, 0)" stroke="rgb(204, 204, 204)" stroke-width="1px"></line><line x1="280" y1="0" x2="280" y2="5" style="visibility: inherit;" fill="rgb(0, 0, 0)" stroke="rgb(204, 204, 204)" stroke-width="1px"></line></g><g transform="translate(0, 8)"><text x="0" y="0" dx="0em" dy="0.95em" style="text-anchor: middle; visibility: hidden; font-family: Roboto, sans-serif; font-size: 12px; font-weight: 200;" fill="rgb(33, 33, 33)" stroke="none" stroke-width="1px">-20k</text><text x="23.333333333333332" y="0" dx="0em" dy="0.95em" style="text-anchor: middle; visibility: inherit; font-family: Roboto, sans-serif; font-size: 12px; font-weight: 200;" fill="rgb(33, 33, 33)" stroke="none" stroke-width="1px">0</text><text x="46.666666666666664" y="0" dx="0em" dy="0.95em" style="text-anchor: middle; visibility: hidden; font-family: Roboto, sans-serif; font-size: 12px; font-weight: 200;" fill="rgb(33, 33, 33)" stroke="none" stroke-width="1px">20k</text><text x="70" y="0" dx="0em" dy="0.95em" style="text-anchor: middle; visibility: inherit; font-family: Roboto, sans-serif; font-size: 12px; font-weight: 200;" fill="rgb(33, 33, 33)" stroke="none" stroke-width="1px">40k</text><text x="93.33333333333333" y="0" dx="0em" dy="0.95em" style="text-anchor: middle; visibility: hidden; font-family: Roboto, sans-serif; font-size: 12px; font-weight: 200;" fill="rgb(33, 33, 33)" stroke="none" stroke-width="1px">60k</text><text x="116.66666666666667" y="0" dx="0em" dy="0.95em" style="text-anchor: middle; visibility: inherit; font-family: Roboto, sans-serif; font-size: 12px; font-weight: 200;" fill="rgb(33, 33, 33)" stroke="none" stroke-width="1px">80k</text><text x="140" y="0" dx="0em" dy="0.95em" style="text-anchor: middle; visibility: hidden; font-family: Roboto, sans-serif; font-size: 12px; font-weight: 200;" fill="rgb(33, 33, 33)" stroke="none" stroke-width="1px">100k</text><text x="163.33333333333334" y="0" dx="0em" dy="0.95em" style="text-anchor: middle; visibility: inherit; font-family: Roboto, sans-serif; font-size: 12px; font-weight: 200;" fill="rgb(33, 33, 33)" stroke="none" stroke-width="1px">120k</text><text x="186.66666666666666" y="0" dx="0em" dy="0.95em" style="text-anchor: middle; visibility: hidden; font-family: Roboto, sans-serif; font-size: 12px; font-weight: 200;" fill="rgb(33, 33, 33)" stroke="none" stroke-width="1px">140k</text><text x="210" y="0" dx="0em" dy="0.95em" style="text-anchor: middle; visibility: inherit; font-family: Roboto, sans-serif; font-size: 12px; font-weight: 200;" fill="rgb(33, 33, 33)" stroke="none" stroke-width="1px">160k</text><text x="233.33333333333334" y="0" dx="0em" dy="0.95em" style="text-anchor: middle; visibility: hidden; font-family: Roboto, sans-serif; font-size: 12px; font-weight: 200;" fill="rgb(33, 33, 33)" stroke="none" stroke-width="1px">180k</text><text x="256.66666666666663" y="0" dx="0em" dy="0.95em" style="text-anchor: middle; visibility: inherit; font-family: Roboto, sans-serif; font-size: 12px; font-weight: 200;" fill="rgb(33, 33, 33)" stroke="none" stroke-width="1px">200k</text><text x="280" y="0" dx="0em" dy="0.95em" style="text-anchor: middle; visibility: hidden; font-family: Roboto, sans-serif; font-size: 12px; font-weight: 200;" fill="rgb(33, 33, 33)" stroke="none" stroke-width="1px">220k</text></g><line x1="0" y1="0" x2="280" y2="0" fill="rgb(0, 0, 0)" stroke="rgb(204, 204, 204)" stroke-width="1px"></line></g></g></g></g></svg>