<svg viewBox="0 0 330 200" xmlns="http://www.w3.org/2000/svg"><g><g><g><g><g><line x1="72.34375" y1="177" x2="67.34375" y2="177" style="visibility: inherit;" fill="rgb(0, 0, 0)" stroke="rgb(204, 204, 204)" stroke-width="1px"></line><line x1="72.34375" y1="157.33333333333331" x2="67.34375" y2="157.33333333333331" style="visibility: inherit;" fill="rgb(0, 0, 0)" stroke="rgb(204, 204, 204)" stroke-width="1px"></line><line x1="72.34375" y1="137.66666666666666" x2="67.34375" y2="137.66666666666666" style="visibility: inherit;" fill="rgb(0, 0, 0)" stroke="rgb(204, 204, 204)" stroke-width="1px"></line><line x1="72.34375" y1="118" x2="67.34375" y2="118" style="visibility: inherit;" fill="rgb(0, 0, 0)" stroke="rgb(204, 204, 204)" stroke-width="1px"></line><line x1="72.34375" y1="98.33333333333334" x2="67.34375" y2="98.33333333333334" style="visibility: inherit;" fill="rgb(0, 0, 0)" stroke="rgb(204, 204, 204)" stroke-width="1px"></line><line x1="72.34375" y1="78.66666666666669" x2="67.34375" y2="78.66666666666669" style="visibility: inherit;" fill="rgb(0, 0, 0)" stroke="rgb(204, 204, 204)" stroke-width="1px"></line><line x1="72.34375" y1="59.00000000000001" x2="67.34375" y2="59.00000000000001" style="visibility: inherit;" fill="rgb(0, 0, 0)" stroke="rgb(204, 204, 204)" stroke-width="1px"></line><line x1="72.34375" y1="39.33333333333333" x2="67.34375" y2="39.33333333333333" style="visibility: inherit;" fill="rgb(0, 0, 0)" stroke="rgb(204, 204, 204)" stroke-width="1px"></line><line x1="72.34375" y1="19.666666666666675" x2="67.34375" y2="19.666666666666675" style="visibility: inherit;" fill="rgb(0, 0, 0)" stroke="rgb(204, 204, 204)" stroke-width="1px"></line><line x1="72.34375" y1="0" x2="67.34375" y2="0" style="visibility: inherit;" fill="rgb(0, 0, 0)" stroke="rgb(204, 204, 204)" stroke-width="1px"></line></g><g transform="translate(62.34375, 0)"><text x="0" y="177" dx="0em" dy="0.3em" style="text-anchor: end; visibility: hidden; font-family: Roboto, sans-serif; font-size: 12px; font-weight: 200;" fill="rgb(33, 33, 33)" stroke="none" stroke-width="1px">5e-5</text><text x="0" y="157.33333333333331" dx="0em" dy="0.3em" style="text-anchor: end; visibility: inherit; font-family: Roboto, sans-serif; font-size: 12px; font-weight: 200;" fill="rgb(33, 33, 33)" stroke="none" stroke-width="1px">1e-4</text><text x="0" y="137.66666666666666" dx="0em" dy="0.3em" style="text-anchor: end; visibility: hidden; font-family: Roboto, sans-serif; font-size: 12px; font-weight: 200;" fill="rgb(33, 33, 33)" stroke="none" stroke-width="1px">1.5e-4</text><text x="0" y="118" dx="0em" dy="0.3em" style="text-anchor: end; visibility: inherit; font-family: Roboto, sans-serif; font-size: 12px; font-weight: 200;" fill="rgb(33, 33, 33)" stroke="none" stroke-width="1px">2e-4</text><text x="0" y="98.33333333333334" dx="0em" dy="0.3em" style="text-anchor: end; visibility: hidden; font-family: Roboto, sans-serif; font-size: 12px; font-weight: 200;" fill="rgb(33, 33, 33)" stroke="none" stroke-width="1px">2.5e-4</text><text x="0" y="78.66666666666669" dx="0em" dy="0.3em" style="text-anchor: end; visibility: inherit; font-family: Roboto, sans-serif; font-size: 12px; font-weight: 200;" fill="rgb(33, 33, 33)" stroke="none" stroke-width="1px">3e-4</text><text x="0" y="59.00000000000001" dx="0em" dy="0.3em" style="text-anchor: end; visibility: hidden; font-family: Roboto, sans-serif; font-size: 12px; font-weight: 200;" fill="rgb(33, 33, 33)" stroke="none" stroke-width="1px">3.5e-4</text><text x="0" y="39.33333333333333" dx="0em" dy="0.3em" style="text-anchor: end; visibility: inherit; font-family: Roboto, sans-serif; font-size: 12px; font-weight: 200;" fill="rgb(33, 33, 33)" stroke="none" stroke-width="1px">4e-4</text><text x="0" y="19.666666666666675" dx="0em" dy="0.3em" style="text-anchor: end; visibility: hidden; font-family: Roboto, sans-serif; font-size: 12px; font-weight: 200;" fill="rgb(33, 33, 33)" stroke="none" stroke-width="1px">4.5e-4</text><text x="0" y="0" dx="0em" dy="0.3em" style="text-anchor: end; visibility: hidden; font-family: Roboto, sans-serif; font-size: 12px; font-weight: 200;" fill="rgb(33, 33, 33)" stroke="none" stroke-width="1px">5e-4</text></g><line x1="72.34375" y1="0" x2="72.34375" y2="177" fill="rgb(0, 0, 0)" stroke="rgb(204, 204, 204)" stroke-width="1px"></line></g></g><g transform="translate(72, 0)" clip-path="url(#clip_0)"><clipPath id="clip_0"><rect width="257" height="177"></rect></clipPath><g><g><g><line x1="0" y1="0" x2="0" y2="177" fill="rgb(0, 0, 0)" stroke="rgb(66, 66, 66)" stroke-width="1px" opacity="0.25"></line><line x1="21.471354166666664" y1="0" x2="21.471354166666664" y2="177" fill="rgb(0, 0, 0)" stroke="rgb(66, 66, 66)" stroke-width="1px" opacity="0.25"></line><line x1="42.94270833333333" y1="0" x2="42.94270833333333" y2="177" fill="rgb(0, 0, 0)" stroke="rgb(66, 66, 66)" stroke-width="1px" opacity="0.25"></line><line x1="64.4140625" y1="0" x2="64.4140625" y2="177" fill="rgb(0, 0, 0)" stroke="rgb(66, 66, 66)" stroke-width="1px" opacity="0.25"></line><line x1="85.88541666666666" y1="0" x2="85.88541666666666" y2="177" fill="rgb(0, 0, 0)" stroke="rgb(66, 66, 66)" stroke-width="1px" opacity="0.25"></line><line x1="107.35677083333334" y1="0" x2="107.35677083333334" y2="177" fill="rgb(0, 0, 0)" stroke="rgb(66, 66, 66)" stroke-width="1px" opacity="0.25"></line><line x1="128.828125" y1="0" x2="128.828125" y2="177" fill="rgb(0, 0, 0)" stroke="rgb(66, 66, 66)" stroke-width="1px" opacity="0.25"></line><line x1="150.29947916666669" y1="0" x2="150.29947916666669" y2="177" fill="rgb(0, 0, 0)" stroke="rgb(66, 66, 66)" stroke-width="1px" opacity="0.25"></line><line x1="171.77083333333331" y1="0" x2="171.77083333333331" y2="177" fill="rgb(0, 0, 0)" stroke="rgb(66, 66, 66)" stroke-width="1px" opacity="0.25"></line><line x1="193.2421875" y1="0" x2="193.2421875" y2="177" fill="rgb(0, 0, 0)" stroke="rgb(66, 66, 66)" stroke-width="1px" opacity="0.25"></line><line x1="214.71354166666669" y1="0" x2="214.71354166666669" y2="177" fill="rgb(0, 0, 0)" stroke="rgb(66, 66, 66)" stroke-width="1px" opacity="0.25"></line><line x1="236.18489583333331" y1="0" x2="236.18489583333331" y2="177" fill="rgb(0, 0, 0)" stroke="rgb(66, 66, 66)" stroke-width="1px" opacity="0.25"></line><line x1="257.65625" y1="0" x2="257.65625" y2="177" fill="rgb(0, 0, 0)" stroke="rgb(66, 66, 66)" stroke-width="1px" opacity="0.25"></line></g><g><line x1="0" y1="177" x2="257.65625" y2="177" fill="rgb(0, 0, 0)" stroke="rgb(66, 66, 66)" stroke-width="1px" opacity="0.25"></line><line x1="0" y1="157.33333333333331" x2="257.65625" y2="157.33333333333331" fill="rgb(0, 0, 0)" stroke="rgb(66, 66, 66)" stroke-width="1px" opacity="0.25"></line><line x1="0" y1="137.66666666666666" x2="257.65625" y2="137.66666666666666" fill="rgb(0, 0, 0)" stroke="rgb(66, 66, 66)" stroke-width="1px" opacity="0.25"></line><line x1="0" y1="118" x2="257.65625" y2="118" fill="rgb(0, 0, 0)" stroke="rgb(66, 66, 66)" stroke-width="1px" opacity="0.25"></line><line x1="0" y1="98.33333333333334" x2="257.65625" y2="98.33333333333334" fill="rgb(0, 0, 0)" stroke="rgb(66, 66, 66)" stroke-width="1px" opacity="0.25"></line><line x1="0" y1="78.66666666666669" x2="257.65625" y2="78.66666666666669" fill="rgb(0, 0, 0)" stroke="rgb(66, 66, 66)" stroke-width="1px" opacity="0.25"></line><line x1="0" y1="59.00000000000001" x2="257.65625" y2="59.00000000000001" fill="rgb(0, 0, 0)" stroke="rgb(66, 66, 66)" stroke-width="1px" opacity="0.25"></line><line x1="0" y1="39.33333333333333" x2="257.65625" y2="39.33333333333333" fill="rgb(0, 0, 0)" stroke="rgb(66, 66, 66)" stroke-width="1px" opacity="0.25"></line><line x1="0" y1="19.666666666666675" x2="257.65625" y2="19.666666666666675" fill="rgb(0, 0, 0)" stroke="rgb(66, 66, 66)" stroke-width="1px" opacity="0.25"></line><line x1="0" y1="0" x2="257.65625" y2="0" fill="rgb(0, 0, 0)" stroke="rgb(66, 66, 66)" stroke-width="1px" opacity="0.25"></line></g></g></g><g><g><line x1="0" y1="196.66666666666669" x2="257.65625" y2="196.66666666666669" fill="rgb(0, 0, 0)" stroke="rgb(153, 153, 153)" stroke-width="1.5px"></line></g></g><g><g><line x1="21.471354166666664" y1="0" x2="21.471354166666664" y2="177" fill="rgb(0, 0, 0)" stroke="rgb(153, 153, 153)" stroke-width="1.5px"></line></g></g><g><g><g><g><g><path stroke="rgb(255, 112, 67)" stroke-width="2px" d="M21.577637369791667,0.17923571790257653L21.89970768229167,0.5180962240168248L22.007064453125,0.7138646492214762L22.651205078125003,1.2960321605137128L22.758561848958333,1.6707073675463167L23.080632161458333,2.1011420697766092L23.187988932291667,2.4196602846141224L23.510059244791666,2.8225155354527365L23.617416015624997,3.131745449088498L23.724772786458335,3.3868029023684985L23.939486328125,3.6813678428287377L24.046843098958334,3.9284864928550154L24.368913411458333,4.289009823119325L24.476270182291668,4.575717903191135L25.120410807291666,5.170293052448095L25.44248111979167,5.737296237668573L25.549837890625,6.147402242855623L25.657194661458334,6.463359045881241L25.764551432291668,6.722783269968932L25.871908203125,6.948232555463434L26.623405598958332,7.5703287775150345L26.730762369791666,8.012868156859374L26.838119140625,8.34761396546771L27.052832682291665,8.686723399147912L27.160189453125003,8.95922127132542L27.374902994791665,9.260602662067773L27.696973307291668,9.647774975479882L28.019043619791667,10.085849457747903L28.126400390624998,10.417159247913235L28.233757161458335,10.684350779723946L28.341113932291666,10.913002705746576L28.555827473958335,11.186684764057523L28.66318424479167,11.419043284925039L28.770541015625,11.626548161827557L28.87789778645833,11.8190767488286L29.092611328125,12.070457488193465L29.199968098958333,12.289123854958843L29.844108723958332,12.826037048211862L30.058822265625,13.282926695417737L30.16617903645833,13.62433976924144L30.380892578125,13.963553867363158L30.488249348958334,14.234173873047038L30.702962890625003,14.53054581021184L31.132389973958333,14.975627041669794L31.239746744791667,15.309336901204965L31.776530598958335,15.841948040904366L32.20595768229167,16.42632302745786L32.313314453125,16.84299555372402L32.635384765625005,17.2907845103128L32.957455078125,17.75669842377979L33.064811848958335,18.101868458957252L33.279525390625004,18.44003985216065L33.81630924479167,18.96956294771531L34.03102278645833,19.417503640656133L34.567806640624994,20.010786553832943L34.99723372395833,20.625300528847212L35.10459049479167,21.058495008295708L35.319304036458334,21.44720530374108L35.534017578124995,21.808991559649083L35.64137434895834,22.0902517724611L35.74873111979167,22.323141411383606L36.178158203125,22.71880939033013L36.285514973958335,23.020046053760538L36.929655598958334,23.58257613548138L37.03701236979166,23.983522529339776L37.25172591145834,24.350768474202944L37.359082682291664,24.634365804843075L37.68115299479167,24.993930069194434L38.432650390625,25.649582571215134L38.64736393229167,26.16814568910105L38.754720703125,26.541782367118813L38.969434244791664,26.89078798640091L39.18414778645833,27.22478602030862L39.398861328125,27.549550552858854L39.82828841145833,27.992453846401354L39.935645182291665,28.320067306448856L40.043001953125,28.578447339364793L40.365072265625,28.918567804577297L40.47242903645833,29.184223090459326L40.579785807291664,29.40514432071114L40.687142578125005,29.599170169552966L40.90185611979167,29.83835789813845L41.009212890625,30.043169643879416L41.331283203125004,30.349624328901676L41.43863997395833,30.59457187737445L41.545996744791665,30.802560195885622L41.86806705729167,31.11007370907814L41.975423828124995,31.355377235290906L42.08278059895833,31.563299821283902L42.19013736979167,31.748738895113163L42.51220768229167,32.04171548091166L42.941634765625,32.459011769609404L43.04899153645833,32.76962632280098L43.263705078125,33.07630377056602L43.371061848958334,33.32038217510226L43.47841861979167,33.52684620566928L43.585775390624995,33.71068666382293L43.80048893229167,33.94074559524353L44.01520247395833,34.19832039749938L44.229916015625,34.47218035112609L44.44462955729166,34.75559160344775L44.65934309895834,35.04451842186137L44.766699869791665,35.27723212437203L44.981413411458334,35.535406145705025L45.08877018229166,35.74950332587158L45.196126953125,35.937104032309016L45.30348372395834,36.10874732747445L45.410840494791664,36.27076122784476L45.62555403645833,36.485865149516044L45.73291080729167,36.67379516069682L46.162337890625004,37.02147889880094L46.806478515625,37.58085906131716L47.021192057291664,38.03298156546248L47.128548828125,38.36242213872091L47.23590559895833,38.618198605415316L47.450619140625,38.88772846581762L47.55797591145833,39.10739823970533L47.772689453125004,39.35494355423752L47.88004622395833,39.561266914512736L47.987402994791665,39.74279757519922L48.094759765625,39.90940224710323L48.631543619791664,40.29699968124359L48.738900390625005,40.5869284660365L48.84625716145833,40.818196534186356L49.168327473958335,41.12858755272315L49.27568424479167,41.37192690599971L49.383041015625004,41.57498489109087L49.49039778645833,41.7538191072389L49.705111328125,41.97495822202132L50.56396549479167,42.56091716405829L50.671322265624994,42.96891957904148L50.993392578125,43.382681647128365L51.10074934895833,43.6871553036192L51.20810611979167,43.92600554412319L51.422819661458334,44.18149209555415L51.637533203124995,44.446754378421694L51.85224674479167,44.71767604503151L51.959603515625,44.93603335039683L52.17431705729167,45.17850523732722L52.389030598958335,45.43523523907435L52.49638736979166,45.644821121373205L52.71110091145834,45.88151730616597L53.247884765625,46.30000146055544L53.35524153645834,46.60623230320309L53.462598307291664,46.8450607897764L53.569955078125,47.04339749367588L54.214095703125004,47.49157028012904L54.428809244791665,47.86979306147058L54.643522786458334,48.205844363628195L54.75087955729167,48.46196069755655L55.072949869791664,48.77878036263685L55.180306640625,49.023156238201864L55.502376953125,49.33233635791853L55.71709049479167,49.625963840521685L55.824447265625004,49.85612219242491L56.146517578125,50.155874313423475L56.36123111979167,50.443249726450105L56.89801497395833,50.88361531482975L57.00537174479167,51.2012762078852L57.112728515625,51.44526391471687L57.220085286458335,51.64499734078505L57.756869140625,52.030813344849115L57.864225911458334,52.31535069308656L58.078939453124995,52.59202206554201L58.401009765625,52.91658659307472L58.50836653645833,53.16407999922323L58.61572330729167,53.365284942514634L58.723080078124994,53.538666439062524L58.93779361979167,53.747865870052266L59.15250716145833,53.9783637435955L59.367220703125,54.221448364559144L59.474577473958334,54.419618821513666L59.58193424479167,54.59079499003611L60.011361328125,54.90210631526404L60.22607486979167,55.192909734791876L60.440788411458335,55.47121609278798L60.54814518229166,55.69004337568549L60.655501953125,55.873132844494585L60.76285872395834,56.03472925582139L60.870215494791665,56.18338404263223L60.977572265625,56.324228064706915L61.084929036458334,56.46033525891065L61.72906966145833,56.8506197756149L62.051139973958335,57.23846181485759L62.15849674479166,57.52229618208828L62.909994140625,58.049186634459446L63.01735091145833,58.41607457134921L63.44677799479167,58.83875493708035L63.554134765625,59.14288787185322L63.66149153645833,59.37584197902185L63.76884830729167,59.566038420598716L63.876205078125004,59.73053905179662L63.98356184895833,59.879576406740505L64.09091861979167,60.01928542690279L64.198275390625,60.15335623517216L64.30563216145833,60.28399374727656L64.41298893229167,60.41252549165536L64.62770247395834,60.589805642435245L64.73505924479167,60.746185599939615L64.94977278645834,60.93989993843528L65.37919986979166,61.255347210197215L65.486556640625,61.49430233110205L65.808626953125,61.786474674036384L65.91598372395833,62.01128625654099L66.02334049479167,62.19563559276114L66.130697265625,62.3556572121814L66.45276757812499,62.599649812749114L66.77483789062501,62.89361289176609L66.88219466145834,63.11908680568099L67.20426497395833,63.40139835039253L67.31162174479167,63.61970276262049L67.741048828125,63.94590660930089L67.84840559895834,64.19032661058253L68.17047591145833,64.48278779300698L68.27783268229166,64.70677903562873L68.385189453125,64.88964252434228L68.49254622395833,65.04778814968697L68.59990299479168,65.19105268798111L68.70725976562501,65.32534736302102L68.81461653645833,65.45421890908443L68.92197330729167,65.5797862087327L69.13668684895833,65.7514871204677L69.24404361979167,65.90262382744447L69.351400390625,66.04137622153975L69.45875716145832,66.17265223787952L69.88818424479167,66.44307658295868L69.995541015625,66.65313597776117L70.10289778645833,66.82693061237111L70.21025455729166,66.97892517984157L70.317611328125,67.11779391700176L70.53232486979167,67.29633094057925L70.74703841145833,67.49849035490348L70.961751953125,67.71464920157469L71.06910872395834,67.89171429207985L71.39117903645833,68.13978795373082L71.49853580729166,68.33582793112284L71.60589257812501,68.5005973289302L71.82060611979168,68.69362615728721L72.03531966145833,68.90344122087566L72.46474674479165,69.21679920687144L72.572103515625,69.45157019461512L72.894173828125,69.7324541095564L73.00153059895834,69.947571231569L73.10888736979166,70.12318706680047L73.216244140625,70.27506091893937L73.32360091145833,70.41264379119609L73.43095768229166,70.54161086449963L73.538314453125,70.66536266840463L73.75302799479167,70.83223323752165L73.860384765625,70.97859892684029L73.96774153645833,71.11262505625871L74.07509830729167,71.23919708070768L74.28981184895834,71.40733393490382L74.61188216145834,71.64619055552821L75.04130924479166,71.97287526836618L75.36337955729167,72.30597227765993L75.470736328125,72.55144192871775L75.57809309895832,72.74429395381011L75.90016341145834,72.9964594480896L76.114876953125,73.23851915635191L76.22223372395833,73.42907337062074L76.32959049479166,73.58868307746955L76.436947265625,73.72968028983978L76.54430403645833,73.85947337350154L76.65166080729168,73.98250276891433L76.75901757812501,74.10142816135112L77.081087890625,74.30786397523974L77.18844466145833,74.47666837466635L77.29580143229167,74.6228527143918L77.403158203125,74.75542380727268L77.725228515625,74.96930524299702L78.47672591145833,75.40964276658096L78.79879622395833,75.80695230901202L78.90615299479167,76.08962156918125L79.12086653645834,76.34767571963752L79.22822330729167,76.5466726905528L79.33558007812499,76.7101941427195L79.44293684895833,76.85238907261315L79.55029361979166,76.98174687811904L79.76500716145834,77.14732420249287L79.87236393229168,77.29059239061775L79.979720703125,77.42043388596933L80.19443424479167,77.58598089406446L80.301791015625,77.72906604832644L80.623861328125,77.94595445996266L80.83857486979167,78.16324424354679L81.05328841145834,78.38061458520659L81.16064518229166,78.55447320942123L81.268001953125,78.70218817114754L81.912142578125,79.05036875587658L82.01949934895833,79.30239299574667L82.12685611979167,79.49668679668014L82.55628320312499,79.78518631105723L82.87835351562501,80.08681404530566L83.09306705729166,80.35327608648674L83.41513736979167,80.64109064547462L83.844564453125,80.98381148658639L84.27399153645833,81.35884877360827L84.38134830729166,81.62612618235428L84.488705078125,81.82870645311085L84.70341861979168,82.03456779151624L84.91813216145833,82.24224666342316L85.02548893229167,82.40887549396463L85.132845703125,82.55083308866286L85.34755924479167,82.71985834216474L85.56227278645832,82.9049685048584L85.66962955729167,83.05782258073631L85.776986328125,83.19128637250348L85.88434309895834,83.31307936178297L86.099056640625,83.46946552971987L86.20641341145833,83.60489746963474L86.31377018229166,83.72771566171242L86.52848372395833,83.88441015815017L86.85055403645833,84.1026460401333L87.065267578125,84.3162110932936L87.38733789062499,84.56800151298063L87.49469466145833,84.76021352467706L87.70940820312501,84.95771093440217L87.92412174479168,85.15822389685408L88.13883528645833,85.36039508385436L88.353548828125,85.56341467749859L88.46090559895833,85.72602534737258L88.78297591145834,85.94577327723445L88.997689453125,86.15888559533245L89.10504622395834,86.32732752874841L89.53447330729166,86.59032453881413L89.74918684895835,86.82886429873135L89.963900390625,87.0525831804744L90.285970703125,87.3074254395458L90.39332747395834,87.50046117428796L90.50068424479166,87.65637636241134L90.60804101562499,87.78998259054212L90.71539778645834,87.91016223165346L90.82275455729167,88.02225386753452L91.252181640625,88.24907335470479L91.46689518229167,88.46472521819886L91.574251953125,88.63384376336069L91.68160872395832,88.77500110649922L91.78896549479167,88.89934967540518L91.896322265625,89.01357176874767L92.218392578125,89.20073782563026L92.32574934895833,89.35250388367362L92.43310611979166,89.48299788939491L93.184603515625,89.83631835050404L93.506673828125,90.16563841228893L94.04345768229167,90.55805327547218L94.150814453125,90.83235960994239L94.25817122395833,91.03576419516348L94.58024153645833,91.27405408678815L94.794955078125,91.49434906065481L94.90231184895833,91.66513619539151L95.00966861979167,91.80618199462897L95.33173893229167,92.00631023723011L95.86852278645834,92.3181832881458L96.083236328125,92.58178104209527L96.19059309895833,92.77811941863176L96.29794986979167,92.93407011570181L96.405306640625,93.0657561520734L96.62002018229165,93.22088453508906L96.94209049479167,93.42788257203992L97.049447265625,93.58998179921505L97.26416080729166,93.76294140747088L97.693587890625,94.01770520608662L97.80094466145835,94.20822120311978L98.015658203125,94.39774549900864L98.337728515625,94.62402111989384L98.55244205729166,94.83465318589184L98.76715559895834,95.03576632788047L98.87451236979167,95.19374850573797L98.98186914062501,95.32581547309555L99.19658268229166,95.47951023673771L99.41129622395833,95.64604888707353L99.51865299479167,95.78308031481974L99.626009765625,95.90237077699088L99.73336653645832,96.01098460679837L99.84072330729167,96.1131604041691L100.05543684895834,96.2483755645028L100.16279361979167,96.36640684312805L100.270150390625,96.47409573970968L100.80693424479168,96.72255145539583L100.91429101562501,96.90828895909435L101.02164778645833,97.05636806158427L101.236361328125,97.2183788275562L101.34371809895833,97.35211657034907L101.45107486979167,97.4688584462159L101.558431640625,97.57536616990586L102.30992903645833,97.89358403277171L102.63199934895833,98.19300506047965L102.73935611979167,98.4087539550616L102.95406966145833,98.61029968866929L103.49085351562499,98.91088429814113L103.59821028645833,99.12706575962721L103.70556705729166,99.29257327930321L104.02763736979168,99.49907682234758L104.134994140625,99.65864479988146L104.457064453125,99.86119082341192L104.56442122395833,100.018256077163L104.779134765625,100.18346977062082L104.88649153645834,100.31803488826984L105.101205078125,100.46955389245342L105.20856184895834,100.59580374798074L105.31591861979166,100.70686235079701L105.423275390625,100.80877185946675L105.53063216145833,100.90516214813125L106.17477278645833,101.17377239270458L106.28212955729167,101.36995417277832L106.49684309895834,101.55759834842624L106.71155664062499,101.73999403884554L106.92627018229167,101.91911013655192L107.03362695312501,102.06137105737524L107.355697265625,102.25090907835599L107.46305403645833,102.39929494106951L107.89248111979167,102.62666041851301L107.999837890625,102.79758477951243L108.10719466145834,102.93461012812548L108.21455143229167,103.05126630578943L108.53662174479166,103.22439288926574L108.85869205729168,103.43111552856338L109.39547591145833,103.72592988479566L109.50283268229167,103.93688169931184L109.71754622395832,104.13148303051925L109.82490299479167,104.28221087096463L109.932259765625,104.40658485343553L110.14697330729167,104.5489876402696L110.254330078125,104.66827272101918L110.36168684895833,104.77365741460085L110.46904361979166,104.87066753336177L110.898470703125,105.0636863113893L111.00582747395833,105.21312348422872L111.220541015625,105.36994373042366L111.32789778645834,105.49757020411033L111.43525455729167,105.60764836127343L111.64996809895833,105.74060593191902L111.75732486979166,105.85378887770297L112.07939518229168,106.02174298475815L112.29410872395833,106.1890598051263L112.830892578125,106.45526932062037L112.93824934895834,106.64806916611936L113.26031966145834,106.86278374291736L113.58238997395833,107.09037470783656L113.90446028645835,107.32541905497035L114.119173828125,107.53195516478479L114.441244140625,107.75391556709386L114.54860091145834,107.91971033391731L114.97802799479167,108.14936366059058L115.08538476562501,108.31962307494486L116.15895247395834,108.7448319401191L116.373666015625,109.06420982452808L116.48102278645833,109.28791933730042L116.58837955729166,109.45419806357351L116.695736328125,109.58598855442975L116.91044986979168,109.7290223580778L117.12516341145833,109.87868309533181L117.339876953125,110.03220322818159L117.661947265625,110.21968219626058L117.87666080729167,110.39560021143522L117.984017578125,110.53282169242769L118.306087890625,110.70999488408657L118.41344466145833,110.84785499590312L118.628158203125,110.9935941660837L118.84287174479167,111.14394400671485L118.950228515625,111.2655635798297L119.05758528645833,111.36991751841884L119.272298828125,111.49520498046087L119.37965559895834,111.6016726513558L119.70172591145833,111.75926483280081L120.13115299479168,111.97836672447842L120.238509765625,112.14089181352043L120.45322330729167,112.30045235296865L120.66793684895833,112.45811739809281L121.09736393229167,112.67623502188107L121.204720703125,112.83791312604058L121.31207747395834,112.96570004440689L121.41943424479166,113.07312477728135L121.526791015625,113.16830243534339L121.63414778645833,113.25610437450207L121.74150455729166,113.33945340830275L121.95621809895835,113.45071156814357L122.38564518229167,113.63962738647359L122.60035872395834,113.81388906033663L122.70771549479166,113.94885980031239L123.02978580729167,114.12091631767458L123.459212890625,114.34518929486607L123.781283203125,114.57024104221742L123.99599674479167,114.7654585015719L124.103353515625,114.91264097163248L124.21071028645834,115.0309749741008L124.64013736979166,115.2217964276488L124.85485091145833,115.39603383696468L124.96220768229168,115.53040619537319L125.06956445312501,115.64083433872263L125.17692122395833,115.73686847902071L125.391634765625,115.85395876022714L125.49899153645833,115.95390776119154L125.82106184895832,116.1027945248948L126.357845703125,116.33977881334224L126.57255924479166,116.54084162359136L126.679916015625,116.69087192780593L126.89462955729167,116.83959979292096L127.001986328125,116.95814899750854L127.43141341145834,117.14626516968245L127.64612695312499,117.31746449835241L127.75348372395833,117.44931113146527L127.86084049479166,117.5575163837266L128.07555403645833,117.68055623682538L128.290267578125,117.81238924386422L128.39762434895832,117.92045581890535L128.50498111979167,118.0142327712306L128.71969466145833,118.12829511418165L128.82705143229165,118.22559168420763L129.04176497395832,118.34160553268612L129.14912174479164,118.43999287348203L129.256478515625,118.52777683565247L129.3638352864583,118.60917358613298L129.4711920572917,118.68671053558363L129.578548828125,118.76190641990168L130.11533268229167,118.94999186099835L130.33004622395833,119.11984712975234L130.544759765625,119.27865897803959L130.65211653645832,119.40235650900675L130.75947330729167,119.50495797556593L131.29625716145833,119.70804666967115L131.72568424479167,119.94265324759785L131.94039778645833,120.13963818899522L132.04775455729168,120.28590072963178L132.69189518229166,120.54154738648853L132.799251953125,120.72282608579569L132.90660872395833,120.85945882605846L133.01396549479165,120.96927880637993L133.121322265625,121.06298594622204L133.55074934895833,121.23021212307397L133.765462890625,121.38589652382007L133.87281966145835,121.50694144531191L134.51696028645833,121.74484978866788L134.62431705729168,121.91505278412326L134.94638736979167,122.09939744263434L135.16110091145833,122.26469355599312L135.26845768229165,122.39117810636249L135.37581445312497,122.4943505344236L135.59052799479167,122.6107418333954L135.9125983072917,122.76211949212154L136.019955078125,122.88007896761029L136.12731184895833,122.97796005914071L136.342025390625,123.0908262624907L136.44938216145835,123.18557812669529L136.55673893229167,123.26943620289805L136.66409570312499,123.34673282178505L136.77145247395833,123.42006738176802L136.87880924479165,123.49099952189393L137.20087955729164,123.61420649029276L137.308236328125,123.714963626911L137.5229498697917,123.82901055599734L137.630306640625,123.92419840498556L137.73766341145836,124.00804562140034L138.05973372395835,124.13840865472817L138.16709049479167,124.24326253318954L138.274447265625,124.33278573421639L138.70387434895832,124.49270275299303L138.81123111979167,124.61514249463856L138.918587890625,124.71507068549084L139.45537174479165,124.90698758811696L139.67008528645835,125.07475047023908L139.884798828125,125.22792478100297L139.99215559895833,125.34605331568672L140.09951236979168,125.44312691070638L140.42158268229167,125.57982083076539L140.528939453125,125.6879397874557L140.63629622395834,125.7788885816102L140.74365299479166,125.85951238322991L140.851009765625,125.93391600481414L140.95836653645833,126.00456462336376L141.06572330729165,126.07293505557804L141.173080078125,126.13991568097777L141.38779361979167,126.23194752431742L141.70986393229168,126.36475554086863L141.92457747395835,126.49604571076095L142.03193424479167,126.60058586065585L142.35400455729166,126.74047072439163L142.461361328125,126.85007382103812L142.67607486979168,126.96711135079619L142.783431640625,127.06293507251486L142.89078841145832,127.14600761439657L142.99814518229167,127.22140655336285L143.10550195312499,127.29217614606523L143.32021549479165,127.385629675292L143.42757226562497,127.46716333711079L143.53492903645835,127.54151989397018L143.85699934895834,127.66230553731039L144.17906966145833,127.81073799841681L144.50113997395835,127.97554791606066L144.60849674479167,128.09963898678083L144.82321028645833,128.22443289493944L144.93056705729165,128.32444338542726L145.037923828125,128.40956093029928L145.14528059895832,128.48571981278857L145.25263736979164,128.55648060283494L145.359994140625,128.6239773529009L145.5747076822917,128.71449184897955L146.11149153645835,128.89343641998914L146.326205078125,129.05049678894656L146.54091861979165,129.19433505661954L146.75563216145832,129.33014848346858L146.86298893229167,129.4363562854301L147.50712955729165,129.64793238344814L147.61448632812503,129.79943981251932L147.82919986979167,129.93940141494414L147.936556640625,130.04787375112082L148.04391341145833,130.13742963253532L148.47334049479167,130.28882641958637L148.68805403645834,130.42835989558913L148.902767578125,130.56068838391235L149.11748111979165,130.68860229957468L149.224837890625,130.78957586253702L149.33219466145832,130.87436231886605L149.65426497395833,130.99771064674266L149.76162174479168,131.0958349609697L149.868978515625,131.17879968249247L150.08369205729167,131.27669696484324L150.191048828125,131.35945907170165L150.513119140625,131.48106162558747L150.62047591145833,131.57795989431642L150.94254622395832,131.70777627366903L151.04990299479167,131.80951583662753L151.15725976562499,131.89438641473623L151.37197330729165,131.99289833623158L151.80140039062502,132.14691905623465L151.90875716145834,132.2630049319811L152.0161139322917,132.3563092956616L152.23082747395833,132.45953119479657L152.33818424479168,132.54505077697164L152.87496809895833,132.71397192005955L153.089681640625,132.86221588263697L153.411751953125,133.02134005492798L153.5191087239583,133.1401628928584L153.84117903645836,133.28137567671104L153.94853580729168,133.38936697002927L154.48531966145833,133.57015704136597L154.700033203125,133.7248790110191L154.80738997395832,133.84080410321795L154.91474674479167,133.93343046343222L155.022103515625,134.0120569789438L155.12946028645834,134.0822606926205L155.23681705729166,134.14739011968427L155.34417382812498,134.20945436926834L155.66624414062503,134.31552677648307L155.77360091145835,134.4020721026085L155.88095768229167,134.47687828506713L155.988314453125,134.54462266531496L156.20302799479168,134.63092652897186L156.41774153645832,134.72827908162364L156.52509830729167,134.80944596692623L156.84716861979166,134.926283947168L156.954525390625,135.01905737747543L157.276595703125,135.1426097290752L157.59866601562499,135.28444169434135L158.02809309895835,135.4595182757411L158.564876953125,135.67657120861114L158.67223372395833,135.8291416328028L158.77959049479168,135.94300194627544L159.20901757812499,136.1003888940727L159.53108789062497,136.2614089194113L160.0678717447917,136.4685901118099L160.38994205729168,136.65899902012623L160.71201236979167,136.8391591083855L160.92672591145833,136.99109911179644L161.03408268229165,137.1041530360521L161.35615299479164,137.237538392665L161.785580078125,137.40469200071513L162.21500716145835,137.59178602944155L162.64443424479165,137.790526069889L162.751791015625,137.9313417756818L163.28857486979166,138.12338968210491L163.50328841145833,138.28150078585588L163.61064518229165,138.39778115403908L163.82535872395835,138.51031497027827L163.93271549479167,138.59918943891984L164.14742903645833,138.6951629508663L164.89892643229166,138.90139751083922L165.86513736979168,139.2148600639737L165.972494140625,139.42391858603574L166.18720768229167,139.59126302110514L166.294564453125,139.71259572429625L166.616634765625,139.84805441859018L166.72399153645833,139.9501778342708L166.938705078125,140.0530910443545L167.36813216145833,140.19788834162236L167.58284570312497,140.32617464102415L168.01227278645834,140.48573789161708L168.1196295572917,140.60207677493352L168.226986328125,140.69246043237214L168.33434309895833,140.76725263827342L168.44169986979168,140.83267165724166L168.87112695312499,140.9539078217222L168.97848372395833,141.04709705678218L169.193197265625,141.1438530120309L169.30055403645832,141.22229917351984L169.7299811197917,141.3507494846632L170.26676497395835,141.52912552616644L170.37412174479167,141.6563582898005L170.803548828125,141.81333418479755L171.125619140625,141.96780229179527L171.44768945312498,142.12059859239636L171.55504622395833,142.2322797458708L171.76975976562503,142.33923565714846L171.87711653645835,142.42335533949557L172.19918684895833,142.533557949083L172.413900390625,142.6394069419008L173.27275455729165,142.8611002739316L173.59482486979167,143.05313503841583L173.70218164062499,143.18799295000747L173.91689518229168,143.3081268547327L174.13160872395835,143.41935538079693L174.23896549479167,143.50563796928338L175.20517643229167,143.73252003154394L175.31253320312499,143.8880161606445L175.74196028645835,144.05860511347944L175.95667382812502,144.1994976610559L176.06403059895834,144.30327644827423L176.1713873697917,144.38476866326704L176.278744140625,144.45287061891392L176.600814453125,144.5512486446958L176.81552799479167,144.64853073787557L176.92288476562499,144.7260035928748L177.03024153645833,144.79157029945375L177.13759830729165,144.84997729047123L177.244955078125,144.90407013614117L177.35231184895832,144.955556178592L177.45966861979164,145.00546211260198L177.6743821614583,145.0733816315565L177.7817389322917,145.13309499293814L177.889095703125,145.18786634376548L177.99645247395836,145.23965646175085L178.10380924479168,145.28963952402052L178.211166015625,145.33852003685L178.31852278645835,145.38672299350617L178.42587955729167,145.43450110044768L178.64059309895833,145.50083026147897L179.39209049479166,145.67189860631237L179.71416080729165,145.83054081572618L179.82151757812503,145.944358103192L180.03623111979167,146.04986203027732L180.143587890625,146.13174597931686L180.57301497395832,146.25502871779273L180.68037174479167,146.34749524211736L180.787728515625,146.42145372194062L181.21715559895833,146.53957364765014L181.32451236979165,146.62883945675517L181.431869140625,146.70077447988683L181.53922591145832,146.7622950049252L181.64658268229167,146.81755080459828L181.86129622395833,146.887340884673L181.96865299479168,146.94750575883728L182.398080078125,147.05660543321943L182.50543684895834,147.14027364192034L182.61279361979166,147.2086669447032L182.82750716145833,147.286035022967L183.14957747395832,147.38683152649529L183.57900455729165,147.5195752485691L183.68636132812497,147.61724443627736L183.79371809895835,147.6938551663583L184.00843164062502,147.77578738078824L184.2231451822917,147.86084837979038L184.330501953125,147.92980948509847L185.08199934895833,148.09620436836775L185.40406966145832,148.24937294229318L185.618783203125,148.376747620244L186.262923828125,148.55920037832337L186.584994140625,148.72146678907308L186.69235091145833,148.83639283447172L187.01442122395832,148.95794975475073L187.44384830729166,149.1007926852565L187.65856184895833,149.221356101298L187.76591861979165,149.31109894002793L188.08798893229167,149.41706285152526L188.195345703125,149.49798188149148L188.30270247395833,149.56385795602975L188.517416015625,149.63798597909255L188.73212955729167,149.7170010652328L189.26891341145833,149.85047819563727L189.483626953125,149.96488066455365L189.59098372395832,150.05065677385164L189.69834049479167,150.11924104086935L189.91305403645833,150.19458186918052L190.127767578125,150.27391367298122L190.23512434895835,150.33855236890471L190.34248111979167,150.39436031834316L190.449837890625,150.44485379338136L190.771908203125,150.52608098022438L190.98662174479168,150.6086950434993L191.093978515625,150.67517831728486L191.20133528645832,150.73196709086747L191.30869205729167,150.7829242825697L191.41604882812499,150.83036649863436L191.73811914062497,150.90934395135005L192.2749029947917,151.04060744892766L192.81168684895835,151.20285679244847L192.91904361979167,151.31685794172867L193.02640039062499,151.40189529270592L193.45582747395832,151.5193120970902L193.56318424479164,151.60632214283532L193.670541015625,151.675074396389L194.42203841145835,151.8317154707654L194.52939518229167,151.9421238531767L194.74410872395833,152.04117056816784L194.85146549479165,152.11697768967207L195.06617903645832,152.19517321281646L195.49560611979166,152.30733330133242L195.71031966145833,152.40715973407885L195.92503320312503,152.49952759107964L196.13974674479167,152.5873596308478L196.247103515625,152.65624219485463L196.67653059895832,152.7621562762559L197.10595768229166,152.89005230470624L197.213314453125,152.98284047084528L197.32067122395833,153.05454789308817L197.42802799479165,153.11359313198543L197.64274153645832,153.18101605640024L197.75009830729167,153.23744595132473L198.28688216145835,153.35096365277914L198.39423893229167,153.43496226812618L198.60895247395834,153.51709392575802L198.823666015625,153.5980470264768L198.93102278645833,153.66243361733996L199.03837955729168,153.71686656528175L199.145736328125,153.7653124457121L199.36044986979167,153.82590755202494L199.57516341145833,153.89373495633401L200.00459049479167,153.9971980778612L200.21930403645834,154.09057343394855L200.434017578125,154.1778377484881L200.756087890625,154.27694680960468L200.86344466145835,154.35196826305634L201.29287174479165,154.4590575294183L201.61494205729164,154.56971928117963L201.8296555989583,154.66698338915756L201.9370123697917,154.7407547768929L202.044369140625,154.8004156507241L202.15172591145836,154.85159647920477L202.47379622395835,154.9283720325393L202.58115299479167,154.98976443118875L202.688509765625,155.0419132000192L202.79586653645833,155.08850205395026L202.90322330729165,155.13174007718308L203.010580078125,155.17295386498895L203.332650390625,155.2434114924725L203.44000716145834,155.30090095004624L203.54736393229166,155.35059576866615L203.76207747395833,155.41077259221476L203.86943424479165,155.462037474645L203.97679101562503,155.5079414553962L204.08414778645835,155.55061515813202L204.298861328125,155.60643965256912L204.51357486979168,155.6700996739951L204.83564518229167,155.75343778455976L205.05035872395834,155.83346746083183L205.15771549479166,155.89647806604978L205.265072265625,155.94926234687657L205.37242903645833,155.99589824081139L206.01656966145833,156.11337867363446L206.12392643229168,156.19873609971125L206.44599674479167,156.29447448770748L206.553353515625,156.36673173885623L206.66071028645834,156.42488542613782L206.76806705729166,156.47456438284183L207.30485091145832,156.57810171292112L208.16370507812502,156.75748664530028L208.27106184895834,156.87971546520313L208.3784186197917,156.96763688061225L208.70048893229168,157.0640596782121L208.91520247395835,157.15096026013634L209.23727278645833,157.2465713710296L209.34462955729165,157.31840081746253L209.451986328125,157.37594867296193L209.55934309895832,157.4249149816439L209.774056640625,157.48312760184314L209.8814134114583,157.53245270307178L210.20348372395836,157.60515907383896L210.740267578125,157.7203710238627L210.84762434895833,157.80377666891687L211.062337890625,157.88233693975602L211.16969466145832,157.94371151102618L211.384408203125,158.00897414979906L212.13590559895835,158.1472534036119L212.24326236979167,158.24432886309054L212.350619140625,158.3166694537113L212.672689453125,158.40228190983942L212.78004622395832,158.4676920399193L213.10211653645834,158.54899167838315L213.20947330729166,158.6117626040846L213.316830078125,158.66340370987126L213.42418684895833,158.70835433145174L213.638900390625,158.76321884384512L213.74625716145832,158.8100645878671L213.96097070312499,158.86598833068012L214.17568424479168,158.92730735898792L214.39039778645835,158.99181318956335L214.49775455729167,159.04435443394266L214.81982486979166,159.11731686512854L215.03453841145833,159.18865534084176L215.14189518229168,159.2452206187599L215.249251953125,159.29290824099303L215.67867903645833,159.37638985843932L215.89339257812497,159.4538383697918L216.32281966145834,159.5548743065343L216.537533203125,159.64270430237673L216.75224674479168,159.72256036464995L216.859603515625,159.7840347183871L217.28903059895833,159.87503627354914L217.61110091145832,159.97009383988512L217.71845768229164,160.04058835800146L217.9331712239583,160.10976953823015L218.0405279947917,160.16470273741146L218.25524153645836,160.22447271748592L218.36259830729168,160.27372141980283L218.469955078125,160.31664476320785L218.68466861979167,160.36911038125936L218.792025390625,160.4139272420839L218.89938216145833,160.45414225631492L219.54352278645834,160.55796422712257L219.65087955729166,160.63349759579424L219.75823632812498,160.6920440661764L219.86559309895833,160.74038695007823L219.97294986979165,160.78259623458516L220.29502018229167,160.8474580589937L220.50973372395833,160.91267122115607L220.83180403645832,160.99115335680222L221.26123111979166,161.0905462960569L221.690658203125,161.2022933993651L221.79801497395832,161.28233916039622L221.90537174479167,161.34335266855445L222.01272851562499,161.39293423273168L222.44215559895835,161.4744602437993L222.54951236979167,161.5362897826876L222.656869140625,161.58628999076163L222.76422591145834,161.62918000808978L222.87158268229166,161.66779360821445L223.08629622395833,161.71668317097286L223.301009765625,161.77169137653425L223.40836653645832,161.81751521781365L223.73043684895833,161.88339759136903L223.83779361979165,161.93569899866756L224.05250716145835,161.9925894668573L224.26722070312502,162.05218643680456L224.4819342447917,162.11336037302908L224.589291015625,162.16275429588123L225.01871809895835,162.24303556374647L225.44814518229165,162.34166264426125L225.66285872395832,162.42599822267738L225.77021549479164,162.48916206352072L226.199642578125,162.5771935786336L226.41435611979168,162.6550104079649L226.521712890625,162.71418172206018L226.62906966145835,162.7621554242578L226.95113997395833,162.82828026750602L227.27321028645832,162.9051939125754L227.487923828125,162.97611106974767L228.13206445312503,163.0926935342834L228.23942122395835,163.17494221414563L228.34677799479167,163.23657917569716L228.56149153645833,163.2981025173764L228.66884830729168,163.34726993349818L228.99091861979167,163.41346422097536L229.31298893229166,163.48977389320726L229.420345703125,163.54773411986477L229.742416015625,163.61896827502648L229.84977278645832,163.67383969091657L229.95712955729167,163.71888087098645L230.06448632812499,163.75801360680816L230.386556640625,163.81775093610207L230.60127018229167,163.87770865117955L230.92334049479166,163.94977383442986L231.030697265625,164.00502023410138L231.24541080729168,164.06215174507898L231.56748111979167,164.13232201925373L231.99690820312497,164.22212594395378L232.10426497395835,164.2879056924313L232.21162174479167,164.33926063241938L232.31897851562502,164.3819492398071L232.42633528645834,164.41942774487865L232.641048828125,164.46561233143012L232.74840559895833,164.5051552262306L232.85576236979168,164.54070280322455L232.963119140625,164.57384174202792L233.607259765625,164.6643608003204L233.82197330729164,164.7421304659155L233.929330078125,164.80050535407307L234.0366868489583,164.84723192826146L234.1440436197917,164.8869592113124L234.251400390625,164.92247661692485L234.35875716145836,164.95545779331823L234.46611393229168,164.98690463992287L234.68082747395835,165.0290592659056L234.895541015625,165.07759620374057L235.00289778645833,165.1183238486796L235.11025455729165,165.15435561512507L235.32496809895832,165.19913183618718L235.43232486979167,165.2375606952879L235.539681640625,165.27217083445575L235.75439518229166,165.31600936760216L236.07646549479165,165.3768427465379" style="fill: none;" fill="none"></path></g></g></g></g><g opacity="0.2"><g><g><g><path stroke="rgb(255, 112, 67)" stroke-width="2px" d="M21.577637369791667,0.17923571790257653L21.89970768229167,0.7214125276853619L22.007064453125,0.9018023374180021L22.651205078125003,1.980661153793335L22.758561848958333,2.1598833178480445L23.080632161458333,2.6965882194538953L23.187988932291667,2.8751464281231165L23.510059244791666,3.4098823585858056L23.617416015624997,3.5877995068828223L23.724772786458335,3.765533495073528L23.939486328125,4.120543571189046L24.046843098958334,4.297819659113897L24.368913411458333,4.828617647290243L24.476270182291668,5.0052183323229436L25.120410807291666,6.06145687556516L25.44248111979167,6.587401120923473L25.549837890625,6.76238770751903L25.657194661458334,6.937214029021561L25.764551432291668,7.1118800854310456L25.871908203125,7.286385876747465L26.623405598958332,8.503438993357122L26.730762369791666,8.676662663929172L26.838119140625,8.849726069408154L27.052832682291665,9.195383532593643L27.160189453125003,9.367966142793508L27.374902994791665,9.712673462927341L27.696973307291668,10.228532454930246L28.019043619791667,10.742960508602357L28.126400390624998,10.91412362797807L28.233757161458335,11.085137929767377L28.341113932291666,11.255980518956976L28.555827473958335,11.597207797070341L28.66318424479167,11.767581038487466L28.770541015625,11.937805462318165L28.87789778645833,12.107869621055817L29.092611328125,12.447528590758646L29.199968098958333,12.617123401723802L29.844108723958332,13.631406833107281L30.058822265625,13.968261163681753L30.16617903645833,14.13645937883606L30.380892578125,14.472375013865538L30.488249348958334,14.640103881247349L30.702962890625003,14.975103715745115L31.132389973958333,15.643248888663948L31.239746744791667,15.809901690421002L31.776530598958335,16.640864750370383L32.20595768229167,17.302885507233455L32.313314453125,17.4680043430999L32.635384765625005,17.962467945180848L32.957455078125,18.45556929397087L33.064811848958335,18.6196235117192L33.279525390625004,18.947296941963334L33.81630924479167,19.763847591044996L34.03102278645833,20.089414680066202L34.567806640624994,20.90071092359723L34.99723372395833,21.547071491368122L35.10459049479167,21.708286727468167L35.319304036458334,22.03027074690909L35.534017578124995,22.351670943511035L35.64137434895834,22.512142091679078L35.74873111979167,22.672475869767382L36.178158203125,23.312311358749866L36.285514973958335,23.471901048906147L36.929655598958334,24.42637125806263L37.03701236979166,24.584942120127387L37.25172591145834,24.9016373914977L37.359082682291664,25.059761800803244L37.68115299479167,25.53327646572143L38.432650390625,26.633061324246242L38.64736393229167,26.9459903659299L38.754720703125,27.102237384145457L38.969434244791664,27.414296415324014L39.18414778645833,27.72578307117026L39.398861328125,28.03669735168417L39.82828841145833,28.65680878671507L39.935645182291665,28.81148749652009L40.043001953125,28.966017388738706L40.365072265625,29.428748502396047L40.47242903645833,29.582706019282348L40.579785807291664,29.736526166088886L40.687142578125005,29.89020894281566L40.90185611979167,30.19713949101666L41.009212890625,30.350387262490887L41.331283203125004,30.809306356435027L41.43863997395833,30.96199320008358L41.545996744791665,31.11454267365237L41.86806705729167,31.571343978866942L41.975423828124995,31.72333252461006L42.08278059895833,31.875183700273436L42.19013736979167,32.02689750585705L42.51220768229167,32.48118035960943L42.941634765625,33.084956202656045L43.04899153645833,33.235548152588315L43.263705078125,33.53631994221361L43.371061848958334,33.68649978190661L43.47841861979167,33.83654225151987L43.585775390624995,33.98644735105337L43.80048893229167,34.285833992374435L44.01520247395833,34.584682600883156L44.229916015625,34.88297028156619L44.44462955729166,35.1807084819302L44.65934309895834,35.47790864948183L44.766699869791665,35.626302678138025L44.981413411458334,35.922667177704476L45.08877018229166,36.0706490961214L45.196126953125,36.218505091965206L45.30348372395834,36.366212270222604L45.410840494791664,36.51378207840026L45.62555403645833,36.80852103202293L45.73291080729167,36.95569017746796L46.162337890625004,37.543004505957164L46.806478515625,38.419929305091514L47.021192057291664,38.71116532168041L47.128548828125,38.85658299860855L47.23590559895833,39.001863305456936L47.450619140625,39.292023256421096L47.55797591145833,39.43690290053685L47.772689453125004,39.72626152603576L47.88004622395833,39.87075195492555L47.987402994791665,40.01509356622894L48.094759765625,40.15930925495923L48.631543619791664,40.87839583245417L48.738900390625005,41.02182164322585L48.84625716145833,41.165098636411145L49.168327473958335,41.594174080528326L49.27568424479167,41.73693593591452L49.383041015625004,41.87957186872761L49.49039778645833,42.02207043146093L49.705111328125,42.30666689419498L50.56396549479167,43.43985557711374L50.671322265624994,43.58092320151627L50.993392578125,44.00332474925866L51.10074934895833,44.14386578835547L51.20810611979167,44.284280904879175L51.422819661458334,44.564721922700606L51.637533203124995,44.84464780272295L51.85224674479167,45.124058544946216L51.959603515625,45.26356930844486L52.17431705729167,45.54221306772281L52.389030598958335,45.820330241695046L52.49638736979166,45.9591999448215L52.71110091145834,46.23656158335507L53.247884765625,46.92772769213964L53.35524153645834,47.06557856717457L53.462598307291664,47.2033035196364L53.569955078125,47.340902549525104L54.214095703125004,48.163829459808774L54.428809244791665,48.4371272334829L54.643522786458334,48.7099213168646L54.75087955729167,48.8461351984491L55.072949869791664,49.25400986025732L55.180306640625,49.389720051549375L55.502376953125,49.79610653749357L55.71709049479167,50.06640506442636L55.824447265625004,50.201359720279775L56.146517578125,50.60550249492128L56.36123111979167,50.874312845990076L56.89801497395833,51.544163697399206L57.00537174479167,51.677767547468356L57.112728515625,51.811245474964394L57.220085286458335,51.94459747988731L57.756869140625,52.609537350945175L57.864225911458334,52.742156715442746L58.078939453124995,53.00702912422519L58.401009765625,53.4034333843738L58.50836653645833,53.535320108445994L58.61572330729167,53.66709235745173L58.723080078124994,53.79873868388434L58.93779361979167,54.06166501653691L59.15250716145833,54.32411055391034L59.367220703125,54.58607529600461L59.474577473958334,54.71687450694542L59.58193424479167,54.84755924281974L60.011361328125,55.369073303105935L60.22607486979167,55.62911486408363L60.440788411458335,55.88867562978219L60.54814518229166,56.01828430003177L60.655501953125,56.14776704770823L60.76285872395834,56.27712387281161L60.870215494791665,56.40636622284849L60.977572265625,56.53549409781893L61.084929036458334,56.66449605021626L61.72906966145833,57.43604655067127L62.051139973958335,57.820224873721614L62.15849674479166,57.94804773293436L62.909994140625,58.83952231301617L63.01735091145833,58.96640647668393L63.44677799479167,59.47277548567702L63.554134765625,59.59908727401246L63.66149153645833,59.72527313977481L63.76884830729167,59.851333082964025L63.876205078125004,59.977289998593434L63.98356184895833,60.103132439156376L64.09091861979167,60.22884895714622L64.198275390625,60.35446244757623L64.30563216145833,60.47995001543314L64.41298893229167,60.60532310822359L64.62770247395834,60.85572586860509L64.73505924479167,60.98075553619614L64.94977278645834,61.23047144617885L65.37919986979166,61.7285181178401L65.486556640625,61.85273501245927L65.808626953125,62.224733188437924L65.91598372395833,62.34850363029789L66.02334049479167,62.47215959709138L66.130697265625,62.595689641311765L66.45276757812499,62.96563871360075L66.77483789062501,63.33455751029153L66.88219466145834,63.45729767655333L67.20426497395833,63.82486566745986L67.31162174479167,63.94715938096245L67.741048828125,64.43521237932147L67.84840559895834,64.55695661250502L68.17047591145833,64.92147956664364L68.27783268229166,65.04276589956136L68.385189453125,65.1639377574126L68.49254622395833,65.28500658770403L68.59990299479168,65.40594949542235L68.70725976562501,65.52678937558086L68.81461653645833,65.64752622817953L68.92197330729167,65.76813715820512L69.13668684895833,66.00903848807017L69.24404361979167,66.12932888790965L69.351400390625,66.24950481268267L69.45875716145832,66.36956626238923L69.88818424479167,66.8487131005774L69.995541015625,66.96822506996493L70.10289778645833,67.087622564286L70.21025455729166,67.20691703104725L70.317611328125,67.32609702274203L70.53232486979167,67.56413647594552L70.74703841145833,67.80172947638978L70.961751953125,68.0388874715815L71.06910872395834,68.15731192783764L71.39117903645833,68.51189844620724L71.49853580729166,68.62988789721082L71.60589257812501,68.74775142564128L71.82060611979168,68.98316939982276L72.03531966145833,69.21816381625833L72.46474674479165,69.68683618586512L72.572103515625,69.80372667623064L72.894173828125,70.15377998196831L73.00153059895834,70.27024691458791L73.10888736979166,70.38661081964771L73.216244140625,70.5028716971477L73.32360091145833,70.6190180995812L73.43095768229166,70.73506147445491L73.538314453125,70.85099037426215L73.75302799479167,71.08253909119715L73.860384765625,71.1981474608183L73.96774153645833,71.31366425038627L74.07509830729167,71.42905511738113L74.28981184895834,71.65953921619803L74.61188216145834,72.0044754864648L75.04130924479166,72.46290233762313L75.36337955729167,72.80561779160053L75.470736328125,72.91964640530448L75.57809309895832,73.0335719914486L75.90016341145834,73.37470768950881L76.114876953125,73.60160871874541L76.22223372395833,73.714904692024L76.32959049479166,73.82809763774276L76.436947265625,73.94117610839507L76.54430403645833,74.05416299899419L76.65166080729168,74.16704686203352L76.75901757812501,74.27981625000636L77.081087890625,74.61751769607265L77.18844466145833,74.72987497380626L77.29580143229167,74.84212922398002L77.403158203125,74.95428044659397L77.725228515625,75.29012739658356L78.47672591145833,76.07014905195683L78.79879622395833,76.40291662265858L78.90615299479167,76.51362545943509L79.12086653645834,76.73475694532196L79.22822330729167,76.84516814692567L79.33558007812499,76.95547632096958L79.44293684895833,77.06568146745364L79.55029361979166,77.1757835863779L79.76500716145834,77.39569018905362L79.87236393229168,77.50549467280509L79.979720703125,77.61519612899671L80.19443424479167,77.8343014062072L80.301791015625,77.94369377971938L80.623861328125,78.27128707741697L80.83857486979167,78.48917891892295L81.05328841145834,78.70667009769629L81.16064518229166,78.81526114574324L81.268001953125,78.923760613737L81.912142578125,79.57263963297011L82.01949934895833,79.68042935555181L82.12685611979167,79.78812749808034L82.55628320312499,80.21793558262289L82.87835351562501,80.53925564667831L83.09306705729166,80.75296914825839L83.41513736979167,81.07281248395641L83.844564453125,81.49789274825405L84.27399153645833,81.92140470414111L84.38134830729166,82.02704229547332L84.488705078125,82.13257685924569L84.70341861979168,82.3433597991243L84.91813216145833,82.55376497128358L85.02548893229167,82.6588187397768L85.132845703125,82.76376948071022L85.34755924479167,82.97339622241756L85.56227278645832,83.1826337488989L85.66962955729167,83.28710369455317L85.776986328125,83.39148206015429L85.88434309895834,83.4957688457022L86.099056640625,83.70404478162527L86.20641341145833,83.80804537950704L86.31377018229166,83.911942949829L86.52848372395833,84.11945190280676L86.85055403645833,84.42999986310801L87.065267578125,84.6365586730341L87.38733789062499,84.9456871425112L87.49469466145833,85.04853154222171L87.70940820312501,85.25395704898982L87.92412174479168,85.45899334053199L88.13883528645833,85.66365186435482L88.353548828125,85.86794406796494L88.46090559895833,85.96994135218361L88.78297591145834,86.27539517202725L88.997689453125,86.47855407247941L89.10504622395834,86.5799904288724L89.53447330729166,86.98482005391269L89.74918684895835,87.18667393860717L89.963900390625,87.38816150308897L90.285970703125,87.68968882815292L90.39332747395834,87.79001477640122L90.50068424479166,87.89024914459635L90.60804101562499,87.99039193273832L90.71539778645834,88.09043169332047L90.82275455729167,88.19039132135609L91.252181640625,88.58930258546025L91.46689518229167,88.78820301343997L91.574251953125,88.8875215811034L91.68160872395832,88.98673712120701L91.78896549479167,89.08587252876409L91.896322265625,89.18490490876138L92.218392578125,89.4814869109541L92.32574934895833,89.58015297073871L92.43310611979166,89.67873889797679L93.184603515625,90.36629904216774L93.506673828125,90.65961850496628L94.04345768229167,91.14667557024708L94.150814453125,91.24381911164771L94.25817122395833,91.34087107299517L94.58024153645833,91.63148892422517L94.794955078125,91.82479152145486L94.90231184895833,91.92131689749658L95.00966861979167,92.01775069348514L95.33173893229167,92.30650260113178L95.86852278645834,92.78599286451934L96.083236328125,92.97717767301947L96.19059309895833,93.07262698343642L96.29794986979167,93.16799616130689L96.405306640625,93.26328520663083L96.62002018229165,93.45357710961252L96.94209049479167,93.73837962746619L97.049447265625,93.83313063997775L97.26416080729166,94.02238081985465L97.693587890625,94.39985090401024L97.80094466145835,94.49399519866951L98.015658203125,94.6820319428419L98.337728515625,94.96343455122164L98.55244205729166,95.15060128488888L98.76715559895834,95.3374360408634L98.87451236979167,95.4307217725242L98.98186914062501,95.52391592413187L99.19658268229166,95.71005238220096L99.41129622395833,95.89585686257729L99.51865299479167,95.98862745643903L99.626009765625,96.0813064702476L99.73336653645832,96.17390535150966L99.84072330729167,96.26642410022518L100.05543684895834,96.45119830500333L100.16279361979167,96.543453761066L100.270150390625,96.6356290845821L100.80693424479168,97.09523502892502L100.91429101562501,97.18689521464208L101.02164778645833,97.27848671531925L101.236361328125,97.46139497651406L101.34371809895833,97.5527231845384L101.45107486979167,97.64397126001616L101.558431640625,97.73512775544076L102.30992903645833,98.37091082707046L102.63199934895833,98.64213660204163L102.73935611979167,98.73237729693453L102.95406966145833,98.91261828908075L103.49085351562499,99.36176121234894L103.59821028645833,99.45133795185635L103.70556705729166,99.54083455881725L104.02763736979168,99.80883213691413L104.134994140625,99.89799676618226L104.457064453125,100.16500985870758L104.56442122395833,100.25385395778962L104.779134765625,100.43129031080753L104.88649153645834,100.51988256474336L105.101205078125,100.69683239872877L105.20856184895834,100.78517853127171L105.31591861979166,100.87345025502144L105.423275390625,100.96163612247135L105.53063216145833,101.04974758112803L106.17477278645833,101.57668775956456L106.28212955729167,101.66422684288894L106.49684309895834,101.83906461189811L106.71155664062499,102.01358757447451L106.92627018229167,102.18778428311147L107.03362695312501,102.2747624386102L107.355697265625,102.53521610982716L107.46305403645833,102.62187373513977L107.89248111979167,102.96770863467827L107.999837890625,103.05397132101159L108.10719466145834,103.14014815104504L108.21455143229167,103.22625057228528L108.53662174479166,103.48408276448026L108.85869205729168,103.74119948750982L109.39547591145833,104.16815141914412L109.50283268229167,104.25330942108606L109.71754622395832,104.42338502733037L109.82490299479167,104.50830263163273L109.932259765625,104.5931458271419L110.14697330729167,104.76259182052067L110.254330078125,104.84720034214357L110.36168684895833,104.93173445497328L110.46904361979166,105.01618271150316L110.898470703125,105.35321447843064L111.00582747395833,105.43727924348786L111.220541015625,105.60517409971604L111.32789778645834,105.68900991464032L111.43525455729167,105.77276559701811L111.64996809895833,105.9400422878874L111.75732486979166,106.0235632963789L112.07939518229168,106.27367414534092L112.29410872395833,106.4400350356785L112.830892578125,106.8545835938615L112.93824934895834,106.93726893436784L113.26031966145834,107.18485560811435L113.58238997395833,107.4317611552154L113.90446028645835,107.67798557567099L114.119173828125,107.8417593295065L114.441244140625,108.08685617055744L114.54860091145834,108.16840248415247L114.97802799479167,108.49384365060054L115.08538476562501,108.57501219647627L116.15895247395834,109.38264523788045L116.373666015625,109.54327665114155L116.48102278645833,109.62348360645896L116.58837955729166,109.70361615298316L116.695736328125,109.78367429071416L116.91044986979168,109.94357306354989L117.12516341145833,110.10317420121281L117.339876953125,110.26248342745626L117.661947265625,110.50090064837907L117.87666080729167,110.65947723419717L117.984017578125,110.73865391391641L118.306087890625,110.97575467157488L118.41344466145833,111.05464516362794L118.628158203125,111.21220292135452L118.84287174479167,111.3694687676616L118.950228515625,111.44799293950199L119.05758528645833,111.52644842630251L119.272298828125,111.68313617352396L119.37965559895834,111.7613741576982L119.70172591145833,111.99565310496837L120.13115299479168,112.30701956199482L120.238509765625,112.3846794470834L120.45322330729167,112.539793162141L120.66793684895833,112.69461496577908L121.09736393229167,113.00341145756342L121.204720703125,113.08043028227985L121.31207747395834,113.15738042195639L121.41943424479166,113.23426187659302L121.526791015625,113.31106892243648L121.63414778645833,113.38780728324004L121.74150455729166,113.46447695900375L121.95621809895835,113.61759880790486L122.38564518229167,113.92300111396858L122.60035872395834,114.0752815711312L122.70771549479166,114.15131591027603L123.02978580729167,114.3790010937179L123.459212890625,114.68159876065329L123.781283203125,114.90781866324446L123.99599674479167,115.0582846906036L124.103353515625,115.13341467672338L124.21071028645834,115.20847597780326L124.64013736979166,115.50802860797072L124.85485091145833,115.65738995093851L124.96220768229168,115.73196473298594L125.06956445312501,115.80647655374682L125.17692122395833,115.88091968946777L125.391634765625,116.02959418203682L125.49899153645833,116.10383126263817L125.82106184895832,116.32612467044964L126.357845703125,116.6952552460134L126.57255924479166,116.84243583896507L126.679916015625,116.91591738412778L126.89462955729167,117.06269159059352L127.001986328125,117.1359728043899L127.43141341145834,117.42843942794329L127.64612695312499,117.57426349135737L127.75348372395833,117.64708108113457L127.86084049479166,117.71982426211858L128.07555403645833,117.8651160164736L128.290267578125,118.01013875442244L128.39762434895832,118.08255568146704L128.50498111979167,118.15489819971845L128.71969466145833,118.29938862860821L128.82705143229165,118.37153653924663L129.04176497395832,118.51562630540381L129.14912174479164,118.58757388467589L129.256478515625,118.65945277890812L129.3638352864583,118.73126871185376L129.4711920572917,118.80301595975955L129.578548828125,118.87470024637878L130.11533268229167,119.23212002264336L130.33004622395833,119.37463003288335L130.544759765625,119.51687675047044L130.65211653645832,119.58790280545749L130.75947330729167,119.6588601754047L131.29625716145833,120.01267971082902L131.72568424479167,120.29456311448789L131.94039778645833,120.43511560109133L132.04775455729168,120.50529454058658L132.69189518229166,120.92501737177372L132.799251953125,120.9947441347564L132.90660872395833,121.06440793645257L133.01396549479165,121.13400877686217L133.121322265625,121.2035466559852L133.55074934895833,121.48105138835186L133.765462890625,121.6194231249392L133.87281966145835,121.68850882754971L134.51696028645833,122.10171230370177L134.62431705729168,122.17035727730641L134.94638736979167,122.37591443040098L135.16110091145833,122.51263772603123L135.26845768229165,122.58090493191652L135.37581445312497,122.64910917651527L135.59052799479167,122.78532878185311L135.9125983072917,122.9891859802107L136.019955078125,123.05701818084344L136.12731184895833,123.12478169643632L136.342025390625,123.26012556751569L136.44938216145835,123.32770592300221L136.55673893229167,123.39522331720217L136.66409570312499,123.46267775011559L136.77145247395833,123.53006922174245L136.87880924479165,123.59739773208275L137.20087955729164,123.79901694289097L137.308236328125,123.86609933183838L137.5229498697917,124.00008094962686L137.630306640625,124.06698017846793L137.73766341145836,124.13381644602244L138.05973372395835,124.33395320471998L138.16709049479167,124.40054335088158L138.274447265625,124.46707053575663L138.70387434895832,124.73257828115797L138.81123111979167,124.7988021071069L138.918587890625,124.86496297176926L139.45537174479165,125.19486294205612L139.67008528645835,125.32639479342227L139.884798828125,125.45768624714887L139.99215559895833,125.5232461177123L140.09951236979168,125.58873730323589L140.42158268229167,125.78486171085387L140.528939453125,125.8501182224912L140.63629622395834,125.91531177284196L140.74365299479166,125.9804480856595L140.851009765625,126.04552143719047L140.95836653645833,126.11053755118822L141.06572330729165,126.17549070389941L141.173080078125,126.24038661907738L141.38779361979167,126.36999528932697L141.70986393229168,126.56396756569544L141.92457747395835,126.6929809655994L142.03193424479167,126.75739608549823L142.35400455729166,126.9502980199953L142.461361328125,127.01447846600784L142.67607486979168,127.14266764543329L142.783431640625,127.20667065509285L142.89078841145832,127.27061642721914L142.99814518229167,127.33450496181224L143.10550195312499,127.39833053511877L143.32021549479165,127.52580996913215L143.42757226562497,127.58946382983898L143.53492903645835,127.65305472925924L143.85699934895834,127.84348400232072L144.17906966145833,128.03338669007644L144.50113997395835,128.22276279252642L144.60849674479167,128.28577559286106L144.82321028645833,128.41162375717732L144.93056705729165,128.47445912115896L145.037923828125,128.53723724760735L145.14528059895832,128.5999581365225L145.25263736979164,128.66262178790444L145.359994140625,128.72522247799984L145.5747076822917,128.8502635930975L146.11149153645835,129.1618532765036L146.326205078125,129.28608734238273L146.54091861979165,129.41009245812893L146.75563216145832,129.53386862374222L146.86298893229167,129.59566798837233L147.50712955729165,129.96529653047523L147.61448632812503,130.02670095612606L147.82919986979167,130.14934381858137L147.936556640625,130.21058225538582L148.04391341145833,130.27176345465705L148.47334049479167,130.51592160016298L148.68805403645834,130.6376601095932L148.902767578125,130.75918111639717L149.11748111979165,130.8804731730682L149.224837890625,130.94103620698056L149.33219466145832,131.00154200335965L149.65426497395833,131.18273313855752L149.76162174479168,131.24302143231034L149.868978515625,131.3032467647766L150.08369205729167,131.4235428883694L150.191048828125,131.48360223198932L150.513119140625,131.66346545641622L150.62047591145833,131.72330729740983L150.94254622395832,131.90250084269792L151.04990299479167,131.96212518106526L151.15725976562499,132.02169228189936L151.37197330729165,132.1406662184745L151.80140039062502,132.37795013623932L151.90875716145834,132.4371337456008L152.0161139322917,132.49626584118232L152.23082747395833,132.61436404349902L152.33818424479168,132.6733301502342L152.87496809895833,132.9673536346915L153.089681640625,133.08458182650307L153.411751953125,133.2600263133645L153.5191087239583,133.31839714975408L153.84117903645836,133.49319485248998L153.94853580729168,133.55135391000658L154.48531966145833,133.84134214837104L154.700033203125,133.95696196549883L154.80738997395832,134.0146917415162L154.91474674479167,134.07237000375363L155.022103515625,134.1299967522112L155.12946028645834,134.18756626313552L155.23681705729166,134.24508426027992L155.34417382812498,134.30255074364445L155.66624414062503,134.47463538730517L155.77360091145835,134.53189009179673L155.88095768229167,134.58908755875504L155.988314453125,134.64623923568678L156.20302799479168,134.76038232445717L156.41774153645832,134.8743079106013L156.52509830729167,134.93119629488015L156.84716861979166,135.10154091753066L156.954525390625,135.15821752293655L157.276595703125,135.32793825647482L157.59866601562499,135.49718964224058L158.02809309895835,135.7221331478407L158.564876953125,136.0021506079162L158.67223372395833,136.05799726909027L158.77959049479168,136.11379241648442L159.20901757812499,136.33646931576854L159.53108789062497,136.50293895741925L160.0678717447917,136.77936190040782L160.38994205729168,136.9446123826007L160.71201236979167,137.10939924077442L160.92672591145833,137.21900911691287L161.03408268229165,137.27373392243558L161.35615299479164,137.43761642758426L161.785580078125,137.65542241279036L162.21500716145835,137.87242707253122L162.64443424479165,138.0886361305602L162.751791015625,138.14256533437097L163.28857486979166,138.4114615417396L163.50328841145833,138.51866744148234L163.61064518229165,138.57220170631382L163.82535872395835,138.6791156946371L163.93271549479167,138.73250114188218L164.14742903645833,138.83912321878597L164.89892643229166,139.21074935079864L165.86513736979168,139.6850538936754L165.972494140625,139.73750636912882L166.18720768229167,139.84227967370924L166.294564453125,139.8945947790829L166.616634765625,140.05124246003106L166.72399153645833,140.10336295779175L166.938705078125,140.20746085948002L167.36813216145833,140.41508428752422L167.58284570312497,140.51860409012687L168.01227278645834,140.72508276750645L168.1196295572917,140.77658509990823L168.226986328125,140.82803591853008L168.33434309895833,140.87944094712535L168.44169986979168,140.93080018569404L168.87112695312499,141.135762068443L168.97848372395833,141.18688090937212L169.193197265625,141.2889869449039L169.30055403645832,141.3399684157533L169.7299811197917,141.54342495137826L170.26676497395835,141.79668958842134L170.37412174479167,141.84720743525153L170.803548828125,142.04879802729315L171.125619140625,142.19950445229188L171.44768945312498,142.34979304329804L171.55504622395833,142.39980147608244L171.76975976562503,142.49966952406493L171.87711653645835,142.54953486301628L172.19918684895833,142.69886186346412L172.413900390625,142.79818043112755L173.27275455729165,143.19364027197784L173.59482486979167,143.3411871851422L173.70218164062499,143.3902798173949L173.91689518229168,143.4883277118206L174.13160872395835,143.5861981698933L174.23896549479167,143.63506185201308L175.20517643229167,144.07284312493476L175.31253320312499,144.12126035429537L175.74196028645835,144.31448854273185L175.95667382812502,144.41083648242056L176.06403059895834,144.45894462910172L176.1713873697917,144.50700698575628L176.278744140625,144.55502355238423L176.600814453125,144.6988156833686L176.81552799479167,144.79445387764525L176.92288476562499,144.84221287537366L177.03024153645833,144.8899203593222L177.13759830729165,144.93758777699745L177.244955078125,144.98520940464613L177.35231184895832,145.0327852422682L177.45966861979164,145.080321013617L177.6743821614583,145.17526090998822L177.7817389322917,145.22266503501064L177.889095703125,145.2700233700064L177.99645247395836,145.31734163872898L178.10380924479168,145.36461411742494L178.211166015625,145.4118408060943L178.31852278645835,145.4590274284904L178.42587955729167,145.50616826085997L178.64059309895833,145.6003240030259L179.39209049479166,145.92850112356246L179.71416080729165,146.0685041298469L179.82151757812503,146.11508403439075L180.03623111979167,146.20811792090535L180.143587890625,146.2545719028761L180.57301497395832,146.4399528255065L180.68037174479167,146.48619502860433L180.787728515625,146.53239144167551L181.21715559895833,146.71675353621444L181.32451236979165,146.76273817041266L181.431869140625,146.80867701458433L181.53922591145832,146.85457579248273L181.64658268229167,146.90043450410786L181.86129622395833,146.99202600478503L181.96865299479168,147.03775307008377L182.398080078125,147.22025494479263L182.50543684895834,147.26577595497173L182.61279361979166,147.3112568988775L182.82750716145833,147.4020871403627L183.14957747395832,147.53802628178772L183.57900455729165,147.71869083167985L183.68636132812497,147.76374821783975L183.79371809895835,147.8087712614797L184.00843164062502,147.8986857024332L184.2231451822917,147.98843987829363L184.330501953125,148.03325114306062L185.08199934895833,148.34579669327164L185.40406966145832,148.47912580318126L185.618783203125,148.56780963717028L186.262923828125,148.8328795154424L186.584994140625,148.96486640519774L186.69235091145833,149.00878190256967L187.01442122395832,149.14028513516922L187.44384830729166,149.31505708101517L187.65856184895833,149.40220122536022L187.76591861979165,149.4457131981229L188.08798893229167,149.57600871877122L188.195345703125,149.61936042644083L188.30270247395833,149.66267206783718L188.517416015625,149.74917801368673L188.73212955729167,149.8355236944432L189.26891341145833,150.050693891244L189.483626953125,150.13648436792818L189.59098372395832,150.17932093779868L189.69834049479167,150.2221174413959L189.91305403645833,150.3075931116473L190.127767578125,150.39291137868227L190.23512434895835,150.43551041278988L190.34248111979167,150.4780722425009L190.449837890625,150.52059400593862L190.771908203125,150.6479217604889L190.98662174479168,150.7326161384117L191.093978515625,150.77490322796316L191.20133528645832,150.8171502512414L191.30869205729167,150.85936007012302L191.41604882812499,150.9015298227314L191.73811914062497,151.02781013042355L192.2749029947917,151.2375026952941L192.81168684895835,151.44623080772968L192.91904361979167,151.487859665649L193.02640039062499,151.52945131917173L193.45582747395832,151.69543730366664L193.56318424479164,151.73683721145306L193.670541015625,151.77820277671952L194.42203841145835,152.06667708233L194.52939518229167,152.10773642679368L194.74410872395833,152.18974064065452L194.85146549479165,152.2306883719284L195.06617903645832,152.31246649753302L195.49560611979166,152.4755734341064L195.71031966145833,152.55689938319847L195.92503320312503,152.6380793765808L196.13974674479167,152.7191076905001L196.247103515625,152.75956604086485L196.67653059895832,152.92102739835778L197.10595768229166,153.0818963473818L197.213314453125,153.1220227200538L197.32067122395833,153.16210902645253L197.42802799479165,153.20216099033132L197.64274153645832,153.28215044302246L197.75009830729167,153.32209079371142L198.28688216145835,153.52124020496072L198.39423893229167,153.56096019114676L198.60895247395834,153.64029141220573L198.823666015625,153.71947667755498L198.93102278645833,153.7590135036347L199.03837955729168,153.79851598719443L199.145736328125,153.83798126635764L199.36044986979167,153.91680021149418L199.57516341145833,153.99547606279762L200.00459049479167,154.152392760152L200.21930403645834,154.23063646807955L200.434017578125,154.30873422029737L200.756087890625,154.4256104012796L200.86344466145835,154.4645004432338L201.29287174479165,154.61969142896123L201.61494205729164,154.73571190882166L201.8296555989583,154.81287955112447L201.9370123697917,154.85141185849596L202.044369140625,154.88990696147084L202.15172591145836,154.92836772192578L202.47379622395835,155.04353536254106L202.58115299479167,155.08185302916291L202.688509765625,155.12013635326488L202.79586653645833,155.15838533484688L202.90322330729165,155.19659711203226L203.010580078125,155.23477454669774L203.332650390625,155.34909793369783L203.44000716145834,155.38713513640687L203.54736393229166,155.42513799659596L203.76207747395833,155.50103782753771L203.86943424479165,155.5389347982903L203.97679101562503,155.576797426523L204.08414778645835,155.61462571223578L204.298861328125,155.69017639422478L204.51357486979168,155.76558970613405L204.83564518229167,155.87844495040676L205.05035872395834,155.95351197523996L205.15771549479166,155.99099397387664L205.265072265625,156.02843876811676L205.37242903645833,156.0658520817136L206.01656966145833,156.28959932286915L206.12392643229168,156.32677223882638L206.44599674479167,156.4380820697018L206.553353515625,156.4751176155793L206.66071028645834,156.51211595706022L206.76806705729166,156.5490828178978L207.30485091145832,156.73340770804012L208.16370507812502,157.02656404386894L208.27106184895834,157.0630586950574L208.3784186197917,157.0995190037259L208.70048893229168,157.20869387461184L208.91520247395835,157.2813111330227L209.23727278645833,157.38998803736953L209.34462955729165,157.4261449871119L209.451986328125,157.46227045621103L209.55934309895832,157.49836444466683L209.774056640625,157.57044653214203L209.8814134114583,157.6064403549147L210.20348372395836,157.71421862998977L210.740267578125,157.89318894889826L210.84762434895833,157.92888513649814L211.062337890625,158.00017734601474L211.16969466145832,158.03577336793145L211.384408203125,158.10686810795838L212.13590559895835,158.35467228433117L212.24326236979167,158.38994205230847L212.350619140625,158.4251803396425L212.672689453125,158.53070059403154L212.78004622395832,158.56580723503913L213.10211653645834,158.6709411360789L213.20947330729166,158.70591899263673L213.316830078125,158.74086536855125L213.42418684895833,158.77578026382253L213.638900390625,158.8455156124352L213.74625716145832,158.8803332039L213.96097070312499,158.9498739448997L214.17568424479168,159.01928590144962L214.39039778645835,159.08857193542644L214.49775455729167,159.12316630051163L214.81982486979166,159.22676051190746L215.03453841145833,159.29566305441162L215.14189518229168,159.3300685356371L215.249251953125,159.36443967434266L215.67867903645833,159.50161228460883L215.89339257812497,159.57001113682054L216.32281966145834,159.70642821164802L216.537533203125,159.7744492961404L216.75224674479168,159.8423444580597L216.859603515625,159.8762462489928L217.28903059895833,160.01153860629225L217.61110091145832,160.11268018938912L217.71845768229164,160.14633013517596L217.9331712239583,160.21354130857313L218.0405279947917,160.24710253618346L218.25524153645836,160.31412768759765L218.36259830729168,160.34759447327815L218.469955078125,160.3810297783154L218.68466861979167,160.44780880833665L218.792025390625,160.4811525333207L218.89938216145833,160.5144647776615L219.54352278645834,160.71369718333395L219.65087955729166,160.74679764880176L219.75823632812498,160.77986377174966L219.86559309895833,160.81290127593093L219.97294986979165,160.84591016134556L220.29502018229167,160.94475079560652L220.50973372395833,161.01049096439965L220.83180403645832,161.1088765602714L221.26123111979166,161.23963570493896L221.690658203125,161.36991405432735L221.79801497395832,161.4024078019429L221.90537174479167,161.43487293079187L222.01272851562499,161.46730657899752L222.44215559895835,161.5967492604007L222.54951236979167,161.62903409102L222.656869140625,161.66129030287266L222.76422591145834,161.69351503408203L222.87158268229166,161.72571400840144L223.08629622395833,161.79001751511046L223.301009765625,161.85420368487635L223.40836653645832,161.88625097973272L223.73043684895833,161.9822211517021L223.83779361979165,162.01415110961534L224.05250716145835,162.07792516914196L224.26722070312502,162.14158189172545L224.4819342447917,162.20512127736583L224.589291015625,162.23684518015943L225.01871809895835,162.36345746554434L225.44814518229165,162.48960326503342L225.66285872395832,162.5525015903016L225.77021549479164,162.58390782478574L226.199642578125,162.70924085130292L226.41435611979168,162.77173565196185L226.521712890625,162.80293869320303L226.62906966145835,162.8341159775543L226.95113997395833,162.9274675323783L227.27321028645832,163.02056438017945L227.487923828125,163.08248680550605L228.13206445312503,163.267567231087L228.23942122395835,163.298315233939L228.34677799479167,163.32903461802442L228.56149153645833,163.39038752989535L228.66884830729168,163.42102105768086L228.99091861979167,163.51275565219112L229.31298893229166,163.60423840155514L229.420345703125,163.63467445985103L229.742416015625,163.72581950776902L229.84977278645832,163.75614681475176L229.95712955729167,163.7864426410912L230.06448632812499,163.81671271054074L230.386556640625,163.90735693004294L230.60127018229167,163.96764522379573L230.92334049479166,164.05787160930532L231.030697265625,164.08788983360864L231.24541080729168,164.1478490115454L231.56748111979167,164.23757743051584L231.99690820312497,164.35683183100383L232.10426497395835,164.38657531514764L232.21162174479167,164.41629304240146L232.31897851562502,164.4459821508887L232.42633528645834,164.47564550248595L232.641048828125,164.53488921125728L232.74840559895833,164.56446956843138L232.85576236979168,164.5940241687155L232.963119140625,164.62355015023303L233.607259765625,164.8001393877591L233.82197330729164,164.85878496430814L233.929330078125,164.8880676863094L234.0366868489583,164.91732178954408L234.1440436197917,164.94655013588877L234.251400390625,164.97575272534354L234.35875716145836,165.00492955790833L234.46611393229168,165.03407490982985L234.68082747395835,165.09229120487967L234.895541015625,165.15040161049302L235.00289778645833,165.17941531608813L235.11025455729165,165.20840326479325L235.32496809895832,165.26629616778033L235.43232486979167,165.29520398393893L235.539681640625,165.32408604320761L235.75439518229166,165.38176716732173L236.07646549479165,165.4680928149416" style="fill: none;" fill="none"></path></g></g></g></g></g></g><g transform="translate(72, 177)" clip-path="url(#clip_1)"><clipPath id="clip_1"><rect width="257" height="23"></rect></clipPath><g><g><line x1="0" y1="0" x2="0" y2="5" style="visibility: inherit;" fill="rgb(0, 0, 0)" stroke="rgb(204, 204, 204)" stroke-width="1px"></line><line x1="21.471354166666664" y1="0" x2="21.471354166666664" y2="5" style="visibility: inherit;" fill="rgb(0, 0, 0)" stroke="rgb(204, 204, 204)" stroke-width="1px"></line><line x1="42.94270833333333" y1="0" x2="42.94270833333333" y2="5" style="visibility: inherit;" fill="rgb(0, 0, 0)" stroke="rgb(204, 204, 204)" stroke-width="1px"></line><line x1="64.4140625" y1="0" x2="64.4140625" y2="5" style="visibility: inherit;" fill="rgb(0, 0, 0)" stroke="rgb(204, 204, 204)" stroke-width="1px"></line><line x1="85.88541666666666" y1="0" x2="85.88541666666666" y2="5" style="visibility: inherit;" fill="rgb(0, 0, 0)" stroke="rgb(204, 204, 204)" stroke-width="1px"></line><line x1="107.35677083333334" y1="0" x2="107.35677083333334" y2="5" style="visibility: inherit;" fill="rgb(0, 0, 0)" stroke="rgb(204, 204, 204)" stroke-width="1px"></line><line x1="128.828125" y1="0" x2="128.828125" y2="5" style="visibility: inherit;" fill="rgb(0, 0, 0)" stroke="rgb(204, 204, 204)" stroke-width="1px"></line><line x1="150.29947916666669" y1="0" x2="150.29947916666669" y2="5" style="visibility: inherit;" fill="rgb(0, 0, 0)" stroke="rgb(204, 204, 204)" stroke-width="1px"></line><line x1="171.77083333333331" y1="0" x2="171.77083333333331" y2="5" style="visibility: inherit;" fill="rgb(0, 0, 0)" stroke="rgb(204, 204, 204)" stroke-width="1px"></line><line x1="193.2421875" y1="0" x2="193.2421875" y2="5" style="visibility: inherit;" fill="rgb(0, 0, 0)" stroke="rgb(204, 204, 204)" stroke-width="1px"></line><line x1="214.71354166666669" y1="0" x2="214.71354166666669" y2="5" style="visibility: inherit;" fill="rgb(0, 0, 0)" stroke="rgb(204, 204, 204)" stroke-width="1px"></line><line x1="236.18489583333331" y1="0" x2="236.18489583333331" y2="5" style="visibility: inherit;" fill="rgb(0, 0, 0)" stroke="rgb(204, 204, 204)" stroke-width="1px"></line><line x1="257.65625" y1="0" x2="257.65625" y2="5" style="visibility: inherit;" fill="rgb(0, 0, 0)" stroke="rgb(204, 204, 204)" stroke-width="1px"></line></g><g transform="translate(0, 8)"><text x="0" y="0" dx="0em" dy="0.95em" style="text-anchor: middle; visibility: hidden; font-family: Roboto, sans-serif; font-size: 12px; font-weight: 200;" fill="rgb(33, 33, 33)" stroke="none" stroke-width="1px">-20k</text><text x="21.471354166666664" y="0" dx="0em" dy="0.95em" style="text-anchor: middle; visibility: inherit; font-family: Roboto, sans-serif; font-size: 12px; font-weight: 200;" fill="rgb(33, 33, 33)" stroke="none" stroke-width="1px">0</text><text x="42.94270833333333" y="0" dx="0em" dy="0.95em" style="text-anchor: middle; visibility: hidden; font-family: Roboto, sans-serif; font-size: 12px; font-weight: 200;" fill="rgb(33, 33, 33)" stroke="none" stroke-width="1px">20k</text><text x="64.4140625" y="0" dx="0em" dy="0.95em" style="text-anchor: middle; visibility: inherit; font-family: Roboto, sans-serif; font-size: 12px; font-weight: 200;" fill="rgb(33, 33, 33)" stroke="none" stroke-width="1px">40k</text><text x="85.88541666666666" y="0" dx="0em" dy="0.95em" style="text-anchor: middle; visibility: hidden; font-family: Roboto, sans-serif; font-size: 12px; font-weight: 200;" fill="rgb(33, 33, 33)" stroke="none" stroke-width="1px">60k</text><text x="107.35677083333334" y="0" dx="0em" dy="0.95em" style="text-anchor: middle; visibility: inherit; font-family: Roboto, sans-serif; font-size: 12px; font-weight: 200;" fill="rgb(33, 33, 33)" stroke="none" stroke-width="1px">80k</text><text x="128.828125" y="0" dx="0em" dy="0.95em" style="text-anchor: middle; visibility: hidden; font-family: Roboto, sans-serif; font-size: 12px; font-weight: 200;" fill="rgb(33, 33, 33)" stroke="none" stroke-width="1px">100k</text><text x="150.29947916666669" y="0" dx="0em" dy="0.95em" style="text-anchor: middle; visibility: inherit; font-family: Roboto, sans-serif; font-size: 12px; font-weight: 200;" fill="rgb(33, 33, 33)" stroke="none" stroke-width="1px">120k</text><text x="171.77083333333331" y="0" dx="0em" dy="0.95em" style="text-anchor: middle; visibility: hidden; font-family: Roboto, sans-serif; font-size: 12px; font-weight: 200;" fill="rgb(33, 33, 33)" stroke="none" stroke-width="1px">140k</text><text x="193.2421875" y="0" dx="0em" dy="0.95em" style="text-anchor: middle; visibility: inherit; font-family: Roboto, sans-serif; font-size: 12px; font-weight: 200;" fill="rgb(33, 33, 33)" stroke="none" stroke-width="1px">160k</text><text x="214.71354166666669" y="0" dx="0em" dy="0.95em" style="text-anchor: middle; visibility: hidden; font-family: Roboto, sans-serif; font-size: 12px; font-weight: 200;" fill="rgb(33, 33, 33)" stroke="none" stroke-width="1px">180k</text><text x="236.18489583333331" y="0" dx="0em" dy="0.95em" style="text-anchor: middle; visibility: inherit; font-family: Roboto, sans-serif; font-size: 12px; font-weight: 200;" fill="rgb(33, 33, 33)" stroke="none" stroke-width="1px">200k</text><text x="257.65625" y="0" dx="0em" dy="0.95em" style="text-anchor: middle; visibility: hidden; font-family: Roboto, sans-serif; font-size: 12px; font-weight: 200;" fill="rgb(33, 33, 33)" stroke="none" stroke-width="1px">220k</text></g><line x1="0" y1="0" x2="257.65625" y2="0" fill="rgb(0, 0, 0)" stroke="rgb(204, 204, 204)" stroke-width="1px"></line></g></g></g></g></svg>