<svg viewBox="0 0 330 200" xmlns="http://www.w3.org/2000/svg"><g><g><g><g><g><line x1="70" y1="177" x2="65" y2="177" style="visibility: inherit;" fill="rgb(0, 0, 0)" stroke="rgb(204, 204, 204)" stroke-width="1px"></line><line x1="70" y1="163.3846153846154" x2="65" y2="163.3846153846154" style="visibility: inherit;" fill="rgb(0, 0, 0)" stroke="rgb(204, 204, 204)" stroke-width="1px"></line><line x1="70" y1="149.76923076923077" x2="65" y2="149.76923076923077" style="visibility: inherit;" fill="rgb(0, 0, 0)" stroke="rgb(204, 204, 204)" stroke-width="1px"></line><line x1="70" y1="136.15384615384616" x2="65" y2="136.15384615384616" style="visibility: inherit;" fill="rgb(0, 0, 0)" stroke="rgb(204, 204, 204)" stroke-width="1px"></line><line x1="70" y1="122.53846153846153" x2="65" y2="122.53846153846153" style="visibility: inherit;" fill="rgb(0, 0, 0)" stroke="rgb(204, 204, 204)" stroke-width="1px"></line><line x1="70" y1="108.92307692307693" x2="65" y2="108.92307692307693" style="visibility: inherit;" fill="rgb(0, 0, 0)" stroke="rgb(204, 204, 204)" stroke-width="1px"></line><line x1="70" y1="95.3076923076923" x2="65" y2="95.3076923076923" style="visibility: inherit;" fill="rgb(0, 0, 0)" stroke="rgb(204, 204, 204)" stroke-width="1px"></line><line x1="70" y1="81.6923076923077" x2="65" y2="81.6923076923077" style="visibility: inherit;" fill="rgb(0, 0, 0)" stroke="rgb(204, 204, 204)" stroke-width="1px"></line><line x1="70" y1="68.07692307692307" x2="65" y2="68.07692307692307" style="visibility: inherit;" fill="rgb(0, 0, 0)" stroke="rgb(204, 204, 204)" stroke-width="1px"></line><line x1="70" y1="54.46153846153847" x2="65" y2="54.46153846153847" style="visibility: inherit;" fill="rgb(0, 0, 0)" stroke="rgb(204, 204, 204)" stroke-width="1px"></line><line x1="70" y1="40.84615384615384" x2="65" y2="40.84615384615384" style="visibility: inherit;" fill="rgb(0, 0, 0)" stroke="rgb(204, 204, 204)" stroke-width="1px"></line><line x1="70" y1="27.230769230769212" x2="65" y2="27.230769230769212" style="visibility: inherit;" fill="rgb(0, 0, 0)" stroke="rgb(204, 204, 204)" stroke-width="1px"></line><line x1="70" y1="13.615384615384626" x2="65" y2="13.615384615384626" style="visibility: inherit;" fill="rgb(0, 0, 0)" stroke="rgb(204, 204, 204)" stroke-width="1px"></line><line x1="70" y1="0" x2="65" y2="0" style="visibility: inherit;" fill="rgb(0, 0, 0)" stroke="rgb(204, 204, 204)" stroke-width="1px"></line></g><g transform="translate(60, 0)"><text x="0" y="177" dx="0em" dy="0.3em" style="text-anchor: end; visibility: hidden; font-family: Roboto, sans-serif; font-size: 12px; font-weight: 200;" fill="rgb(33, 33, 33)" stroke="none" stroke-width="1px">3e-3</text><text x="0" y="163.3846153846154" dx="0em" dy="0.3em" style="text-anchor: end; visibility: inherit; font-family: Roboto, sans-serif; font-size: 12px; font-weight: 200;" fill="rgb(33, 33, 33)" stroke="none" stroke-width="1px">3.5e-3</text><text x="0" y="149.76923076923077" dx="0em" dy="0.3em" style="text-anchor: end; visibility: hidden; font-family: Roboto, sans-serif; font-size: 12px; font-weight: 200;" fill="rgb(33, 33, 33)" stroke="none" stroke-width="1px">4e-3</text><text x="0" y="136.15384615384616" dx="0em" dy="0.3em" style="text-anchor: end; visibility: inherit; font-family: Roboto, sans-serif; font-size: 12px; font-weight: 200;" fill="rgb(33, 33, 33)" stroke="none" stroke-width="1px">4.5e-3</text><text x="0" y="122.53846153846153" dx="0em" dy="0.3em" style="text-anchor: end; visibility: hidden; font-family: Roboto, sans-serif; font-size: 12px; font-weight: 200;" fill="rgb(33, 33, 33)" stroke="none" stroke-width="1px">5e-3</text><text x="0" y="108.92307692307693" dx="0em" dy="0.3em" style="text-anchor: end; visibility: inherit; font-family: Roboto, sans-serif; font-size: 12px; font-weight: 200;" fill="rgb(33, 33, 33)" stroke="none" stroke-width="1px">5.5e-3</text><text x="0" y="95.3076923076923" dx="0em" dy="0.3em" style="text-anchor: end; visibility: hidden; font-family: Roboto, sans-serif; font-size: 12px; font-weight: 200;" fill="rgb(33, 33, 33)" stroke="none" stroke-width="1px">6e-3</text><text x="0" y="81.6923076923077" dx="0em" dy="0.3em" style="text-anchor: end; visibility: inherit; font-family: Roboto, sans-serif; font-size: 12px; font-weight: 200;" fill="rgb(33, 33, 33)" stroke="none" stroke-width="1px">6.5e-3</text><text x="0" y="68.07692307692307" dx="0em" dy="0.3em" style="text-anchor: end; visibility: hidden; font-family: Roboto, sans-serif; font-size: 12px; font-weight: 200;" fill="rgb(33, 33, 33)" stroke="none" stroke-width="1px">7e-3</text><text x="0" y="54.46153846153847" dx="0em" dy="0.3em" style="text-anchor: end; visibility: inherit; font-family: Roboto, sans-serif; font-size: 12px; font-weight: 200;" fill="rgb(33, 33, 33)" stroke="none" stroke-width="1px">7.5e-3</text><text x="0" y="40.84615384615384" dx="0em" dy="0.3em" style="text-anchor: end; visibility: hidden; font-family: Roboto, sans-serif; font-size: 12px; font-weight: 200;" fill="rgb(33, 33, 33)" stroke="none" stroke-width="1px">8e-3</text><text x="0" y="27.230769230769212" dx="0em" dy="0.3em" style="text-anchor: end; visibility: inherit; font-family: Roboto, sans-serif; font-size: 12px; font-weight: 200;" fill="rgb(33, 33, 33)" stroke="none" stroke-width="1px">8.5e-3</text><text x="0" y="13.615384615384626" dx="0em" dy="0.3em" style="text-anchor: end; visibility: hidden; font-family: Roboto, sans-serif; font-size: 12px; font-weight: 200;" fill="rgb(33, 33, 33)" stroke="none" stroke-width="1px">9e-3</text><text x="0" y="0" dx="0em" dy="0.3em" style="text-anchor: end; visibility: hidden; font-family: Roboto, sans-serif; font-size: 12px; font-weight: 200;" fill="rgb(33, 33, 33)" stroke="none" stroke-width="1px">9.5e-3</text></g><line x1="70" y1="0" x2="70" y2="177" fill="rgb(0, 0, 0)" stroke="rgb(204, 204, 204)" stroke-width="1px"></line></g></g><g transform="translate(70, 0)" clip-path="url(#clip_0)"><clipPath id="clip_0"><rect width="260" height="177"></rect></clipPath><g><g><g><line x1="0" y1="0" x2="0" y2="177" fill="rgb(0, 0, 0)" stroke="rgb(66, 66, 66)" stroke-width="1px" opacity="0.25"></line><line x1="21.666666666666664" y1="0" x2="21.666666666666664" y2="177" fill="rgb(0, 0, 0)" stroke="rgb(66, 66, 66)" stroke-width="1px" opacity="0.25"></line><line x1="43.33333333333333" y1="0" x2="43.33333333333333" y2="177" fill="rgb(0, 0, 0)" stroke="rgb(66, 66, 66)" stroke-width="1px" opacity="0.25"></line><line x1="65" y1="0" x2="65" y2="177" fill="rgb(0, 0, 0)" stroke="rgb(66, 66, 66)" stroke-width="1px" opacity="0.25"></line><line x1="86.66666666666666" y1="0" x2="86.66666666666666" y2="177" fill="rgb(0, 0, 0)" stroke="rgb(66, 66, 66)" stroke-width="1px" opacity="0.25"></line><line x1="108.33333333333334" y1="0" x2="108.33333333333334" y2="177" fill="rgb(0, 0, 0)" stroke="rgb(66, 66, 66)" stroke-width="1px" opacity="0.25"></line><line x1="130" y1="0" x2="130" y2="177" fill="rgb(0, 0, 0)" stroke="rgb(66, 66, 66)" stroke-width="1px" opacity="0.25"></line><line x1="151.66666666666669" y1="0" x2="151.66666666666669" y2="177" fill="rgb(0, 0, 0)" stroke="rgb(66, 66, 66)" stroke-width="1px" opacity="0.25"></line><line x1="173.33333333333331" y1="0" x2="173.33333333333331" y2="177" fill="rgb(0, 0, 0)" stroke="rgb(66, 66, 66)" stroke-width="1px" opacity="0.25"></line><line x1="195" y1="0" x2="195" y2="177" fill="rgb(0, 0, 0)" stroke="rgb(66, 66, 66)" stroke-width="1px" opacity="0.25"></line><line x1="216.66666666666669" y1="0" x2="216.66666666666669" y2="177" fill="rgb(0, 0, 0)" stroke="rgb(66, 66, 66)" stroke-width="1px" opacity="0.25"></line><line x1="238.33333333333331" y1="0" x2="238.33333333333331" y2="177" fill="rgb(0, 0, 0)" stroke="rgb(66, 66, 66)" stroke-width="1px" opacity="0.25"></line><line x1="260" y1="0" x2="260" y2="177" fill="rgb(0, 0, 0)" stroke="rgb(66, 66, 66)" stroke-width="1px" opacity="0.25"></line></g><g><line x1="0" y1="177" x2="260" y2="177" fill="rgb(0, 0, 0)" stroke="rgb(66, 66, 66)" stroke-width="1px" opacity="0.25"></line><line x1="0" y1="163.3846153846154" x2="260" y2="163.3846153846154" fill="rgb(0, 0, 0)" stroke="rgb(66, 66, 66)" stroke-width="1px" opacity="0.25"></line><line x1="0" y1="149.76923076923077" x2="260" y2="149.76923076923077" fill="rgb(0, 0, 0)" stroke="rgb(66, 66, 66)" stroke-width="1px" opacity="0.25"></line><line x1="0" y1="136.15384615384616" x2="260" y2="136.15384615384616" fill="rgb(0, 0, 0)" stroke="rgb(66, 66, 66)" stroke-width="1px" opacity="0.25"></line><line x1="0" y1="122.53846153846153" x2="260" y2="122.53846153846153" fill="rgb(0, 0, 0)" stroke="rgb(66, 66, 66)" stroke-width="1px" opacity="0.25"></line><line x1="0" y1="108.92307692307693" x2="260" y2="108.92307692307693" fill="rgb(0, 0, 0)" stroke="rgb(66, 66, 66)" stroke-width="1px" opacity="0.25"></line><line x1="0" y1="95.3076923076923" x2="260" y2="95.3076923076923" fill="rgb(0, 0, 0)" stroke="rgb(66, 66, 66)" stroke-width="1px" opacity="0.25"></line><line x1="0" y1="81.6923076923077" x2="260" y2="81.6923076923077" fill="rgb(0, 0, 0)" stroke="rgb(66, 66, 66)" stroke-width="1px" opacity="0.25"></line><line x1="0" y1="68.07692307692307" x2="260" y2="68.07692307692307" fill="rgb(0, 0, 0)" stroke="rgb(66, 66, 66)" stroke-width="1px" opacity="0.25"></line><line x1="0" y1="54.46153846153847" x2="260" y2="54.46153846153847" fill="rgb(0, 0, 0)" stroke="rgb(66, 66, 66)" stroke-width="1px" opacity="0.25"></line><line x1="0" y1="40.84615384615384" x2="260" y2="40.84615384615384" fill="rgb(0, 0, 0)" stroke="rgb(66, 66, 66)" stroke-width="1px" opacity="0.25"></line><line x1="0" y1="27.230769230769212" x2="260" y2="27.230769230769212" fill="rgb(0, 0, 0)" stroke="rgb(66, 66, 66)" stroke-width="1px" opacity="0.25"></line><line x1="0" y1="13.615384615384626" x2="260" y2="13.615384615384626" fill="rgb(0, 0, 0)" stroke="rgb(66, 66, 66)" stroke-width="1px" opacity="0.25"></line><line x1="0" y1="0" x2="260" y2="0" fill="rgb(0, 0, 0)" stroke="rgb(66, 66, 66)" stroke-width="1px" opacity="0.25"></line></g></g></g><g><g><line x1="0" y1="258.69230769230774" x2="260" y2="258.69230769230774" fill="rgb(0, 0, 0)" stroke="rgb(153, 153, 153)" stroke-width="1.5px"></line></g></g><g><g><line x1="21.666666666666664" y1="0" x2="21.666666666666664" y2="177" fill="rgb(0, 0, 0)" stroke="rgb(153, 153, 153)" stroke-width="1.5px"></line></g></g><g><g><g><g><g><path stroke="rgb(255, 112, 67)" stroke-width="2px" d="M29.140583333333332,-9.87973213600515L29.35725,2.79841209233414L29.46558333333333,-6.671890498894624L30.115583333333333,-2.79203913889767L30.332250000000002,6.676654159260846L30.440583333333333,-1.2140029714668408L30.98225,-10.732460575211377L31.415583333333334,7.051519941705329L31.523916666666665,-2.1994347807324637L32.065583333333336,14.952645864661275L32.498916666666666,17.268625313840186L32.60725,32.38199623593117L32.93225,26.097210677772694L33.257250000000006,32.919210788893345L33.36558333333333,28.378252459684656L33.58225,24.581693771725185L34.123916666666666,27.414757354548165L34.340583333333335,35.22659865872481L34.88225,34.99206739853579L35.315583333333336,30.96164678311188L35.42391666666667,20.91627620691565L35.64058333333333,18.649416506954314L35.85725,34.01213061345148L35.965583333333335,36.32312622754534L36.07391666666667,33.77755789763818L36.50725,23.59059643126077L36.61558333333333,13.995086284735963L37.26558333333333,19.51628134981348L37.373916666666666,18.297865328588003L37.590583333333335,5.948989332005274L37.69891666666666,31.73141295835166L38.023916666666665,35.678203978732114L38.78225,52.85658224691492L38.998916666666666,53.90671546757407L39.10725,51.9329586411909L39.32391666666667,42.08332214176717L39.54058333333333,52.419270778601344L39.75725,45.709342474376456L40.19058333333333,37.59123479450019L40.29891666666666,38.8462709663536L40.407250000000005,30.870620277372346L40.73225,32.55960598996121L40.84058333333333,36.27754631058111L40.94891666666667,41.45898938335113L41.05725,49.768356758375674L41.273916666666665,54.93329712676344L41.382250000000006,60.63192881898485L41.70725,49.273042611357425L41.81558333333333,50.11632699631724L41.92391666666667,54.213418644079766L42.248916666666666,50.45368840503327L42.35724999999999,55.09465840330455L42.465583333333335,55.12167257589537L42.57391666666667,54.9004599324977L42.89891666666667,60.230518586532455L43.332249999999995,57.12475325108721L43.440583333333336,52.689279809701915L43.65725,46.45182228347017L43.76558333333333,46.05999421770052L43.873916666666666,57.341534847952225L43.98225,58.14710994106919L44.19891666666667,54.63512611322729L44.41558333333334,63.26135587446077L44.63225,60.32075882520965L44.84891666666666,67.92531731122594L45.065583333333336,66.4037075515528L45.17391666666666,54.032261223000795L45.39058333333333,59.31742257683245L45.498916666666666,58.060345414975046L45.60725,53.3074124867221L45.715583333333335,67.54913333740834L45.82391666666666,72.39396876093564L46.04058333333334,77.61817730273589L46.148916666666665,53.335441876134134L46.58225,45.09481975861933L47.23225,48.47635149706835L47.44891666666667,57.16420104354282L47.55725,54.87751884196609L47.66558333333333,60.8067233425596L47.88225,70.2882051972648L47.99058333333333,67.95437563408021L48.20725,69.71649267734557L48.31558333333333,72.09730375592483L48.42391666666666,72.1311687763835L48.532250000000005,68.06044281479012L49.07391666666667,69.396193334429L49.18225,78.37407817343524L49.29058333333333,81.67382195967687L49.61558333333333,80.97477415177332L49.72391666666667,81.82041485087247L49.83225,79.72008233514667L49.94058333333333,73.14770322360172L50.15725,77.29214589143189L51.02391666666667,73.37173740633501L51.13225,79.47727767292639L51.457249999999995,79.6350678705856L51.565583333333336,74.1212183521248L51.67391666666667,73.16338763291441L51.89058333333333,69.72773115818887L52.10725,71.34530244071092L52.32391666666667,68.01383529873283L52.432249999999996,66.84670252709697L52.64891666666667,69.89638257939926L52.86558333333333,66.15481015258158L52.97391666666666,80.4646875206189L53.190583333333336,76.39626817229268L53.73225,89.24683961808563L53.840583333333335,89.49822047261935L53.94891666666666,83.23584269918436L54.05725,70.6663528191065L54.70725,80.69003488738352L54.92391666666666,75.92631616457021L55.14058333333334,74.43657496430706L55.248916666666666,67.83169386806719L55.57391666666667,69.59545416730836L55.68225,71.19380554202728L56.00725,82.79469976648274L56.22391666666667,83.41776192863149L56.33225,90.50507537256377L56.657250000000005,93.4071417609082L56.873916666666666,94.03802219798904L57.41558333333333,84.93361742382768L57.523916666666665,80.81667553053992L57.632250000000006,88.92407416410953L57.74058333333333,79.18564949833441L58.28225,67.18105716166134L58.39058333333333,68.87386738637048L58.60724999999999,63.45180828934746L58.932249999999996,68.39665012009138L59.04058333333333,72.02806459289953L59.14891666666667,74.39598691829725L59.25725,73.33127683185288L59.47391666666667,71.61442618744911L59.690583333333336,76.04157849564253L59.90725,73.56526382812316L60.01558333333333,71.70461448184798L60.123916666666666,78.24198188689029L60.557249999999996,67.1937789146656L60.77391666666667,87.99442773286749L60.99058333333333,75.32147456128561L61.09891666666666,81.83220699450108L61.20725,85.59643925715847L61.315583333333336,88.39481005937398L61.42391666666666,87.64204736870848L61.53225,86.15108577182211L61.64058333333333,80.68604141611968L62.29058333333334,77.21162636408827L62.61558333333333,77.11058944958224L62.72391666666667,83.25310641571697L63.48225,77.69101499001917L63.59058333333333,76.26160483280036L64.02391666666666,82.3711477008461L64.13225,89.95247862857575L64.24058333333333,92.44483441095443L64.34891666666667,100.68862532618027L64.45725,106.1961458360007L64.56558333333334,101.5637851988034L64.67391666666667,93.90906157288106L64.78225,84.10967989174723L64.89058333333332,88.74225523669288L64.99891666666667,88.7361888325141L65.21558333333333,89.16553609997969L65.32391666666666,89.77515000636868L65.54058333333334,82.27528848921399L65.97391666666667,86.77020885613186L66.08225,94.03964210788382L66.40724999999999,94.44810732608559L66.51558333333334,98.74733678619302L66.62391666666667,105.94440104505789L66.73225000000001,100.60269443793383L67.05725,98.50690892973437L67.38225,92.92254893518668L67.49058333333335,91.45476191111867L67.81558333333334,92.0874345771579L67.92391666666667,96.31169955701738L68.35725,98.98013223915122L68.46558333333333,95.17014636590604L68.79058333333333,100.68114869362063L68.89891666666666,103.31874174010629L69.00725,92.56873761792106L69.11558333333333,90.35316404898747L69.22391666666667,98.92373749641142L69.33225,92.26886422788101L69.44058333333332,92.86387099422626L69.54891666666667,87.63060599852936L69.76558333333334,95.83232148370442L69.87391666666667,99.09307147560526L69.98225000000001,101.9990589668999L70.09058333333333,92.9260333206032L70.52391666666666,108.20875082307167L70.63225,112.57427658604219L70.74058333333333,113.54082963538454L70.84891666666667,101.77490747261037L70.95725,101.95104627253636L71.17391666666667,100.13958257516819L71.39058333333332,107.52950511485238L71.60725000000001,93.106704140823L71.71558333333334,84.42752090676802L72.04058333333333,87.55204310352724L72.14891666666666,90.46826677888934L72.25725,93.9782721757036L72.47391666666667,93.38875490504428L72.69058333333334,100.15217062235476L73.12391666666666,104.39320207110177L73.23225,103.57341888460964L73.55725,90.13554581306293L73.66558333333334,91.20638696616652L73.77391666666666,99.33148470610605L73.88225,106.96559223724006L73.99058333333333,102.04691827687108L74.09891666666667,106.92526065711898L74.20725,93.28333967867327L74.42391666666666,98.51105916305545L74.53224999999999,101.10586099141108L74.64058333333334,105.58018839912803L74.74891666666667,99.20242235281994L74.96558333333334,101.82942428833985L75.29058333333333,100.65178563590585L75.72391666666667,99.16526162608064L76.04891666666667,109.22084650112424L76.15725,107.08430594149554L76.26558333333332,103.93321186843436L76.59058333333333,102.53189892679818L76.80725000000001,98.75322418324524L76.91558333333333,101.43827580459342L77.02391666666666,101.04328600792542L77.13225,101.36551431232688L77.24058333333333,97.1728469765562L77.34891666666667,104.28169192751058L77.45725,104.08583074415532L77.78225,99.92913154884599L77.89058333333334,102.56699277007463L77.99891666666667,103.94992860306708L78.10725000000001,110.9537659355963L78.43225,107.41642501238005L79.19058333333334,113.52145014069595L79.51558333333332,99.50668583659372L79.62391666666666,91.21147330977574L79.84058333333334,95.67312090094948L79.94891666666668,105.79559482975596L80.05725,118.02154269079487L80.16558333333333,115.15105550833921L80.27391666666666,106.1766069802087L80.49058333333333,108.7454270912672L80.59891666666667,104.2583705778995L80.70724999999999,103.62849354307937L80.92391666666667,101.24969476062252L81.03225,111.07307067228122L81.35725,114.59575557308285L81.57391666666666,117.4428010084352L81.79058333333334,113.04034894005873L81.89891666666666,106.82091884927266L82.00725,99.26919415364449L82.65724999999999,107.20172722936007L82.76558333333334,109.53088717020674L82.87391666666667,107.73710288434881L83.30725,104.6473808787353L83.63225,102.89069917718783L83.84891666666667,109.9228864894293L84.17391666666667,122.0285635889391L84.60725,115.80032766007763L85.04058333333333,111.6935469617587L85.14891666666666,105.8785683422448L85.25725,106.35530405465961L85.47391666666667,108.68066475891821L85.69058333333332,105.69623223696708L85.79891666666667,103.16180630821874L85.90725,110.73398150292064L86.12391666666667,117.93028749604929L86.34058333333333,115.93811300306999L86.44891666666666,121.3637130819024L86.55725,101.79933976741661L86.66558333333333,98.27846784452124L86.88225,102.01482116363314L86.99058333333333,113.20136289934207L87.09891666666667,104.59067926811188L87.31558333333334,114.7999423444689L87.64058333333332,117.52632363853762L87.85725000000001,107.64274556445743L88.18225,108.0549321892627L88.29058333333333,99.86372781325294L88.50725,107.77307950986157L88.72391666666667,120.53323293668743L88.94058333333334,113.7050018041204L89.15725,103.51264075006576L89.26558333333334,106.50608785993865L89.59058333333333,100.59025226034161L89.80725,104.55664752811957L89.91558333333334,113.45093061033577L90.34891666666667,120.0329610043067L90.56558333333334,113.96756059404922L90.78224999999999,114.52525102459342L91.10725000000001,111.91907197613824L91.21558333333334,109.02769498386338L91.32391666666666,102.54918321515898L91.43225,108.40094866940387L91.54058333333333,112.57227701895839L91.64891666666666,103.54295643035921L92.08225,101.53108874363927L92.29891666666667,115.30963040051182L92.40725,119.43469497724L92.51558333333332,128.90570192870135L92.62391666666666,124.33540404456224L92.73225,135.43320590144202L93.05725000000001,126.42929880780233L93.16558333333333,124.77297322498343L93.27391666666666,114.49396138333614L94.03225,117.25569230719866L94.35725000000001,117.3425984580966L94.89891666666666,117.48034949163052L95.00725,117.357842758423L95.11558333333333,124.09234407780889L95.44058333333334,120.61657001953775L95.65724999999999,120.96028368379473L95.76558333333332,126.66541673182311L95.87391666666666,126.52758512643906L96.19891666666668,122.53283144452165L96.74058333333333,128.12823979461828L96.95724999999999,129.65868253605197L97.06558333333334,126.68490299938101L97.17391666666667,128.78781121792872L97.28225,126.39207650752812L97.49891666666666,129.2164287055526L97.82391666666666,127.59054229147124L97.93225,128.77881490878397L98.14891666666666,121.33892426582379L98.58225,121.49278528552726L98.69058333333334,121.67590309739076L98.90724999999999,111.32682675411127L99.23225000000001,118.07738824774104L99.44891666666666,124.1165209734259L99.66558333333333,121.42944908123583L99.77391666666666,107.77233191167292L99.88225,113.49377411092921L100.09891666666667,113.13017339170567L100.31558333333334,117.48118189348061L100.42391666666667,122.50916225651255L100.53225,116.24865664322175L100.64058333333332,119.80616625782478L100.74891666666666,129.21569846147585L100.96558333333333,129.9158514504092L101.07391666666668,118.34794295860225L101.18225000000001,122.74657467302342L101.72391666666667,123.0067338566856L101.83225,125.67357232465832L101.94058333333332,118.15573762968337L102.15725,113.11524310547433L102.26558333333334,114.61979699451106L102.37391666666667,112.02405069293378L102.48225000000001,126.13533346436729L103.24058333333333,129.96922321895912L103.56558333333334,125.27041878752618L103.67391666666667,127.01387360617987L103.89058333333332,127.12335306682547L104.43225,113.74659817705643L104.54058333333333,121.77097356721585L104.64891666666666,126.37884880041283L104.97391666666667,125.8137130627988L105.08224999999999,121.06881050545188L105.40725,121.86779938162141L105.51558333333334,123.71029107078684L105.73225,127.51178337287996L105.84058333333333,127.96839226001833L106.05725,115.3196101304597L106.16558333333334,121.46036282006217L106.27391666666666,119.26905569305927L106.38225,122.43300941532478L106.49058333333333,127.83843724878618L107.14058333333334,120.6868535192544L107.24891666666667,128.05229811165222L107.46558333333334,119.35965246526796L107.68225,116.82553072497899L107.89891666666666,123.49822007964825L108.00725,121.7558097910698L108.33225,121.51752146452027L108.44058333333334,123.17253598928525L108.87391666666666,116.0726278039955L108.98225,119.8867517726736L109.09058333333333,128.93408261204004L109.19891666666668,123.75275499501369L109.52391666666666,115.72548738874887L109.84891666666667,119.91277438510046L110.39058333333334,126.12225474504856L110.49891666666667,127.3501592852276L110.71558333333333,123.20872901452879L110.82391666666666,121.43144257639597L110.93225,127.86239321556079L111.14891666666666,130.2382695761291L111.25725,125.07190825082057L111.36558333333333,128.23124205813198L111.47391666666667,131.0656776527671L111.90724999999999,121.22081578214079L112.01558333333332,125.73632638280596L112.23225000000001,129.3703979758689L112.34058333333334,128.82599339030114L112.44891666666668,127.09403697061768L112.66558333333333,123.44285009288195L112.77391666666666,132.39827691856908L113.09891666666667,131.27936386991948L113.31558333333334,132.1133773948515L113.85725,133.74889180859665L113.96558333333333,133.12020114289322L114.29058333333334,129.31521354521502L114.61558333333333,130.77977651415765L114.94058333333334,135.9619849793088L115.15724999999999,129.58617064717015L115.48225000000001,130.5384066589584L115.59058333333334,129.98974675853816L116.02391666666666,131.30960550260406L116.13225,129.13046713841612L117.21558333333333,131.19126635205035L117.43225000000001,121.78396550547468L117.54058333333333,123.16970889958421L117.64891666666666,130.00691733887786L117.75725,134.03679722648533L117.97391666666667,131.24518509911655L118.19058333333332,125.89351482354358L118.40725,134.06683357638386L118.73225000000001,138.7147382573758L118.94891666666666,133.15735349056433L119.05725,139.95967807172124L119.38225,134.6078516911447L119.49058333333333,135.37269908085577L119.70725,128.16149289545484L119.92391666666667,130.95592760410761L120.03224999999999,132.07491831745972L120.14058333333332,131.45783550003927L120.35725000000001,123.92291869267909L120.46558333333334,130.80389994799455L120.79058333333333,125.67696443495922L121.22391666666667,130.01818385095368L121.33224999999999,123.02941011686627L121.54891666666667,118.12913208598978L121.76558333333334,127.31580993035027L122.19891666666666,124.56973609717154L122.30725,125.79682573473866L122.41558333333334,121.91568480975506L122.52391666666666,126.57200759585636L122.63225,125.0253294244029L122.74058333333333,130.46456520167695L122.84891666666667,132.19777016538848L123.06558333333334,133.16454801425573L123.49891666666667,132.97950480169885L123.71558333333334,132.046581429348L123.82391666666666,129.54822026341571L124.14891666666666,130.38260470740718L124.58225,137.09438844775485L124.90725,138.2791762167762L125.12391666666666,131.83083936888048L125.23225,134.7686912468465L125.34058333333333,139.2297074795599L125.77391666666666,133.90475945294295L125.99058333333333,135.40073624393807L126.09891666666667,136.84430625202063L126.20725,139.00177096500005L126.31558333333332,135.45078693869576L126.53225,135.5412094980741L126.64058333333334,134.332310913496L126.96558333333333,133.46935483952697L127.50725,138.07438790010687L127.72391666666667,132.63704799078732L127.83225,124.11038588973962L128.04891666666668,135.2464948280087L128.15725,131.3410963293892L128.59058333333334,132.46029840983226L128.80724999999998,133.72513667161857L128.91558333333333,131.8017624409853L129.02391666666668,133.3582059667393L129.24058333333335,133.72485115705314L129.45725,139.76787226200975L129.56558333333334,134.97003497546058L129.67391666666666,140.20015061875802L129.89058333333332,146.95912200945986L129.99891666666667,138.06962516014337L130.21558333333334,140.34418709294582L130.32391666666666,139.5010683723668L130.43225,141.62844208547213L130.54058333333333,129.51050750186516L130.64891666666668,123.94071464585163L130.75725,127.32364620841909L131.29891666666666,122.7409150284097L131.51558333333332,124.65304705849219L131.73225,129.57806095392067L131.8405833333333,131.98810485502264L131.94891666666666,133.2379109284063L132.49058333333335,129.5386219965501L132.92391666666666,136.47788296530834L133.14058333333332,141.59996992215397L133.24891666666667,145.56950734131314L133.89891666666665,133.24995655781768L134.00725,132.3201044951804L134.11558333333335,122.9324638266474L134.22391666666667,126.15145957537997L134.33225000000002,123.53145574876464L134.76558333333332,135.78518390210058L134.98225,132.8674890759682L135.09058333333334,142.7716819710238L135.74058333333332,143.20060144556095L135.84891666666667,140.55358783258973L136.17391666666668,137.38585368399518L136.39058333333335,134.0439685857576L136.49891666666667,140.01566867870395L136.60725,137.99798124361493L136.82391666666666,136.03055178672992L137.14891666666668,137.6843271237896L137.25725,137.49716071793537L137.36558333333332,132.82435006023292L137.58225,123.90321304778453L137.69058333333334,134.85294745722302L137.79891666666666,141.48491657452655L137.90724999999998,134.08661942472793L138.01558333333332,135.50551555926046L138.12391666666667,132.6058588109877L138.44891666666666,134.1541871145233L138.55725,132.07074193767968L138.77391666666668,136.97483749754588L138.88225,140.43844056582253L138.99058333333335,138.0741960470151L139.31558333333334,137.2875043627644L139.42391666666666,138.05413295948193L139.53225,132.50871290775808L139.9655833333333,134.9708362392117L140.07391666666666,136.08905443700408L140.18225,128.3639734208489L140.72391666666667,120.50045573279839L140.94058333333334,127.99300159323793L141.15725,127.40046139566329L141.26558333333332,128.2367651612057L141.37391666666667,125.23184686925052L141.69891666666666,129.49824754084005L141.80724999999998,130.85329063346896L141.91558333333333,139.9773779212016L142.02391666666665,134.1605702078412L142.13225,137.15795286306468L142.24058333333335,137.2340051181103L142.34891666666667,139.17238145017077L142.45725000000002,137.64855500403038L142.67391666666668,140.279954192482L142.99891666666667,142.4377363139278L143.21558333333334,145.353416486339L143.32391666666666,153.4619772289272L143.64891666666665,143.82862910996485L143.75725,133.83729994036506L143.97391666666667,141.05481757502864L144.08225,146.49079041407862L144.19058333333334,141.95027517100604L144.29891666666668,141.53523399310188L144.40725,138.67941040598402L144.62391666666667,138.40196700574782L144.73225,136.5446113858607L144.84058333333334,137.46492701668842L145.16558333333333,138.14827650198157L145.49058333333332,141.4833812699018L145.81558333333334,146.34562788346122L145.92391666666666,138.4042108793457L146.14058333333332,143.65871668922074L146.24891666666667,146.29722832756462L146.35725000000002,139.22592898768823L146.46558333333334,140.6910004647027L146.57391666666666,146.05578341935166L146.68225,136.08969456741588L146.89891666666668,138.27570765993318L147.44058333333334,128.2548469415798L147.65725,130.29205825764137L147.87391666666664,132.1599246703187L148.0905833333333,130.1552816173379L148.19891666666666,132.76679034729315L148.84891666666667,139.9152963773992L148.95725000000002,139.1968624264718L149.17391666666666,142.64671899295482L149.28225,140.07509490545723L149.39058333333332,148.4865735407287L149.82391666666666,158.84452445627625L150.04058333333333,157.15299683817437L150.25725,152.43413995142473L150.47391666666667,160.6941629861016L150.58225000000002,150.6963852418608L150.69058333333334,138.55021055868454L151.01558333333332,141.85474825102798L151.12391666666667,141.66971521450157L151.23225,149.4217029644205L151.44891666666666,140.4830976430315L151.55724999999998,137.20538471317565L151.88225,143.71902197544003L151.99058333333332,140.33822955134966L152.31558333333334,147.1128218974127L152.42391666666668,137.6719791617343L152.53225,144.07100790621013L152.74891666666667,142.5547875750318L153.18225,148.61957356080327L153.29058333333333,146.58520118717226L153.39891666666668,139.6947118338302L153.61558333333332,144.21418545682897L153.72391666666667,144.5476917585573L154.26558333333332,138.49546694659702L154.48225000000002,145.95359507558237L154.80725,145.41272768407939L154.91558333333333,145.80230172752803L155.24058333333335,149.9697005209478L155.34891666666667,141.9629390956942L155.89058333333332,137.55265167211473L156.10725,136.25302216209573L156.2155833333333,143.47741436723052L156.32391666666666,146.1484126436808L156.43225,144.5248807812896L156.54058333333336,141.04211349412645L156.64891666666668,137.86904700358235L156.75725,140.69176411301987L157.08225000000002,141.56581996758362L157.19058333333334,138.3490736151817L157.29891666666666,139.03376256133993L157.40725,136.89645647460517L157.62391666666667,138.5548103359598L157.8405833333333,140.7861787312047L157.94891666666666,138.7936831906512L158.27391666666665,133.45096709675957L158.38225,137.5248172019609L158.70725000000002,145.12684541345078L159.03225,150.37836854765308L159.46558333333334,148.0219730658822L160.00725,143.22644791559716L160.11558333333332,153.19373657771368L160.22391666666667,142.21555532771322L160.65725,141.43452663827568L160.98225,137.48372245839568L161.52391666666668,135.88722609288297L161.84891666666667,141.7895714587837L162.17391666666666,141.02755364367275L162.39058333333332,139.22395217425816L162.49891666666667,147.84576758104723L162.82391666666666,149.2764647218613L163.25725,152.3388485659515L163.69058333333334,149.99001994885674L164.12391666666664,146.14648776973655L164.23225,152.68068342022246L164.77391666666668,143.55616946241392L164.99058333333335,142.20325328954127L165.09891666666667,138.43960739517433L165.31558333333334,139.0211054052183L165.42391666666666,143.96032898219042L165.64058333333332,145.51320851133005L166.39891666666665,140.76327760664984L167.37391666666667,139.23902064214704L167.48225,144.99240252660204L167.69891666666666,139.5011398607604L167.80724999999998,139.31199430311395L168.13225,145.57287091360678L168.24058333333332,146.2615315998978L168.45725,141.96969711074473L168.89058333333335,141.1737156291467L169.10725,143.07009981978678L169.54058333333333,145.2075956517979L169.64891666666668,138.7166035313277L169.75725,137.8377777326808L169.86558333333332,146.7249365164829L169.97391666666667,146.68099630512597L170.40724999999998,147.1869822370508L170.51558333333332,156.19987573902188L170.73225000000002,139.65126084196794L170.84058333333334,143.85836073265946L171.27391666666668,134.12121250083086L171.81558333333334,140.99540287464882L171.92391666666666,136.00978532512843L172.35725,135.3901815001956L172.68225,133.50387223088876L173.00725,141.39701940626534L173.11558333333335,144.5537139549339L173.33225000000002,142.0084031048568L173.44058333333334,143.3348859929166L173.76558333333332,152.4573908323535L173.98225,149.8946071228997L174.84891666666667,150.66336447459466L175.17391666666668,151.03033313499324L175.28225,149.10624262278063L175.49891666666667,148.48719686618315L175.71558333333334,151.59797159482022L175.82391666666666,155.57400465421344L176.79891666666668,151.87550788423744L176.90725,148.55262390165018L177.34058333333334,147.7770761629941L177.55725,146.10286207590204L177.66558333333333,152.22933450408541L177.77391666666668,145.33692857388394L177.88225,141.735458154829L178.20725,141.42555192464002L178.42391666666666,146.1152780871411L178.53224999999998,148.59675004675137L178.64058333333332,146.88611076736632L178.74891666666667,147.4339781694845L178.85725000000002,142.3725604316916L178.96558333333334,142.1280013901327L179.07391666666666,142.73189496728247L179.29058333333333,148.07112289713993L179.39891666666668,148.1738357001604L179.50725,149.0962995382584L179.61558333333335,150.42611745000656L179.72391666666667,155.99899386007516L179.83225,155.76650059558156L179.94058333333334,159.22324089276498L180.04891666666666,149.55113643494028L180.26558333333332,152.45730504227515L181.02391666666668,154.435802528412L181.34891666666667,147.64424390283736L181.45725000000002,147.39267732268922L181.67391666666666,149.5174025076456L181.78225,145.3131292770081L182.2155833333333,143.0297617296854L182.32391666666666,147.26815578763865L182.43224999999998,151.49121984428047L182.86558333333335,152.03653380750072L182.97391666666667,152.2689190779603L183.08225000000002,149.02920605021347L183.19058333333334,147.2932238136847L183.29891666666668,142.36012186346858L183.51558333333332,150.1300998303062L183.62391666666667,154.09491781659293L184.05724999999998,156.5111546722631L184.16558333333333,146.48270095907057L184.27391666666665,137.2026590515977L184.49058333333332,143.11108999448314L184.81558333333334,145.93224459013797L185.24891666666667,144.32954663844242L185.35725,139.32603686683333L185.46558333333334,148.88782554967057L185.68225,145.40992106856615L185.89891666666668,152.85406329572305L186.00725,148.88659719454387L186.76558333333332,152.34331290045736L187.09058333333334,152.60860696827066L187.30725,144.9739951409427L187.95725,152.53889536709903L188.28225,151.7150868042465L188.39058333333332,150.4809661486242L188.7155833333333,146.58650377539678L189.14891666666668,149.02893565293573L189.36558333333335,149.16215015858572L189.47391666666667,144.26558777636387L189.79891666666666,156.30493853587336L189.90725,154.9788009170292L190.01558333333332,152.713936466514L190.23225,150.49525185850982L190.44891666666666,152.51672146621138L190.99058333333335,144.4976389899787L191.20725000000002,145.60477727713112L191.31558333333334,154.55306188925184L191.42391666666668,161.19009713078142L191.64058333333332,156.61169049083261L191.85725,160.25905295791895L191.96558333333334,157.29289954399823L192.07391666666666,158.26763060388421L192.18224999999998,161.7395411238381L192.50725,162.0486682466315L192.72391666666667,159.62385094510321L192.83225,150.0729496671642L192.94058333333334,149.24252898450314L193.04891666666668,150.5898659983154L193.15725,147.99867574052342L193.48225,157.97791022167402L194.02391666666668,155.97410840592724L194.56558333333334,158.53061506710384L194.67391666666666,151.95781866119694L194.78224999999998,152.72558288587197L195.21558333333334,151.55581665523687L195.32391666666666,154.86216900066316L195.43225,154.27326875047277L196.19058333333334,147.18286960377745L196.29891666666666,149.51058857072218L196.51558333333332,149.38164363850754L196.62391666666664,151.87361790888346L196.8405833333333,157.44375866123661L197.27391666666668,160.15195669914306L197.49058333333335,161.34888191998246L197.70725000000002,158.28027906291447L197.92391666666666,157.65089390440443L198.03225,156.9547941606446L198.4655833333333,161.27345516074462L198.89891666666665,161.91280636936605L199.00725,162.75350187524114L199.11558333333335,158.35272189651607L199.22391666666667,154.33397467263424L199.44058333333334,152.2924640367868L199.54891666666668,149.0334170191368L200.09058333333334,147.0895836886326L200.19891666666666,152.56524032400327L200.41558333333333,154.73163961474785L200.63225,156.89213021288055L200.74058333333332,153.59723500332768L200.84891666666667,153.1496656041787L200.95725,155.3255514107933L201.17391666666668,151.95206439213698L201.39058333333335,154.63791289985988L201.82391666666666,154.6637435348174L202.04058333333333,150.61946152672144L202.25725,157.8241749001579L202.58225,158.37153041504658L202.69058333333334,159.26609696659074L203.12391666666667,159.80027040175023L203.44891666666666,160.18602990017877L203.66558333333333,158.26874788382196L203.77391666666668,153.46350864131685L203.88225,150.9104692015614L203.99058333333335,154.57711314653596L204.31558333333334,151.05826220761725L204.42391666666666,151.35854468256824L204.53225,152.95132155310085L204.64058333333332,151.54721654868246L204.74891666666664,157.36663095465514L204.85725,152.71581309898346L205.18225,156.21500718672803L205.29058333333336,154.83651864106218L205.39891666666668,158.7320617640119L205.61558333333335,157.05336701596386L205.72391666666667,155.9808719052351L205.83225000000002,153.37041958394047L205.94058333333334,152.50443634248293L206.15725,143.3241810712148L206.37391666666667,149.0234533595034L206.69891666666666,150.87509577600244L206.91558333333333,155.84260123677672L207.02391666666665,153.47002328689237L207.13225,155.98832997602656L207.24058333333335,155.5380420518571L207.89058333333332,162.6287237127217L207.99891666666667,154.4737554105644L208.32391666666666,156.44712191814563L208.43224999999998,160.4755571268737L208.54058333333333,158.3733742552336L208.64891666666665,158.58596095259543L209.19058333333334,157.13566839997688L210.05725,160.66839751072175L210.16558333333333,159.8426539324003L210.27391666666668,154.69032404074122L210.59891666666667,158.0211912089759L210.81558333333334,150.81199203144706L211.14058333333332,151.47308250195502L211.24891666666667,148.58174630703712L211.35725000000002,152.24035936256024L211.46558333333334,156.6062500415293L211.68225,154.83334360257763L211.79058333333333,161.1267895435222L212.11558333333335,162.73850992484304L212.65725,166.4200248055157L212.76558333333332,160.20953676206545L212.98225,149.79707611585343L213.0905833333333,150.60777755920742L213.30725,150.935207562942L214.06558333333334,153.1767391689641L214.17391666666666,153.17921853840028L214.28225,155.92653455075657L214.60725,157.46749145690362L214.7155833333333,149.18792197096755L215.04058333333333,154.1103847468584L215.14891666666665,152.4798727268483L215.25725,157.32485564797463L215.36558333333335,156.94478058642673L215.58225000000002,156.6753723617906L215.69058333333334,161.77126755154907L215.90725,162.0205079706257L216.12391666666667,160.694801544078L216.34058333333334,154.6774185276518L216.44891666666666,157.32169106577163L216.77391666666665,156.3977880617363L216.99058333333332,157.790714057019L217.09891666666667,162.19376943111413L217.20725,160.59209971774078L217.64058333333335,164.11011739117822L217.85725,160.58097492929053L218.29058333333333,150.77611692414135L218.50725,160.05025152823137L218.72391666666667,154.60025051350343L218.83225,158.52030301231343L219.26558333333332,159.29731765082093L219.59058333333334,158.47366449808982L219.69891666666666,153.48885061671496L219.91558333333333,158.4984751961745L220.02391666666668,160.8339228409415L220.24058333333335,161.85049602968195L220.34891666666667,160.26280439659956L220.45725,163.14999170025726L220.67391666666666,161.9144332309031L220.78225,167.80322151295508L220.89058333333332,162.5072671917118L221.54058333333336,170.0949168870609L221.64891666666668,165.63529739543517L221.75725,166.62159307997564L221.86558333333335,159.5001199757204L221.97391666666667,156.0938392767397L222.29891666666666,160.0359200934178L222.51558333333332,152.81140642874462L222.8405833333333,156.7632080360877L223.27391666666665,153.57139420912887L223.70725000000002,159.8516290374815L223.81558333333334,161.7664784877202L223.92391666666668,156.89029334670357L224.03225,158.11870926729472L224.46558333333334,159.896812685614L224.57391666666666,155.99002911369192L224.68224999999998,159.54239423303073L224.79058333333333,163.20457332980976L224.89891666666665,163.73478455129975L225.11558333333332,164.2504021190397L225.33225,162.86659301503943L225.44058333333334,160.42864648878472L225.76558333333335,164.9369577781231L225.87391666666667,161.75234144298534L226.09058333333334,156.32413086377102L226.30725,159.9170650594843L226.52391666666668,163.00437224206723L226.63225,157.9099778243515L227.06558333333334,157.85807877326L227.49891666666667,160.89273265912982L227.71558333333334,159.12318254520943L227.82391666666666,161.6402964126082L228.25725,162.16995032075803L228.47391666666667,155.77689134422124L228.58225,157.2215220924576L228.69058333333334,152.121129409408L229.01558333333332,153.08574752886298L229.3405833333333,157.5082820144661L229.55725,151.0480545061633L230.20725000000002,150.91489847105956L230.31558333333334,154.55288336819356L230.42391666666666,149.2166887541905L230.64058333333332,152.6194861851694L230.74891666666667,158.97348618745025L231.07391666666666,163.50737582690888L231.39891666666665,161.63669249443635L231.50725,151.52667299732315L231.83225000000002,154.2072966254545L231.94058333333334,155.51351664702847L232.04891666666668,159.3413434213766L232.15725,157.87243733405055L232.48225,154.74469217969212L232.69891666666666,164.7937038713107L233.02391666666665,160.9404258456566L233.13225,154.67870066279445L233.34891666666667,155.27314390965864L233.67391666666668,148.90865451233725L234.10725,153.7693119126021L234.21558333333334,156.81836273673392L234.32391666666666,157.93105617520524L234.43225,158.85432767828846L234.54058333333333,158.7449275062575L234.75725,155.9857703840697L234.86558333333332,154.65821188263035L234.97391666666667,161.05472497982942L235.08225,155.63194007550803L235.73225000000002,156.98346537735677L235.94891666666666,160.5044935737784L236.05725,154.44421123624562L236.16558333333333,161.93414588826863L236.27391666666668,159.58696004874596L236.38225,161.8495439598891L236.49058333333335,164.392343643212L236.59891666666667,159.7418325439209L236.81558333333334,158.1193017468383L237.03225,154.78244136513146L237.14058333333332,156.01004195746611L237.24891666666664,160.2491690814398L237.4655833333333,160.76397247153398L237.57391666666666,164.37441545598432L237.68225,162.86064332464358L237.89891666666668,168.14507565319872L238.22391666666667,165.5350888167273" style="fill: none;" fill="none"></path></g></g></g></g><g opacity="0.2"><g><g><g><path stroke="rgb(255, 112, 67)" stroke-width="2px" d="M28.598916666666668,-14.054269593495613L28.815583333333336,3.8031391306565223L28.923916666666667,7.527398383388145L29.032249999999998,-2.710155418285969L29.140583333333332,-19.901974405233684L29.35725,21.81562810792371L29.46558333333333,-20.8773442392166L30.115583333333333,3.027737865081188L30.332250000000002,20.87969405375993L30.440583333333333,-13.049988641188715L30.65725,-22.60070049762726L30.765583333333332,2.6555959788652492L30.98225,-19.632695234738854L31.415583333333334,33.727490709378166L31.523916666666665,-16.0758668619853L32.065583333333336,40.68076683007752L32.498916666666666,20.742594487391976L32.60725,55.0520526182193L32.93225,16.670032340746655L33.257250000000006,43.15221095543641L33.36558333333333,21.566814965926675L33.58225,18.88685573981358L34.123916666666666,31.664352728770332L34.340583333333335,46.94436061496918L34.88225,34.64027050825265L35.315583333333336,24.916015859979854L35.42391666666667,5.848220342626926L35.64058333333333,15.249126957013056L35.85725,57.05620177319416L35.965583333333335,39.78961964868581L36.07391666666667,29.959205402777748L36.50725,8.310154231695025L36.61558333333333,-0.39817893505096436L37.26558333333333,27.798073947429657L37.373916666666666,16.470241296749844L37.590583333333335,-12.574324662868799L37.69891666666666,70.40504839787117L38.023916666666665,41.598390509302796L38.78225,78.62414964918906L38.998916666666666,55.48191529856278L39.10725,48.97232340161617L39.32391666666667,27.30886739263168L39.54058333333333,67.92319373385264L39.75725,35.6444500180391L40.19058333333333,25.414073274685784L40.29891666666666,40.728825224133644L40.407250000000005,18.90714424390058L40.73225,35.093084558844566L40.84058333333333,41.854456791510934L40.94891666666667,49.23115399250618L41.05725,62.23240782091251L41.273916666666665,62.680707679345055L41.382250000000006,69.17987635731697L41.70725,32.23471329991634L41.81558333333333,51.38125357375695L41.92391666666667,60.35905611572356L42.248916666666666,44.81409304646344L42.35724999999999,62.05611340071146L42.465583333333335,55.16219383478165L42.57391666666667,54.56864096740118L42.89891666666667,68.22560656758455L43.332249999999995,52.466105247919366L43.440583333333336,46.03606964762394L43.65725,37.09563599412258L43.76558333333333,45.47225211904599L43.873916666666666,74.26384579332975L43.98225,59.35547258074467L44.19891666666667,49.367150371464405L44.41558333333334,76.20070051631102L44.63225,55.90986325133304L44.84891666666666,79.33215504025037L45.065583333333336,64.12129291204305L45.17391666666666,35.475091730172814L45.39058333333333,67.24516460757988L45.498916666666666,56.17472967218894L45.60725,46.17801309434266L45.715583333333335,88.91171461343765L45.82391666666666,79.66122189622658L46.04058333333334,85.45449011543623L46.148916666666665,16.911338736231503L46.58225,32.73388658234707L47.23225,53.5486491047419L47.44891666666667,70.19597536325455L47.55725,51.44749553960103L47.66558333333333,69.70053009344981L47.88225,84.51042797932259L47.99058333333333,64.4536312893033L48.20725,72.35966824224361L48.31558333333333,75.66852037379375L48.42391666666666,72.18196630707153L48.532250000000005,61.95435387240006L49.07391666666667,71.39981911388726L49.18225,91.84090543194458L49.29058333333333,86.6234376390393L49.61558333333333,79.92620243991797L49.72391666666667,83.0888758995212L49.83225,76.56958356155799L49.94058333333333,63.2891345562843L50.15725,83.5088098931771L51.02391666666667,67.4911246786897L51.13225,88.63558807281348L51.457249999999995,79.87175316707446L51.565583333333336,65.85044407443358L51.67391666666667,71.72664155409886L51.89058333333333,64.57424644610056L52.10725,73.771659364494L52.32391666666667,63.016634585765686L52.432249999999996,65.09600336964314L52.64891666666667,74.47090265785272L52.86558333333333,60.54245151235507L52.97391666666666,101.9295035726749L53.190583333333336,70.29363914980338L53.73225,108.52269678677504L53.840583333333335,89.87529175441998L53.94891666666666,73.84227603903183L54.05725,51.812117998989734L54.70725,95.72555798979906L54.92391666666666,68.78073808035025L55.14058333333334,72.2019631639123L55.248916666666666,57.92437222370735L55.57391666666667,72.2410946161701L55.68225,73.59133260410565L56.00725,100.19604110316588L56.22391666666667,84.35235517185467L56.33225,101.13604553846213L56.657250000000005,97.76024134342487L56.873916666666666,94.98434285361034L57.41558333333333,71.27701026258559L57.523916666666665,74.64126269060833L57.632250000000006,101.08517211446396L57.74058333333333,64.57801249967171L58.28225,49.17416865665178L58.39058333333333,71.41308272343414L58.60724999999999,55.31871964381291L58.932249999999996,75.81391286620727L59.04058333333333,77.4751863021117L59.14891666666667,77.94787040639383L59.25725,71.73421170218633L59.47391666666667,69.03915022084347L59.690583333333336,82.68230695793262L59.90725,69.85079182684422L60.01558333333333,68.9136404624352L60.123916666666666,88.04803299445373L60.557249999999996,50.62147445632861L60.77391666666667,119.1954009601703L60.99058333333333,56.31204480391282L61.09891666666666,91.59830564432418L61.20725,91.24278765114454L61.315583333333336,92.59236626269725L61.42391666666666,86.51290333271027L61.53225,83.91464337649253L61.64058333333333,72.48847488256601L62.29058333333334,72.00000378604119L62.61558333333333,76.95903407782316L62.72391666666667,92.46688186491912L63.48225,69.34787785147245L63.59058333333333,74.11748959697209L64.02391666666666,91.53546200291468L64.13225,101.32447502017021L64.24058333333333,96.1833680845224L64.34891666666667,113.05431169901902L64.45725,114.45742660073134L64.56558333333334,94.61524424300744L64.67391666666667,82.42697613399761L64.78225,69.41060737004646L64.89058333333332,95.69111825411136L64.99891666666667,88.72708922624588L65.21558333333333,89.80955700117809L65.32391666666666,90.68957086595205L65.54058333333334,71.02549621348197L65.97391666666667,93.51258940650865L66.08225,104.94379198551178L66.40724999999999,95.06080515338823L66.51558333333334,105.19618097635416L66.62391666666667,116.73999743335521L66.73225000000001,92.59013452724768L67.05725,95.3632306674352L67.38225,84.54600894336517L67.49058333333335,89.25308137501662L67.81558333333334,93.0364435762167L67.92391666666667,102.64809702680661L68.35725,102.98278126235192L68.46558333333333,89.45516755603826L68.79058333333333,108.94765218519247L68.89891666666666,107.2751313098348L69.00725,76.44373143464327L69.11558333333333,87.029803695587L69.22391666666667,111.77959766754738L69.33225,82.28655432508542L69.44058333333332,93.75638114374416L69.54891666666667,79.780708504984L69.76558333333334,108.13489471146694L69.87391666666667,103.98419646345651L69.98225000000001,106.35804020384184L70.09058333333333,79.31649485115821L70.52391666666666,131.13282707677436L70.63225,119.12256523049795L70.74058333333333,114.99065920939812L70.84891666666667,84.12602422844904L70.95725,102.21525447242534L71.17391666666667,97.42238702911598L71.39058333333332,118.6143889243786L71.60725000000001,71.47250267977898L71.71558333333334,71.40874605568555L72.04058333333333,92.23882639866608L72.14891666666666,94.84260229193247L72.25725,99.24328027092493L72.47391666666667,92.50447899905535L72.69058333333334,110.29729419832046L73.12391666666666,110.75474924422228L73.23225,102.34374410487139L73.55725,69.9787362057429L73.66558333333334,92.81264869582193L73.77391666666666,111.51913131601536L73.88225,118.41675353394105L73.99058333333333,94.66890733631757L74.09891666666667,114.24277422749078L74.20725,72.82045821100473L74.42391666666666,106.35263838962867L74.53224999999999,104.99806373394453L74.64058333333334,112.29167951070345L74.74891666666667,89.63577328335779L74.96558333333334,105.7699271916197L75.29058333333333,98.88532765725485L75.72391666666667,96.93547561134284L76.04891666666667,124.30422381368967L76.15725,103.87949510205252L76.26558333333332,99.2065707588425L76.59058333333333,100.42992951434391L76.80725000000001,93.08521206791585L76.91558333333333,105.46585323661566L77.02391666666666,100.45080131292343L77.13225,101.84885676892904L77.24058333333333,90.88384597290022L77.34891666666667,114.94495935394212L77.45725,103.79203896912244L77.78225,93.694082755882L77.89058333333334,106.52378460191763L77.99891666666667,106.02433235255572L78.10725000000001,121.45952193439007L78.43225,102.11041362755573L79.19058333333334,122.67898783316978L79.51558333333332,78.48453938044034L79.62391666666666,78.76865451954878L79.84058333333334,102.36559228771007L79.94891666666668,120.97930572296565L80.05725,136.36046448235328L80.16558333333333,110.8453247346557L80.27391666666666,92.7149341880129L80.49058333333333,112.59865725785494L80.59891666666667,97.52778580784798L80.70724999999999,102.68367799084919L80.92391666666667,97.68149658693716L81.03225,125.80813453976924L81.35725,119.8797829242853L81.57391666666666,121.7133691614637L81.79058333333334,106.43667083749405L81.89891666666666,97.49177371309354L82.00725,87.94160711020231L82.65724999999999,119.10052684293343L82.76558333333334,113.02462708147672L82.87391666666667,105.04642645556194L83.30725,100.01279787031504L83.63225,100.25567662486664L83.84891666666667,120.47116745779148L84.17391666666667,140.18707923820386L84.60725,106.4579737667854L85.04058333333333,105.53337591428024L85.14891666666666,97.156100412974L85.25725,107.07040762328184L85.47391666666667,112.16870581530607L85.69058333333332,101.21958345404038L85.79891666666667,99.36016741509621L85.90725,122.09224429497353L86.12391666666667,128.72474648574223L86.34058333333333,112.94985126360103L86.44891666666666,129.502113200151L86.55725,72.45277979568793L86.66558333333333,92.99715996017822L86.88225,107.61935114230101L86.99058333333333,129.9811755029055L87.09891666666667,91.67465382126662L87.31558333333334,130.1138369590044L87.64058333333332,121.61589557964069L87.85725000000001,92.81737845333723L88.18225,108.67321212647053L88.29058333333333,87.57692124923834L88.50725,119.63710705477459L88.72391666666667,139.6734630769262L88.94058333333334,103.46265510526987L89.15725,88.22409916898378L89.26558333333334,110.996258524748L89.59058333333333,91.71649886094606L89.80725,110.50624042978653L89.91558333333334,126.7923552336601L90.34891666666667,129.90600659526314L90.56558333333334,104.869459978663L90.78224999999999,115.36178667040971L91.10725000000001,108.00980340345546L91.21558333333334,104.69062949545109L91.32391666666666,92.83141556210244L91.43225,117.17859685077116L91.54058333333333,118.82926954329014L91.64891666666666,89.9989755474604L92.08225,98.51328721355932L92.29891666666667,135.9774428858207L92.40725,125.62229184233225L92.51558333333332,143.11221235589338L92.62391666666666,117.47995721835358L92.73225,152.07990868676168L93.05725000000001,112.92343816734278L93.16558333333333,122.2884848507551L93.27391666666666,99.07544362086517L94.03225,121.39828869299247L94.35725000000001,117.47295768444354L94.89891666666666,117.68697604193136L95.00725,117.17408265861181L95.11558333333333,134.19409605688773L95.44058333333334,115.40290893213107L95.65724999999999,121.47585418018011L95.76558333333332,135.22311630386574L95.87391666666666,126.32083771836298L96.19891666666668,116.54070092164552L96.74058333333333,136.52135231976325L96.95724999999999,131.9543466482025L97.06558333333334,122.22423369437456L97.17391666666667,131.94217354575028L97.28225,122.79847444192721L97.49891666666666,133.45295700258933L97.82391666666666,125.15171267034916L97.93225,130.56122383475304L98.14891666666666,110.17908830138353L98.58225,121.72357681508248L98.69058333333334,121.95057981518599L98.90724999999999,95.80321223919208L99.23225000000001,128.2032304881857L99.44891666666666,133.17522006195324L99.66558333333333,117.3988412429507L99.77391666666666,87.28665615732854L99.88225,122.07593740981358L100.09891666666667,112.58477231287038L100.31558333333334,124.007694646143L100.42391666666667,130.0511328010605L100.53225,106.8578982232855L100.64058333333332,125.14243067972934L100.74891666666666,143.32999676695238L100.96558333333333,130.96608093380928L101.07391666666668,100.99608022089188L101.18225000000001,129.34452224465517L101.72391666666667,123.3969726321789L101.83225,129.6738300266174L101.94058333333332,106.87898558722092L102.15725,105.55450131916082L102.26558333333334,116.87662782806618L102.37391666666667,108.1304312405678L102.48225000000001,147.30225762151755L103.24058333333333,135.72005785084687L103.56558333333334,118.22221214037674L103.67391666666667,129.6290558341604L103.89058333333332,127.28757225779387L104.43225,93.6814658424029L104.54058333333333,133.80753665245496L104.64891666666666,133.29066165020834L104.97391666666667,124.96600945637776L105.08224999999999,113.95145666943147L105.40725,123.06628269587571L105.51558333333334,126.47402860453495L105.73225,133.21402182601963L105.84058333333333,128.65330559072586L106.05725,96.34643693612172L106.16558333333334,130.67149185446593L106.27391666666666,115.98209500255493L106.38225,127.178939998723L106.49058333333333,135.9465789989783L107.14058333333334,109.95947792495673L107.24891666666667,139.10046500024887L107.46558333333334,106.32068399569162L107.68225,113.02434811454552L107.89891666666666,133.5072541116522L108.00725,119.14219435820213L108.33225,121.16008897469594L108.44058333333334,125.65505777643277L108.87391666666666,105.42276552606089L108.98225,125.60793772569069L109.09058333333333,142.5050788710897L109.19891666666668,115.98076356947422L109.52391666666666,103.68458597935164L109.84891666666667,126.19370487962777L110.39058333333334,135.43647528497073L110.49891666666667,129.19201609549614L110.71558333333333,116.9965836084806L110.82391666666666,118.76551291919672L110.93225,137.50881917430806L111.14891666666666,133.80208411698158L111.25725,117.32236626285774L111.36558333333333,132.9702427690992L111.47391666666667,135.31733104471977L111.90724999999999,106.45352297620131L112.01558333333332,132.5095922838037L112.23225000000001,134.8215053654634L112.34058333333334,128.0093865119494L112.44891666666668,124.49610234109255L112.66558333333333,117.96606977627827L112.77391666666666,145.8314171570998L113.09891666666667,129.60099429694506L113.31558333333334,133.36439768224955L113.85725,136.2021634292144L113.96558333333333,132.17716514433806L114.29058333333334,123.60773214869774L114.61558333333333,132.97662096757156L114.94058333333334,143.7352976770355L115.15724999999999,120.02244914896214L115.48225000000001,131.96676067664075L115.59058333333334,129.16675690790782L116.02391666666666,133.2893936187029L116.13225,125.8617595921342L117.21558333333333,134.2824651725017L117.43225000000001,107.67301423561113L117.54058333333333,125.24832399074847L117.64891666666666,140.2627299978183L117.75725,140.08161705789658L117.97391666666667,127.05776690806334L118.19058333333332,117.86600941018416L118.40725,146.3268117056443L118.73225000000001,145.68659527886373L118.94891666666666,124.82127634034707L119.05725,150.16316494345665L119.38225,126.5801121202799L119.49058333333333,136.5199701654223L119.70725,117.34468361735344L119.92391666666667,135.14757966708677L120.03224999999999,133.75340438748782L120.14058333333332,130.53221127390862L120.35725000000001,112.62054348163879L120.46558333333334,141.12537183096777L120.79058333333333,117.98656116540616L121.22391666666667,136.5300129749454L121.33224999999999,112.54624951573518L121.54891666666667,110.77871503967506L121.76558333333334,141.09582669689107L122.19891666666666,120.45062534740337L122.30725,127.63746019108936L122.41558333333334,116.09397342227972L122.52391666666666,133.55649177500834L122.63225,122.70531216722267L122.74058333333333,138.62341886758804L122.84891666666667,134.79757761095578L123.06558333333334,134.61471478755658L123.49891666666667,132.70193998286356L123.71558333333334,130.64719637082172L123.82391666666666,125.80067851451727L124.14891666666666,131.63418137339445L124.58225,147.16206405827631L124.90725,140.05635787030826L125.12391666666666,122.15833409703696L125.23225,139.17546906379553L125.34058333333333,145.92123182862997L125.77391666666666,125.91733741301758L125.99058333333333,137.64470143043076L126.09891666666667,139.00966126414446L126.20725,142.23796803446916L126.31558333333332,130.1243108992393L126.53225,135.67684333714155L126.64058333333334,132.51896303662886L126.96558333333333,132.17492072857345L127.50725,144.98193749097678L127.72391666666667,124.48103812680795L127.83225,111.32039273816807L128.04891666666668,151.95065823541236L128.15725,125.48299858145988L128.59058333333334,134.1391015304969L128.80724999999998,135.62239406429802L128.91558333333333,128.91670109503542L129.02391666666668,135.69287125537028L129.24058333333335,134.27481894252392L129.45725,148.83240391944463L129.56558333333334,127.77327904563683L129.67391666666666,148.04532408370423L129.89058333333332,157.09757909551263L129.99891666666667,124.73537988616869L130.21558333333334,143.75602999214942L130.32391666666666,138.23639029149825L130.43225,144.81950265513015L130.54058333333333,111.33360562645471L130.64891666666668,115.58602536183136L130.75725,132.39804355227028L131.29891666666666,115.86681825839555L131.51558333333332,127.52124510361597L131.73225,136.96558179706335L131.8405833333333,135.6031707066756L131.94891666666666,135.11262003848185L132.49058333333335,123.98968859876578L132.92391666666666,146.88677441844573L133.14058333333332,149.28310035742248L133.24891666666667,151.52381347005183L133.89891666666665,114.77063038257452L134.00725,130.92532640122448L134.11558333333335,108.85100282384798L134.22391666666667,130.97995319847877L134.33225000000002,119.60145000884167L134.76558333333332,154.1657761321045L134.98225,128.49094683676958L135.09058333333334,157.62797131360722L135.74058333333332,143.84398065736661L135.84891666666667,136.5830674131329L136.17391666666668,132.6342524611033L136.39058333333335,129.03114093840122L136.49891666666667,148.9732188181235L136.60725,134.97145009098145L136.82391666666666,133.07940760140235L137.14891666666668,140.16499012937913L137.25725,137.21641110915405L137.36558333333332,125.81513407367927L137.58225,110.52150752911201L137.69058333333334,151.27754907138075L137.79891666666666,151.43287025048184L137.90724999999998,122.98917370003002L138.01558333333332,137.63385976105928L138.12391666666667,128.2563736885786L138.44891666666666,136.47667956982667L138.55725,128.94557417241427L138.77391666666668,144.33098083734512L138.88225,145.6338451682375L138.99058333333335,134.52782926880394L139.31558333333334,136.10746683638828L139.42391666666666,139.20407585455823L139.53225,124.19058283017232L139.9655833333333,138.66402123639216L140.07391666666666,137.7663817336926L140.18225,116.77635189661613L140.72391666666667,108.70517920072263L140.94058333333334,139.23182038389717L141.15725,126.5116510993013L141.26558333333332,129.4912208095193L141.37391666666667,120.72446943131777L141.69891666666666,135.89784854822432L141.80724999999998,132.8858552724123L141.91558333333333,153.6635088528005L142.02391666666665,125.43535863780058L142.13225,141.65402684589992L142.24058333333335,137.3480835006787L142.34891666666667,142.0799459482615L142.45725000000002,135.36281533481983L142.67391666666668,144.2270529751594L142.99891666666667,145.67440949609647L143.21558333333334,149.72693674495588L143.32391666666666,165.6248183428095L143.64891666666665,129.37860693152135L143.75725,118.85030618596537L143.97391666666667,151.88109402702403L144.08225,154.64474967265357L144.19058333333334,135.13950230639713L144.29891666666668,140.91267222624558L144.40725,134.3956750253072L144.62391666666667,137.9858019053936L144.73225,133.75857795603L144.84058333333334,138.84540046293003L145.16558333333333,139.1733007299212L145.49058333333332,146.48603842178215L145.81558333333334,153.63899780380038L145.92391666666666,126.4920853731724L146.14058333333332,151.54047540403332L146.24891666666667,150.25499578508047L146.35725000000002,128.61897997787366L146.46558333333334,142.88860768022445L146.57391666666666,154.1029578513251L146.68225,121.14056128951219L146.89891666666668,141.55472729870905L147.44058333333334,113.22355586404984L147.65725,133.34787523173367L147.87391666666664,134.96172428933474L148.0905833333333,127.14831703786666L148.19891666666666,136.684053442226L148.84891666666667,150.63805542255824L148.95725000000002,138.11921150008072L149.17391666666666,147.82150384267936L149.28225,136.21765877421086L149.39058333333332,161.1037914936359L149.82391666666666,174.3814508295976L150.04058333333333,154.61570541102154L150.25725,145.35585462130035L150.47391666666667,173.0841975381168L150.58225000000002,135.69971862549966L150.69058333333334,120.33094853392014L151.01558333333332,146.81155478954315L151.12391666666667,141.3921656597119L151.23225,161.04968458929886L151.44891666666666,127.07518966094806L151.55724999999998,132.28881531839187L151.88225,153.48947786883664L151.99058333333332,135.2670409152141L152.31558333333334,157.27471041650725L152.42391666666668,123.51071505821669L152.53225,153.6695510229239L152.74891666666667,140.2804570782643L153.18225,157.7167525394605L153.29058333333333,143.5336426267257L153.39891666666668,129.35897780381714L153.61558333333332,150.99339589132714L153.72391666666667,145.04795121114987L154.26558333333332,129.41712972865653L154.48225000000002,157.14078726906044L154.80725,144.60142659682495L154.91558333333333,146.386662792701L155.24058333333335,156.22079871107752L155.34891666666667,129.95279695781377L155.89058333333332,130.9372205367455L156.10725,134.30357789706724L156.2155833333333,154.31400267493265L156.32391666666666,150.15491005835625L156.43225,142.0895829877028L156.54058333333336,135.81796256338174L156.64891666666668,133.10944726776617L156.75725,144.9258397771762L157.08225000000002,142.87690374942926L157.19058333333334,133.5239540865788L157.29891666666666,140.0607959805773L157.40725,133.69049734450303L157.62391666666667,141.04234112799168L157.8405833333333,144.13323132407206L157.94891666666666,135.8049398798209L158.27391666666665,125.43689295592216L158.38225,143.6355923597629L158.70725000000002,156.52988773068557L159.03225,158.25565324895658L159.46558333333334,144.48737984322585L160.00725,136.03316019016964L160.11558333333332,168.14466957088845L160.22391666666667,125.74828345271257L160.65725,140.26298360411937L160.98225,131.55751618857568L161.52391666666668,133.49248154461384L161.84891666666667,150.6430895076348L162.17391666666666,139.88452692100634L162.39058333333332,136.51854997013623L162.49891666666667,160.77849069123084L162.82391666666666,151.4225104330824L163.25725,156.93242433208687L163.69058333333334,146.46677702321458L164.12391666666664,140.38118950105633L164.23225,162.4819768959513L164.77391666666668,129.86939852570111L164.99058333333335,140.17387903023226L165.09891666666667,132.79413855362398L165.31558333333334,139.8933524202842L165.42391666666666,151.36916434764862L165.64058333333332,147.84252780503954L166.39891666666665,133.63838124962953L167.37391666666667,136.95263519539284L167.48225,153.62247535328453L167.69891666666666,131.26424586199795L167.80724999999998,139.0282759666443L168.13225,154.964185829346L168.24058333333332,147.29452262933438L168.45725,135.53194537701515L168.89058333333335,139.9797434067497L169.10725,145.91467610574688L169.54058333333333,148.4138393998146L169.64891666666668,128.98011535062238L169.75725,136.51953903471048L169.86558333333332,160.05567469218602L169.97391666666667,146.61508598809058L170.40724999999998,147.9459611349381L170.51558333333332,169.71921599197847L170.73225000000002,114.828338496387L170.84058333333334,150.16901056869673L171.27391666666668,119.51549015308802L171.81558333333334,151.3066884353757L171.92391666666666,128.53135900084789L172.35725,134.4607757627964L172.68225,130.67440832692844L173.00725,153.2367401693303L173.11558333333335,149.2887557779367L173.33225000000002,138.19043682974117L173.44058333333334,145.32461032500635L173.76558333333332,166.1411480915088L173.98225,146.05043155871905L174.84891666666667,151.81650050213705L175.17391666666668,151.58078612559117L175.28225,146.2201068544617L175.49891666666667,147.558628231287L175.71558333333334,156.26413368777585L175.82391666666666,161.53805424330326L176.79891666666668,146.3277627292734L176.90725,143.56829792776932L177.34058333333334,146.61375455500988L177.55725,143.591540945264L177.66558333333333,161.4190431463604L177.77391666666668,134.99831967858168L177.88225,136.33325252624658L178.20725,140.96069257935653L178.42391666666666,153.14986733089273L178.53224999999998,152.31895798616685L178.64058333333332,144.32015184828867L178.74891666666667,148.25577927266175L178.85725000000002,134.78043382500226L178.96558333333334,141.76116282779438L179.07391666666666,143.6377353330071L179.29058333333333,156.07996479192605L179.39891666666668,148.32790490469108L179.50725,150.4799952954054L179.61558333333335,152.4208443176288L179.72391666666667,164.358308475178L179.83225,155.41776069884116L179.94058333333334,164.40835133854014L180.04891666666666,135.0429797482032L180.26558333333332,156.81655795327745L181.02391666666668,157.4035487576173L181.34891666666667,137.4569059644754L181.45725000000002,147.01532745246703L181.67391666666666,152.7044902850802L181.78225,139.00671943105186L182.2155833333333,139.60471040870135L182.32391666666666,153.62574687456856L182.43224999999998,157.8258159292432L182.86558333333335,152.85450475233105L182.97391666666667,152.61749698364963L183.08225000000002,144.16963650859321L183.19058333333334,144.68925045889156L183.29891666666668,134.96046893814434L183.51558333333332,161.78506678056257L183.62391666666667,160.042144796023L184.05724999999998,160.1355099557684L184.16558333333333,131.44002038928178L184.27391666666665,123.28259619038838L184.49058333333332,151.97373640881133L184.81558333333334,150.16397648362013L185.24891666666667,141.92549971089912L185.35725,131.82077220941966L185.46558333333334,163.23050857392641L185.68225,140.19306434690952L185.89891666666668,164.02027663645836L186.00725,142.93539804277512L186.76558333333332,157.52838645932766L187.09058333333334,153.0065480699906L187.30725,133.52207739995075L187.95725,163.88624570633357L188.28225,150.47937395996775L188.39058333333332,148.6297851651907L188.7155833333333,140.7448102155557L189.14891666666668,152.69258346924414L189.36558333333335,149.3619719170607L189.47391666666667,136.92074420303106L189.79891666666666,174.36396467513762L189.90725,152.9895944887629L190.01558333333332,149.3166397907413L190.23225,147.16722494650347L190.44891666666666,155.54892587776368L190.99058333333335,132.46901527562966L191.20725000000002,147.26548470785986L191.31558333333334,167.97548880743292L191.42391666666668,171.14564999307578L191.64058333333332,149.7440805309094L191.85725,165.7300966585485L191.96558333333334,152.8436694231171L192.07391666666666,159.7297271937132L192.18224999999998,166.94740690376895L192.50725,162.5123589308216L192.72391666666667,155.98662499281076L192.83225,135.7465977502557L192.94058333333334,147.99689796051155L193.04891666666668,152.61087151903374L193.15725,144.11189035383555L193.48225,172.9467619433999L194.02391666666668,152.968405682307L194.56558333333334,162.36537505886875L194.67391666666666,142.09862405233656L194.78224999999998,153.87722922288455L195.21558333333334,149.8011673092842L195.32391666666666,159.8216975188026L195.43225,153.3899183751872L196.19058333333334,136.5472708837344L196.29891666666666,153.00216702113931L196.51558333333332,149.1882262401856L196.62391666666664,155.61157931444737L196.8405833333333,165.79896978976635L197.27391666666668,164.21425375600273L197.49058333333335,163.14426975124158L197.70725000000002,153.67737477731245L197.92391666666666,156.70681616663933L198.03225,155.9106445450049L198.4655833333333,167.75144666089463L198.89891666666665,162.87183318229822L199.00725,164.01454513405378L199.11558333333335,151.7515519284285L199.22391666666667,148.3058538368115L199.44058333333334,149.23019808301558L199.54891666666668,144.14484649266188L200.09058333333334,144.1738336928762L200.19891666666666,160.77872527705935L200.41558333333333,157.98123855086473L200.63225,160.13286611007956L200.74058333333332,148.65489218899836L200.84891666666667,152.47831150545525L200.95725,158.58938012071528L201.17391666666668,146.89183386415243L201.39058333333335,158.6666856614443L201.82391666666666,154.7024894872537L202.04058333333333,144.55303851457742L202.25725,168.63124496031267L202.58225,159.19256368737953L202.69058333333334,160.60794679390696L203.12391666666667,160.60153055448944L203.44891666666666,160.76466914782156L203.66558333333333,155.39282485928672L203.77391666666668,146.25564977755914L203.88225,147.0809100419283L203.99058333333335,160.07707906399781L204.31558333333334,145.77998579923923L204.42391666666666,151.80896839499474L204.53225,155.34048685889977L204.64058333333332,149.4410590420549L204.74891666666664,166.09575256361413L204.85725,145.73958631547598L205.18225,161.46379831834483L205.29058333333336,152.76878582256344L205.39891666666668,164.57537644843643L205.61558333333335,154.5353248938918L205.72391666666667,154.37212923914194L205.83225000000002,149.45474110199856L205.94058333333334,151.20546148029658L206.15725,129.55379816431267L206.37391666666667,157.57236179193626L206.69891666666666,153.65255940075104L206.91558333333333,163.29385942793812L207.02391666666665,149.91115636206592L207.13225,159.76579000972785L207.24058333333335,154.8626101656029L207.89058333333332,173.2647462040186L207.99891666666667,142.24130295732846L208.32391666666666,159.4071716795174L208.43224999999998,166.51820993996583L208.54058333333333,155.2200999477735L208.64891666666665,158.90484099863815L209.19058333333334,154.96022957104904L210.05725,165.96749117683905L210.16558333333333,158.60403856491814L210.27391666666668,146.96182920325262L210.59891666666667,163.0174919613279L210.81558333333334,139.99819326515382L211.14058333333332,152.46471820771694L211.24891666666667,144.2447420146603L211.35725000000002,157.7282789458449L211.46558333333334,163.15508605998295L211.68225,152.1739839441501L211.79058333333333,170.56695845493903L212.11558333333335,165.15609049682433L212.65725,171.94229712652472L212.76558333333332,150.89380469689002L212.98225,134.17838514653536L213.0905833333333,151.82382972423846L213.30725,151.42635256854388L214.06558333333334,156.5390365779973L214.17391666666666,153.18293759255457L214.28225,160.047508569291L214.60725,159.7789268161242L214.7155833333333,136.76856774206345L215.04058333333333,161.49407891069467L215.14891666666665,150.03410469683317L215.25725,164.59233002966414L215.36558333333335,156.3746679941049L215.58225000000002,156.27126002483644L215.69058333333334,169.41511033618679L215.90725,162.3943685992406L216.12391666666667,158.70624190425644L216.34058333333334,145.65134400301255L216.44891666666666,161.28809987295134L216.77391666666665,155.01193355568327L216.99058333333332,159.88010304994307L217.09891666666667,168.7983524922568L217.20725,158.18959514768076L217.64058333333335,169.38714390133435L217.85725,155.28726123645902L218.29058333333333,136.0688299164176L218.50725,173.96145343436646L218.72391666666667,146.42524899141145L218.83225,164.40038176052846L219.26558333333332,160.46283960858216L219.59058333333334,157.23818476899314L219.69891666666666,146.01162979465263L219.91558333333333,166.01291206536385L220.02391666666668,164.33709430809205L220.24058333333335,163.3753558127926L220.34891666666667,157.881266946976L220.45725,167.48077265574383L220.67391666666666,160.06109552687178L220.78225,176.63640393603308L220.89058333333332,154.56333570984694L221.54058333333336,181.47639143008453L221.64891666666668,158.94586815799659L221.75725,168.10103660678635L221.86558333333335,148.8179103193375L221.97391666666667,150.98441822826862L222.29891666666666,165.94904131843495L222.51558333333332,141.97463593173487L222.8405833333333,162.6909104471023L223.27391666666665,148.78367346869064L223.70725000000002,169.27198128001046L223.81558333333334,164.6387526630782L223.92391666666668,149.57601563517863L224.03225,159.96133314818144L224.46558333333334,162.56396781309294L224.57391666666666,150.1298537558088L224.68224999999998,164.87094191203897L224.79058333333333,168.69784197497827L224.89891666666665,164.53010138353477L225.11558333333332,165.02382847064962L225.33225,160.79087935903897L225.44058333333334,156.7717266994027L225.76558333333335,171.69942471213065L225.87391666666667,156.97541694027873L226.09058333333334,148.18181499494958L226.30725,165.30646635305422L226.52391666666668,167.63533301594165L226.63225,150.2683861977779L227.06558333333334,157.7802301966227L227.49891666666667,165.4447134879346L227.71558333333334,156.46885737432885L227.82391666666666,165.41596721370632L228.25725,162.96443118298282L228.47391666666667,146.18730287941602L228.58225,159.38846821481218L228.69058333333334,144.47054038483364L229.01558333333332,154.53267470804545L229.3405833333333,164.14208374287074L229.55725,141.35771324370916L230.20725000000002,150.71516441840393L230.31558333333334,160.00986071389454L230.42391666666666,141.21239683318598L230.64058333333332,157.7236823316377L230.74891666666667,168.50448619087155L231.07391666666666,170.30821028609688L231.39891666666665,158.83066749572754L231.50725,136.36164375165333L231.83225000000002,158.22823206765148L231.94058333333334,157.47284667938948L232.04891666666668,165.08308358289875L232.15725,155.66907820306145L232.48225,150.05307444815452L232.69891666666666,179.86722140873854L233.02391666666665,155.16050880717543L233.13225,145.28611288850124L233.34891666666667,156.1648087799549L233.67391666666668,139.36192041635513L234.10725,161.0602980129994L234.21558333333334,161.39193897293163L234.32391666666666,159.60009633291227L234.43225,160.23923493291323L234.54058333333333,158.58082724821108L234.75725,151.847034700788L234.86558333333332,152.6668741304714L234.97391666666667,170.649494625628L235.08225,147.49776271902599L235.73225000000002,159.01075333012986L235.94891666666666,165.7860358684109L236.05725,145.35378772994648L236.16558333333333,173.1690478663032L236.27391666666668,156.06618128946195L236.38225,165.24341982660385L236.49058333333335,168.2065431681963L236.59891666666667,152.76606589498428L236.81558333333334,155.6855055512144L237.03225,149.7771507925712L237.14058333333332,157.8514428459681L237.24891666666664,166.6078597674003L237.4655833333333,161.5361775566752L237.57391666666666,169.79007993265986L237.68225,160.58998512763245L237.89891666666668,176.0717241460314L238.22391666666667,161.62010856202016" style="fill: none;" fill="none"></path></g></g></g></g></g></g><g transform="translate(70, 177)" clip-path="url(#clip_1)"><clipPath id="clip_1"><rect width="260" height="23"></rect></clipPath><g><g><line x1="0" y1="0" x2="0" y2="5" style="visibility: inherit;" fill="rgb(0, 0, 0)" stroke="rgb(204, 204, 204)" stroke-width="1px"></line><line x1="21.666666666666664" y1="0" x2="21.666666666666664" y2="5" style="visibility: inherit;" fill="rgb(0, 0, 0)" stroke="rgb(204, 204, 204)" stroke-width="1px"></line><line x1="43.33333333333333" y1="0" x2="43.33333333333333" y2="5" style="visibility: inherit;" fill="rgb(0, 0, 0)" stroke="rgb(204, 204, 204)" stroke-width="1px"></line><line x1="65" y1="0" x2="65" y2="5" style="visibility: inherit;" fill="rgb(0, 0, 0)" stroke="rgb(204, 204, 204)" stroke-width="1px"></line><line x1="86.66666666666666" y1="0" x2="86.66666666666666" y2="5" style="visibility: inherit;" fill="rgb(0, 0, 0)" stroke="rgb(204, 204, 204)" stroke-width="1px"></line><line x1="108.33333333333334" y1="0" x2="108.33333333333334" y2="5" style="visibility: inherit;" fill="rgb(0, 0, 0)" stroke="rgb(204, 204, 204)" stroke-width="1px"></line><line x1="130" y1="0" x2="130" y2="5" style="visibility: inherit;" fill="rgb(0, 0, 0)" stroke="rgb(204, 204, 204)" stroke-width="1px"></line><line x1="151.66666666666669" y1="0" x2="151.66666666666669" y2="5" style="visibility: inherit;" fill="rgb(0, 0, 0)" stroke="rgb(204, 204, 204)" stroke-width="1px"></line><line x1="173.33333333333331" y1="0" x2="173.33333333333331" y2="5" style="visibility: inherit;" fill="rgb(0, 0, 0)" stroke="rgb(204, 204, 204)" stroke-width="1px"></line><line x1="195" y1="0" x2="195" y2="5" style="visibility: inherit;" fill="rgb(0, 0, 0)" stroke="rgb(204, 204, 204)" stroke-width="1px"></line><line x1="216.66666666666669" y1="0" x2="216.66666666666669" y2="5" style="visibility: inherit;" fill="rgb(0, 0, 0)" stroke="rgb(204, 204, 204)" stroke-width="1px"></line><line x1="238.33333333333331" y1="0" x2="238.33333333333331" y2="5" style="visibility: inherit;" fill="rgb(0, 0, 0)" stroke="rgb(204, 204, 204)" stroke-width="1px"></line><line x1="260" y1="0" x2="260" y2="5" style="visibility: inherit;" fill="rgb(0, 0, 0)" stroke="rgb(204, 204, 204)" stroke-width="1px"></line></g><g transform="translate(0, 8)"><text x="0" y="0" dx="0em" dy="0.95em" style="text-anchor: middle; visibility: hidden; font-family: Roboto, sans-serif; font-size: 12px; font-weight: 200;" fill="rgb(33, 33, 33)" stroke="none" stroke-width="1px">-20k</text><text x="21.666666666666664" y="0" dx="0em" dy="0.95em" style="text-anchor: middle; visibility: inherit; font-family: Roboto, sans-serif; font-size: 12px; font-weight: 200;" fill="rgb(33, 33, 33)" stroke="none" stroke-width="1px">0</text><text x="43.33333333333333" y="0" dx="0em" dy="0.95em" style="text-anchor: middle; visibility: hidden; font-family: Roboto, sans-serif; font-size: 12px; font-weight: 200;" fill="rgb(33, 33, 33)" stroke="none" stroke-width="1px">20k</text><text x="65" y="0" dx="0em" dy="0.95em" style="text-anchor: middle; visibility: inherit; font-family: Roboto, sans-serif; font-size: 12px; font-weight: 200;" fill="rgb(33, 33, 33)" stroke="none" stroke-width="1px">40k</text><text x="86.66666666666666" y="0" dx="0em" dy="0.95em" style="text-anchor: middle; visibility: hidden; font-family: Roboto, sans-serif; font-size: 12px; font-weight: 200;" fill="rgb(33, 33, 33)" stroke="none" stroke-width="1px">60k</text><text x="108.33333333333334" y="0" dx="0em" dy="0.95em" style="text-anchor: middle; visibility: inherit; font-family: Roboto, sans-serif; font-size: 12px; font-weight: 200;" fill="rgb(33, 33, 33)" stroke="none" stroke-width="1px">80k</text><text x="130" y="0" dx="0em" dy="0.95em" style="text-anchor: middle; visibility: hidden; font-family: Roboto, sans-serif; font-size: 12px; font-weight: 200;" fill="rgb(33, 33, 33)" stroke="none" stroke-width="1px">100k</text><text x="151.66666666666669" y="0" dx="0em" dy="0.95em" style="text-anchor: middle; visibility: inherit; font-family: Roboto, sans-serif; font-size: 12px; font-weight: 200;" fill="rgb(33, 33, 33)" stroke="none" stroke-width="1px">120k</text><text x="173.33333333333331" y="0" dx="0em" dy="0.95em" style="text-anchor: middle; visibility: hidden; font-family: Roboto, sans-serif; font-size: 12px; font-weight: 200;" fill="rgb(33, 33, 33)" stroke="none" stroke-width="1px">140k</text><text x="195" y="0" dx="0em" dy="0.95em" style="text-anchor: middle; visibility: inherit; font-family: Roboto, sans-serif; font-size: 12px; font-weight: 200;" fill="rgb(33, 33, 33)" stroke="none" stroke-width="1px">160k</text><text x="216.66666666666669" y="0" dx="0em" dy="0.95em" style="text-anchor: middle; visibility: hidden; font-family: Roboto, sans-serif; font-size: 12px; font-weight: 200;" fill="rgb(33, 33, 33)" stroke="none" stroke-width="1px">180k</text><text x="238.33333333333331" y="0" dx="0em" dy="0.95em" style="text-anchor: middle; visibility: inherit; font-family: Roboto, sans-serif; font-size: 12px; font-weight: 200;" fill="rgb(33, 33, 33)" stroke="none" stroke-width="1px">200k</text><text x="260" y="0" dx="0em" dy="0.95em" style="text-anchor: middle; visibility: hidden; font-family: Roboto, sans-serif; font-size: 12px; font-weight: 200;" fill="rgb(33, 33, 33)" stroke="none" stroke-width="1px">220k</text></g><line x1="0" y1="0" x2="260" y2="0" fill="rgb(0, 0, 0)" stroke="rgb(204, 204, 204)" stroke-width="1px"></line></g></g></g></g></svg>