<svg viewBox="0 0 330 200" xmlns="http://www.w3.org/2000/svg"><g><g><g><g><g><line x1="50" y1="177" x2="45" y2="177" style="visibility: inherit;" fill="rgb(0, 0, 0)" stroke="rgb(204, 204, 204)" stroke-width="1px"></line><line x1="50" y1="162.25" x2="45" y2="162.25" style="visibility: inherit;" fill="rgb(0, 0, 0)" stroke="rgb(204, 204, 204)" stroke-width="1px"></line><line x1="50" y1="147.5" x2="45" y2="147.5" style="visibility: inherit;" fill="rgb(0, 0, 0)" stroke="rgb(204, 204, 204)" stroke-width="1px"></line><line x1="50" y1="132.75" x2="45" y2="132.75" style="visibility: inherit;" fill="rgb(0, 0, 0)" stroke="rgb(204, 204, 204)" stroke-width="1px"></line><line x1="50" y1="118.00000000000001" x2="45" y2="118.00000000000001" style="visibility: inherit;" fill="rgb(0, 0, 0)" stroke="rgb(204, 204, 204)" stroke-width="1px"></line><line x1="50" y1="103.24999999999999" x2="45" y2="103.24999999999999" style="visibility: inherit;" fill="rgb(0, 0, 0)" stroke="rgb(204, 204, 204)" stroke-width="1px"></line><line x1="50" y1="88.5" x2="45" y2="88.5" style="visibility: inherit;" fill="rgb(0, 0, 0)" stroke="rgb(204, 204, 204)" stroke-width="1px"></line><line x1="50" y1="73.75" x2="45" y2="73.75" style="visibility: inherit;" fill="rgb(0, 0, 0)" stroke="rgb(204, 204, 204)" stroke-width="1px"></line><line x1="50" y1="59.00000000000001" x2="45" y2="59.00000000000001" style="visibility: inherit;" fill="rgb(0, 0, 0)" stroke="rgb(204, 204, 204)" stroke-width="1px"></line><line x1="50" y1="44.25" x2="45" y2="44.25" style="visibility: inherit;" fill="rgb(0, 0, 0)" stroke="rgb(204, 204, 204)" stroke-width="1px"></line><line x1="50" y1="29.499999999999993" x2="45" y2="29.499999999999993" style="visibility: inherit;" fill="rgb(0, 0, 0)" stroke="rgb(204, 204, 204)" stroke-width="1px"></line><line x1="50" y1="14.750000000000007" x2="45" y2="14.750000000000007" style="visibility: inherit;" fill="rgb(0, 0, 0)" stroke="rgb(204, 204, 204)" stroke-width="1px"></line><line x1="50" y1="0" x2="45" y2="0" style="visibility: inherit;" fill="rgb(0, 0, 0)" stroke="rgb(204, 204, 204)" stroke-width="1px"></line></g><g transform="translate(40, 0)"><text x="0" y="177" dx="0em" dy="0.3em" style="text-anchor: end; visibility: hidden; font-family: Roboto, sans-serif; font-size: 12px; font-weight: 200;" fill="rgb(33, 33, 33)" stroke="none" stroke-width="1px">23</text><text x="0" y="162.25" dx="0em" dy="0.3em" style="text-anchor: end; visibility: inherit; font-family: Roboto, sans-serif; font-size: 12px; font-weight: 200;" fill="rgb(33, 33, 33)" stroke="none" stroke-width="1px">23.5</text><text x="0" y="147.5" dx="0em" dy="0.3em" style="text-anchor: end; visibility: hidden; font-family: Roboto, sans-serif; font-size: 12px; font-weight: 200;" fill="rgb(33, 33, 33)" stroke="none" stroke-width="1px">24</text><text x="0" y="132.75" dx="0em" dy="0.3em" style="text-anchor: end; visibility: inherit; font-family: Roboto, sans-serif; font-size: 12px; font-weight: 200;" fill="rgb(33, 33, 33)" stroke="none" stroke-width="1px">24.5</text><text x="0" y="118.00000000000001" dx="0em" dy="0.3em" style="text-anchor: end; visibility: hidden; font-family: Roboto, sans-serif; font-size: 12px; font-weight: 200;" fill="rgb(33, 33, 33)" stroke="none" stroke-width="1px">25</text><text x="0" y="103.24999999999999" dx="0em" dy="0.3em" style="text-anchor: end; visibility: inherit; font-family: Roboto, sans-serif; font-size: 12px; font-weight: 200;" fill="rgb(33, 33, 33)" stroke="none" stroke-width="1px">25.5</text><text x="0" y="88.5" dx="0em" dy="0.3em" style="text-anchor: end; visibility: hidden; font-family: Roboto, sans-serif; font-size: 12px; font-weight: 200;" fill="rgb(33, 33, 33)" stroke="none" stroke-width="1px">26</text><text x="0" y="73.75" dx="0em" dy="0.3em" style="text-anchor: end; visibility: inherit; font-family: Roboto, sans-serif; font-size: 12px; font-weight: 200;" fill="rgb(33, 33, 33)" stroke="none" stroke-width="1px">26.5</text><text x="0" y="59.00000000000001" dx="0em" dy="0.3em" style="text-anchor: end; visibility: hidden; font-family: Roboto, sans-serif; font-size: 12px; font-weight: 200;" fill="rgb(33, 33, 33)" stroke="none" stroke-width="1px">27</text><text x="0" y="44.25" dx="0em" dy="0.3em" style="text-anchor: end; visibility: inherit; font-family: Roboto, sans-serif; font-size: 12px; font-weight: 200;" fill="rgb(33, 33, 33)" stroke="none" stroke-width="1px">27.5</text><text x="0" y="29.499999999999993" dx="0em" dy="0.3em" style="text-anchor: end; visibility: hidden; font-family: Roboto, sans-serif; font-size: 12px; font-weight: 200;" fill="rgb(33, 33, 33)" stroke="none" stroke-width="1px">28</text><text x="0" y="14.750000000000007" dx="0em" dy="0.3em" style="text-anchor: end; visibility: inherit; font-family: Roboto, sans-serif; font-size: 12px; font-weight: 200;" fill="rgb(33, 33, 33)" stroke="none" stroke-width="1px">28.5</text><text x="0" y="0" dx="0em" dy="0.3em" style="text-anchor: end; visibility: hidden; font-family: Roboto, sans-serif; font-size: 12px; font-weight: 200;" fill="rgb(33, 33, 33)" stroke="none" stroke-width="1px">29</text></g><line x1="50" y1="0" x2="50" y2="177" fill="rgb(0, 0, 0)" stroke="rgb(204, 204, 204)" stroke-width="1px"></line></g></g><g transform="translate(50, 0)" clip-path="url(#clip_0)"><clipPath id="clip_0"><rect width="280" height="177"></rect></clipPath><g><g><g><line x1="0" y1="0" x2="0" y2="177" fill="rgb(0, 0, 0)" stroke="rgb(66, 66, 66)" stroke-width="1px" opacity="0.25"></line><line x1="23.333333333333332" y1="0" x2="23.333333333333332" y2="177" fill="rgb(0, 0, 0)" stroke="rgb(66, 66, 66)" stroke-width="1px" opacity="0.25"></line><line x1="46.666666666666664" y1="0" x2="46.666666666666664" y2="177" fill="rgb(0, 0, 0)" stroke="rgb(66, 66, 66)" stroke-width="1px" opacity="0.25"></line><line x1="70" y1="0" x2="70" y2="177" fill="rgb(0, 0, 0)" stroke="rgb(66, 66, 66)" stroke-width="1px" opacity="0.25"></line><line x1="93.33333333333333" y1="0" x2="93.33333333333333" y2="177" fill="rgb(0, 0, 0)" stroke="rgb(66, 66, 66)" stroke-width="1px" opacity="0.25"></line><line x1="116.66666666666667" y1="0" x2="116.66666666666667" y2="177" fill="rgb(0, 0, 0)" stroke="rgb(66, 66, 66)" stroke-width="1px" opacity="0.25"></line><line x1="140" y1="0" x2="140" y2="177" fill="rgb(0, 0, 0)" stroke="rgb(66, 66, 66)" stroke-width="1px" opacity="0.25"></line><line x1="163.33333333333334" y1="0" x2="163.33333333333334" y2="177" fill="rgb(0, 0, 0)" stroke="rgb(66, 66, 66)" stroke-width="1px" opacity="0.25"></line><line x1="186.66666666666666" y1="0" x2="186.66666666666666" y2="177" fill="rgb(0, 0, 0)" stroke="rgb(66, 66, 66)" stroke-width="1px" opacity="0.25"></line><line x1="210" y1="0" x2="210" y2="177" fill="rgb(0, 0, 0)" stroke="rgb(66, 66, 66)" stroke-width="1px" opacity="0.25"></line><line x1="233.33333333333334" y1="0" x2="233.33333333333334" y2="177" fill="rgb(0, 0, 0)" stroke="rgb(66, 66, 66)" stroke-width="1px" opacity="0.25"></line><line x1="256.66666666666663" y1="0" x2="256.66666666666663" y2="177" fill="rgb(0, 0, 0)" stroke="rgb(66, 66, 66)" stroke-width="1px" opacity="0.25"></line><line x1="280" y1="0" x2="280" y2="177" fill="rgb(0, 0, 0)" stroke="rgb(66, 66, 66)" stroke-width="1px" opacity="0.25"></line></g><g><line x1="0" y1="177" x2="280" y2="177" fill="rgb(0, 0, 0)" stroke="rgb(66, 66, 66)" stroke-width="1px" opacity="0.25"></line><line x1="0" y1="162.25" x2="280" y2="162.25" fill="rgb(0, 0, 0)" stroke="rgb(66, 66, 66)" stroke-width="1px" opacity="0.25"></line><line x1="0" y1="147.5" x2="280" y2="147.5" fill="rgb(0, 0, 0)" stroke="rgb(66, 66, 66)" stroke-width="1px" opacity="0.25"></line><line x1="0" y1="132.75" x2="280" y2="132.75" fill="rgb(0, 0, 0)" stroke="rgb(66, 66, 66)" stroke-width="1px" opacity="0.25"></line><line x1="0" y1="118.00000000000001" x2="280" y2="118.00000000000001" fill="rgb(0, 0, 0)" stroke="rgb(66, 66, 66)" stroke-width="1px" opacity="0.25"></line><line x1="0" y1="103.24999999999999" x2="280" y2="103.24999999999999" fill="rgb(0, 0, 0)" stroke="rgb(66, 66, 66)" stroke-width="1px" opacity="0.25"></line><line x1="0" y1="88.5" x2="280" y2="88.5" fill="rgb(0, 0, 0)" stroke="rgb(66, 66, 66)" stroke-width="1px" opacity="0.25"></line><line x1="0" y1="73.75" x2="280" y2="73.75" fill="rgb(0, 0, 0)" stroke="rgb(66, 66, 66)" stroke-width="1px" opacity="0.25"></line><line x1="0" y1="59.00000000000001" x2="280" y2="59.00000000000001" fill="rgb(0, 0, 0)" stroke="rgb(66, 66, 66)" stroke-width="1px" opacity="0.25"></line><line x1="0" y1="44.25" x2="280" y2="44.25" fill="rgb(0, 0, 0)" stroke="rgb(66, 66, 66)" stroke-width="1px" opacity="0.25"></line><line x1="0" y1="29.499999999999993" x2="280" y2="29.499999999999993" fill="rgb(0, 0, 0)" stroke="rgb(66, 66, 66)" stroke-width="1px" opacity="0.25"></line><line x1="0" y1="14.750000000000007" x2="280" y2="14.750000000000007" fill="rgb(0, 0, 0)" stroke="rgb(66, 66, 66)" stroke-width="1px" opacity="0.25"></line><line x1="0" y1="0" x2="280" y2="0" fill="rgb(0, 0, 0)" stroke="rgb(66, 66, 66)" stroke-width="1px" opacity="0.25"></line></g></g></g><g><g><line x1="0" y1="855.5000000000001" x2="280" y2="855.5000000000001" fill="rgb(0, 0, 0)" stroke="rgb(153, 153, 153)" stroke-width="1.5px"></line></g></g><g><g><line x1="23.333333333333332" y1="0" x2="23.333333333333332" y2="177" fill="rgb(0, 0, 0)" stroke="rgb(153, 153, 153)" stroke-width="1.5px"></line></g></g><g><g><g><g><g><path stroke="rgb(255, 112, 67)" stroke-width="2px" d="M31.382166666666667,183.85314476926283L31.6155,171.38473257340735L31.732166666666664,178.24734921481064L32.43216666666667,170.86797203200297L32.6655,176.599606321571L32.78216666666667,178.17644889942048L33.13216666666666,180.31979357747906L33.365500000000004,176.62385475259796L33.832166666666666,172.78072154229918L33.94883333333333,171.00516731545378L34.53216666666667,171.9436075151853L34.99883333333333,165.7708848152767L35.115500000000004,162.947106160709L35.465500000000006,167.055092309762L35.8155,159.6000948755429L35.93216666666667,154.25007729578317L36.1655,153.81663001089157L36.74883333333334,155.41485097711868L36.982166666666664,154.97861487093877L37.5655,148.6846012498297L38.03216666666667,148.72330614479526L38.148833333333336,146.3115952286247L38.38216666666667,144.7869430227947L38.6155,153.1393136408259L38.732166666666664,150.40606323637533L38.84883333333334,158.73091554497478L39.3155,153.92554845723384L39.43216666666667,152.35912851281688L40.13216666666667,146.8449895130856L40.24883333333333,143.7319769231834L40.48216666666667,143.4279133420204L40.59883333333333,146.12253093367912L40.94883333333333,146.32459697512448L41.7655,149.13759456507964L41.99883333333333,157.55136701126452L42.115500000000004,154.88142559921482L42.34883333333333,145.01233962771727L42.582166666666666,146.1199373459662L42.8155,144.22798085545574L43.28216666666666,148.0758609314863L43.398833333333336,149.1147151672902L43.5155,148.46417021060367L43.865500000000004,154.03206810536614L43.982166666666664,139.05724821795602L44.09883333333333,135.60095049327356L44.215500000000006,131.97805724969953L44.44883333333333,127.29297715682661L44.5655,130.14830941116148L44.9155,138.65999928805425L45.03216666666667,142.1863216858696L45.148833333333336,141.17836329350408L45.49883333333334,139.9350952923867L45.6155,135.06093052748287L45.732166666666664,125.44813401534219L45.84883333333334,138.08176531215946L46.19883333333333,137.71840199125074L46.665499999999994,137.1431124227778L46.78216666666667,127.29369101628879L47.015499999999996,131.12492142740024L47.13216666666667,135.61383301391083L47.24883333333334,143.30569604858084L47.3655,136.6782601584454L47.59883333333334,140.14317092355844L47.832166666666666,138.7614625516937L48.0655,133.76304627796446L48.29883333333333,136.54482346380024L48.53216666666667,128.15028275015504L48.64883333333333,124.4480038938675L48.88216666666667,120.64171378956756L48.99883333333333,134.92857533184602L49.1155,127.00662449293085L49.23216666666667,141.04577233369798L49.34883333333333,134.41717592463286L49.582166666666666,134.33894614926209L49.69883333333333,137.96829994053377L50.1655,136.11660275179585L50.865500000000004,141.69577265571615L51.09883333333333,142.4321131753388L51.2155,139.4011090306916L51.332166666666666,134.67797010591502L51.5655,129.6906893816643L51.68216666666666,128.68955744308542L51.9155,124.58935435415695L52.03216666666666,119.83246736408105L52.148833333333336,125.07276227880024L52.2655,118.45231138949691L52.84883333333333,116.63640911153024L52.965500000000006,114.7164600299064L53.082166666666666,113.0762524370113L53.43216666666667,121.71487339519012L53.548833333333334,116.38500237573722L53.6655,117.96806845730273L53.78216666666667,117.89173699418143L54.015499999999996,125.98528862595228L54.94883333333333,121.05516281485367L55.0655,118.23253273224718L55.415499999999994,115.24493116888934L55.53216666666667,121.28513428421941L55.648833333333336,122.84196947128851L55.88216666666667,122.14413126773411L56.1155,113.50399585048419L56.34883333333334,118.46238515067142L56.4655,122.62995947175042L56.69883333333334,122.02153914435394L56.93216666666667,128.50127378263295L57.04883333333333,125.0076551387204L57.28216666666667,117.90785884556131L57.8655,118.56866893587672L57.98216666666667,120.87077594648706L58.09883333333333,118.91983113796059L58.2155,113.80284701651657L58.9155,110.49176718512969L59.14883333333333,112.15465046000354L59.38216666666667,103.01017995495721L59.49883333333333,110.11429355036682L59.84883333333333,120.00494812423871L59.9655,118.88701962527574L60.3155,119.7830223983344L60.548833333333334,122.06739263211585L60.6655,116.78550279423534L61.0155,112.0531875865753L61.24883333333333,113.50148500067567L61.832166666666666,107.70336712040051L61.94883333333333,112.20326149843659L62.0655,116.32312419642525L62.18216666666667,108.58784195559932L62.765499999999996,105.16502855287612L62.88216666666666,108.08910540382034L63.1155,107.98141352915738L63.4655,111.08464088788023L63.582166666666666,115.81332496851911L63.69883333333333,114.24819967776668L63.8155,106.43062261122539L64.04883333333333,117.60337097274112L64.28216666666667,114.25399112002168L64.5155,120.62829417762826L64.63216666666666,112.42837154136701L64.74883333333334,105.17375151673917L65.21549999999999,97.08990650391551L65.44883333333334,100.41658123145085L65.68216666666667,103.919298027811L65.79883333333333,113.00174551895718L65.9155,108.11518572384995L66.03216666666667,104.20769633421224L66.14883333333333,115.47920192223141L66.2655,108.49624231422747L66.38216666666666,116.18587023594857L67.08216666666667,113.11416687118339L67.43216666666667,111.87781332461431L67.54883333333333,107.41683425026176L68.3655,96.90865310142665L68.48216666666666,92.31470480030917L68.94883333333333,103.91959985772462L69.0655,104.81918316292582L69.18216666666666,98.10202587370755L69.29883333333333,101.21061356499605L69.41550000000001,92.78814983150252L69.53216666666667,100.31628475058605L69.64883333333333,100.16275249402842L69.7655,102.30505467940044L69.88216666666666,111.69935742311885L69.99883333333334,106.47617954786541L70.23216666666667,101.77161928877788L70.34883333333333,99.8803685001466L70.58216666666667,100.30659367394051L71.04883333333333,106.48105436415432L71.16550000000001,104.43776363045544L71.5155,99.71113992876144L71.63216666666666,99.84857269016709L71.74883333333334,97.15813767843133L71.8655,87.90286982019356L72.21549999999999,97.23760774111517L72.5655,96.98022295460568L72.68216666666667,105.68020339861792L73.03216666666667,101.51714265379485L73.14883333333334,107.26000444908847L73.6155,104.16686845314452L73.73216666666667,106.75759330089066L74.08216666666667,108.14025696930383L74.19883333333333,109.21279263983428L74.3155,107.73980517679611L74.43216666666667,100.28893620666364L74.54883333333333,107.73761038122466L74.66550000000001,106.12349770151317L74.78216666666665,103.2442325930759L74.89883333333333,105.37241121417065L75.13216666666666,106.93218276671037L75.24883333333334,107.26695889098319L75.36550000000001,95.86532097973154L75.48216666666666,89.35948570917685L75.94883333333334,87.27112851351875L76.06549999999999,89.17733660823333L76.18216666666666,93.86337065390487L76.29883333333333,93.76955437476475L76.4155,97.34242720493701L76.64883333333334,92.06278397493966L76.88216666666666,96.02872606428511L77.1155,92.40377013869322L77.23216666666667,94.7538164197638L77.58216666666667,91.07219532366008L77.69883333333333,87.54385659238933L77.8155,94.48697603429109L78.04883333333333,99.62160418441734L78.28216666666667,100.27971338040133L78.74883333333332,101.21870121244494L78.8655,93.62649355461546L79.2155,103.93214956599681L79.33216666666667,100.46043300436865L79.44883333333333,86.77384166602445L79.5655,95.74229686668002L79.68216666666666,100.55539055592114L79.79883333333333,99.1396929974931L79.91550000000001,95.47797053787569L80.14883333333333,98.7593187912313L80.2655,97.97265327119874L80.38216666666666,99.68087933149367L80.49883333333334,97.98412307313933L80.73216666666667,104.352052594494L81.08216666666667,96.77500528411343L81.54883333333333,96.15129200408627L81.89883333333334,94.9720438944684L82.0155,88.85491632386368L82.13216666666666,86.79362224915215L82.48216666666667,88.18779062854401L82.7155,72.2749752499291L82.83216666666667,92.33473307476218L82.94883333333333,96.28941711536511L83.0655,92.26179075689004L83.18216666666667,99.03902750284007L83.29883333333333,92.43288839501456L83.41550000000001,82.7888254442353L83.7655,89.25238691082824L83.88216666666666,87.57593432850385L83.99883333333334,93.45941290728295L84.11550000000001,91.79639092369109L84.4655,91.16444687416089L85.28216666666667,85.8412081025239L85.63216666666666,94.36074903143628L85.74883333333334,96.85266958792913L85.98216666666667,101.7693375773424L86.09883333333335,103.3651994244572L86.21549999999999,83.80570870496736L86.33216666666667,81.74542549763866L86.44883333333333,83.31530263134691L86.68216666666667,85.70423055952104L86.79883333333333,77.35169063368623L86.9155,77.92869626497738L87.14883333333333,73.7821994484396L87.2655,72.27955526476688L87.6155,77.23977486113068L87.84883333333333,78.22075395476432L88.08216666666667,88.56699216778048L88.19883333333333,90.05064337500903L88.3155,97.61684308677296L89.0155,83.66054545777668L89.13216666666666,83.34565588794725L89.24883333333334,89.09570377446761L89.71549999999999,90.81994019375772L90.0655,90.72820106998998L90.29883333333333,83.27657365713065L90.64883333333334,88.5838191027256L91.1155,93.27294275252902L91.58216666666667,83.00522225552136L91.69883333333333,78.61366268070537L91.8155,87.8411605600834L92.04883333333333,84.91673285033222L92.28216666666665,91.6592834846134L92.39883333333333,87.58117304181792L92.5155,83.14144979677046L92.74883333333334,80.40780002332593L92.98216666666666,87.9604324248842L93.09883333333333,82.4788873998768L93.2155,87.0903796201019L93.33216666666667,82.27609094649969L93.56549999999999,80.44861927432063L93.68216666666666,74.60047382594489L93.79883333333333,75.6497137694439L94.03216666666667,82.18447929316042L94.38216666666666,80.1185302120046L94.6155,79.85908313879939L94.96549999999999,75.348793389139L95.08216666666667,79.66466925247757L95.3155,83.48931821408421L95.54883333333333,84.06758804453938L95.78216666666667,87.65580932696768L96.0155,82.75534053087296L96.13216666666668,80.84935528898279L96.48216666666667,77.27269834795018L96.7155,80.1151372582818L96.83216666666667,83.11313867515946L97.29883333333333,80.4164935108818L97.53216666666667,80.14154954891198L97.7655,75.35807044589983L98.1155,80.15379223397056L98.23216666666667,78.35617571574856L98.34883333333333,80.0695861667539L98.46549999999999,78.44271796286976L98.58216666666667,80.97818456495325L98.69883333333334,81.08307200911355L99.1655,84.28488081838326L99.39883333333334,87.91937972394011L99.5155,83.0507962303602L99.63216666666666,86.49247419817708L99.74883333333332,84.46672818650879L99.8655,82.40050428861419L100.2155,80.55914298149375L100.33216666666667,80.57759127290495L100.44883333333333,71.82182255549102L101.2655,75.82309956051621L101.61550000000001,70.45736147581165L102.19883333333334,79.93467613231317L102.31549999999999,80.09424874884597L102.43216666666666,76.4513570648593L102.78216666666667,78.195856963525L103.01549999999999,79.38153586085417L103.13216666666666,69.73911209878798L103.24883333333334,69.14683449254915L103.59883333333335,70.58030154696989L104.18216666666667,70.95362907881665L104.4155,68.89087594887691L104.53216666666667,70.75593212450191L104.64883333333333,76.27032448771394L104.7655,70.0015429134535L104.99883333333332,69.29045135232015L105.34883333333333,67.09337328941947L105.4655,62.32984370631767L105.69883333333333,62.70951930667628L106.16550000000001,73.30402960768741L106.28216666666667,73.16914681429503L106.5155,73.27527043720978L106.8655,81.13907392919594L107.09883333333333,76.40458121359664L107.33216666666667,70.8709122566004L107.44883333333334,70.61031857893579L107.5655,69.20749554494446L107.79883333333333,73.41606074249398L108.03216666666667,67.79829329058919L108.14883333333334,70.20674925926556L108.2655,73.93416117360131L108.38216666666666,82.0281156464215L108.49883333333332,78.02847903751119L108.73216666666667,79.28212190737003L108.84883333333333,67.27318092030092L108.9655,69.61588456536408L109.54883333333333,74.64099146309543L109.66550000000001,71.12793823112875L109.78216666666665,71.85995843428272L110.0155,67.55653330336739L110.13216666666666,70.24942176729871L110.24883333333334,73.49635143989586L110.36550000000001,71.09794514128131L111.18216666666666,75.72376304118964L111.53216666666667,81.3318137481757L111.64883333333334,78.53349567383222L111.88216666666666,65.80915494519289L112.46549999999999,69.90752551411285L112.58216666666667,68.25119522484955L112.69883333333333,74.15154110951917L113.04883333333333,76.52671110369984L113.1655,81.87516095482245L113.5155,77.9655823364433L113.63216666666668,70.5218394073592L113.8655,80.10237137512844L113.98216666666667,81.35598726294333L114.2155,71.36142599118881L114.33216666666667,65.22861363609509L114.44883333333333,65.24484373402524L114.5655,62.89997440142592L114.68216666666666,64.82521680333107L115.38216666666666,72.50413581930341L115.49883333333334,64.3856285405323L115.73216666666667,56.70386323882135L115.96549999999999,58.84531026812189L116.19883333333334,63.8925808294522L116.3155,72.0084958090726L116.6655,64.87926549997002L116.78216666666667,66.19009935430336L117.24883333333332,65.28321702224987L117.3655,71.36299356784215L117.48216666666667,73.78813725093488L117.59883333333333,67.75953853952569L117.94883333333333,71.1390414525728L118.29883333333333,72.30962001619706L118.88216666666666,66.34196745954736L118.99883333333334,70.3036683297323L119.23216666666666,67.9345630583863L119.34883333333333,60.11302322016361L119.4655,73.78717580953953L119.69883333333334,79.53127841663188L119.81549999999999,79.77325656719107L119.93216666666666,73.15778671924527L120.04883333333333,78.07638360991629L120.51549999999999,69.09376183709242L120.63216666666666,78.71436638570268L120.8655,75.080363148072L120.98216666666667,67.76392910100142L121.09883333333335,71.76414397488305L121.33216666666667,67.60424100834292L121.44883333333333,73.58628575490806L121.79883333333333,67.44934873871145L122.03216666666667,65.77564066107357L122.6155,58.88284922513531L122.73216666666667,62.19129248185859L123.08216666666667,61.31451723411033L123.43216666666666,67.65936921497789L123.78216666666667,69.06544422185786L124.0155,58.067946953036596L124.3655,59.866320921455696L124.48216666666667,59.293780132219034L124.94883333333334,68.42531211619664L125.0655,62.639080854922994L126.23216666666667,71.36676874915989L126.4655,71.05423864817762L126.58216666666667,75.04196358380399L126.69883333333333,72.57508392725991L126.8155,74.66841461416843L127.04883333333333,59.50740825031258L127.28216666666665,55.09022032555376L127.5155,58.65693714223166L127.86550000000001,57.69745513201868L128.09883333333332,58.43604548216527L128.2155,56.140335175041386L128.5655,59.302085550215175L128.68216666666666,50.78822764848853L128.9155,53.93515048679824L129.14883333333333,52.70112782870007L129.2655,53.05550831648272L129.38216666666665,56.577388775900396L129.6155,55.679411323401595L129.73216666666667,57.68930763693652L130.08216666666667,76.4818791073084L130.54883333333333,64.17297412881379L130.6655,54.839720069939574L130.89883333333333,54.94891070102135L131.13216666666668,60.959821121540514L131.59883333333335,56.439125476269105L131.7155,64.37715517162565L131.83216666666667,64.71049415278007L131.94883333333334,66.22734286312804L132.0655,71.51878906443444L132.18216666666666,59.08536325189304L132.29883333333333,73.67896148140936L132.53216666666668,69.66699412212193L132.99883333333332,71.04285470691575L133.23216666666667,70.86745247869054L133.34883333333332,66.79078894632073L133.69883333333334,66.77231997118605L134.1655,62.595313369430315L134.5155,56.82572592449027L134.74883333333332,54.39248526782893L134.8655,62.210866145438565L134.98216666666667,54.16595297583734L135.44883333333334,59.09224451499456L135.68216666666666,59.09583628724384L135.79883333333333,62.01848504871351L135.9155,54.93006418901808L136.03216666666665,54.33534297202912L136.2655,50.35663981947229L136.38216666666668,53.95057713814329L136.73216666666667,54.82011816398952L137.3155,48.76056455073744L137.54883333333333,48.87730926572076L137.6655,41.94808317600958L137.89883333333333,50.54602504598658L138.0155,51.719706397220875L138.48216666666667,50.12629481611575L138.7155,50.410322788106875L138.83216666666667,54.65942876502713L138.94883333333334,52.59332800486596L139.18216666666666,51.51720133172818L139.4155,54.38313535897341L139.53216666666665,49.342466664602796L139.64883333333333,45.78744716184768L139.88216666666668,46.65809146605385L139.99883333333332,57.05012221361666L140.23216666666667,58.88984696403422L140.34883333333332,55.00691423615972L140.4655,59.599454556710455L140.58216666666667,51.407443043474565L140.69883333333334,50.59874362759837L140.8155,47.14329044230607L141.39883333333333,51.44671073083773L141.63216666666668,52.396328440455804L141.8655,56.3346564240147L141.98216666666667,57.321187607460686L142.09883333333335,57.25473992348526L142.68216666666666,65.89762392235289L143.14883333333333,57.62771543617545L143.38216666666665,58.855071644517714L143.49883333333335,53.255642855485064L144.19883333333334,54.490258577060594L144.31550000000001,49.40660555517187L144.43216666666666,49.84851045224373L144.54883333333333,49.204607217391185L144.6655,47.97165272765151L145.13216666666665,43.14506591637615L145.3655,38.14966505336564L145.48216666666667,47.980823812292826L146.18216666666666,51.65776880824971L146.29883333333333,54.62992930557979L146.64883333333333,52.34124341098453L146.88216666666668,51.121752729940354L146.99883333333332,53.114158434228855L147.1155,47.71990611705593L147.34883333333332,47.665871587713966L147.69883333333334,44.035887698722114L147.81550000000001,47.739374339814376L147.93216666666666,40.209284699103435L148.1655,52.49463095434978L148.28216666666668,56.13978470664296L148.39883333333333,55.74427655518696L148.51549999999997,48.59450714099791L148.63216666666668,45.53792338555091L148.74883333333332,49.86093228450432L149.09883333333332,49.683463438695746L149.2155,53.57547990342744L149.44883333333334,49.6465311518953L149.5655,55.42509139011178L149.6821666666667,67.31831357735321L150.03216666666668,62.55195387517167L150.14883333333333,61.30346121975628L150.2655,54.257032099895845L150.73216666666667,52.034680380542916L150.84883333333335,48.444453629326695L150.9655,47.51517796067712L151.54883333333333,53.15067248075189L151.78216666666665,54.14276898222559L152.0155,56.56021545122505L152.13216666666665,44.185191618147094L152.24883333333335,51.48436211749475L152.59883333333335,46.39333180907111L152.7155,50.661813141839225L152.83216666666667,47.684719873628914L152.94883333333334,50.048679443098216L153.06550000000001,50.89068074935502L153.18216666666666,56.11515681692268L153.29883333333333,58.5324184462327L153.4155,53.89862549095736L153.64883333333336,49.285335420306915L153.99883333333335,52.556722950182156L154.23216666666667,48.50625667049987L154.34883333333332,56.817778736797045L154.6988333333333,53.835402196912185L154.81550000000001,54.22770959512491L155.04883333333333,50.20815476403293L155.1655,50.426849035177575L155.28216666666665,56.60226611361146L155.39883333333333,58.15857532063271L155.5155,61.99896790050951L155.74883333333332,60.5810431090801L155.8655,58.04485045956419L155.98216666666667,45.44929148606565L156.33216666666667,48.483683168006515L156.68216666666666,55.14958604521308L157.03216666666668,40.494663049857266L157.14883333333333,39.459908562946566L157.38216666666668,51.880908821849985L157.49883333333332,49.18293600966265L157.6155,49.62248133236007L157.73216666666667,54.229126540504836L157.84883333333332,52.681097369005016L157.9655,45.04359113014317L158.19883333333334,41.95382267735347L158.78216666666668,41.951904049527236L159.0155,53.673464817411634L159.24883333333332,50.14084952032984L159.48216666666667,45.46136670682682L159.59883333333335,46.879380067431015L160.29883333333333,44.315672016288694L160.4155,39.07819868096462L160.64883333333333,52.87302966695281L160.7655,44.62138020861893L160.88216666666665,42.92916014116259L161.34883333333335,42.99493810129913L161.58216666666667,33.09012844915831L161.81550000000001,34.35056144449494L162.04883333333333,37.888380995114986L162.1655,42.63287982387571L162.28216666666665,55.48750453617113L162.63216666666665,58.48681081191256L162.74883333333335,60.444616775843784L162.8655,53.75811032124359L163.09883333333332,66.26863267223835L163.2155,50.018569434886075L163.56550000000001,46.19754264664938L163.68216666666666,36.793120085670296L164.03216666666665,43.05109406678299L164.14883333333333,53.049893576910534L164.2655,37.2693812602821L164.49883333333332,47.98545497382066L164.96550000000002,44.79838548734408L165.08216666666667,32.90736457487719L165.19883333333334,39.57152827251425L165.43216666666666,40.24754037659446L165.54883333333333,35.91647466540983L166.13216666666668,42.757466128591595L166.3655,42.51063545413254L166.7155,38.32942395131258L166.83216666666667,38.357901410582386L167.1821666666667,41.97700738687679L167.29883333333333,41.54579458105183L167.88216666666668,43.02562051694167L168.1155,35.83578895140037L168.23216666666667,34.05909437303747L168.34883333333335,30.058607258588037L168.4655,34.88164224516756L168.5821666666667,37.52262281353115L168.69883333333334,46.39135155066753L168.8155,41.41135588279315L169.1655,39.266662543958105L169.28216666666665,38.88625942823029L169.39883333333333,47.123535365800464L169.5155,44.60145924743444L169.74883333333335,47.84800094518923L169.98216666666664,45.4774727472893L170.09883333333335,48.737565115048405L170.44883333333334,42.45132431683179L170.56550000000001,49.79470053492323L170.9155,49.28075861441091L171.2655,42.89724621478906L171.73216666666667,30.68037195983041L172.31550000000001,39.460598206415845L172.43216666666666,52.56282590382994L172.54883333333333,42.93183197113099L173.0155,39.65145834405561L173.3655,47.86601424288357L173.94883333333334,41.34596505207782L174.29883333333333,44.32101248766755L174.64883333333333,42.31329955497851L174.88216666666668,36.345530926224455L174.99883333333332,32.94265028180888L175.34883333333332,37.81437671388506L175.8155,42.865849996836815L176.28216666666668,33.69802753045069L176.74883333333332,37.78712973543346L176.8655,43.73313790290552L177.44883333333334,26.255659948164205L177.68216666666666,38.8458245577658L177.79883333333333,42.268861006632086L178.03216666666665,42.14666625913067L178.14883333333333,43.18668902549793L178.38216666666665,36.71955736061126L179.19883333333334,38.697235820175436L180.24883333333335,39.29752049295975L180.3655,43.33537836938422L180.59883333333332,50.9665292982418L180.7155,41.874394278774176L181.06550000000001,49.675072587161964L181.18216666666666,55.611511752980746L181.4155,48.87284005044568L181.88216666666668,56.13624484752813L182.1155,47.4617975676966L182.58216666666667,43.30443411617946L182.69883333333334,50.027033028301425L182.81550000000001,43.561930571375456L182.93216666666666,48.64018110893855L183.04883333333333,40.09268524922544L183.51549999999997,32.927555195555804L183.63216666666668,43.93338019374946L183.8655,39.36469997599084L183.98216666666667,44.60389994164921L184.44883333333334,37.832109633568614L185.03216666666668,33.19070292918903L185.14883333333333,37.7548411453308L185.6155,40.180075631412365L185.9655,36.23007144085914L186.3155,42.06698459120014L186.43216666666666,40.50852037508138L186.6655,48.809206921093796L186.78216666666665,47.13926751508298L187.13216666666665,45.627954429948225L187.3655,48.81752354297873L188.29883333333333,46.43680395122664L188.64883333333336,48.25708130262068L188.7655,40.23695447004905L188.99883333333335,40.604821073753044L189.23216666666667,30.450621144618033L189.34883333333332,38.32173911133136L190.39883333333333,35.92452349304396L190.5155,36.38560322546509L190.98216666666667,38.43044602646564L191.21550000000002,33.61436655386769L191.33216666666667,36.141949857857725L191.44883333333334,42.69626763199984L191.56550000000001,42.51017467221743L191.9155,38.14261183763224L192.14883333333333,42.51405488028932L192.26549999999997,40.04691483124979L192.38216666666668,36.514176044135716L192.49883333333332,37.68269614772169L192.6155,38.155747678257015L192.73216666666667,35.04369808815538L192.84883333333332,36.374424800769205L193.08216666666667,31.72911693185316L193.19883333333334,33.71814948040098L193.3155,34.98314035962724L193.4321666666667,40.26832507270989L193.54883333333333,39.87484506498822L193.66549999999998,43.18340694744013L193.78216666666668,43.78730704688196L193.89883333333333,47.75943142356375L194.13216666666668,32.75332120765384L194.94883333333334,31.677217410261196L195.29883333333333,32.68831935301709L195.4155,24.55204495653689L195.64883333333333,39.01513848820427L195.7655,44.256849587673585L196.23216666666664,35.242016399332584L196.34883333333335,28.96228671337888L196.4655,23.97798352399906L196.93216666666666,25.20324671840334L197.04883333333333,29.581386355016548L197.1655,25.74157358852262L197.28216666666665,29.310970459266024L197.39883333333336,31.743147751023432L197.63216666666665,30.626718270975385L197.74883333333335,34.508663408874355L198.2155,41.95164846951896L198.33216666666667,38.400435492844124L198.4488333333333,28.610808018118547L198.68216666666666,32.94389379219436L199.03216666666665,25.842496324755103L199.49883333333332,27.74629178594196L199.6155,22.844030946199034L199.73216666666667,27.549578052582756L199.96550000000002,28.36044598926451L200.19883333333334,31.01096478288973L200.31550000000001,34.23944973460203L201.13216666666668,36.98772768683046L201.48216666666667,40.232465484778906L201.7155,35.27627395334291L202.41549999999998,33.1849122449305L202.7655,46.87880699661649L202.88216666666668,49.87856021420521L203.23216666666667,42.689860814192066L203.69883333333334,34.58979653917446L203.93216666666666,36.12020177604374L204.04883333333333,34.24572183466915L204.39883333333333,40.7636837111531L204.5155,29.32776283899648L204.63216666666665,26.284654376981866L204.8655,13.765241860197941L205.09883333333335,20.963734959868724L205.68216666666666,19.83847924191247L205.9155,26.510890126934594L206.03216666666665,18.919237780994653L206.14883333333336,16.99694672133116L206.38216666666665,25.145957034263628L206.6155,33.4621904620133L206.73216666666667,28.002535911119104L206.84883333333332,32.6173719952799L206.9655,32.25318152846677L207.31550000000001,27.54158443893069L207.54883333333333,35.28584963491595L207.6655,30.9133833313647L207.78216666666665,36.126156143227995L207.89883333333333,45.42390039675218L208.0155,33.70665499635204L208.3655,28.263143617318157L208.94883333333334,13.779578064922049L209.53216666666668,8.689477643396593L209.64883333333333,23.095720887795707L209.76549999999997,26.898272681603203L210.23216666666667,32.95276175044144L210.34883333333332,33.25515924753052L210.4655,44.59448119915304L211.28216666666668,42.34283564637171L211.39883333333333,40.830745256841666L211.63216666666668,35.91783611589704L211.74883333333332,30.73503890403534L211.98216666666667,23.12399529676692L212.44883333333334,24.99116086519399L212.68216666666666,22.30206384394543L212.9155,21.90567869027837L213.14883333333333,26.237205660822365L213.2655,22.910914323617522L213.73216666666664,20.111649836235866L214.19883333333334,22.842191699226802L214.31550000000001,20.458612062382734L214.43216666666666,20.643613587527266L214.54883333333333,26.934755570118845L214.78216666666665,25.350007013335986L214.89883333333336,38.19800164452509L215.48216666666667,34.49787508339476L215.59883333333332,30.532966154162835L215.83216666666667,29.619140349236044L216.06550000000001,29.001411653999558L216.18216666666666,19.56261685934311L216.29883333333333,21.015827867070822L216.4155,30.621259720730812L216.64883333333333,31.31283342338092L216.88216666666668,28.37526757417014L217.34883333333332,29.732136099922027L217.58216666666667,25.366066938273644L217.81550000000001,30.06558628417992L218.1655,23.07036754809585L218.28216666666668,23.991555627124164L218.74883333333332,21.862953624687567L219.09883333333332,21.280822254158334L219.33216666666667,21.89375046309072L219.44883333333334,20.61462361464632L219.5655,30.70879759102891L219.6821666666667,29.7963005883088L220.03216666666668,31.71632596150574L220.14883333333333,25.04887859997471L220.2655,36.792531734569785L220.38216666666668,26.530633023896208L220.49883333333332,28.492295677374823L220.6155,22.35501638347574L220.9655,28.862090869514123L221.0821666666667,25.249588277201642L221.19883333333334,34.14679237977315L221.43216666666666,37.2433110998609L221.54883333333333,29.39470682898384L221.6655,25.695803131814063L221.78216666666665,26.716684988829673L222.0155,32.59808083277542L222.24883333333335,28.09528496206769L222.59883333333335,21.039256014472063L222.83216666666667,12.19349532010907L222.94883333333334,15.35731842924805L223.06550000000001,11.59276553874999L223.18216666666666,16.603792410408285L223.88216666666665,22.798462045976443L223.99883333333335,38.71277740763961L224.34883333333332,30.479779786868882L224.4655,27.813699476125215L224.58216666666667,25.440495534063885L224.6988333333333,21.76322348315805L225.28216666666665,24.295783897634127L226.21550000000002,20.2500625016664L226.33216666666667,24.451374552391496L226.44883333333334,17.282571328724906L226.79883333333333,12.663021953729059L227.03216666666668,14.042858261959136L227.38216666666668,21.693940436301542L227.49883333333332,24.080934879456755L227.6155,16.989456389710114L227.73216666666667,21.053208288171803L227.9655,20.798080978762513L228.08216666666667,23.749850784523197L228.4321666666667,15.053805276622121L229.0155,15.962527993243704L229.13216666666668,16.018735744310476L229.3655,19.998945151420305L229.48216666666667,16.45051989236584L229.7155,21.457578475946875L230.53216666666665,23.28176411132492L230.64883333333333,11.989547968748067L230.7655,25.508027029539825L231.1155,18.718972177806872L231.23216666666664,23.151974279584564L231.58216666666667,25.865566586793683L231.69883333333334,33.61156445463965L231.81550000000001,30.85211361480032L231.93216666666666,30.74499505181478L232.1655,30.251430853720723L232.28216666666665,29.90406705410254L232.5155,31.03038693351141L232.74883333333335,32.960883145824596L232.98216666666667,23.64676189738244L233.09883333333332,24.9273832340105L233.4488333333333,19.98843601340437L233.68216666666666,15.728613442149092L233.79883333333333,8.430465260723972L233.9155,14.88448536370975L234.38216666666668,22.186245417444578L234.6155,27.446233639626946L235.08216666666667,34.9802100476678L235.31550000000001,27.38282359940144L235.54883333333333,32.885095389499305L235.6655,30.27050120342613L236.13216666666668,35.23292297547363L236.48216666666667,34.00054022327246L236.59883333333332,37.26428974065289L236.83216666666667,28.500295951325366L236.94883333333334,37.015085789179096L237.1821666666667,33.174052389034834L237.29883333333333,23.923590368967787L237.41549999999998,29.379456345404154L237.64883333333333,23.07997025499638L237.7655,21.54991467863261L237.88216666666668,21.233958435475458L238.5821666666667,18.705486984503075L238.69883333333334,13.675758773953797L238.8155,10.937230166715986L238.93216666666666,17.931221995903545L239.04883333333333,12.035314008089L239.39883333333333,21.1924786117626L239.63216666666665,32.05732943695497L239.98216666666664,27.680807269106513L240.44883333333334,28.790603349501048L240.9155,19.51783124798183L241.03216666666665,30.49077344056154L241.14883333333336,24.060369063116198L241.2655,20.010346727786676L241.73216666666667,17.72403869463093L241.84883333333332,20.59119087119752L241.9655,23.90970643556028L242.08216666666667,15.872251702522696L242.1988333333333,19.530308647856426L242.43216666666666,22.293842461052776L242.6655,18.563135234322065L242.78216666666665,16.946616415861783L243.13216666666668,18.075208619048357L243.24883333333332,24.805184528118502L243.48216666666667,22.93148908906341L243.71550000000002,27.85027948554256L243.94883333333334,19.456797024821622L244.06550000000001,23.83274520708059L244.53216666666668,19.704994566875317L244.99883333333332,20.790729360364438L245.23216666666667,27.781388757576106L245.34883333333332,31.8481038081345L245.8155,32.06696775363079L246.04883333333333,34.33709913972734L246.16549999999998,21.481056633494624L246.28216666666668,23.90821367675203L246.63216666666668,30.227353514278757L246.98216666666667,22.654184783127775L247.2155,25.389697530643172L247.9155,14.37138374970917L248.03216666666665,25.942984439888953L248.14883333333333,28.344112502312278L248.38216666666665,29.709886996016266L248.49883333333335,18.645446662941772L248.84883333333335,14.72791168978161L249.19883333333334,7.875575291456936L249.31550000000001,0.5306788845909652L249.6655,1.1518534519703536L249.78216666666665,5.007809764053306L249.89883333333336,21.451030996981746L250.0155,14.28991448136771L250.3655,20.83837472947008L250.59883333333332,9.882140514561955L250.9488333333333,10.098337958639524L251.06550000000001,14.661879056921991L251.29883333333333,11.852751442331906L251.64883333333333,14.000663392864999L252.1155,21.41119172163206L252.23216666666667,14.469989263936188L252.34883333333332,15.17763374085683L252.46550000000002,9.582394682380281L252.58216666666667,13.861441661723067L252.81550000000001,18.957296591882503L252.93216666666666,19.21499685161377L253.04883333333333,12.775284884649867L253.1655,15.723632310794834L253.8655,13.562383350710345L254.09883333333332,23.65243321477186L254.2155,21.189359938018352L254.33216666666667,21.024107524700618L254.44883333333334,28.8850856238292L254.5655,23.101570249419584L254.6821666666667,25.467069316399844L254.79883333333333,25.196969800289118L255.03216666666668,16.44450252836681L255.2655,16.14463425627792L255.38216666666668,18.497416311213016L255.49883333333332,30.18652885777277L255.73216666666667,22.44358197225646L255.84883333333335,22.774205823978967L255.9655,22.67081011548111L256.1988333333333,14.430463059034743L256.54883333333333,17.040633334688454" style="fill: none;" fill="none"></path></g></g></g></g><g opacity="0.2"><g><g><g><path stroke="rgb(255, 112, 67)" stroke-width="2px" d="M30.682166666666667,192.44759559631348L30.798833333333334,171.87685298919678L31.03216666666667,177.28082752227783L31.382166666666667,180.81792640686035L31.6155,152.68211460113525L31.732166666666664,188.54127407073975L32.43216666666667,159.79890632629395L32.6655,185.19705772399902L33.13216666666666,181.66654205322266L33.365500000000004,171.07994651794434L33.832166666666666,167.01602172851562L33.94883333333333,168.34183597564697L34.53216666666667,173.35126781463623L34.99883333333333,156.5118007659912L35.115500000000004,158.7114381790161L35.465500000000006,173.21707153320312L35.8155,148.41759872436523L35.93216666666667,146.2250509262085L36.1655,153.16645908355713L36.74883333333334,157.81218242645264L36.982166666666664,154.32426071166992L37.5655,139.24358081817627L38.03216666666667,148.78136348724365L38.148833333333336,142.69402885437012L38.38216666666667,142.4999647140503L38.6155,165.6678695678711L38.732166666666664,146.3061876296997L38.84883333333334,171.21819400787354L39.3155,146.71749782562256L39.43216666666667,150.0094985961914L40.13216666666667,138.57378101348877L40.24883333333333,139.06245803833008L40.48216666666667,142.97181797027588L40.59883333333333,150.164457321167L40.94883333333333,146.62769603729248L41.7655,153.3570909500122L41.99883333333333,170.172025680542L42.115500000000004,150.87651348114014L42.34883333333333,130.2087106704712L42.582166666666666,147.78133392333984L42.8155,141.39004611968994L43.28216666666666,153.84768104553223L43.398833333333336,150.6729965209961L43.5155,147.48835277557373L43.865500000000004,162.38391494750977L43.982166666666664,116.5950183868408L44.09883333333333,130.41650390625L44.215500000000006,126.54371738433838L44.44883333333333,120.26535701751709L44.5655,134.43130779266357L44.9155,151.42753410339355L45.03216666666667,147.47580528259277L45.148833333333336,139.66642570495605L45.49883333333334,138.07019329071045L45.6155,127.74968338012694L45.732166666666664,111.02893924713135L45.84883333333334,157.03221225738525L46.19883333333333,137.1733570098877L46.665499999999994,136.28017807006836L46.78216666666667,112.51955890655519L47.015499999999996,136.87176704406738L47.13216666666667,142.34720039367676L47.24883333333334,154.84349060058594L47.3655,126.7371063232422L47.59883333333334,145.34053707122803L47.832166666666666,136.68889999389648L48.0655,126.26542186737059L48.29883333333333,140.7174892425537L48.53216666666667,115.55847167968751L48.64883333333333,118.89458560943602L48.88216666666667,114.93227863311768L48.99883333333333,156.35886764526367L49.1155,115.1236982345581L49.23216666666667,162.10449409484863L49.34883333333333,124.47428131103514L49.582166666666666,134.22160148620605L49.69883333333333,143.4123306274414L50.1655,133.33905696868896L50.865500000000004,150.06452751159668L51.09883333333333,143.53662395477295L51.2155,134.8546028137207L51.332166666666666,127.59326171875001L51.5655,122.20976829528809L51.68216666666666,127.18785953521729L51.9155,118.43904972076417L52.03216666666666,112.6971368789673L52.148833333333336,132.9332046508789L52.2655,108.52163505554198L52.84883333333333,113.91255569458008L52.965500000000006,111.83653640747069L53.082166666666666,110.61594104766844L53.43216666666667,134.6728048324585L53.548833333333334,108.39019584655763L53.6655,120.34266757965088L53.78216666666667,117.77723979949951L54.015499999999996,138.1256160736084L54.94883333333333,113.65997409820558L55.0655,113.99858760833742L55.415499999999994,110.76352882385255L55.53216666666667,130.34543895721436L55.648833333333336,125.1772222518921L55.88216666666667,121.09737396240234L56.1155,100.54379272460936L56.34883333333334,125.89996910095213L56.4655,128.88132095336914L56.69883333333334,121.10890865325926L56.93216666666667,138.22087574005127L57.04883333333333,119.76722717285156L57.28216666666667,107.25816440582274L57.8655,119.55988407135011L57.98216666666667,124.32393646240236L58.09883333333333,115.99341392517088L58.2155,106.12737083435057L58.9155,105.52514743804933L59.14883333333333,114.64897537231447L59.38216666666667,89.29347419738771L59.49883333333333,120.77046394348143L59.84883333333333,134.8409299850464L59.9655,117.21012687683104L60.3155,121.12702655792238L60.548833333333334,125.49394798278809L60.6655,108.86266803741456L61.0155,104.95471477508544L61.24883333333333,115.67393112182619L61.832166666666666,99.00619029998778L61.94883333333333,118.95310306549072L62.0655,122.50291824340822L62.18216666666667,96.98491859436035L62.765499999999996,100.03080844879149L62.88216666666666,112.47522068023682L63.1155,107.81987571716309L63.4655,115.73948192596436L63.582166666666666,122.90635108947755L63.69883333333333,111.90051174163817L63.8155,94.70425701141357L64.04883333333333,134.36249351501465L64.28216666666667,109.22992134094237L64.5155,130.1897487640381L64.63216666666666,100.1284875869751L64.74883333333334,94.29182147979738L65.21549999999999,84.96413898468018L65.44883333333334,105.40659332275389L65.68216666666667,109.17337322235106L65.79883333333333,126.62541675567627L65.9155,100.78534603118895L66.03216666666667,98.34646224975586L66.14883333333333,132.38646030426025L66.2655,98.0218029022217L66.38216666666666,127.72031211853026L67.08216666666667,108.50661182403563L67.43216666666667,110.02328300476073L67.54883333333333,100.72536563873291L68.3655,81.14638137817383L68.48216666666666,85.42378234863281L68.94883333333333,121.32694244384766L69.0655,106.16855812072752L69.18216666666666,88.02628993988037L69.29883333333333,105.8734951019287L69.41550000000001,80.1544542312622L69.53216666666667,111.60848712921141L69.64883333333333,99.93245410919191L69.7655,105.51850795745848L69.88216666666666,125.7908115386963L69.99883333333334,98.64141273498534L70.23216666666667,94.71477890014647L70.34883333333333,97.0434923171997L70.58216666666667,100.94593143463136L71.04883333333333,115.74274539947508L71.16550000000001,101.37282752990724L71.5155,92.62120437622072L71.63216666666666,100.05472183227539L71.74883333333334,93.12248516082762L71.8655,74.01996803283691L72.21549999999999,111.23971462249757L72.5655,96.59414577484131L72.68216666666667,118.73017406463622L73.03216666666667,95.27255153656007L73.14883333333334,115.87429714202882L73.6155,99.52716445922853L73.73216666666667,110.64368057250978L74.08216666666667,110.21425247192384L74.19883333333333,110.8215961456299L74.3155,105.53032398223876L74.43216666666667,89.11263275146483L74.54883333333333,118.91062164306639L74.66550000000001,103.7023286819458L74.78216666666665,98.92533493041991L74.89883333333333,108.56467914581297L75.13216666666666,109.27184009552003L75.24883333333334,107.76912307739256L75.36550000000001,78.762864112854L75.48216666666666,79.60073280334473L75.94883333333334,84.13859272003174L76.06549999999999,92.03664875030519L76.18216666666666,100.89242172241212L76.29883333333333,93.62882995605469L76.4155,102.7017364501953L76.64883333333334,84.14331912994385L76.88216666666666,101.97763919830324L77.1155,86.96633625030518L77.23216666666667,98.27888584136964L77.58216666666667,85.5497636795044L77.69883333333333,82.2513484954834L77.8155,104.90165519714355L78.04883333333333,107.32354640960695L78.28216666666667,101.26687717437744L78.74883333333332,102.62718296051027L78.8655,82.2381820678711L79.2155,119.39063358306885L79.33216666666667,95.25285816192627L79.44883333333333,66.2439546585083L79.5655,109.19497966766356L79.68216666666666,107.7750310897827L79.79883333333333,97.01614665985107L79.91550000000001,89.98538684844972L80.14883333333333,103.68134117126466L80.2655,96.7926549911499L80.38216666666666,102.24321842193604L80.49883333333334,95.43898868560792L80.73216666666667,113.90394687652588L81.08216666666667,85.40943431854248L81.54883333333333,95.21572208404541L81.89883333333334,93.20317173004149L82.0155,79.67922496795654L82.13216666666666,83.70168113708496L82.48216666666667,90.27904319763182L82.7155,48.40575218200684L82.83216666666667,122.4243698120117L82.94883333333333,102.22144317626953L83.0655,86.22035121917725L83.18216666666667,109.20488262176514L83.29883333333333,82.52367973327637L83.41550000000001,68.3227310180664L83.7655,98.94772911071777L83.88216666666666,85.06125545501709L83.99883333333334,102.28463077545165L84.11550000000001,89.30185794830321L84.4655,90.21653079986572L85.28216666666667,77.85634994506836L85.63216666666666,107.1400604248047L85.74883333333334,100.59055042266844L85.98216666666667,109.14433956146239L86.09883333333335,105.7589921951294L86.21549999999999,54.46647262573242L86.33216666666667,78.65500068664551L86.44883333333333,85.67011833190918L86.68216666666667,89.28762245178223L86.79883333333333,64.82288074493408L86.9155,78.79420471191406L87.14883333333333,67.56245422363281L87.2655,70.02558898925781L87.6155,84.68010425567627L87.84883333333333,79.69222259521484L88.08216666666667,104.08634948730469L88.19883333333333,92.27612018585204L88.3155,108.96614265441896L89.0155,62.726099014282234L89.13216666666666,82.87332153320312L89.24883333333334,97.72077560424803L89.71549999999999,93.40629482269289L90.0655,90.59059238433838L90.29883333333333,72.0991325378418L90.64883333333334,96.54468727111816L91.1155,100.30662822723387L91.58216666666667,67.60364151000977L91.69883333333333,72.02632331848145L91.8155,101.6824073791504L92.04883333333333,80.53009128570557L92.28216666666665,101.77310943603516L92.39883333333333,81.46400737762451L92.5155,76.48186492919922L92.74883333333334,76.30732536315918L92.98216666666666,99.28938102722168L93.09883333333333,74.25656986236572L93.2155,94.00761795043945L93.33216666666667,75.05465793609619L93.56549999999999,77.70741176605225L93.68216666666666,65.82825565338135L93.79883333333333,77.22357368469238L94.03216666666667,91.98662757873534L94.38216666666666,77.019606590271L94.6155,79.4699125289917L94.96549999999999,68.58335876464844L95.08216666666667,86.13848304748535L95.3155,89.22629165649415L95.54883333333333,84.93499279022217L95.78216666666667,93.03814125061037L96.0155,75.40463733673096L96.13216666666668,77.99037742614746L96.48216666666667,71.90771293640137L96.7155,84.3787956237793L96.83216666666667,87.61014080047607L97.29883333333333,76.37152576446533L97.53216666666667,79.72913360595703L97.7655,68.18285179138184L98.1155,87.34737491607666L98.23216666666667,75.65975093841553L98.34883333333333,82.63970184326172L98.46549999999999,76.00241565704346L98.58216666666667,84.78138446807861L98.69883333333334,81.240403175354L99.1655,89.0875940322876L99.39883333333334,93.37112808227538L99.5155,75.74792098999023L99.63216666666666,91.65499114990236L99.74883333333332,81.42810916900635L99.8655,79.30116844177246L100.2155,77.79710102081299L100.33216666666667,80.60526371002197L100.44883333333333,58.68816947937012L101.2655,81.8250150680542L101.61550000000001,62.40875434875489L102.19883333333334,94.15064811706542L102.31549999999999,80.33360767364502L102.43216666666666,70.9870195388794L102.78216666666667,80.81260681152344L103.01549999999999,81.16005420684814L103.13216666666666,55.27547645568847L103.24883333333334,68.25841808319092L103.59883333333335,72.73050212860107L104.18216666666667,71.51362037658691L104.4155,65.79674625396729L104.53216666666667,73.55351638793945L104.64883333333333,84.54191303253174L104.7655,60.598370552062995L104.99883333333332,68.22381401062012L105.34883333333333,63.79775619506836L105.4655,55.18454933166504L105.69883333333333,63.279032707214355L106.16550000000001,89.1957950592041L106.28216666666667,72.96682262420654L106.5155,73.43445587158203L106.8655,92.93477916717528L107.09883333333333,69.30284214019775L107.33216666666667,62.57040882110596L107.44883333333334,70.21942806243896L107.5655,67.10326099395752L107.79883333333333,79.72890853881836L108.03216666666667,59.371642112731934L108.14883333333334,73.81943321228027L108.2655,79.52527904510498L108.38216666666666,94.16904735565184L108.49883333333332,72.02902412414551L108.73216666666667,81.1625862121582L108.84883333333333,49.25976943969726L108.9655,73.12994003295898L109.54883333333333,82.17865180969238L109.66550000000001,65.85835838317871L109.78216666666665,72.95798873901367L110.0155,61.101395606994636L110.13216666666666,74.2887544631958L110.24883333333334,78.3667459487915L110.36550000000001,67.50033569335938L111.18216666666666,82.66248989105225L111.53216666666667,89.74388980865479L111.64883333333334,74.3360185623169L111.88216666666666,46.722643852233894L112.46549999999999,76.05508136749268L112.58216666666667,65.76669979095459L112.69883333333333,83.00205993652344L113.04883333333333,80.0894660949707L113.1655,89.89783573150635L113.5155,72.10121440887451L113.63216666666668,59.3562250137329L113.8655,94.47316932678223L113.98216666666667,83.23641109466553L114.2155,56.369584083557136L114.33216666666667,56.02939510345459L114.44883333333333,65.26918888092041L114.5655,59.38267040252686L114.68216666666666,67.71308040618896L115.38216666666666,84.02251434326172L115.49883333333334,52.20786762237548L115.73216666666667,45.181215286254876L115.96549999999999,62.05748081207276L116.19883333333334,71.46348667144775L116.3155,84.18236827850342L116.6655,54.18542003631592L116.78216666666667,68.15635013580322L117.24883333333332,63.92289352416993L117.3655,80.48265838623047L117.48216666666667,77.42585277557373L117.59883333333333,58.7166404724121L117.94883333333333,76.20829582214355L118.29883333333333,74.0654878616333L118.88216666666666,57.39048862457276L118.99883333333334,76.24621963500977L119.23216666666666,64.38090515136719L119.34883333333333,48.38071346282959L119.4655,94.29840469360353L119.69883333333334,88.14743232727051L119.81549999999999,80.13622379302979L119.93216666666666,63.23458194732665L120.04883333333333,85.45427894592285L120.51549999999999,55.61982917785644L120.63216666666666,93.14527320861815L120.8655,69.62935829162598L120.98216666666667,56.7892780303955L121.09883333333335,77.76446628570557L121.33216666666667,61.36438655853272L121.44883333333333,82.55935287475586L121.79883333333333,58.24394321441651L122.03216666666667,63.265078544616706L122.6155,48.543662071228034L122.73216666666667,67.15395736694336L123.08216666666667,59.999354362487786L123.43216666666666,77.1766471862793L123.78216666666667,71.17455673217773L124.0155,41.571701049804695L124.3655,62.56388187408448L124.48216666666667,58.43496894836426L124.94883333333334,82.12261009216309L125.0655,53.959733963012695L126.23216666666667,84.45830059051514L126.4655,70.5854434967041L126.58216666666667,81.02355098724365L126.69883333333333,68.87476444244385L126.8155,77.80841064453125L127.04883333333333,36.76589870452881L127.28216666666665,48.46443843841553L127.5155,64.00701236724854L127.86550000000001,56.25823211669921L128.09883333333332,59.54393100738525L128.2155,52.69676971435547L128.5655,64.04471111297607L128.68216666666666,38.017440795898445L128.9155,58.65553474426269L129.14883333333333,50.850093841552734L129.2655,53.587079048156745L129.38216666666665,61.86020946502685L129.6155,54.33244514465332L129.73216666666667,60.70415210723877L130.08216666666667,104.67073631286621L130.54883333333333,45.70961666107178L130.6655,40.83983898162841L130.89883333333333,55.11269664764405L131.13216666666668,69.97618675231934L131.59883333333335,49.65808200836182L131.7155,76.28419971466064L131.83216666666667,65.21050262451172L131.94883333333334,68.5026159286499L132.0655,79.45595836639404L132.18216666666666,40.43522453308105L132.29883333333333,95.5693588256836L132.53216666666668,63.64904308319092L132.99883333333332,73.10664558410645L133.23216666666667,70.60434913635254L133.34883333333332,60.67579364776611L133.69883333333334,66.74461650848389L134.1655,56.32980346679687L134.5155,48.17134475708007L134.74883333333332,50.74262428283692L134.8655,73.93843746185303L134.98216666666667,42.09858322143554L135.44883333333334,66.48168182373047L135.68216666666666,59.101223945617676L135.79883333333333,66.40245819091797L135.9155,44.2974328994751L136.03216666666665,53.44326114654542L136.2655,44.38858509063721L136.38216666666668,59.34148311614991L136.73216666666667,56.12442970275879L137.3155,39.67123413085937L137.54883333333333,49.05242633819581L137.6655,31.554244041442878L137.89883333333333,63.44293785095215L138.0155,53.48022842407227L138.48216666666667,47.736177444458L138.7155,50.83636474609374L138.83216666666667,61.03308773040771L138.94883333333334,49.49417686462403L139.18216666666666,49.90301132202149L139.4155,58.6820363998413L139.53216666666665,41.781463623046875L139.64883333333333,40.45491790771485L139.88216666666668,47.964057922363274L139.99883333333332,72.63816833496094L140.23216666666667,61.649434089660645L140.34883333333332,49.182515144348145L140.4655,66.48826503753662L140.58216666666667,39.1194257736206L140.69883333333334,49.38569450378417L140.8155,41.96011066436768L141.39883333333333,57.90184116363525L141.63216666666668,53.820755004882805L141.8655,62.242148399353034L141.98216666666667,58.8009843826294L142.09883333333335,57.155068397521966L142.68216666666666,78.8619499206543L143.14883333333333,45.22285270690919L143.38216666666665,60.69610595703126L143.49883333333335,44.856499671936035L144.19883333333334,56.34218215942383L144.31550000000001,41.78112602233887L144.43216666666666,50.51136779785157L144.54883333333333,48.238752365112305L144.6655,46.122220993042L145.13216666666665,35.90518569946289L145.3655,30.656563758850105L145.48216666666667,62.727561950683594L146.18216666666666,57.17318630218506L146.29883333333333,59.0881700515747L146.64883333333333,48.9082145690918L146.88216666666668,49.292516708374016L146.99883333333332,56.102766990661614L147.1155,39.62852764129638L147.34883333333332,47.58481979370117L147.69883333333334,38.59091186523437L147.81550000000001,53.29460430145263L147.93216666666666,28.91415023803711L148.1655,70.92265033721924L148.28216666666668,61.607515335083L148.39883333333333,55.15101432800294L148.51549999999997,37.869853019714355L148.63216666666668,40.95304775238038L148.74883333333332,56.34544563293458L149.09883333333332,49.4172601699829L149.2155,59.4135046005249L149.44883333333334,43.753108024597175L149.5655,64.09293174743652L149.6821666666667,85.15814685821533L150.03216666666668,55.40241432189941L150.14883333333333,59.4307222366333L150.2655,43.68738842010498L150.73216666666667,48.70115280151368L150.84883333333335,43.05911350250244L150.9655,46.12126445770263L151.54883333333333,61.603914260864265L151.78216666666665,55.63091373443604L152.0155,60.186385154724114L152.13216666666665,25.622655868530266L152.24883333333335,62.433117866516106L152.59883333333335,38.756786346435554L152.7155,57.06453514099122L152.83216666666667,43.21907997131347L152.94883333333334,53.594618797302246L153.06550000000001,52.15368270874023L153.18216666666666,63.951870918273926L153.29883333333333,62.15831089019775L153.4155,46.947936058044434L153.64883333333336,42.36540031433106L153.99883333333335,57.46380424499511L154.23216666666667,42.43055725097657L154.34883333333332,69.28506183624268L154.6988333333333,49.36183738708497L154.81550000000001,54.81617069244384L155.04883333333333,44.17882251739503L155.1655,50.75489044189453L155.28216666666665,65.8653917312622L155.39883333333333,60.49303913116456L155.5155,67.7595567703247L155.74883333333332,58.45415592193603L155.8655,54.24056148529052L155.98216666666667,26.555953025817864L156.33216666666667,53.035270690917976L156.68216666666666,65.14844036102295L157.03216666666668,18.512278556823723L157.14883333333333,37.90777683258056L157.38216666666668,70.51240921020508L157.49883333333332,45.13597679138183L157.6155,50.28179931640626L157.73216666666667,61.13909435272216L157.84883333333332,50.35905361175537L157.9655,33.58733177185058L158.19883333333334,37.31916999816894L158.78216666666668,41.94902610778808L159.0155,71.25580596923828L159.24883333333332,44.841926574707024L159.48216666666667,38.44214248657227L159.59883333333335,49.006400108337395L160.29883333333333,40.4701099395752L160.4155,31.221988677978516L160.64883333333333,73.56527614593506L160.7655,32.243906021118164L160.88216666666665,40.39083003997802L161.34883333333335,43.09360504150391L161.58216666666667,18.23291397094726L161.81550000000001,36.24121093749999L162.04883333333333,43.195110321044915L162.1655,49.749628067016594L162.28216666666665,74.76944160461426L162.63216666666665,62.985770225524895L162.74883333333335,63.38132572174072L162.8655,43.728350639343255L163.09883333333332,85.03441619873047L163.2155,25.643474578857422L163.56550000000001,40.466002464294434L163.68216666666666,22.686486244201667L164.03216666666665,52.438055038452156L164.14883333333333,68.04809284210205L164.2655,13.598612785339363L164.49883333333332,64.05956554412842L164.96550000000002,40.01778125762939L165.08216666666667,15.070833206176758L165.19883333333334,49.567773818969734L165.43216666666666,41.261558532714844L165.54883333333333,29.419876098632812L166.13216666666668,53.01895332336425L166.3655,42.140389442443855L166.7155,32.05760669708253L166.83216666666667,38.40061759948731L167.1821666666667,47.40566635131835L167.29883333333333,40.89897537231445L167.88216666666668,45.24535942077636L168.1155,25.051041603088386L168.23216666666667,31.39405250549317L168.34883333333335,24.057876586914055L168.4655,42.11619472503662L168.5821666666667,41.48409366607667L168.69883333333334,59.69444465637208L168.8155,33.941362380981445L169.1655,36.04962253570556L169.28216666666665,38.31565475463867L169.39883333333333,59.479449272155755L169.5155,40.81834506988526L169.74883333333335,52.71781349182128L169.98216666666664,41.921680450439446L170.09883333333335,53.62770366668701L170.44883333333334,33.02196311950684L170.56550000000001,60.80976486206054L170.9155,48.50984573364258L171.2655,33.32197761535644L171.73216666666667,12.355060577392585L172.31550000000001,52.630937576293945L172.43216666666666,72.21616744995117L172.54883333333333,28.485341072082512L173.0155,34.73089790344239L173.3655,60.187848091125495L173.94883333333334,31.565891265869148L174.29883333333333,48.78358364105224L174.64883333333333,39.30173015594482L174.88216666666668,27.393877983093255L174.99883333333332,27.83832931518554L175.34883333333332,45.121966361999505L175.8155,50.44305992126464L176.28216666666668,19.946293830871582L176.74883333333332,43.92078304290771L176.8655,52.65215015411376L177.44883333333334,0.03944301605223954L177.68216666666666,57.73107147216797L177.79883333333333,47.40341567993165L178.03216666666665,41.96337413787841L178.14883333333333,44.74672317504882L178.38216666666665,27.01885986328125L179.19883333333334,41.66375350952148L180.24883333333335,40.19794750213623L180.3655,49.392165184020996L180.59883333333332,62.41325569152832L180.7155,28.236191749572747L181.06550000000001,61.376090049743645L181.18216666666666,64.51617050170898L181.4155,38.764832496643066L181.88216666666668,67.03135204315186L182.1155,34.45012664794922L182.58216666666667,37.06838893890381L182.69883333333334,60.11093139648437L182.81550000000001,33.864276885986335L182.93216666666666,56.257556915283196L183.04883333333333,27.27144145965577L183.51549999999997,22.17986011505127L183.63216666666668,60.44211769104003L183.8655,32.511679649353034L183.98216666666667,52.462699890136726L184.44883333333334,27.674424171447747L185.03216666666668,26.228592872619636L185.14883333333333,44.60104846954345L185.6155,43.817927360534675L185.9655,30.305065155029297L186.3155,50.82235431671142L186.43216666666666,38.17082405090332L186.6655,61.26023674011231L186.78216666666665,44.634358406066895L187.13216666666665,43.3609848022461L187.3655,53.601877212524414L188.29883333333333,42.86572456359864L188.64883333333336,50.987497329711914L188.7655,28.206764221191413L188.99883333333335,41.15662097930909L189.23216666666667,15.21932125091552L189.34883333333332,50.12841606140136L190.39883333333333,32.3287000656128L190.5155,37.07722282409669L190.98216666666667,41.49771022796631L191.21550000000002,26.390247344970703L191.33216666666667,39.93332481384278L191.44883333333334,52.52774429321288L191.56550000000001,42.23103523254395L191.9155,31.591267585754387L192.14883333333333,49.071219444274895L192.26549999999997,36.34620475769042L192.38216666666668,31.215067863464355L192.49883333333332,39.435476303100586L192.6155,38.865324974060066L192.73216666666667,30.37562370300293L192.84883333333332,38.37051486968994L193.08216666666667,24.761155128479004L193.19883333333334,36.70169830322265L193.3155,36.88062667846679L193.4321666666667,48.19610214233399L193.54883333333333,39.28462505340577L193.66549999999998,48.146249771118164L193.78216666666668,44.69315719604493L193.89883333333333,53.71761798858642L194.13216666666668,10.244155883789062L194.94883333333334,30.06306171417237L195.29883333333333,34.20497226715087L195.4155,12.347633361816413L195.64883333333333,60.70977878570557L195.7655,52.119416236877434L196.23216666666664,21.719766616821296L196.34883333333335,19.542692184448242L196.4655,16.501528739929192L196.93216666666666,27.041141510009766L197.04883333333333,36.14859580993652L197.1655,19.98185443878173L197.28216666666665,34.66506576538087L197.39883333333336,35.391413688659675L197.63216666666665,28.952074050903313L197.74883333333335,40.33158111572265L198.2155,53.11612606048585L198.33216666666667,33.07361602783204L198.4488333333333,13.926366806030273L198.68216666666666,39.4435224533081L199.03216666666665,15.190400123596199L199.49883333333332,30.601984977722168L199.6155,15.490639686584473L199.73216666666667,34.607898712158196L199.96550000000002,29.576747894287116L200.19883333333334,34.98674297332764L200.31550000000001,39.08217716217041L201.13216666666668,41.11014461517334L201.48216666666667,45.09957218170166L201.7155,27.841986656188972L202.41549999999998,30.04786968231202L202.7655,67.41964912414551L202.88216666666668,54.37819004058838L203.23216666666667,31.906811714172363L203.69883333333334,22.439700126647956L203.93216666666666,38.41580963134766L204.04883333333333,31.434001922607422L204.39883333333333,50.5406265258789L204.5155,12.173881530761719L204.63216666666665,21.719991683959954L204.8655,-5.013876914978027L205.09883333333335,31.761474609375L205.68216666666666,18.150595664978027L205.9155,36.51950645446778L206.03216666666665,7.531759262084967L206.14883333333336,14.11351013183593L206.38216666666665,37.3694725036621L206.6155,45.9365406036377L206.73216666666667,19.813054084777825L206.84883333333332,39.539626121520996L206.9655,31.706895828247063L207.31550000000001,20.474188804626472L207.54883333333333,46.90224742889405L207.6655,24.354683876037598L207.78216666666665,43.94531536102295L207.89883333333333,59.37051677703858L208.0155,16.13078689575196L208.3655,20.09787654876709L208.94883333333334,-7.945770263671875L209.53216666666668,1.0543270111083984L209.64883333333333,44.70508575439453L209.76549999999997,32.60210037231445L210.23216666666667,42.03449535369873L210.34883333333332,33.70875549316406L210.4655,61.60346412658691L211.28216666666668,38.96536731719971L211.39883333333333,38.56260967254639L211.63216666666668,28.548472404479973L211.74883333333332,22.96084308624267L211.98216666666667,11.70742988586425L212.44883333333334,27.791909217834466L212.68216666666666,18.268418312072754L212.9155,21.31110095977784L213.14883333333333,32.73449611663819L213.2655,17.92147731781005L213.73216666666664,15.912753105163567L214.19883333333334,26.93800449371338L214.31550000000001,16.8832426071167L214.43216666666666,20.92111587524414L214.54883333333333,36.371468544006355L214.78216666666665,22.97288417816162L214.89883333333336,57.4699935913086L215.48216666666667,28.94768524169921L215.59883333333332,24.58560276031494L215.83216666666667,28.248401641845703L216.06550000000001,28.074818611145012L216.18216666666666,5.404424667358392L216.29883333333333,23.195644378662102L216.4155,45.02940750122071L216.64883333333333,32.35019397735595L216.88216666666668,23.968918800353997L217.34883333333332,31.767438888549812L217.58216666666667,18.816963195800774L217.81550000000001,37.11486530303956L218.1655,12.577539443969734L218.28216666666668,25.373337745666497L218.74883333333332,18.670050621032722L219.09883333333332,20.407625198364258L219.33216666666667,22.81314277648925L219.44883333333334,18.695933341979973L219.5655,45.85005855560303L219.6821666666667,28.427555084228523L220.03216666666668,34.59636402130128L220.14883333333333,15.047707557678223L220.2655,54.408011436462395L220.38216666666668,11.137784957885742L220.49883333333332,31.434789657592766L220.6155,13.14909744262696L220.9655,38.62270259857178L221.0821666666667,19.83083438873291L221.19883333333334,47.492598533630364L221.43216666666666,41.88808917999267L221.54883333333333,17.621800422668464L221.6655,20.147447586059563L221.78216666666665,28.24800777435302L222.0155,41.42017459869384L222.24883333333335,21.34109115600586L222.59883333333335,10.45521259307862L222.83216666666667,-1.0751457214355338L222.94883333333334,20.103053092956536L223.06550000000001,5.9459362030029235L223.18216666666666,24.1203327178955L223.88216666666665,32.09046649932861L223.99883333333335,62.58425045013428L224.34883333333332,18.130283355712884L224.4655,23.814579010009773L224.58216666666667,21.880689620971673L224.6988333333333,16.24731540679931L225.28216666666665,28.094624519348145L226.21550000000002,14.18148040771485L226.33216666666667,30.753342628478997L226.44883333333334,6.529366493225098L226.79883333333333,5.733697891235358L227.03216666666668,16.112612724304192L227.38216666666668,33.170563697814934L227.49883333333332,27.661426544189446L227.6155,6.352238655090326L227.73216666666667,27.148836135864258L227.9655,20.415390014648438L228.08216666666667,28.177505493164062L228.4321666666667,2.009737014770508L229.0155,17.325612068176262L229.13216666666668,16.103047370910645L229.3655,25.96925926208496L229.48216666666667,11.127882003784187L229.7155,28.96816635131836L230.53216666666665,26.01804256439209L230.64883333333333,-4.948776245117174L230.7655,45.78574562072754L231.1155,8.53538990020752L231.23216666666664,29.80147743225097L231.58216666666667,29.93595504760743L231.69883333333334,45.23056125640869L231.81550000000001,26.712937355041497L231.93216666666666,30.584317207336433L232.1655,29.511084556579597L232.28216666666665,29.383021354675286L232.5155,32.719866752624505L232.74883333333335,35.85662746429444L232.98216666666667,9.675580024719231L233.09883333333332,26.84831523895263L233.4488333333333,12.580015182495117L233.68216666666666,9.338879585266113L233.79883333333333,-2.5167570114135875L233.9155,24.565515518188477L234.38216666666668,33.138885498046875L234.6155,35.3362159729004L235.08216666666667,46.281174659729004L235.31550000000001,15.986743927001953L235.54883333333333,41.138503074645996L235.6655,26.348609924316413L236.13216666666668,42.676555633544915L236.48216666666667,32.15196609497071L236.59883333333332,42.15991401672363L236.83216666666667,15.354305267333991L236.94883333333334,49.787270545959466L237.1821666666667,27.41250228881836L237.29883333333333,10.047897338867195L237.41549999999998,37.56325531005859L237.64883333333333,13.630741119384759L237.7655,19.254831314086907L237.88216666666668,20.76002407073974L238.5821666666667,14.912779808044426L238.69883333333334,6.131166458129883L238.8155,6.829437255859369L238.93216666666666,28.42220973968505L239.04883333333333,3.191452026367181L239.39883333333333,34.928225517272956L239.63216666666665,48.35460567474366L239.98216666666664,21.116024017333977L240.44883333333334,30.455297470092773L240.9155,5.608673095703119L241.03216666666665,46.95018672943116L241.14883333333336,14.41476249694825L241.2655,13.93531322479248L241.73216666666667,14.294576644897468L241.84883333333332,24.891919136047356L241.9655,28.887479782104492L242.08216666666667,3.8160696029663086L242.1988333333333,25.017394065856934L242.43216666666666,26.43914318084716L242.6655,12.967074394226074L242.78216666666665,14.52183818817138L243.13216666666668,19.768096923828132L243.24883333333332,34.90014839172363L243.48216666666667,20.12094593048095L243.71550000000002,35.22846508026123L243.94883333333334,6.866573333740228L244.06550000000001,30.396667480468743L244.53216666666668,13.51336860656739L244.99883333333332,22.419331550598137L245.23216666666667,38.267377853393555L245.34883333333332,37.94817638397217L245.8155,32.39526367187499L246.04883333333333,37.74229621887208L246.16549999999998,2.1969928741455145L246.28216666666668,27.54894924163819L246.63216666666668,39.70606327056885L246.98216666666667,11.294431686401367L247.2155,29.492966651916504L247.9155,-2.1560869216918945L248.03216666666665,43.3003854751587L248.14883333333333,31.945804595947266L248.38216666666665,31.75854873657226L248.49883333333335,2.048786163330085L248.84883333333335,8.851609230041511L249.19883333333334,-2.40292930603026L249.31550000000001,-10.48666572570802L249.6655,2.083615303039544L249.78216666666665,10.791744232177734L249.89883333333336,46.115862846374505L250.0155,3.548239707946784L250.3655,30.661065101623535L250.59883333333332,-6.55221080780028L250.9488333333333,10.422634124755866L251.06550000000001,21.507190704345703L251.29883333333333,7.639060020446777L251.64883333333333,17.22253131866455L252.1155,32.526984214782715L252.23216666666667,4.058185577392584L252.34883333333332,16.239100456237793L252.46550000000002,1.1895360946655273L252.58216666666667,20.280012130737305L252.81550000000001,26.601078987121582L252.93216666666666,19.60154724121093L253.04883333333333,3.1157169342041016L253.1655,20.146153450012207L253.8655,10.320509910583503L254.09883333333332,38.787508010864265L254.2155,17.494750022888176L254.33216666666667,20.776228904724114L254.44883333333334,40.67655277252198L254.5655,14.426297187805169L254.6821666666667,29.015317916870124L254.79883333333333,24.79182052612304L255.03216666666668,3.315801620483405L255.2655,15.694831848144524L255.38216666666668,22.026589393615723L255.49883333333332,47.720197677612305L255.73216666666667,10.829161643981926L255.84883333333335,23.2701416015625L255.9655,22.515716552734368L256.1988333333333,2.0699424743652277L256.54883333333333,20.955888748168945" style="fill: none;" fill="none"></path></g></g></g></g></g></g><g transform="translate(50, 177)" clip-path="url(#clip_1)"><clipPath id="clip_1"><rect width="280" height="23"></rect></clipPath><g><g><line x1="0" y1="0" x2="0" y2="5" style="visibility: inherit;" fill="rgb(0, 0, 0)" stroke="rgb(204, 204, 204)" stroke-width="1px"></line><line x1="23.333333333333332" y1="0" x2="23.333333333333332" y2="5" style="visibility: inherit;" fill="rgb(0, 0, 0)" stroke="rgb(204, 204, 204)" stroke-width="1px"></line><line x1="46.666666666666664" y1="0" x2="46.666666666666664" y2="5" style="visibility: inherit;" fill="rgb(0, 0, 0)" stroke="rgb(204, 204, 204)" stroke-width="1px"></line><line x1="70" y1="0" x2="70" y2="5" style="visibility: inherit;" fill="rgb(0, 0, 0)" stroke="rgb(204, 204, 204)" stroke-width="1px"></line><line x1="93.33333333333333" y1="0" x2="93.33333333333333" y2="5" style="visibility: inherit;" fill="rgb(0, 0, 0)" stroke="rgb(204, 204, 204)" stroke-width="1px"></line><line x1="116.66666666666667" y1="0" x2="116.66666666666667" y2="5" style="visibility: inherit;" fill="rgb(0, 0, 0)" stroke="rgb(204, 204, 204)" stroke-width="1px"></line><line x1="140" y1="0" x2="140" y2="5" style="visibility: inherit;" fill="rgb(0, 0, 0)" stroke="rgb(204, 204, 204)" stroke-width="1px"></line><line x1="163.33333333333334" y1="0" x2="163.33333333333334" y2="5" style="visibility: inherit;" fill="rgb(0, 0, 0)" stroke="rgb(204, 204, 204)" stroke-width="1px"></line><line x1="186.66666666666666" y1="0" x2="186.66666666666666" y2="5" style="visibility: inherit;" fill="rgb(0, 0, 0)" stroke="rgb(204, 204, 204)" stroke-width="1px"></line><line x1="210" y1="0" x2="210" y2="5" style="visibility: inherit;" fill="rgb(0, 0, 0)" stroke="rgb(204, 204, 204)" stroke-width="1px"></line><line x1="233.33333333333334" y1="0" x2="233.33333333333334" y2="5" style="visibility: inherit;" fill="rgb(0, 0, 0)" stroke="rgb(204, 204, 204)" stroke-width="1px"></line><line x1="256.66666666666663" y1="0" x2="256.66666666666663" y2="5" style="visibility: inherit;" fill="rgb(0, 0, 0)" stroke="rgb(204, 204, 204)" stroke-width="1px"></line><line x1="280" y1="0" x2="280" y2="5" style="visibility: inherit;" fill="rgb(0, 0, 0)" stroke="rgb(204, 204, 204)" stroke-width="1px"></line></g><g transform="translate(0, 8)"><text x="0" y="0" dx="0em" dy="0.95em" style="text-anchor: middle; visibility: hidden; font-family: Roboto, sans-serif; font-size: 12px; font-weight: 200;" fill="rgb(33, 33, 33)" stroke="none" stroke-width="1px">-20k</text><text x="23.333333333333332" y="0" dx="0em" dy="0.95em" style="text-anchor: middle; visibility: inherit; font-family: Roboto, sans-serif; font-size: 12px; font-weight: 200;" fill="rgb(33, 33, 33)" stroke="none" stroke-width="1px">0</text><text x="46.666666666666664" y="0" dx="0em" dy="0.95em" style="text-anchor: middle; visibility: hidden; font-family: Roboto, sans-serif; font-size: 12px; font-weight: 200;" fill="rgb(33, 33, 33)" stroke="none" stroke-width="1px">20k</text><text x="70" y="0" dx="0em" dy="0.95em" style="text-anchor: middle; visibility: inherit; font-family: Roboto, sans-serif; font-size: 12px; font-weight: 200;" fill="rgb(33, 33, 33)" stroke="none" stroke-width="1px">40k</text><text x="93.33333333333333" y="0" dx="0em" dy="0.95em" style="text-anchor: middle; visibility: hidden; font-family: Roboto, sans-serif; font-size: 12px; font-weight: 200;" fill="rgb(33, 33, 33)" stroke="none" stroke-width="1px">60k</text><text x="116.66666666666667" y="0" dx="0em" dy="0.95em" style="text-anchor: middle; visibility: inherit; font-family: Roboto, sans-serif; font-size: 12px; font-weight: 200;" fill="rgb(33, 33, 33)" stroke="none" stroke-width="1px">80k</text><text x="140" y="0" dx="0em" dy="0.95em" style="text-anchor: middle; visibility: hidden; font-family: Roboto, sans-serif; font-size: 12px; font-weight: 200;" fill="rgb(33, 33, 33)" stroke="none" stroke-width="1px">100k</text><text x="163.33333333333334" y="0" dx="0em" dy="0.95em" style="text-anchor: middle; visibility: inherit; font-family: Roboto, sans-serif; font-size: 12px; font-weight: 200;" fill="rgb(33, 33, 33)" stroke="none" stroke-width="1px">120k</text><text x="186.66666666666666" y="0" dx="0em" dy="0.95em" style="text-anchor: middle; visibility: hidden; font-family: Roboto, sans-serif; font-size: 12px; font-weight: 200;" fill="rgb(33, 33, 33)" stroke="none" stroke-width="1px">140k</text><text x="210" y="0" dx="0em" dy="0.95em" style="text-anchor: middle; visibility: inherit; font-family: Roboto, sans-serif; font-size: 12px; font-weight: 200;" fill="rgb(33, 33, 33)" stroke="none" stroke-width="1px">160k</text><text x="233.33333333333334" y="0" dx="0em" dy="0.95em" style="text-anchor: middle; visibility: hidden; font-family: Roboto, sans-serif; font-size: 12px; font-weight: 200;" fill="rgb(33, 33, 33)" stroke="none" stroke-width="1px">180k</text><text x="256.66666666666663" y="0" dx="0em" dy="0.95em" style="text-anchor: middle; visibility: inherit; font-family: Roboto, sans-serif; font-size: 12px; font-weight: 200;" fill="rgb(33, 33, 33)" stroke="none" stroke-width="1px">200k</text><text x="280" y="0" dx="0em" dy="0.95em" style="text-anchor: middle; visibility: hidden; font-family: Roboto, sans-serif; font-size: 12px; font-weight: 200;" fill="rgb(33, 33, 33)" stroke="none" stroke-width="1px">220k</text></g><line x1="0" y1="0" x2="280" y2="0" fill="rgb(0, 0, 0)" stroke="rgb(204, 204, 204)" stroke-width="1px"></line></g></g></g></g></svg>