<svg viewBox="0 0 330 200" xmlns="http://www.w3.org/2000/svg"><g><g><g><g><g><line x1="70" y1="177" x2="65" y2="177" style="visibility: inherit;" fill="rgb(0, 0, 0)" stroke="rgb(204, 204, 204)" stroke-width="1px"></line><line x1="70" y1="163.3846153846154" x2="65" y2="163.3846153846154" style="visibility: inherit;" fill="rgb(0, 0, 0)" stroke="rgb(204, 204, 204)" stroke-width="1px"></line><line x1="70" y1="149.76923076923077" x2="65" y2="149.76923076923077" style="visibility: inherit;" fill="rgb(0, 0, 0)" stroke="rgb(204, 204, 204)" stroke-width="1px"></line><line x1="70" y1="136.15384615384616" x2="65" y2="136.15384615384616" style="visibility: inherit;" fill="rgb(0, 0, 0)" stroke="rgb(204, 204, 204)" stroke-width="1px"></line><line x1="70" y1="122.53846153846153" x2="65" y2="122.53846153846153" style="visibility: inherit;" fill="rgb(0, 0, 0)" stroke="rgb(204, 204, 204)" stroke-width="1px"></line><line x1="70" y1="108.92307692307693" x2="65" y2="108.92307692307693" style="visibility: inherit;" fill="rgb(0, 0, 0)" stroke="rgb(204, 204, 204)" stroke-width="1px"></line><line x1="70" y1="95.3076923076923" x2="65" y2="95.3076923076923" style="visibility: inherit;" fill="rgb(0, 0, 0)" stroke="rgb(204, 204, 204)" stroke-width="1px"></line><line x1="70" y1="81.6923076923077" x2="65" y2="81.6923076923077" style="visibility: inherit;" fill="rgb(0, 0, 0)" stroke="rgb(204, 204, 204)" stroke-width="1px"></line><line x1="70" y1="68.07692307692307" x2="65" y2="68.07692307692307" style="visibility: inherit;" fill="rgb(0, 0, 0)" stroke="rgb(204, 204, 204)" stroke-width="1px"></line><line x1="70" y1="54.46153846153847" x2="65" y2="54.46153846153847" style="visibility: inherit;" fill="rgb(0, 0, 0)" stroke="rgb(204, 204, 204)" stroke-width="1px"></line><line x1="70" y1="40.84615384615384" x2="65" y2="40.84615384615384" style="visibility: inherit;" fill="rgb(0, 0, 0)" stroke="rgb(204, 204, 204)" stroke-width="1px"></line><line x1="70" y1="27.230769230769212" x2="65" y2="27.230769230769212" style="visibility: inherit;" fill="rgb(0, 0, 0)" stroke="rgb(204, 204, 204)" stroke-width="1px"></line><line x1="70" y1="13.615384615384626" x2="65" y2="13.615384615384626" style="visibility: inherit;" fill="rgb(0, 0, 0)" stroke="rgb(204, 204, 204)" stroke-width="1px"></line><line x1="70" y1="0" x2="65" y2="0" style="visibility: inherit;" fill="rgb(0, 0, 0)" stroke="rgb(204, 204, 204)" stroke-width="1px"></line></g><g transform="translate(60, 0)"><text x="0" y="177" dx="0em" dy="0.3em" style="text-anchor: end; visibility: hidden; font-family: Roboto, sans-serif; font-size: 12px; font-weight: 200;" fill="rgb(33, 33, 33)" stroke="none" stroke-width="1px">3e-3</text><text x="0" y="163.3846153846154" dx="0em" dy="0.3em" style="text-anchor: end; visibility: inherit; font-family: Roboto, sans-serif; font-size: 12px; font-weight: 200;" fill="rgb(33, 33, 33)" stroke="none" stroke-width="1px">3.5e-3</text><text x="0" y="149.76923076923077" dx="0em" dy="0.3em" style="text-anchor: end; visibility: hidden; font-family: Roboto, sans-serif; font-size: 12px; font-weight: 200;" fill="rgb(33, 33, 33)" stroke="none" stroke-width="1px">4e-3</text><text x="0" y="136.15384615384616" dx="0em" dy="0.3em" style="text-anchor: end; visibility: inherit; font-family: Roboto, sans-serif; font-size: 12px; font-weight: 200;" fill="rgb(33, 33, 33)" stroke="none" stroke-width="1px">4.5e-3</text><text x="0" y="122.53846153846153" dx="0em" dy="0.3em" style="text-anchor: end; visibility: hidden; font-family: Roboto, sans-serif; font-size: 12px; font-weight: 200;" fill="rgb(33, 33, 33)" stroke="none" stroke-width="1px">5e-3</text><text x="0" y="108.92307692307693" dx="0em" dy="0.3em" style="text-anchor: end; visibility: inherit; font-family: Roboto, sans-serif; font-size: 12px; font-weight: 200;" fill="rgb(33, 33, 33)" stroke="none" stroke-width="1px">5.5e-3</text><text x="0" y="95.3076923076923" dx="0em" dy="0.3em" style="text-anchor: end; visibility: hidden; font-family: Roboto, sans-serif; font-size: 12px; font-weight: 200;" fill="rgb(33, 33, 33)" stroke="none" stroke-width="1px">6e-3</text><text x="0" y="81.6923076923077" dx="0em" dy="0.3em" style="text-anchor: end; visibility: inherit; font-family: Roboto, sans-serif; font-size: 12px; font-weight: 200;" fill="rgb(33, 33, 33)" stroke="none" stroke-width="1px">6.5e-3</text><text x="0" y="68.07692307692307" dx="0em" dy="0.3em" style="text-anchor: end; visibility: hidden; font-family: Roboto, sans-serif; font-size: 12px; font-weight: 200;" fill="rgb(33, 33, 33)" stroke="none" stroke-width="1px">7e-3</text><text x="0" y="54.46153846153847" dx="0em" dy="0.3em" style="text-anchor: end; visibility: inherit; font-family: Roboto, sans-serif; font-size: 12px; font-weight: 200;" fill="rgb(33, 33, 33)" stroke="none" stroke-width="1px">7.5e-3</text><text x="0" y="40.84615384615384" dx="0em" dy="0.3em" style="text-anchor: end; visibility: hidden; font-family: Roboto, sans-serif; font-size: 12px; font-weight: 200;" fill="rgb(33, 33, 33)" stroke="none" stroke-width="1px">8e-3</text><text x="0" y="27.230769230769212" dx="0em" dy="0.3em" style="text-anchor: end; visibility: inherit; font-family: Roboto, sans-serif; font-size: 12px; font-weight: 200;" fill="rgb(33, 33, 33)" stroke="none" stroke-width="1px">8.5e-3</text><text x="0" y="13.615384615384626" dx="0em" dy="0.3em" style="text-anchor: end; visibility: hidden; font-family: Roboto, sans-serif; font-size: 12px; font-weight: 200;" fill="rgb(33, 33, 33)" stroke="none" stroke-width="1px">9e-3</text><text x="0" y="0" dx="0em" dy="0.3em" style="text-anchor: end; visibility: hidden; font-family: Roboto, sans-serif; font-size: 12px; font-weight: 200;" fill="rgb(33, 33, 33)" stroke="none" stroke-width="1px">9.5e-3</text></g><line x1="70" y1="0" x2="70" y2="177" fill="rgb(0, 0, 0)" stroke="rgb(204, 204, 204)" stroke-width="1px"></line></g></g><g transform="translate(70, 0)" clip-path="url(#clip_0)"><clipPath id="clip_0"><rect width="260" height="177"></rect></clipPath><g><g><g><line x1="0" y1="0" x2="0" y2="177" fill="rgb(0, 0, 0)" stroke="rgb(66, 66, 66)" stroke-width="1px" opacity="0.25"></line><line x1="21.666666666666664" y1="0" x2="21.666666666666664" y2="177" fill="rgb(0, 0, 0)" stroke="rgb(66, 66, 66)" stroke-width="1px" opacity="0.25"></line><line x1="43.33333333333333" y1="0" x2="43.33333333333333" y2="177" fill="rgb(0, 0, 0)" stroke="rgb(66, 66, 66)" stroke-width="1px" opacity="0.25"></line><line x1="65" y1="0" x2="65" y2="177" fill="rgb(0, 0, 0)" stroke="rgb(66, 66, 66)" stroke-width="1px" opacity="0.25"></line><line x1="86.66666666666666" y1="0" x2="86.66666666666666" y2="177" fill="rgb(0, 0, 0)" stroke="rgb(66, 66, 66)" stroke-width="1px" opacity="0.25"></line><line x1="108.33333333333334" y1="0" x2="108.33333333333334" y2="177" fill="rgb(0, 0, 0)" stroke="rgb(66, 66, 66)" stroke-width="1px" opacity="0.25"></line><line x1="130" y1="0" x2="130" y2="177" fill="rgb(0, 0, 0)" stroke="rgb(66, 66, 66)" stroke-width="1px" opacity="0.25"></line><line x1="151.66666666666669" y1="0" x2="151.66666666666669" y2="177" fill="rgb(0, 0, 0)" stroke="rgb(66, 66, 66)" stroke-width="1px" opacity="0.25"></line><line x1="173.33333333333331" y1="0" x2="173.33333333333331" y2="177" fill="rgb(0, 0, 0)" stroke="rgb(66, 66, 66)" stroke-width="1px" opacity="0.25"></line><line x1="195" y1="0" x2="195" y2="177" fill="rgb(0, 0, 0)" stroke="rgb(66, 66, 66)" stroke-width="1px" opacity="0.25"></line><line x1="216.66666666666669" y1="0" x2="216.66666666666669" y2="177" fill="rgb(0, 0, 0)" stroke="rgb(66, 66, 66)" stroke-width="1px" opacity="0.25"></line><line x1="238.33333333333331" y1="0" x2="238.33333333333331" y2="177" fill="rgb(0, 0, 0)" stroke="rgb(66, 66, 66)" stroke-width="1px" opacity="0.25"></line><line x1="260" y1="0" x2="260" y2="177" fill="rgb(0, 0, 0)" stroke="rgb(66, 66, 66)" stroke-width="1px" opacity="0.25"></line></g><g><line x1="0" y1="177" x2="260" y2="177" fill="rgb(0, 0, 0)" stroke="rgb(66, 66, 66)" stroke-width="1px" opacity="0.25"></line><line x1="0" y1="163.3846153846154" x2="260" y2="163.3846153846154" fill="rgb(0, 0, 0)" stroke="rgb(66, 66, 66)" stroke-width="1px" opacity="0.25"></line><line x1="0" y1="149.76923076923077" x2="260" y2="149.76923076923077" fill="rgb(0, 0, 0)" stroke="rgb(66, 66, 66)" stroke-width="1px" opacity="0.25"></line><line x1="0" y1="136.15384615384616" x2="260" y2="136.15384615384616" fill="rgb(0, 0, 0)" stroke="rgb(66, 66, 66)" stroke-width="1px" opacity="0.25"></line><line x1="0" y1="122.53846153846153" x2="260" y2="122.53846153846153" fill="rgb(0, 0, 0)" stroke="rgb(66, 66, 66)" stroke-width="1px" opacity="0.25"></line><line x1="0" y1="108.92307692307693" x2="260" y2="108.92307692307693" fill="rgb(0, 0, 0)" stroke="rgb(66, 66, 66)" stroke-width="1px" opacity="0.25"></line><line x1="0" y1="95.3076923076923" x2="260" y2="95.3076923076923" fill="rgb(0, 0, 0)" stroke="rgb(66, 66, 66)" stroke-width="1px" opacity="0.25"></line><line x1="0" y1="81.6923076923077" x2="260" y2="81.6923076923077" fill="rgb(0, 0, 0)" stroke="rgb(66, 66, 66)" stroke-width="1px" opacity="0.25"></line><line x1="0" y1="68.07692307692307" x2="260" y2="68.07692307692307" fill="rgb(0, 0, 0)" stroke="rgb(66, 66, 66)" stroke-width="1px" opacity="0.25"></line><line x1="0" y1="54.46153846153847" x2="260" y2="54.46153846153847" fill="rgb(0, 0, 0)" stroke="rgb(66, 66, 66)" stroke-width="1px" opacity="0.25"></line><line x1="0" y1="40.84615384615384" x2="260" y2="40.84615384615384" fill="rgb(0, 0, 0)" stroke="rgb(66, 66, 66)" stroke-width="1px" opacity="0.25"></line><line x1="0" y1="27.230769230769212" x2="260" y2="27.230769230769212" fill="rgb(0, 0, 0)" stroke="rgb(66, 66, 66)" stroke-width="1px" opacity="0.25"></line><line x1="0" y1="13.615384615384626" x2="260" y2="13.615384615384626" fill="rgb(0, 0, 0)" stroke="rgb(66, 66, 66)" stroke-width="1px" opacity="0.25"></line><line x1="0" y1="0" x2="260" y2="0" fill="rgb(0, 0, 0)" stroke="rgb(66, 66, 66)" stroke-width="1px" opacity="0.25"></line></g></g></g><g><g><line x1="0" y1="258.69230769230774" x2="260" y2="258.69230769230774" fill="rgb(0, 0, 0)" stroke="rgb(153, 153, 153)" stroke-width="1.5px"></line></g></g><g><g><line x1="21.666666666666664" y1="0" x2="21.666666666666664" y2="177" fill="rgb(0, 0, 0)" stroke="rgb(153, 153, 153)" stroke-width="1.5px"></line></g></g><g><g><g><g><g><path stroke="rgb(255, 112, 67)" stroke-width="2px" d="M32.065583333333336,-7.963472620341037L32.498916666666666,0.9603811169256024L32.60725,5.996904375297846L32.93225,-0.7139422734935936L33.257250000000006,12.608432178766906L33.36558333333333,19.0824913559791L33.58225,21.24871373965674L34.123916666666666,20.296788409271006L34.340583333333335,16.031096616792613L34.88225,26.297282573463516L35.315583333333336,29.61725280741055L35.42391666666667,34.47363696454672L35.64058333333333,34.94610104077746L35.85725,21.879723508759472L35.965583333333335,30.169683797307332L36.07391666666667,14.44037770587238L36.50725,18.47462451533841L36.61558333333333,22.47424716261387L37.26558333333333,33.51655829897104L37.373916666666666,38.749402925765274L37.590583333333335,41.720588314769074L37.69891666666666,35.80602876622345L38.023916666666665,32.210254140370274L38.78225,26.69465645688093L38.998916666666666,12.399691683047083L39.10725,20.807406467470283L39.32391666666667,33.77539613749178L39.54058333333333,36.92871691757561L39.75725,37.71066446151353L40.19058333333333,32.56168245563055L40.29891666666666,29.33296195028326L40.407250000000005,32.42905390476047L40.73225,19.598288609795013L40.84058333333333,41.36378920466895L40.94891666666667,50.97899426179919L41.05725,48.844324758901635L41.273916666666665,59.774164314054886L41.382250000000006,54.55155322115168L41.70725,44.851612217649624L41.81558333333333,40.92678663806373L41.92391666666667,42.09713046220233L42.248916666666666,39.63131727625535L42.35724999999999,44.67804261860703L42.465583333333335,60.962317571789896L42.57391666666667,43.53448422985635L42.89891666666667,44.29699222449418L43.332249999999995,45.407609328467785L43.440583333333336,53.13973517820967L43.65725,50.096418638813745L43.76558333333333,43.35557917710667L43.873916666666666,29.182049978895762L43.98225,44.217304133846596L44.19891666666667,41.3726742902703L44.41558333333334,46.895015006390835L44.63225,53.28350235139677L44.84891666666666,50.46016481312402L45.065583333333336,58.81798498116994L45.17391666666666,65.50346582631875L45.39058333333333,64.95885915389789L45.498916666666666,45.68711102045714L45.60725,58.40062168239759L45.715583333333335,37.56263302059801L45.82391666666666,48.23832973094802L46.04058333333334,44.14556275985622L46.148916666666665,43.050967018130116L46.58225,43.31356284729311L47.23225,36.186634394871135L47.44891666666667,34.61796804957708L47.55725,42.65179379537039L47.66558333333333,52.2698335353257L47.88225,62.891522047603964L47.99058333333333,63.173667549624014L48.20725,67.03964709863945L48.31558333333333,72.75778243616752L48.42391666666666,59.66373285320259L48.532250000000005,69.76543917824175L49.07391666666667,68.47146432739106L49.18225,75.27891210035219L49.29058333333333,79.24238012575394L49.61558333333333,67.69996542516247L49.72391666666667,71.66335167617872L49.83225,74.93445294394246L49.94058333333333,71.37959415262662L50.15725,61.90894574894099L51.02391666666667,68.71529756126802L51.13225,70.77273343746204L51.457249999999995,75.75078408817899L51.565583333333336,69.61043021711288L51.67391666666667,65.72488999629182L51.89058333333333,67.71312533132577L52.10725,80.23272244978888L52.32391666666667,75.32068336791086L52.432249999999996,71.57001486843446L52.64891666666667,70.3972782403382L52.86558333333333,63.588054420544466L52.97391666666666,62.56937098346852L53.190583333333336,68.32558619790586L53.73225,68.94177528921139L53.840583333333335,68.01648874449906L53.94891666666666,69.63073105481327L54.05725,79.49200674926855L54.70725,82.2171115061242L54.92391666666666,79.97561945157686L55.14058333333334,94.87516643532732L55.248916666666666,86.91279040486631L55.57391666666667,74.22178304619203L55.68225,75.21158393554774L56.00725,68.99108344744147L56.22391666666667,72.17415527751652L56.33225,74.77754567139786L56.657250000000005,79.40742997135325L56.873916666666666,75.39283532063449L57.41558333333333,84.6023461890146L57.523916666666665,80.14327338078859L57.632250000000006,75.39677412652517L57.74058333333333,78.29982350971427L58.28225,82.61181605374797L58.39058333333333,83.03111390870708L58.60724999999999,85.51011676413493L58.932249999999996,80.6356116738204L59.04058333333333,76.92278646199375L59.14891666666667,80.22423112758771L59.25725,86.71029213474074L59.47391666666667,74.95517570870494L59.690583333333336,78.95984272097894L59.90725,66.00543221196739L60.01558333333333,76.83325094864719L60.123916666666666,81.82562569449378L60.557249999999996,93.3453213275444L60.77391666666667,89.54216597177721L60.99058333333333,86.26593824513864L61.09891666666666,78.61981101849696L61.20725,81.32596348856379L61.315583333333336,82.52755264307369L61.42391666666666,66.13038513992797L61.53225,80.42912520956509L61.64058333333333,71.36011978795423L62.29058333333334,78.44454984712318L62.61558333333333,77.53783463882498L62.72391666666667,85.08430808200845L63.48225,95.91495288995016L63.59058333333333,99.19867702338898L64.02391666666666,88.77157543195187L64.13225,87.01192157553146L64.24058333333333,93.16024230265829L64.34891666666667,90.35610189092839L64.45725,97.07932241154857L64.56558333333334,93.17633105957093L64.67391666666667,92.88648004686218L64.78225,94.42628865820625L64.89058333333332,80.73014083251218L64.99891666666667,84.45700459076035L65.21558333333333,89.72218128952147L65.32391666666666,90.44874639000612L65.54058333333334,90.59836900849504L65.97391666666667,86.98380663787023L66.08225,86.53619881058245L66.40724999999999,91.5126892005474L66.51558333333334,93.83277559590302L66.62391666666667,100.2034335952793L66.73225000000001,107.0996077738511L67.05725,95.6492843257464L67.38225,94.61943541376407L67.49058333333335,88.39536604024445L67.81558333333334,93.17332642678444L67.92391666666667,84.37845310603304L68.35725,89.8029491284496L68.46558333333333,81.0038254773483L68.79058333333333,77.41468293257057L68.89891666666666,84.06117881753697L69.00725,80.04100597245991L69.11558333333333,86.83978675052086L69.22391666666667,84.19592174276906L69.33225,87.76448049591485L69.44058333333332,88.62539085140806L69.54891666666667,86.31986193958738L69.76558333333334,84.76128742206541L69.87391666666667,81.39225260725838L69.98225000000001,95.13539501980902L70.09058333333333,104.04469426248052L70.52391666666666,104.04290379563504L70.63225,103.55776609651582L70.74058333333333,101.95157249787239L70.84891666666667,101.8953611264982L70.95725,99.31470679885906L71.17391666666667,103.72033584755565L71.39058333333332,98.15836763122668L71.60725000000001,102.33123009553636L71.71558333333334,101.5540124241958L72.04058333333333,103.85411065192336L72.14891666666666,107.57091833528514L72.25725,101.07936051987511L72.47391666666667,95.30177945450532L72.69058333333334,92.85536723353434L73.12391666666666,88.23768906443557L73.23225,92.80137131830371L73.55725,87.10601471472891L73.66558333333334,88.51189045879404L73.77391666666666,99.7246218099278L73.88225,90.95729603360738L73.99058333333333,87.30316679701367L74.09891666666667,91.09814128294683L74.20725,96.86244593225821L74.42391666666666,91.62990020656484L74.53224999999999,94.59174474948675L74.64058333333334,92.47448325999078L74.74891666666667,94.64365168054172L74.96558333333334,87.45132484771217L75.29058333333333,95.73124511452191L75.72391666666667,92.47328415804265L76.04891666666667,95.12697534988064L76.15725,102.10942461444169L76.26558333333332,105.45152451148032L76.59058333333333,104.62449406277912L76.80725000000001,115.35116108472216L76.91558333333333,96.37152905454813L77.02391666666666,91.20183143454217L77.13225,93.24296605205834L77.24058333333333,89.89431367379515L77.34891666666667,97.06542688415928L77.45725,109.32101088807413L77.78225,103.14216745431175L77.89058333333334,103.97462214068922L77.99891666666667,99.89374705345476L78.10725000000001,99.17967607126033L78.43225,98.06417343528919L79.19058333333334,104.89597816176328L79.51558333333332,93.30077707437023L79.62391666666666,95.62542894032158L79.84058333333334,89.4921249692739L79.94891666666668,85.40411033669943L80.05725,106.61841472489002L80.16558333333333,108.67735928458926L80.27391666666666,109.0833319733319L80.49058333333333,109.50062068644442L80.59891666666667,116.03302994941869L80.70724999999999,116.98444995581075L80.92391666666667,114.6834844946341L81.03225,119.39021219080776L81.35725,115.93816744935474L81.57391666666666,109.81806528635921L81.79058333333334,96.59752386757286L81.89891666666666,98.99420832227341L82.00725,90.41167610526027L82.65724999999999,107.91862347232343L82.76558333333334,109.49698625050672L82.87391666666667,103.59226161542071L83.30725,104.32851073624214L83.63225,103.34748828262536L83.84891666666667,108.87708117505949L84.17391666666667,106.52360657945665L84.60725,103.99616638203774L85.04058333333333,113.50243638980577L85.14891666666666,116.44884359738757L85.25725,104.65845379082968L85.47391666666667,112.58461670189267L85.69058333333332,101.0974598074964L85.79891666666667,105.82325580525925L85.90725,113.91265456654058L86.12391666666667,113.89283283357737L86.34058333333333,105.55635353760717L86.44891666666666,111.46839283882578L86.55725,105.52678450058379L86.66558333333333,107.70541385065418L86.88225,111.04852255732361L86.99058333333333,114.46295268244792L87.09891666666667,113.92489242406728L87.31558333333334,107.42096568601706L87.64058333333332,111.53956829146512L87.85725000000001,106.5850004114864L88.18225,110.31502349998426L88.29058333333333,105.9006803250021L88.50725,102.65518662977304L88.72391666666667,106.66054258388974L88.94058333333334,101.8605408816865L89.15725,110.08315997142655L89.26558333333334,109.75017052460075L89.59058333333333,114.37753947991074L89.80725,113.68558021391044L89.91558333333334,108.517437090351L90.34891666666667,112.83227335482194L90.56558333333334,112.61247518470726L90.78224999999999,117.07439038778313L91.10725000000001,107.21287879078413L91.21558333333334,109.28180093603626L91.32391666666666,109.85672758518956L91.43225,110.61513285521862L91.54058333333333,111.05310324104684L91.64891666666666,114.55656315823552L92.08225,111.58241480897115L92.29891666666667,102.77515648008914L92.40725,106.6312544259291L92.51558333333332,108.64279707907345L92.62391666666666,106.29588178043328L92.73225,108.62758356937165L93.05725000000001,110.38553364066397L93.16558333333333,112.37574574137905L93.27391666666666,118.43115581696183L94.03225,117.39644313047683L94.35725000000001,118.90602510662015L94.89891666666666,110.20551758380337L95.00725,112.03960709518233L95.11558333333333,115.65344126531642L95.44058333333334,113.28952834428232L95.65724999999999,112.94225129942319L95.76558333333332,121.96742674455409L95.87391666666666,122.65643657133658L96.19891666666668,118.62459571706047L96.74058333333333,120.1870594103099L96.95724999999999,122.03778406072807L97.06558333333334,119.96392291814502L97.17391666666667,117.02644434039198L97.28225,120.09485797402364L97.49891666666666,119.39215380027767L97.82391666666666,122.21594127530015L97.93225,125.9511155404421L98.14891666666666,127.74253555069082L98.58225,116.01631532613418L98.69058333333334,120.0720192645842L98.90724999999999,113.94400737475023L99.23225000000001,106.87815272476979L99.44891666666666,113.42814249014268L99.66558333333333,121.90174176752583L99.77391666666666,118.90002454472517L99.88225,122.33568028944647L100.09891666666667,117.34789892888661L100.31558333333334,120.7089251440927L100.42391666666667,119.33124370670383L100.53225,113.4232014712686L100.64058333333332,112.00310493689743L100.74891666666666,113.22634795508274L100.96558333333333,110.17914554780234L101.07391666666668,122.05777804162484L101.18225000000001,123.0839811854101L101.72391666666667,116.4044489982173L101.83225,120.38760555474478L101.94058333333332,120.71067914456161L102.15725,122.66564660722038L102.26558333333334,118.37144331148139L102.37391666666667,115.60903805959282L102.48225000000001,115.79011886032029L103.24058333333333,114.76097788730532L103.56558333333334,113.01373809766335L103.67391666666667,115.46384242612136L103.89058333333332,127.47283440883076L104.43225,122.71534140922313L104.54058333333333,121.95475110651434L104.64891666666666,114.8550175598667L104.97391666666667,111.45427384893836L105.08224999999999,108.90029515118304L105.40725,112.3107150292313L105.51558333333334,113.11256648575757L105.73225,107.12713259627333L105.84058333333333,110.38251707792685L106.05725,118.9098368183582L106.16558333333334,121.55632646356874L106.27391666666666,124.94588506275556L106.38225,126.66878005115062L106.49058333333333,126.92530502962258L107.14058333333334,118.99163392100584L107.24891666666667,122.08175344049016L107.46558333333334,129.32457356871458L107.68225,130.60877602805394L107.89891666666666,125.30904301846307L108.00725,119.12663141098189L108.33225,121.24014235537115L108.44058333333334,121.16133571267642L108.87391666666666,124.80573778647953L108.98225,116.66336465266305L109.09058333333333,116.8794597644212L109.19891666666668,119.86308548501742L109.52391666666666,118.19634328299804L109.84891666666667,118.88622890971375L110.39058333333334,120.36225840257201L110.49891666666667,120.18860315565225L110.71558333333333,120.92507431859758L110.82391666666666,125.93950905773035L110.93225,114.38739455702161L111.14891666666666,111.83295469903457L111.25725,112.33339163454933L111.36558333333333,115.82414786669075L111.47391666666667,117.07937270654254L111.90724999999999,124.25500603148075L112.01558333333332,113.06309333359897L112.23225000000001,114.44450947362832L112.34058333333334,116.25747333689033L112.44891666666668,117.073710316147L112.66558333333333,120.48128429598222L112.77391666666666,115.48124415054046L113.09891666666667,122.87062317378869L113.31558333333334,126.35110173785601L113.85725,129.836972624582L113.96558333333333,129.87858528067449L114.29058333333334,132.09832774158033L114.61558333333333,123.12199513372286L114.94058333333334,125.11744753917115L115.15724999999999,129.80507714367863L115.48225000000001,129.07050922220506L115.59058333333334,129.3009274008972L116.02391666666666,119.30585669618537L116.13225,124.73332671813871L117.21558333333333,113.5148182545282L117.43225000000001,114.13121521997593L117.54058333333333,113.85103001680093L117.64891666666666,120.22091976969038L117.75725,118.20636328032003L117.97391666666667,128.7656211335453L118.19058333333332,132.86527110831966L118.40725,133.9190576157026L118.73225000000001,133.53933386414639L118.94891666666666,131.72143882665364L119.05725,136.50995016762533L119.38225,133.8634629206914L119.49058333333333,140.37845927243853L119.70725,137.3500212123534L119.92391666666667,137.78111736993162L120.03224999999999,136.86003912882722L120.14058333333332,133.4430408886567L120.35725000000001,137.5589241066778L120.46558333333334,132.70246795246078L120.79058333333333,114.22570883337258L121.22391666666667,122.80439246289858L121.33224999999999,130.61868373875805L121.54891666666667,130.71763368671895L121.76558333333334,122.36628762732785L122.19891666666666,128.61659896880892L122.30725,121.96082217172318L122.41558333333334,124.59598571602285L122.52391666666666,124.52893706884252L122.63225,120.4316512231375L122.74058333333333,128.62088954561713L122.84891666666667,119.06082168060033L123.06558333333334,121.86893448113814L123.49891666666667,120.42839361173941L123.71558333333334,120.55898689777091L123.82391666666666,124.70597411836827L124.14891666666666,124.3277812326841L124.58225,131.08374254943593L124.90725,135.8106034918664L125.12391666666666,133.7575861981855L125.23225,126.65642317637801L125.34058333333333,130.86455273929238L125.77391666666666,129.41390824544382L125.99058333333333,131.86181290721132L126.09891666666667,127.89146136484607L126.20725,131.7667526009664L126.31558333333332,133.8274210427303L126.53225,134.07456479275814L126.64058333333334,129.19001370918738L126.96558333333333,133.4880669209938L127.50725,136.7317328385048L127.72391666666667,137.5812373005882L127.83225,139.84910116501015L128.04891666666668,133.45080571165252L128.15725,133.8654756295119L128.59058333333334,138.33808545271546L128.80724999999998,134.83761893052318L128.91558333333333,131.84441659170844L129.02391666666668,133.76732726630794L129.24058333333335,138.82763020514707L129.45725,135.25983287836516L129.56558333333334,138.37540882288965L129.67391666666666,141.27242798712354L129.89058333333332,140.42025907722092L129.99891666666667,132.27861872431438L130.21558333333334,129.76667939310738L130.32391666666666,133.73776694669684L130.43225,132.10920976856426L130.54058333333333,140.96358021468748L130.64891666666668,139.30204949095653L130.75725,141.8868940009945L131.29891666666666,137.14953102902976L131.51558333333332,136.755509630567L131.73225,133.75378382868217L131.8405833333333,129.19129020052068L131.94891666666666,129.83608546784282L132.49058333333335,125.07964424564283L132.92391666666666,126.99815303044133L133.14058333333332,127.60771755023002L133.24891666666667,134.46078659794037L133.89891666666665,134.64351067594242L134.00725,138.11198305623816L134.11558333333335,134.674263684558L134.22391666666667,131.78218729321281L134.33225000000002,136.96461125443236L134.76558333333332,141.78811961045088L134.98225,146.68839502125655L135.09058333333334,138.13311160448228L135.74058333333332,134.21087106510285L135.84891666666667,132.04245645622825L136.17391666666668,135.55262355009657L136.39058333333335,137.17585233702076L136.49891666666667,134.02940238627082L136.60725,135.98391133934706L136.82391666666666,133.59622770597193L137.14891666666668,140.1284835325505L137.25725,136.6014741765936L137.36558333333332,144.13014190298887L137.58225,128.73439641490964L137.69058333333334,125.72448516306513L137.79891666666666,131.3140227677382L137.90724999999998,134.17494771052068L138.01558333333332,136.43476795012796L138.12391666666667,138.68059503716486L138.44891666666666,139.79898335698445L138.55725,139.26145044891726L138.77391666666668,139.4126165532483L138.88225,134.13218836511274L138.99058333333335,125.5463530713899L139.31558333333334,127.60422980294582L139.42391666666666,128.7955587316373L139.53225,132.67103620292886L139.9655833333333,133.80342458302604L140.07391666666666,138.52732525169517L140.18225,140.21359499999912L140.72391666666667,139.19065320685155L140.94058333333334,138.39288661527195L141.15725,136.28927979098754L141.26558333333332,145.58330045477743L141.37391666666667,138.37996384014102L141.69891666666666,141.1933070277353L141.80724999999998,139.28433869007614L141.91558333333333,136.77963805790316L142.02391666666665,137.15556358981243L142.13225,137.76996837828958L142.24058333333335,132.66226214632036L142.34891666666667,130.03151821129157L142.45725000000002,134.8189399842685L142.67391666666668,140.79515376391527L142.99891666666667,140.42848869476535L143.21558333333334,143.2605603328483L143.32391666666666,132.88060620465998L143.64891666666665,135.12090824200953L143.75725,134.2470690436112L143.97391666666667,138.55139399239792L144.08225,141.16487820914242L144.19058333333334,138.76615027584532L144.29891666666668,137.30424111254982L144.40725,130.02490598613647L144.62391666666667,133.0685838665L144.73225,132.0036990508236L144.84058333333334,136.8367958151027L145.16558333333333,134.26186698342937L145.49058333333332,130.1589401612614L145.81558333333334,141.21171422520118L145.92391666666666,142.49021881926282L146.14058333333332,135.12237703933485L146.24891666666667,136.7752081221086L146.35725000000002,138.31983951790815L146.46558333333334,139.0339035342876L146.57391666666666,134.40617790295377L146.68225,141.81744782026365L146.89891666666668,142.1365719435971L147.44058333333334,144.5234553006002L147.65725,134.76327479929748L147.87391666666664,139.41687029401305L148.0905833333333,142.47740899503137L148.19891666666666,141.70803398661374L148.84891666666667,141.5254672110279L148.95725000000002,147.60597256718964L149.17391666666666,133.89725511334748L149.28225,140.3294544187011L149.39058333333332,146.04341717027097L149.82391666666666,144.12757967115004L150.04058333333333,151.7168684551841L150.25725,150.88975291731924L150.47391666666667,146.5849661843954L150.58225000000002,142.59027293861243L150.69058333333334,130.14206035871885L151.01558333333332,127.61204958682545L151.12391666666667,127.94306637641499L151.23225,132.04543317068413L151.44891666666666,119.63381753665408L151.55724999999998,134.19823679393468L151.88225,138.9714495032371L151.99058333333332,145.6765843912337L152.31558333333334,142.136790665282L152.42391666666668,134.15042944274552L152.53225,146.56039081561505L152.74891666666667,138.453319601198L153.18225,139.81321458911617L153.29058333333333,151.6590982712894L153.39891666666668,147.31052683494946L153.61558333333332,145.28285250027915L153.72391666666667,149.1065640828835L154.26558333333332,142.77648016931346L154.48225000000002,143.44898140823958L154.80725,145.00565536327062L154.91558333333333,143.97245087513087L155.24058333333335,140.32552394947353L155.34891666666667,141.79727191184682L155.89058333333332,139.39615966719452L156.10725,145.8625614509889L156.2155833333333,145.2158698792953L156.32391666666666,149.48249426518078L156.43225,149.5693306812619L156.54058333333336,146.94712872531173L156.64891666666668,135.73897955735833L156.75725,143.66397758285083L157.08225000000002,144.46978357272812L157.19058333333334,146.01489357576327L157.29891666666666,140.33484591361753L157.40725,141.51606679655924L157.62391666666667,136.0831090182394L157.8405833333333,139.97703553169643L157.94891666666666,136.27142927352546L158.27391666666665,139.8372937894562L158.38225,137.4958579814759L158.70725000000002,138.6391362396215L159.03225,141.62602751514248L159.46558333333334,150.38415675715396L160.00725,145.89687251316826L160.11558333333332,134.4303782534027L160.22391666666667,141.47073375132683L160.65725,144.98789775477513L160.98225,138.30642144491426L161.52391666666668,144.9740616793504L161.84891666666667,141.5900766794311L162.17391666666666,144.6886651618093L162.39058333333332,149.8013816730863L162.49891666666667,152.8301464142108L162.82391666666666,145.46281467507507L163.25725,143.44680625094492L163.69058333333334,147.4949467421109L164.12391666666664,146.0999045077514L164.23225,146.05885297585527L164.77391666666668,155.85098213937513L164.99058333333335,144.36934802065733L165.09891666666667,142.29688885243843L165.31558333333334,143.63123010379417L165.42391666666666,142.1986437048685L165.64058333333332,147.0410643523942L166.39891666666665,144.20381000994783L167.37391666666667,143.2071118651302L167.48225,143.17625303786593L167.69891666666666,134.8247976937573L167.80724999999998,141.80062630819748L168.13225,132.96041185677834L168.24058333333332,127.84334826573512L168.45725,138.52343579891192L168.89058333333335,133.01964600586766L169.10725,138.15130835113635L169.54058333333333,143.42519728444643L169.64891666666668,136.44773350992304L169.75725,138.62876167590824L169.86558333333332,137.4102019294135L169.97391666666667,147.15898888907716L170.40724999999998,152.43867399294766L170.51558333333332,142.06600843736516L170.73225000000002,141.14239024304283L170.84058333333334,138.932545517673L171.27391666666668,142.6184216209223L171.81558333333334,145.9725349675399L171.92391666666666,142.53385726465706L172.35725,144.29257875433382L172.68225,146.9386839748624L173.00725,141.58862212486284L173.11558333333335,141.46066239198072L173.33225000000002,139.8271699221594L173.44058333333334,141.56104227135557L173.76558333333332,143.19981568592772L173.98225,142.01037875986734L174.84891666666667,141.13170512836544L175.17391666666668,138.61796221603697L175.28225,143.7524618179095L175.49891666666667,144.5160876091462L175.71558333333334,154.4526261347525L175.82391666666666,151.251215946463L176.79891666666668,151.87904214965536L176.90725,144.98445973781165L177.34058333333334,144.44397951540418L177.55725,147.79380759684025L177.66558333333333,144.40976217212176L177.77391666666668,141.89960816602738L177.88225,141.72038900178705L178.20725,142.84477547140602L178.42391666666666,142.65248971779158L178.53224999999998,145.22491392643963L178.64058333333332,148.53039713489196L178.74891666666667,145.115958444308L178.85725000000002,146.1097237979632L178.96558333333334,146.7856052444458L179.07391666666666,143.4338502470761L179.29058333333333,146.02520382378384L179.39891666666668,148.96508424713548L179.50725,148.92374901567348L179.61558333333335,145.6781123481016L179.72391666666667,141.65904076247796L179.83225,138.71484198228305L179.94058333333334,139.59944690384555L180.04891666666666,138.3527137252162L180.26558333333332,147.8372721525894L181.02391666666668,150.02111898906995L181.34891666666667,149.07074501818124L181.45725000000002,154.8004054822253L181.67391666666666,142.0191861119199L181.78225,140.72530028678943L182.2155833333333,148.57382490839115L182.32391666666666,153.2186301955224L182.43224999999998,157.8780383164485L182.86558333333335,157.36725553369246L182.97391666666667,152.8790030917041L183.08225000000002,155.7815982291408L183.19058333333334,152.4849947817555L183.29891666666668,149.98925487264577L183.51558333333332,149.91279239280388L183.62391666666667,150.66161053786084L184.05724999999998,142.7224418857108L184.16558333333333,145.24483669537457L184.27391666666665,151.62258699162464L184.49058333333332,147.9370000807632L184.81558333333334,153.0052595710592L185.24891666666667,150.75137726199569L185.35725,154.18482448768856L185.46558333333334,153.85147067627503L185.68225,148.74968986436747L185.89891666666668,150.675652340708L186.00725,149.08293891863417L186.76558333333332,146.68891171900728L187.09058333333334,142.1243174687018L187.30725,147.4782242123662L187.95725,150.02033752605053L188.28225,143.58475663146677L188.39058333333332,139.44213334618027L188.7155833333333,146.2995955675493L189.14891666666668,150.75624105786108L189.36558333333335,151.2161033240248L189.47391666666667,152.9340387920222L189.79891666666666,143.9701934993994L189.90725,149.38420390912898L190.01558333333332,153.52917183088664L190.23225,159.37487385853726L190.44891666666666,157.22070685563168L190.99058333333335,158.3853296314248L191.20725000000002,155.96247348106544L191.31558333333334,155.16794089682577L191.42391666666668,159.17431376493886L191.64058333333332,153.75901394831214L191.85725,146.35043204207236L191.96558333333334,149.22185511746184L192.07391666666666,149.79463989214543L192.18224999999998,150.9908235544396L192.50725,153.6165483662377L192.72391666666667,151.3931662841282L192.83225,148.40439142514808L192.94058333333334,143.45467654878544L193.04891666666668,139.3025198309194L193.15725,145.87808726691938L193.48225,150.43591991446505L194.02391666666668,163.37084752927248L194.56558333333334,167.41917015826715L194.67391666666666,155.53599104024272L194.78224999999998,152.71916593202485L195.21558333333334,146.90606135503648L195.32391666666666,149.01846482473636L195.43225,141.81679041937423L196.19058333333334,143.5048247723949L196.29891666666666,145.3960513850324L196.51558333333332,147.44627059465896L196.62391666666664,151.73409525170294L196.8405833333333,157.79921002639566L197.27391666666668,155.57196952122544L197.49058333333335,158.3249482052075L197.70725000000002,154.82498462349227L197.92391666666666,155.10108448636103L198.03225,154.5644502269215L198.4655833333333,155.66572091327643L198.89891666666665,154.19936047471714L199.00725,156.85669780749677L199.11558333333335,157.61293645419607L199.22391666666667,151.56719142030437L199.44058333333334,152.96498622483927L199.54891666666668,138.7200098999784L200.09058333333334,146.2725506089733L200.19891666666666,150.97110268032952L200.41558333333333,152.42111748215476L200.63225,153.22099407674713L200.74058333333332,156.89534246593897L200.84891666666667,154.25510998079977L200.95725,147.53432195284157L201.17391666666668,149.87647429563742L201.39058333333335,150.67551223037603L201.82391666666666,147.5820381232287L202.04058333333333,151.1660370629403L202.25725,152.4407490854898L202.58225,155.97320215129258L202.69058333333334,156.51114959230983L203.12391666666667,157.31447156472507L203.44891666666666,156.81149084356912L203.66558333333333,157.03725931052398L203.77391666666668,154.89699692820236L203.88225,151.38353866972898L203.99058333333335,150.82539384011986L204.31558333333334,147.2027700714328L204.42391666666666,152.88990570896752L204.53225,148.99807708599042L204.64058333333332,157.61686246374126L204.74891666666664,154.85223205943538L204.85725,154.5377269845858L205.18225,151.54346619294935L205.29058333333336,153.47730117105937L205.39891666666668,149.513380329804L205.61558333333335,148.275099735212L205.72391666666667,151.9392611017489L205.83225000000002,156.85349592474162L205.94058333333334,156.56832316187334L206.15725,153.43104020663182L206.37391666666667,152.81597155277777L206.69891666666666,156.04788115748215L206.91558333333333,164.2519039530799L207.02391666666665,161.71112039226838L207.13225,164.59317639607704L207.24058333333335,159.26623565705955L207.89058333333332,154.24345661368756L207.99891666666667,139.29440713784706L208.32391666666666,144.45670165635116L208.43224999999998,151.02320460916505L208.54058333333333,154.36744604511094L208.64891666666665,158.0009235133526L209.19058333333334,155.8047137250917L210.05725,157.83526815531536L210.16558333333333,155.48170822641137L210.27391666666668,158.81833504055624L210.59891666666667,161.99696067601025L210.81558333333334,162.1538239851294L211.14058333333332,158.85303107683967L211.24891666666667,156.44850277188027L211.35725000000002,161.14643884721804L211.46558333333334,159.46951905697782L211.68225,160.5281713568397L211.79058333333333,156.7827297998023L212.11558333333335,160.48601717666102L212.65725,161.3996524479064L212.76558333333332,162.40500715356123L212.98225,162.39773128078704L213.0905833333333,163.19490876021393L213.30725,159.75676045985924L214.06558333333334,155.1569360630947L214.17391666666666,158.38079080092947L214.28225,151.0868319105206L214.60725,158.36909582215674L214.7155833333333,151.39457077566277L215.04058333333333,153.66525197817057L215.14891666666665,148.77127440586054L215.25725,149.46818360713203L215.36558333333335,150.00102511362482L215.58225000000002,154.80472781067226L215.69058333333334,156.00093416226218L215.90725,152.62864771305598L216.12391666666667,153.09934165094816L216.34058333333334,155.60537806161955L216.44891666666666,153.58532295094696L216.77391666666665,157.3076011701584L216.99058333333332,160.10738255878633L217.09891666666667,165.212645763115L217.20725,160.43112931338305L217.64058333333335,156.16448606754065L217.85725,149.6798513124362L218.29058333333333,145.67618522263342L218.50725,152.79289773109696L218.72391666666667,152.58600559488664L218.83225,151.0663407759137L219.26558333333332,147.24239087339305L219.59058333333334,148.4409455888862L219.69891666666666,148.29046748387873L219.91558333333333,153.53399030440346L220.02391666666668,151.47497922248695L220.24058333333335,149.45191705129318L220.34891666666667,154.46370867019573L220.45725,151.46760802298041L220.67391666666666,157.33156644279234L220.78225,155.78528164243156L220.89058333333332,159.93837352103955L221.54058333333336,161.99436817884012L221.64891666666668,164.62948469159895L221.75725,166.25115443199536L221.86558333333335,159.58844335174814L221.97391666666667,162.50702572733223L222.29891666666666,157.50225545548972L222.51558333333332,148.5880738760813L222.8405833333333,155.18099295247148L223.27391666666665,154.3816338611021L223.70725000000002,159.04943253063635L223.81558333333334,147.75082377425764L223.92391666666668,152.3931403699128L224.03225,159.52864174592452L224.46558333333334,161.54280114626584L224.57391666666666,160.2844556154765L224.68224999999998,159.70926023660002L224.79058333333333,162.91965516532508L224.89891666666665,162.24717060287438L225.11558333333332,159.84417170573903L225.33225,162.30329376952704L225.44058333333334,164.5252317944211L225.76558333333335,162.83493579267332L225.87391666666667,158.18430251245556L226.09058333333334,156.06007782358077L226.30725,153.49406560228235L226.52391666666668,155.31219555165106L226.63225,153.80651019120882L227.06558333333334,154.212752346516L227.49891666666667,154.14202075422563L227.71558333333334,147.668384681697L227.82391666666666,150.91267546379655L228.25725,148.41624506241226L228.47391666666667,148.24999235457634L228.58225,157.83882311583662L228.69058333333334,156.98512456752445L229.01558333333332,151.9298072329799L229.3405833333333,159.1760029932917L229.55725,156.13346291956438L230.20725000000002,164.0745102710003L230.31558333333334,152.6724673736745L230.42391666666666,148.1643232348905L230.64058333333332,146.94017293390633L230.74891666666667,153.25545099945296L231.07391666666666,157.03211251207435L231.39891666666665,162.70189399788342L231.50725,167.80488548336317L231.83225000000002,170.31931935895065L231.94058333333334,167.78622563111395L232.04891666666668,157.44330473705392L232.15725,159.18656020521448L232.48225,158.16838390486572L232.69891666666666,164.30129572916155L233.02391666666665,164.09642323470376L233.13225,161.4275790502298L233.34891666666667,164.87549537624616L233.67391666666668,166.11725784857646L234.10725,158.53025022596327L234.21558333333334,164.7048440498126L234.32391666666666,160.61102398914173L234.43225,163.5320655496611L234.54058333333333,162.4783009105784L234.75725,158.5207410908901L234.86558333333332,156.55828246952538L234.97391666666667,158.98350290507477L235.08225,158.92343388780046L235.73225000000002,162.60280340632255L235.94891666666666,154.51622327628772L236.05725,159.38270197374067L236.16558333333333,159.09521254991648L236.27391666666668,154.99128104734285L236.38225,158.99408729092076L236.49058333333335,157.58513601424846L236.59891666666667,156.39847964068247L236.81558333333334,163.19349607928896L237.03225,165.25724724914292L237.14058333333332,160.5780970556523L237.24891666666664,151.358638252152L237.4655833333333,155.67784578052067L237.57391666666666,153.88432714701148L237.68225,156.0500450252046L237.89891666666668,159.53191520888598L238.22391666666667,157.89012343702265" style="fill: none;" fill="none"></path></g></g></g></g><g opacity="0.2"><g><g><g><path stroke="rgb(255, 112, 67)" stroke-width="2px" d="M29.140583333333332,-35.18936223479417L29.35725,19.70024722929184L29.46558333333333,-42.68682675636737L30.115583333333333,13.467136921790926L30.332250000000002,-49.56533973950611L31.415583333333334,-13.835001585575254L31.523916666666665,1.9062654410417217L32.065583333333336,-3.4297632976220265L32.498916666666666,14.34616172199066L32.60725,13.551689262573522L32.93225,-10.780212246454688L33.257250000000006,32.59199385688855L33.36558333333333,28.79358012171891L33.58225,24.498047315157365L34.123916666666666,18.86890041369657L34.340583333333335,9.632558928086207L34.88225,41.6965615084538L35.315583333333336,34.59720815832798L35.42391666666667,41.75821320024819L35.64058333333333,35.65479715512349L35.85725,2.2801572107351715L35.965583333333335,42.60462423012807L36.07391666666667,-9.153581431278827L36.50725,24.525994729537214L36.61558333333333,28.473681133527027L37.26558333333333,50.080025003506584L37.373916666666666,46.59866986595666L37.590583333333335,46.1773663982749L37.69891666666666,26.93418944340485L38.023916666666665,26.816592201590538L38.78225,18.42125993164685L38.998916666666666,-9.042755477703544L39.10725,33.41897864410511L39.32391666666667,53.22738064252412L39.54058333333333,41.658698087701424L39.75725,38.883585777420265L40.19058333333333,24.83820944680618L40.29891666666666,24.48988119226235L40.407250000000005,37.073191836476326L40.73225,0.3521406673468046L40.84058333333333,74.01204009697987L40.94891666666667,65.40180184749455L41.05725,45.64232050455533L41.273916666666665,76.16892364678473L41.382250000000006,46.71763658179687L41.70725,30.301700712396546L41.81558333333333,35.03954826868497L41.92391666666667,43.852646198410255L42.248916666666666,35.93259749733483L42.35724999999999,52.24813063213459L42.465583333333335,85.3887300015642L42.57391666666667,17.39273421695599L42.89891666666667,45.44075421645091L43.332249999999995,47.07353498442815L43.440583333333336,64.73792395282251L43.65725,45.53144382971983L43.76558333333333,33.24431998454606L43.873916666666666,7.921756181579365L43.98225,66.77018536627293L44.19891666666667,37.10572952490586L44.41558333333334,55.17852608057168L44.63225,62.8662333689057L44.84891666666666,46.225158505714845L45.065583333333336,71.35471523323885L45.17391666666666,75.53168709404193L45.39058333333333,64.14194914526664L45.498916666666666,16.779488820296063L45.60725,77.47088767530826L45.715583333333335,6.305650027898639L45.82391666666666,64.25187479647306L46.04058333333334,38.00641230321847L46.148916666666665,41.409073405540894L46.58225,43.7074565910376L47.23225,25.49624171623817L47.44891666666667,32.264968531636086L47.55725,54.70253241406037L47.66558333333333,66.6968931452586L47.88225,78.82405481602137L47.99058333333333,63.596885802654114L48.20725,72.8386164221626L48.31558333333333,81.33498544245958L48.42391666666666,40.02265847875522L48.532250000000005,84.91799866580045L49.07391666666667,66.53050205111504L49.18225,85.49008375979386L49.29058333333333,85.18758216385658L49.61558333333333,50.386343374275235L49.72391666666667,77.60843105270312L49.83225,79.84110484558803L49.94058333333333,66.04730596565282L50.15725,47.702973143412514L51.02391666666667,78.92482527975852L51.13225,73.85888725175307L51.457249999999995,83.21786006425435L51.565583333333336,60.399899410513726L51.67391666666667,59.89657966506022L51.89058333333333,70.69547833387668L52.10725,99.01211812748357L52.32391666666667,67.95262474509386L52.432249999999996,65.94401211921985L52.64891666666667,68.63817329819386L52.86558333333333,53.37421869085385L52.97391666666666,61.041345827854585L53.190583333333336,76.95990901956192L53.73225,69.8660589261697L53.840583333333335,66.62855892743056L53.94891666666666,72.05209452028458L54.05725,94.28392029095156L54.70725,86.30476864140766L54.92391666666666,76.61338136975581L55.14058333333334,117.22448691095298L55.248916666666666,74.9692263591748L55.57391666666667,55.18527200818062L55.68225,76.69628526958135L56.00725,59.66033271528207L56.22391666666667,76.94876302262911L56.33225,78.68263126221986L56.657250000000005,86.35225642128633L56.873916666666666,69.37094334455637L57.41558333333333,98.41661249158474L57.523916666666665,73.45466416844955L57.632250000000006,68.27702524513006L57.74058333333333,82.65439758449793L58.28225,89.07980486979851L58.39058333333333,83.66006069114574L58.60724999999999,89.2286210472767L58.932249999999996,73.32385403834856L59.04058333333333,71.35354864425383L59.14891666666667,85.17639812597862L59.25725,96.43938364547031L59.47391666666667,57.3225010696512L59.690583333333336,84.96684323938993L59.90725,46.57381644845009L60.01558333333333,93.07497905366695L60.123916666666666,89.31418781326367L60.557249999999996,110.62486477712027L60.77391666666667,83.83743293812641L60.99058333333333,81.35159665518081L61.09891666666666,67.15062017853444L61.20725,85.38519219366403L61.315583333333336,84.32993637483852L61.42391666666666,41.53463388520937L61.53225,101.87723531402075L61.64058333333333,57.7566116555379L62.29058333333334,89.07119493587658L62.61558333333333,76.17776182637765L62.72391666666667,96.40401824678366L63.48225,112.16092010186269L63.59058333333333,104.12426322354719L64.02391666666666,73.13092304479616L64.13225,84.37244079090081L64.24058333333333,102.38272339334854L64.34891666666667,86.14989127333348L64.45725,107.16415319247886L64.56558333333334,87.32184403160444L64.67391666666667,92.45170352779901L64.78225,96.73600157522237L64.89058333333332,60.18591909397107L64.99891666666667,90.04730022813266L65.21558333333333,97.61994633766321L65.32391666666666,91.53859404073312L65.54058333333334,90.82280293622843L65.97391666666667,81.56196308193297L66.08225,85.8647870696508L66.40724999999999,98.9774247854948L66.51558333333334,97.31290518893644L66.62391666666667,109.75942059434378L66.73225000000001,117.4438690417088L67.05725,78.47379915358928L67.38225,93.0746620457906L67.49058333333335,79.05926197996506L67.81558333333334,100.34026700659439L67.92391666666667,71.18614312490591L68.35725,97.93969316207445L68.46558333333333,67.80514000069635L68.79058333333333,72.03096911540398L68.89891666666666,94.03092264498656L69.00725,74.01074670484432L69.11558333333333,97.03795791761233L69.22391666666667,80.23012423114135L69.33225,93.11731862563354L69.44058333333332,89.91675638464781L69.54891666666667,82.86156857185638L69.76558333333334,82.4234256457824L69.87391666666667,76.33870038504784L69.98225000000001,115.75010863863504L70.09058333333333,117.40864312648773L70.52391666666666,104.04021809536678L70.63225,102.83005954783695L70.74058333333333,99.54228209990723L70.84891666666667,101.81104406943687L70.95725,95.4437253074004L71.17391666666667,110.32877942060048L71.39058333333332,89.8154153067332L71.60725000000001,108.59052379200092L71.71558333333334,100.3881859171849L72.04058333333333,107.30425799351471L72.14891666666666,113.14612986032779L72.25725,91.34202379676012L72.47391666666667,86.63540785645063L72.69058333333334,89.18574890207785L73.12391666666666,81.31117181078746L73.23225,99.64689469910586L73.55725,78.56297980936674L73.66558333333334,90.62070407489172L73.77391666666666,116.54371883662847L73.88225,77.80630736912673L73.99058333333333,81.82197294212304L74.09891666666667,96.79060301184654L74.20725,105.50890290622527L74.42391666666666,83.78108161802476L74.53224999999999,99.03451156386963L74.64058333333334,89.29859102574679L74.74891666666667,97.8974043113681L74.96558333333334,76.6628345984679L75.29058333333333,108.15112551473653L75.72391666666667,87.58634272332375L76.04891666666667,99.10751213763768L76.15725,112.58309851128323L76.26558333333332,110.46467435703828L76.59058333333333,103.38394838972732L76.80725000000001,131.44116161763668L76.91558333333333,67.9020810092871L77.02391666666666,83.44728500453324L77.13225,96.30466797833259L77.24058333333333,84.87133510640034L77.34891666666667,107.82209669970548L77.45725,127.70438689394638L77.78225,93.87390230366817L77.89058333333334,105.22330417025549L77.99891666666667,93.77243442260301L78.10725000000001,98.1085695979687L78.43225,96.39091948133247L79.19058333333334,115.14368525147438L79.51558333333332,75.90797544328065L79.62391666666666,99.11240673924868L79.84058333333334,80.29216901270242L79.94891666666668,79.27208838783777L80.05725,138.43987130717588L80.16558333333333,111.76577612413809L80.27391666666666,109.69229100644588L80.49058333333333,110.12655375611322L80.59891666666667,125.83164384388006L80.70724999999999,118.41157996539886L80.92391666666667,111.23203630286915L81.03225,126.4503037350682L81.35725,110.76010033717522L81.57391666666666,100.63791204186586L81.79058333333334,76.76671173939339L81.89891666666666,102.58923500432417L82.00725,77.53787777974055L82.65724999999999,134.1790445229182L82.76558333333334,111.86453041778161L82.87391666666667,94.73517466279176L83.30725,105.43288441747427L83.63225,101.87595460220024L83.84891666666667,117.17147051371062L84.17391666666667,102.99339468605244L84.60725,100.20500608590933L85.04058333333333,127.76184140145779L85.14891666666666,120.86845440876024L85.25725,86.97286908099285L85.47391666666667,124.47386106848717L85.69058333333332,83.86672446590202L85.79891666666667,112.9119498019035L85.90725,126.04675270846256L86.12391666666667,113.86310023413255L86.34058333333333,93.05163459365184L86.44891666666666,120.33645179065374L86.55725,96.61437199322077L86.66558333333333,110.97335787575977L86.88225,116.06318561732769L86.99058333333333,119.58459787013439L87.09891666666667,113.11780203649631L87.31558333333334,97.66507557894175L87.64058333333332,117.71747219963714L87.85725000000001,99.1531485915184L88.18225,115.910058132731L88.29058333333333,99.27916556252882L88.50725,97.78694608692939L88.72391666666667,112.66857651506479L88.94058333333334,94.66053832838169L89.15725,122.41708860603663L89.26558333333334,109.25068635436205L89.59058333333333,121.31859291287569L89.80725,112.64764131491L89.91558333333334,100.76522240501183L90.34891666666667,119.3045277515283L90.56558333333334,112.28277792953527L90.78224999999999,123.7672631923969L91.10725000000001,92.42061139528568L91.21558333333334,112.38518415391445L91.32391666666666,110.71911755891946L91.43225,111.75274076026218L91.54058333333333,111.71005881978914L91.64891666666666,119.81175303401855L92.08225,107.12119228507464L92.29891666666667,89.56426898676617L92.40725,112.41540134468904L92.51558333333332,111.66011105878994L92.62391666666666,102.77550883247301L92.73225,112.12513625277921L93.05725000000001,113.02245874760243L93.16558333333333,115.36106389245161L93.27391666666666,127.51427093033607L94.03225,115.84437410074932L94.35725000000001,121.17039807083515L94.89891666666666,97.15475629957822L95.00725,114.79074136225077L95.11558333333333,121.07419252051756L95.44058333333334,109.74365896273119L95.65724999999999,112.4213357321345L95.76558333333332,135.5051899122504L95.87391666666666,123.68995131151034L96.19891666666668,112.57683443564636L96.74058333333333,122.53075495018408L96.95724999999999,124.81387103635532L97.06558333333334,116.8531312042704L97.17391666666667,112.62022647376244L97.28225,124.69747842447116L97.49891666666666,118.33809753965872L97.82391666666666,126.45162248783386L97.93225,131.55387693815504L98.14891666666666,130.42966556606385L98.58225,98.42698498929923L98.69058333333334,126.15557517225926L98.90724999999999,104.75198953999922L99.23225000000001,96.2793707497991L99.44891666666666,123.25312713820202L99.66558333333333,134.61214068360053L99.77391666666666,114.39744871052412L99.88225,127.4891639065284L100.09891666666667,109.86622688804681L100.31558333333334,125.75046446690193L100.42391666666667,117.26472155062052L100.53225,104.56113811811575L100.64058333333332,109.87296013534069L100.74891666666666,115.06121248236069L100.96558333333333,105.60834193688171L101.07391666666668,139.8757267823586L101.18225000000001,124.62328590108797L101.72391666666667,106.38515071742809L101.83225,126.36234038953597L101.94058333333332,121.1952895292869L102.15725,125.5980978012085L102.26558333333334,111.93013836787297L102.37391666666667,111.46543018176004L102.48225000000001,116.0617400614115L103.24058333333333,113.21726642778286L103.56558333333334,110.39287841320038L103.67391666666667,119.13899891880843L103.89058333333332,145.48632238289485L104.43225,115.57910190981167L104.54058333333333,120.81386565245116L104.64891666666666,104.20541723989523L104.97391666666667,106.35315828254589L105.08224999999999,105.06932710455014L105.40725,117.42634484630364L105.51558333333334,114.31534367054701L105.73225,98.14898176204699L105.84058333333333,115.26559380040719L106.05725,131.70081642900522L106.16558333333334,125.52606093138456L106.27391666666666,130.0302229615358L106.38225,129.2531225337432L106.49058333333333,127.31009249733044L107.14058333333334,107.09112725808069L107.24891666666667,126.71693271971667L107.46558333333334,140.18880376105125L107.68225,132.53507971706298L107.89891666666666,117.35944350407674L108.00725,109.85301399976015L108.33225,124.41040877195505L108.44058333333334,121.04312574863434L108.87391666666666,130.27234089718414L108.98225,104.4498049519383L109.09058333333333,117.2036024320584L109.19891666666668,124.33852406591177L109.52391666666666,115.69622997996899L109.84891666666667,119.9210573497873L110.39058333333334,122.57630264185941L110.49891666666667,119.9281202852726L110.71558333333333,122.02978106301563L110.82391666666666,133.46116116642952L110.93225,97.05922280595853L111.14891666666666,108.001294912054L111.25725,113.08404703782155L111.36558333333333,121.06028221490291L111.47391666666667,118.96220996632024L111.90724999999999,135.01845601888803L112.01558333333332,96.27522428677632L112.23225000000001,116.51663368367231L112.34058333333334,118.97691913178333L112.44891666666668,118.29806578503205L112.66558333333333,125.59264526573511L112.77391666666666,107.98118393237775L113.09891666666667,133.95469170866104L113.31558333333334,131.57181958395702L113.85725,135.06577895467098L113.96558333333333,129.9410042648132L114.29058333333334,135.42794143293912L114.61558333333333,109.65749622193667L114.94058333333334,128.11062614734357L115.15724999999999,136.83652155043987L115.48225000000001,127.96865733999473L115.59058333333334,129.64655466893544L116.02391666666666,104.31325063911768L116.13225,132.87453175106873L117.21558333333333,96.68705555911248L117.43225000000001,115.05581066814753L117.54058333333333,113.4307522120384L117.64891666666666,129.77575439902452L117.75725,115.18452854626453L117.97391666666667,144.60450791338315L118.19058333333332,139.01474607048127L118.40725,135.49973737677703L118.73225000000001,132.96974823681208L118.94891666666666,128.9945962704145L119.05725,143.6927171790829L119.38225,129.89373205029045L119.49058333333333,150.15095380005928L119.70725,132.8073641222257L119.92391666666667,138.42776160629896L120.03224999999999,135.4784217671706L120.14058333333332,128.31754352840093L120.35725000000001,143.7327489337096L120.46558333333334,125.41778372113521L120.79058333333333,86.51057015474026L121.22391666666667,135.67241790718757L121.33224999999999,142.34012065254723L121.54891666666667,130.86605860866035L121.76558333333334,109.83926853824121L122.19891666666666,137.99206598103046L122.30725,111.9771569760946L122.41558333333334,128.54873103247238L122.52391666666666,124.42836409807205L122.63225,114.28572245457998L122.74058333333333,140.9047470293366L122.84891666666667,104.72071988307512L123.06558333333334,126.08110368194488L123.49891666666667,118.26758230764133L123.71558333333334,120.75487682681816L123.82391666666666,130.92645494926435L124.14891666666666,123.76049190415785L124.58225,141.21768452456365L124.90725,142.90089490551216L125.12391666666666,130.67806025766407L125.23225,116.00467864366678L125.34058333333333,137.17674708366394L125.77391666666666,127.23794150467103L125.99058333333333,135.53366989986253L126.09891666666667,121.93593405129818L126.20725,137.57968945514696L126.31558333333332,136.9184237053761L126.53225,134.44528041779995L126.64058333333334,121.86318708383119L126.96558333333333,139.93514673870342L127.50725,141.59723171477134L127.72391666666667,138.8554939937133L127.83225,143.25089696164315L128.04891666666668,123.85336253161614L128.15725,134.48748050630093L128.59058333333334,145.0470001875208L128.80724999999998,129.58691914723468L128.91558333333333,127.35461308348638L129.02391666666668,136.65169327820723L129.24058333333335,146.41808461340574L129.45725,129.90813688819225L129.56558333333334,143.04877273967634L129.67391666666666,145.6179567334744L129.89058333333332,139.14200571236702L129.99891666666667,120.06615819495457L130.21558333333334,125.9987703962968L130.32391666666666,139.69439827708098L130.43225,129.66637400136543L130.54058333333333,154.24513588387234L130.64891666666668,136.80975340536008L130.75725,145.76416076605136L131.29891666666666,130.04348657108272L131.51558333333332,136.1644775328728L131.73225,129.25119512585493L131.8405833333333,122.3475497582784L131.94891666666666,130.80327836882608L132.49058333333335,117.94498241234285L132.92391666666666,129.87591620763908L133.14058333333332,128.522064329913L133.24891666666667,144.7403901695059L133.89891666666665,134.9175967929455L134.00725,143.31469162668174L134.11558333333335,129.51768462703777L134.22391666666667,127.44407270619503L134.33225000000002,144.7382471962617L134.76558333333332,149.02338214447866L134.98225,154.038808137465L135.09058333333334,125.30018647932089L135.74058333333332,128.32751025603366L135.84891666666667,128.78983454291637L136.17391666666668,140.81787419089903L136.39058333333335,139.610695517407L136.49891666666667,129.30972746014595L136.60725,138.9156747689614L136.82391666666666,130.01470225590927L137.14891666666668,149.92686727241826L137.25725,131.3109601426583L137.36558333333332,155.42314349258174L137.58225,105.64077818279083L137.69058333333334,121.20961828529835L137.79891666666666,139.6983291747478L137.90724999999998,138.46633512469438L138.01558333333332,139.8244983095389L138.12391666666667,142.0493356677202L138.44891666666666,141.47656583671386L138.55725,138.45515108681644L138.77391666666668,139.63936570974496L138.88225,126.21154608290928L138.99058333333335,112.66760013080561L139.31558333333334,130.69104490027976L139.42391666666666,130.5825521246745L139.53225,138.4842524098662L139.9655833333333,135.50200715317177L140.07391666666666,145.61317625469889L140.18225,142.742999622455L140.72391666666667,137.65624051713024L140.94058333333334,137.19623672790254L141.15725,133.1338695545609L141.26558333333332,159.52433145046234L141.37391666666667,127.57495891818634L141.69891666666666,145.41332180912678L141.80724999999998,136.4208861835874L141.91558333333333,133.0225871096437L142.02391666666665,137.71945188767637L142.13225,138.69157556100535L142.24058333333335,125.00070279836655L142.34891666666667,126.08540230874831L142.45725000000002,142.00007264373394L142.67391666666668,149.7594744333854L142.99891666666667,139.87849109104047L143.21558333333334,147.50866778997275L143.32391666666666,117.31067501237759L143.64891666666665,138.48136129803385L143.75725,132.93631024601368L143.97391666666667,145.00788141557803L144.08225,145.08510453425922L144.19058333333334,135.16805837589962L144.29891666666668,135.1113773676065L144.40725,119.10590329651649L144.62391666666667,137.63410068704533L144.73225,130.40637182730896L144.84058333333334,144.0864409615214L145.16558333333333,130.39947373591934L145.49058333333332,124.00454992800951L145.81558333333334,157.79087532111086L145.92391666666666,144.40797571035532L146.14058333333332,124.07061436944282L146.24891666666667,139.25445474626926L146.35725000000002,140.63678661160742L146.46558333333334,140.10499955885683L146.57391666666666,127.464589455953L146.68225,152.9343526962285L146.89891666666668,142.6152581285972L147.44058333333334,148.1037803361049L147.65725,120.12300404734337L147.87391666666664,146.39726353608646L148.0905833333333,147.06821704655886L148.19891666666666,140.55397147398727L148.84891666666667,141.25161704764915L148.95725000000002,156.72673060143222L149.17391666666666,113.33417893258425L149.28225,149.97775337673153L149.39058333333332,154.61436129762578L149.82391666666666,141.25382342246863L150.04058333333333,163.10080163123516L150.25725,149.64907961052197L150.47391666666667,140.12778608500957L150.58225000000002,136.59823306993795L150.69058333333334,111.46974148887855L151.01558333333332,123.81703342898533L151.12391666666667,128.43959156079933L151.23225,138.19898336208786L151.44891666666666,101.016394085609L151.55724999999998,156.04486567985552L151.88225,146.13126856719072L151.99058333333332,155.7342867232286L152.31558333333334,136.82710007635447L152.42391666666668,122.17088760894077L152.53225,165.17533287491935L152.74891666666667,126.29271277957237L153.18225,141.85305707099346L153.29058333333333,169.42792379454923L153.39891666666668,140.7876696804395L153.61558333333332,142.2413409982736L153.72391666666667,154.84213145679007L154.26558333333332,133.2813542989584L154.48225000000002,144.4577332666287L154.80725,147.34066629581727L154.91558333333333,142.42264414292114L155.24058333333335,134.8551335609876L155.34891666666667,144.0048938554067L155.89058333333332,135.79449130021607L156.10725,155.56216412668044L156.2155833333333,144.24583252175498L156.32391666666666,155.88243084400892L156.43225,149.69958530538358L156.54058333333336,143.01382579138647L156.64891666666668,118.9267558054282L156.75725,155.5514746210896L157.08225000000002,145.678492557544L157.19058333333334,148.33255858031603L157.29891666666666,131.81477442039895L157.40725,143.28789812097182L157.62391666666667,127.93367235075968L157.8405833333333,145.81792530188193L157.94891666666666,130.71301988626902L158.27391666666665,145.18609056335228L158.38225,133.98370426950547L158.70725000000002,140.35405362683994L159.03225,146.10636442842392L159.46558333333334,163.5213506201712L160.00725,139.1659461471897L160.11558333333332,117.23063686375434L160.22391666666667,152.03126699821306L160.65725,150.26364375994754L160.98225,128.28420698012297L161.52391666666668,154.9755220310046L161.84891666666667,136.51409917955215L162.17391666666666,149.3365478853767L162.39058333333332,157.47045644000173L162.49891666666667,157.37329352589754L162.82391666666666,134.41181706637144L163.25725,140.42279361474974L163.69058333333334,153.5671574788598L164.12391666666664,144.0073411562122L164.23225,145.99727567801108L164.77391666666668,170.5391758846549L164.99058333333335,127.14689684258057L165.09891666666667,139.18820010011012L165.31558333333334,145.63274198082777L165.42391666666666,140.04976410647998L165.64058333333332,154.30469532368275L166.39891666666665,139.94792849627825L167.37391666666667,141.7120646479038L167.48225,143.12996479696955L167.69891666666666,122.29761467759425L167.80724999999998,152.26436922985775L168.13225,119.70009017964968L168.24058333333332,120.16775287917027L168.45725,154.54356709867716L168.89058333333335,124.76396131630128L169.10725,145.84880186903936L169.54058333333333,151.33603068441153L169.64891666666668,125.98153784813789L169.75725,141.9003039248861L169.86558333333332,135.58236230967137L169.97391666666667,161.78216932857265L170.40724999999998,160.3582016487534L170.51558333333332,126.50701010399139L170.73225000000002,139.7569629515593L170.84058333333334,135.61777842961823L171.27391666666668,148.14723577579628L171.81558333333334,151.00370498746634L171.92391666666666,137.37584071033274L172.35725,146.93066098884893L172.68225,150.90784180565524L173.00725,133.56352934986353L173.11558333333335,141.2687227926575L173.33225000000002,137.37693121742743L173.44058333333334,144.1618507951498L173.76558333333332,145.657975807786L173.98225,140.22622337077672L174.84891666666667,139.8136946811126L175.17391666666668,134.84734784754423L175.28225,151.45421122071835L175.49891666666667,145.6615262960012L175.71558333333334,169.35743392316195L175.82391666666666,146.44910066402878L176.79891666666668,152.82078145444393L176.90725,134.6425861200461L177.34058333333334,143.6332591817929L177.55725,152.81854971899438L177.66558333333333,139.33369403504406L177.77391666666668,138.13437715688576L177.88225,141.45156025542664L178.20725,144.53135517583442L178.42391666666666,142.36406108736992L178.53224999999998,149.0835502394117L178.64058333333332,153.4886219475705L178.74891666666667,139.99430040843214L178.85725000000002,147.60037182844604L178.96558333333334,147.79942741416968L179.07391666666666,138.40621775102156L179.29058333333333,149.91223418884553L179.39891666666668,153.3749048821628L179.50725,148.86174616848047L179.61558333333335,140.80965734674382L179.72391666666667,135.6304333840425L179.83225,134.29854381199067L179.94058333333334,140.92635428618925L180.04891666666666,136.48261395727212L180.26558333333332,162.06410979364927L181.02391666666668,153.29688924379076L181.34891666666667,147.6451840618482L181.45725000000002,163.3948961782914L181.67391666666666,122.84735705646185L181.78225,138.78447154909372L182.2155833333333,160.3466118407937L182.32391666666666,160.18583812621924L182.43224999999998,164.8671504978377L182.86558333333335,156.60108135955838L182.97391666666667,146.14662442872157L183.08225000000002,160.13549093529582L183.19058333333334,147.54008961067748L183.29891666666668,146.24564500898123L183.51558333333332,149.79809867304104L183.62391666666667,151.78483775544626L184.05724999999998,130.81368890748573L184.16558333333333,149.02842890987029L184.27391666666665,161.18921243599974L184.49058333333332,142.408619714471L184.81558333333334,160.6076488065032L185.24891666666667,147.37055379840044L185.35725,159.33499532622787L185.46558333333334,153.35143995915467L185.68225,141.09701864650617L185.89891666666668,153.56459605521883L186.00725,146.69386878552345L186.76558333333332,143.09787091956687L187.09058333333334,135.27742609324363L187.30725,155.5090843278628L187.95725,153.83350749657703L188.28225,133.93138528959108L188.39058333333332,133.22819841825043L188.7155833333333,156.5857888996028L189.14891666666668,157.4412092933288L189.36558333333335,151.90589672327042L189.47391666666667,155.51094199401828L189.79891666666666,130.5244255604652L189.90725,157.5052195237233L190.01558333333332,159.74662371352315L190.23225,168.14342690001314L190.44891666666666,153.98945635127333L190.99058333333335,160.13226379511448L191.20725000000002,152.32818925552644L191.31558333333334,153.97614202046623L191.42391666666668,165.1838730671085L191.64058333333332,145.63606422337202L191.85725,135.23755918271266L191.96558333333334,153.52898973054613L192.07391666666666,150.65381705417084L192.18224999999998,152.7850990478809L192.50725,157.55513558393488L192.72391666666667,148.05809316096398L192.83225,143.92122913667788L192.94058333333334,136.03010423424152L193.04891666666668,133.07428475412038L193.15725,155.74143842091928L193.48225,157.2726688857835L194.02391666666668,182.77323895148362L194.56558333333334,173.4916541017592L194.67391666666666,137.71122236320605L194.78224999999998,148.49392826969807L195.21558333333334,138.1864044895539L195.32391666666666,152.18707002928625L195.43225,131.01427881133097L196.19058333333334,146.0368763019259L196.29891666666666,148.2328913039886L196.51558333333332,150.5215994090988L196.62391666666664,158.16583223726886L196.8405833333333,166.89688218843477L197.27391666666668,152.2311087634701L197.49058333333335,162.4544162311806L197.70725000000002,149.57503925091947L197.92391666666666,155.5152342806642L198.03225,153.75949883776215L198.4655833333333,157.3176269428088L198.89891666666665,151.99981981687822L199.00725,160.84270380666624L199.11558333333335,158.74729442424498L199.22391666666667,142.49857386946678L199.44058333333334,155.06167843164158L199.54891666666668,117.35254541268715L200.09058333333334,157.60136167246563L200.19891666666666,158.01893078736387L200.41558333333333,154.59613968489262L200.63225,154.4208089686357L200.74058333333332,162.4068650497267L200.84891666666667,150.294761253091L200.95725,137.45313991090427L201.17391666666668,153.38970280983128L201.39058333333335,151.87406913248392L201.82391666666666,142.9418269625077L202.04058333333333,156.54203547250765L202.25725,154.35281711931412L202.58225,161.27188174999677L202.69058333333334,157.3180707538357L203.12391666666667,158.5194545233479L203.44891666666666,156.05701976183516L203.66558333333333,157.37591201095628L203.77391666666668,151.68660335471998L203.88225,146.1133512820189L203.99058333333335,149.98817659570622L204.31558333333334,141.76883441840226L204.42391666666666,161.4206091652696L204.53225,143.16033415152478L204.64058333333332,170.54504053036754L204.74891666666664,150.70528645297657L204.85725,154.06596937231149L205.18225,147.05207500549463L205.29058333333336,156.37805363822443L205.39891666666668,143.56749906792092L205.61558333333335,146.417678843324L205.72391666666667,157.43550315155434L205.83225000000002,164.22484815923067L205.94058333333334,156.14056401757094L206.15725,148.72511577376952L206.37391666666667,151.8933685719967L206.69891666666666,160.89574556453871L206.91558333333333,176.55793814647657L207.02391666666665,157.8999450510511L207.13225,168.91626040178997L207.24058333333335,151.27582454853334L207.89058333333332,146.7092880486296L207.99891666666667,116.8708329240863L208.32391666666666,152.2001434341073L208.43224999999998,160.87295903838597L208.54058333333333,159.3838081990297L208.64891666666665,163.4511397157151L209.19058333333334,152.51039904270036L210.05725,160.8810998006509L210.16558333333333,151.95136833305543L210.27391666666668,163.82327526177352L210.59891666666667,166.76489912919126L210.81558333333334,162.3891189488081L211.14058333333332,153.9018417144051L211.24891666666667,152.8417103144412L211.35725000000002,168.1933429602247L211.46558333333334,156.9541393716175L211.68225,162.11614980663245L211.79058333333333,151.1645674642462L212.11558333333335,166.04094824194908L212.65725,162.77010535477447L212.76558333333332,163.91303921204346L212.98225,162.3868174716257L213.0905833333333,164.39067497935432L213.30725,154.59953800932718L214.06558333333334,148.25719946794786L214.17391666666666,163.21657290768164L214.28225,140.14589357490723L214.60725,169.29249168961096L214.7155833333333,140.93278320592182L215.04058333333333,157.07127378193232L215.14891666666665,141.43030804739547L215.25725,150.51354740903926L215.36558333333335,150.80028737336397L215.58225000000002,162.01028185624344L215.69058333333334,157.7952436896471L215.90725,147.5702180392467L216.12391666666667,153.80538255778643L216.34058333333334,159.3644326776266L216.44891666666666,150.5552402849381L216.77391666666665,162.8910184989755L216.99058333333332,164.30705464172823L217.09891666666667,172.87054056960804L217.20725,153.25885463878512L217.64058333333335,149.76452119877706L217.85725,139.95289917977956L218.29058333333333,139.67068608792928L218.50725,163.46796649379226L218.72391666666667,152.2756673905712L218.83225,148.78684354745425L219.26558333333332,141.50646601961208L219.59058333333334,150.23877766212593L219.69891666666666,148.06475032636752L219.91558333333333,161.39927453519059L220.02391666666668,148.3864625996122L220.24058333333335,146.4173237945025L220.34891666666667,161.98139609854954L220.45725,146.97345705215747L220.67391666666666,166.12750407251028L220.78225,153.46585444189037L220.89058333333332,166.1680113389515L221.54058333333336,165.078360165541L221.64891666666668,168.58215946073716L221.75725,168.68365904258994L221.86558333333335,149.59437673137737L221.97391666666667,166.8848992907084L222.29891666666666,149.9951000477259L222.51558333333332,135.21680150696864L222.8405833333333,165.07037156705672L223.27391666666665,153.18259522404807L223.70725000000002,166.05113053493776L223.81558333333334,130.80291063968951L223.92391666666668,159.35661526339558L224.03225,170.2318938099421L224.46558333333334,164.5640402467778L224.57391666666666,158.39693731929248L224.68224999999998,158.8464671682853L224.79058333333333,167.73524755841265L224.89891666666665,161.23844375919836L225.11558333333332,156.23967336003597L225.33225,165.99197686520907L225.44058333333334,167.85813883176218L225.76558333333335,160.29949179005163L225.87391666666667,151.208352592129L226.09058333333334,152.87374079026856L226.30725,149.6450472703347L226.52391666666668,158.03939047570412L226.63225,151.5479821505455L227.06558333333334,154.82211557947673L227.49891666666667,154.03592336579013L227.71558333333334,137.95793057290408L227.82391666666666,155.77911163694583L228.25725,144.67159946033587L228.47391666666667,148.0006132928225L228.58225,172.22206925772704L228.69058333333334,155.7045767450562L229.01558333333332,144.3468312311631L229.3405833333333,170.04529663375936L229.55725,151.56965280897344L230.20725000000002,175.98608129815412L230.31558333333334,135.56940302768578L230.42391666666666,141.40210702671456L230.64058333333332,145.10394748243002L230.74891666666667,162.72836809777297L231.07391666666666,162.6971047810064L231.39891666666665,171.206566226597L231.50725,175.45937271158283L231.83225000000002,174.09097017233188L231.94058333333334,163.98658503935886L232.04891666666668,141.9289233959638L232.15725,161.8014434074553L232.48225,156.6411194543426L232.69891666666666,173.50066346560533L233.02391666666665,163.78911449301702L233.13225,157.42431277351884L233.34891666666667,170.04736986527075L233.67391666666668,167.97990155707186L234.10725,147.14973879204345L234.21558333333334,173.9667347855866L234.32391666666666,154.47029389813542L234.43225,167.91362789044013L234.54058333333333,160.89765395195437L234.75725,152.5844013613577L234.86558333333332,153.6145945374782L234.97391666666667,162.62133355839896L235.08225,158.83333036188895L235.73225000000002,168.12185768410563L235.94891666666666,142.38635308123554L236.05725,166.68242001992004L236.16558333333333,158.66397841418018L236.27391666666668,148.83538379348244L236.38225,164.99829665628764L236.49058333333335,155.47170909924003L236.59891666666667,154.61849508033347L236.81558333333334,173.3860207371987L237.03225,168.35287400392386L237.14058333333332,153.5593717654164L237.24891666666664,137.52945004690153L237.4655833333333,162.15665707307366L237.57391666666666,151.19404919674764L237.68225,159.29862184249438L237.89891666666668,164.75472048440804L238.22391666666667,155.42743577922766" style="fill: none;" fill="none"></path></g></g></g></g></g></g><g transform="translate(70, 177)" clip-path="url(#clip_1)"><clipPath id="clip_1"><rect width="260" height="23"></rect></clipPath><g><g><line x1="0" y1="0" x2="0" y2="5" style="visibility: inherit;" fill="rgb(0, 0, 0)" stroke="rgb(204, 204, 204)" stroke-width="1px"></line><line x1="21.666666666666664" y1="0" x2="21.666666666666664" y2="5" style="visibility: inherit;" fill="rgb(0, 0, 0)" stroke="rgb(204, 204, 204)" stroke-width="1px"></line><line x1="43.33333333333333" y1="0" x2="43.33333333333333" y2="5" style="visibility: inherit;" fill="rgb(0, 0, 0)" stroke="rgb(204, 204, 204)" stroke-width="1px"></line><line x1="65" y1="0" x2="65" y2="5" style="visibility: inherit;" fill="rgb(0, 0, 0)" stroke="rgb(204, 204, 204)" stroke-width="1px"></line><line x1="86.66666666666666" y1="0" x2="86.66666666666666" y2="5" style="visibility: inherit;" fill="rgb(0, 0, 0)" stroke="rgb(204, 204, 204)" stroke-width="1px"></line><line x1="108.33333333333334" y1="0" x2="108.33333333333334" y2="5" style="visibility: inherit;" fill="rgb(0, 0, 0)" stroke="rgb(204, 204, 204)" stroke-width="1px"></line><line x1="130" y1="0" x2="130" y2="5" style="visibility: inherit;" fill="rgb(0, 0, 0)" stroke="rgb(204, 204, 204)" stroke-width="1px"></line><line x1="151.66666666666669" y1="0" x2="151.66666666666669" y2="5" style="visibility: inherit;" fill="rgb(0, 0, 0)" stroke="rgb(204, 204, 204)" stroke-width="1px"></line><line x1="173.33333333333331" y1="0" x2="173.33333333333331" y2="5" style="visibility: inherit;" fill="rgb(0, 0, 0)" stroke="rgb(204, 204, 204)" stroke-width="1px"></line><line x1="195" y1="0" x2="195" y2="5" style="visibility: inherit;" fill="rgb(0, 0, 0)" stroke="rgb(204, 204, 204)" stroke-width="1px"></line><line x1="216.66666666666669" y1="0" x2="216.66666666666669" y2="5" style="visibility: inherit;" fill="rgb(0, 0, 0)" stroke="rgb(204, 204, 204)" stroke-width="1px"></line><line x1="238.33333333333331" y1="0" x2="238.33333333333331" y2="5" style="visibility: inherit;" fill="rgb(0, 0, 0)" stroke="rgb(204, 204, 204)" stroke-width="1px"></line><line x1="260" y1="0" x2="260" y2="5" style="visibility: inherit;" fill="rgb(0, 0, 0)" stroke="rgb(204, 204, 204)" stroke-width="1px"></line></g><g transform="translate(0, 8)"><text x="0" y="0" dx="0em" dy="0.95em" style="text-anchor: middle; visibility: hidden; font-family: Roboto, sans-serif; font-size: 12px; font-weight: 200;" fill="rgb(33, 33, 33)" stroke="none" stroke-width="1px">-20k</text><text x="21.666666666666664" y="0" dx="0em" dy="0.95em" style="text-anchor: middle; visibility: inherit; font-family: Roboto, sans-serif; font-size: 12px; font-weight: 200;" fill="rgb(33, 33, 33)" stroke="none" stroke-width="1px">0</text><text x="43.33333333333333" y="0" dx="0em" dy="0.95em" style="text-anchor: middle; visibility: hidden; font-family: Roboto, sans-serif; font-size: 12px; font-weight: 200;" fill="rgb(33, 33, 33)" stroke="none" stroke-width="1px">20k</text><text x="65" y="0" dx="0em" dy="0.95em" style="text-anchor: middle; visibility: inherit; font-family: Roboto, sans-serif; font-size: 12px; font-weight: 200;" fill="rgb(33, 33, 33)" stroke="none" stroke-width="1px">40k</text><text x="86.66666666666666" y="0" dx="0em" dy="0.95em" style="text-anchor: middle; visibility: hidden; font-family: Roboto, sans-serif; font-size: 12px; font-weight: 200;" fill="rgb(33, 33, 33)" stroke="none" stroke-width="1px">60k</text><text x="108.33333333333334" y="0" dx="0em" dy="0.95em" style="text-anchor: middle; visibility: inherit; font-family: Roboto, sans-serif; font-size: 12px; font-weight: 200;" fill="rgb(33, 33, 33)" stroke="none" stroke-width="1px">80k</text><text x="130" y="0" dx="0em" dy="0.95em" style="text-anchor: middle; visibility: hidden; font-family: Roboto, sans-serif; font-size: 12px; font-weight: 200;" fill="rgb(33, 33, 33)" stroke="none" stroke-width="1px">100k</text><text x="151.66666666666669" y="0" dx="0em" dy="0.95em" style="text-anchor: middle; visibility: inherit; font-family: Roboto, sans-serif; font-size: 12px; font-weight: 200;" fill="rgb(33, 33, 33)" stroke="none" stroke-width="1px">120k</text><text x="173.33333333333331" y="0" dx="0em" dy="0.95em" style="text-anchor: middle; visibility: hidden; font-family: Roboto, sans-serif; font-size: 12px; font-weight: 200;" fill="rgb(33, 33, 33)" stroke="none" stroke-width="1px">140k</text><text x="195" y="0" dx="0em" dy="0.95em" style="text-anchor: middle; visibility: inherit; font-family: Roboto, sans-serif; font-size: 12px; font-weight: 200;" fill="rgb(33, 33, 33)" stroke="none" stroke-width="1px">160k</text><text x="216.66666666666669" y="0" dx="0em" dy="0.95em" style="text-anchor: middle; visibility: hidden; font-family: Roboto, sans-serif; font-size: 12px; font-weight: 200;" fill="rgb(33, 33, 33)" stroke="none" stroke-width="1px">180k</text><text x="238.33333333333331" y="0" dx="0em" dy="0.95em" style="text-anchor: middle; visibility: inherit; font-family: Roboto, sans-serif; font-size: 12px; font-weight: 200;" fill="rgb(33, 33, 33)" stroke="none" stroke-width="1px">200k</text><text x="260" y="0" dx="0em" dy="0.95em" style="text-anchor: middle; visibility: hidden; font-family: Roboto, sans-serif; font-size: 12px; font-weight: 200;" fill="rgb(33, 33, 33)" stroke="none" stroke-width="1px">220k</text></g><line x1="0" y1="0" x2="260" y2="0" fill="rgb(0, 0, 0)" stroke="rgb(204, 204, 204)" stroke-width="1px"></line></g></g></g></g></svg>